<svg width="121" height="187" viewBox="0 0 121 187" fill="none" xmlns="http://www.w3.org/2000/svg">
<g filter="url(#filter0_d_59_5889)">
<path d="M109.97 0.62793H10.7566C5.17035 0.62793 0.641785 5.14174 0.641785 10.7098V172.02C0.641785 177.588 5.17035 182.102 10.7566 182.102H109.97C115.556 182.102 120.085 177.588 120.085 172.02V10.7098C120.085 5.14174 115.556 0.62793 109.97 0.62793Z" fill="white"/>
<path d="M59.3371 26.1685C59.3371 26.9283 59.6303 28.0095 59.6303 28.7401C59.6303 29.4999 59.6303 30.2597 59.5424 31.0195C59.2492 33.6203 58.3403 36.075 56.376 37.7992C58.1351 37.9161 62.5622 37.9161 64.3213 37.7992C62.3862 36.075 61.4481 33.5911 61.1549 31.0195C61.0669 30.2597 61.0669 29.4999 61.0669 28.7401C61.0669 27.9803 61.3601 26.899 61.3601 26.1685H59.3078H59.3371Z" fill="#0C0A35"/>
<path d="M59.8647 28.039C59.1318 28.1559 58.692 28.8572 57.3433 30.3184C56.112 31.6334 54.9099 33.0361 52.154 33.3868C50.7467 33.5621 48.8997 32.8023 48.0494 31.6919C47.3458 30.7275 46.9353 29.5878 46.6422 28.4189C46.0851 26.2564 46.2903 24.0939 47.3458 22.136C48.4012 20.1781 51.2744 19.3014 53.0629 20.3826C54.001 20.9379 54.3236 21.6392 55.2031 21.7853C55.467 21.8438 55.7015 21.5808 55.6136 21.3178C55.2617 20.0027 54.3236 19.8274 53.8838 18.2493C53.3561 16.3791 53.0629 14.9472 55.7602 12.5801C57.8124 10.7975 62.7672 10.9436 64.9368 12.5801C67.1357 14.2458 67.3409 15.7654 66.8132 17.6064C66.4027 19.0676 65.5525 19.7397 65.1713 20.9963C65.0541 21.4054 65.4352 21.8145 65.8457 21.6684C66.4907 21.4054 66.8132 20.821 67.6341 20.3534C69.3932 19.3014 72.2664 20.1488 73.3512 22.1068C74.4359 24.0647 74.6412 26.2272 74.0548 28.3897C73.7616 29.5586 73.3511 30.6983 72.6475 31.6626C71.7973 32.8023 69.9209 33.5329 68.543 33.3576C65.787 33.0069 64.585 31.6334 63.3536 30.2892C62.005 28.828 61.5945 28.1267 60.8322 28.0098H59.8647V28.039Z" fill="#0C0A35"/>
<path d="M16.2685 34.7312C16.2685 35.0234 16.1512 35.4325 16.1512 35.754C16.1512 36.0462 16.1512 36.3385 16.1805 36.6599C16.2978 37.6827 16.6496 38.6471 17.4119 39.3192C16.7376 39.3484 14.9785 39.3484 14.3042 39.3192C15.0664 38.6471 15.4183 37.6827 15.5355 36.6599C15.5649 36.3677 15.5648 36.0754 15.5648 35.754C15.5648 35.4618 15.4476 35.0234 15.4476 34.7312H16.2392H16.2685Z" fill="#0C0A35"/>
<path d="M16.0633 35.4911C16.3565 35.5496 16.5324 35.8126 17.0601 36.3678C17.5292 36.8938 17.9983 37.4198 19.0831 37.566C19.6401 37.6244 20.3731 37.3322 20.6956 36.8938C20.9888 36.5139 21.1354 36.0756 21.2527 35.608C21.4872 34.7606 21.3993 33.9131 20.9888 33.1533C20.5783 32.3935 19.4349 32.0428 18.7606 32.452C18.3795 32.6857 18.2622 32.9488 17.9397 33.0072C17.8224 33.0072 17.7345 32.9195 17.7638 32.8318C17.9104 32.3058 18.2622 32.2474 18.4381 31.6337C18.6433 30.9032 18.7606 30.3479 17.7051 29.4128C16.9135 28.7114 14.9492 28.7699 14.1283 29.4128C13.2781 30.0557 13.1901 30.6401 13.3953 31.3707C13.5419 31.9552 13.8937 32.2182 14.0403 32.6857C14.099 32.8611 13.9231 33.0072 13.7765 32.9487C13.5419 32.8611 13.3953 32.6273 13.0728 32.4227C12.3692 32.0136 11.2551 32.3351 10.8446 33.1241C10.4342 33.8839 10.3462 34.7313 10.5808 35.5788C10.698 36.0171 10.8446 36.4847 11.1378 36.8646C11.4603 37.303 12.1933 37.5952 12.7503 37.5367C13.8351 37.4198 14.3042 36.8646 14.7733 36.3386C15.301 35.7834 15.4769 35.4911 15.7701 35.4619H16.1513L16.0633 35.4911Z" fill="#0C0A35"/>
<path d="M21.8096 24.1525V25.9058H9.84767V24.1525C14.5679 20.6165 17.3825 18.3079 18.2914 17.1682C19.2002 16.0577 19.64 14.9473 19.64 13.8368C19.64 12.814 19.2589 11.9958 18.4966 11.3529C17.7343 10.71 16.8548 10.4177 15.8579 10.4177C14.8611 10.4177 13.9229 10.7684 13.1313 11.4697C12.3397 12.1711 11.9 13.1062 11.812 14.3044L9.84767 13.7199C10.6686 10.4177 12.6916 8.78125 15.8873 8.78125C17.617 8.78125 19.0243 9.27804 20.1091 10.2716C21.1939 11.2652 21.7509 12.4633 21.7509 13.866C21.7509 14.8304 21.4871 15.7947 20.9887 16.6714C20.4609 17.5773 19.4934 18.6586 18.0568 19.9152C16.6202 21.1717 14.7732 22.6037 12.4863 24.1817H21.7802L21.8096 24.1525Z" fill="#0C0A35"/>
<path d="M104.429 147.999C104.429 147.707 104.546 147.297 104.546 146.976C104.546 146.684 104.546 146.392 104.517 146.07C104.4 145.047 104.048 144.083 103.285 143.411C103.96 143.382 105.719 143.382 106.393 143.411C105.631 144.083 105.279 145.047 105.162 146.07C105.132 146.362 105.132 146.655 105.132 146.976C105.132 147.297 105.25 147.707 105.25 147.999H104.458H104.429Z" fill="#0C0A35"/>
<path d="M104.634 147.239C104.341 147.181 104.194 146.918 103.666 146.334C103.197 145.807 102.728 145.281 101.644 145.135C101.086 145.077 100.354 145.369 100.031 145.807C99.7378 146.187 99.5912 146.626 99.474 147.093C99.2394 147.941 99.3274 148.788 99.7671 149.548C100.178 150.308 101.292 150.658 101.995 150.249C102.376 150.016 102.494 149.753 102.816 149.694C102.934 149.694 103.021 149.782 102.992 149.869C102.846 150.395 102.494 150.454 102.318 151.068C102.113 151.798 101.995 152.353 103.051 153.289C103.842 153.99 105.807 153.931 106.628 153.289C107.478 152.646 107.566 152.061 107.361 151.331C107.214 150.746 106.862 150.483 106.716 150.016C106.657 149.84 106.833 149.694 106.979 149.753C107.214 149.84 107.361 150.074 107.683 150.279C108.387 150.688 109.501 150.366 109.911 149.577C110.322 148.817 110.41 147.97 110.175 147.123C110.058 146.684 109.911 146.217 109.618 145.837C109.296 145.398 108.563 145.106 108.006 145.165C106.921 145.311 106.452 145.837 105.983 146.363C105.455 146.947 105.279 147.21 104.986 147.269H104.605L104.634 147.239Z" fill="#0C0A35"/>
<path d="M98.9753 158.578V156.824H110.937V158.578C106.217 162.114 103.402 164.422 102.494 165.562C101.585 166.672 101.116 167.783 101.116 168.893C101.116 169.916 101.497 170.734 102.259 171.377C103.021 172.02 103.901 172.312 104.898 172.312C105.894 172.312 106.833 171.962 107.624 171.26C108.416 170.559 108.856 169.624 108.973 168.426L110.937 169.01C110.116 172.312 108.093 173.949 104.898 173.949C103.168 173.949 101.761 173.452 100.676 172.458C99.591 171.465 99.034 170.267 99.034 168.864C99.034 167.9 99.2978 166.935 99.7963 166.059C100.324 165.153 101.291 164.071 102.728 162.815C104.165 161.558 106.012 160.126 108.299 158.548H99.0047L98.9753 158.578Z" fill="#0C0A35"/>
<path d="M61.3897 156.59C61.3897 155.831 61.0965 154.749 61.0965 154.019C61.0965 153.259 61.0965 152.499 61.1845 151.739C61.4776 149.139 62.3865 146.684 64.3509 144.96C62.5918 144.843 58.1647 144.843 56.4056 144.96C58.3406 146.684 59.2788 149.168 59.5719 151.739C59.6599 152.499 59.6599 153.259 59.6599 154.019C59.6599 154.779 59.3667 155.86 59.3667 156.59H61.419H61.3897Z" fill="#0C0A35"/>
<path d="M60.8619 154.691C61.5949 154.574 62.0347 153.873 63.3833 152.411C64.6147 151.096 65.8167 149.694 68.5727 149.343C69.9799 149.168 71.827 149.927 72.6772 151.038C73.3809 152.002 73.7913 153.142 74.0845 154.311C74.6416 156.473 74.4363 158.636 73.3809 160.594C72.3254 162.552 69.4522 163.428 67.6638 162.347C66.7256 161.792 66.4031 161.091 65.5236 160.945C65.2597 160.886 65.0251 161.149 65.1131 161.412C65.4649 162.727 66.4031 162.902 66.8429 164.48C67.3706 166.351 67.6638 167.783 64.9958 170.15C62.9436 171.932 57.9887 171.786 55.8192 170.15C53.6203 168.484 53.4151 166.964 53.9428 165.123C54.3533 163.662 55.2035 162.99 55.5846 161.734C55.7312 161.324 55.3208 160.915 54.9103 161.061C54.2653 161.324 53.9428 161.909 53.1219 162.376C51.3335 163.428 48.4896 162.581 47.4048 160.623C46.3201 158.665 46.1148 156.503 46.7012 154.34C46.9944 153.2 47.4048 152.032 48.1085 151.067C48.9587 149.957 50.8058 149.197 52.213 149.372C54.969 149.723 56.171 151.096 57.4024 152.441C58.751 153.902 59.1615 154.603 59.9238 154.72H60.8913L60.8619 154.691Z" fill="#0C0A35"/>
</g>
<defs>
<filter id="filter0_d_59_5889" x="0.641785" y="0.62793" width="119.443" height="185.474" filterUnits="userSpaceOnUse" color-interpolation-filters="sRGB">
<feFlood flood-opacity="0" result="BackgroundImageFix"/>
<feColorMatrix in="SourceAlpha" type="matrix" values="0 0 0 0 0 0 0 0 0 0 0 0 0 0 0 0 0 0 127 0" result="hardAlpha"/>
<feOffset dy="4"/>
<feComposite in2="hardAlpha" operator="out"/>
<feColorMatrix type="matrix" values="0 0 0 0 0 0 0 0 0 0 0 0 0 0 0 0 0 0 0.25 0"/>
<feBlend mode="normal" in2="BackgroundImageFix" result="effect1_dropShadow_59_5889"/>
<feBlend mode="normal" in="SourceGraphic" in2="effect1_dropShadow_59_5889" result="shape"/>
</filter>
</defs>
</svg>
