<svg width="121" height="186" viewBox="0 0 121 186" fill="none" xmlns="http://www.w3.org/2000/svg">
<g filter="url(#filter0_d_59_6267)">
<path d="M10.7826 0.33374H110.025C115.596 0.33374 120.14 4.86332 120.14 10.4157V171.726C120.14 177.278 115.596 181.808 110.025 181.808H10.7826C5.2121 181.808 0.667725 177.278 0.667725 171.726V10.4157C0.667725 4.86332 5.2121 0.33374 10.7826 0.33374Z" fill="white"/>
<path d="M16.148 37.2131C16.6464 36.7747 17.1741 36.424 17.7019 36.0441C18.2882 35.6058 18.9039 35.2259 19.373 34.6999C19.7542 34.2616 19.9301 33.794 20.1353 33.2388C20.3112 32.6835 20.3406 31.4854 20.0474 30.9594C19.1385 29.4982 16.6171 28.2416 14.9459 31.4269C14.9459 31.4854 14.8874 31.5146 14.8287 31.5146C14.8287 31.5146 14.7407 31.5146 14.7114 31.4269C13.0403 28.2416 10.5189 29.4982 9.61007 30.9594C9.28756 31.4562 9.31686 32.6543 9.49277 33.2388C9.66868 33.794 9.87393 34.2323 10.2551 34.6999C10.7242 35.2551 11.3398 35.635 11.9261 36.0441C12.4539 36.424 13.0109 36.7747 13.48 37.2131C13.7146 37.4469 14.8287 38.6158 14.8287 38.6158C14.8287 38.6158 15.9135 37.4469 16.1773 37.2131H16.148Z" fill="#D6002B"/>
<path d="M104.748 145.162C104.249 145.6 103.722 145.951 103.194 146.331C102.608 146.769 101.992 147.149 101.523 147.675C101.142 148.113 100.966 148.581 100.761 149.136C100.585 149.691 100.555 150.919 100.878 151.415C101.787 152.877 104.308 154.133 105.979 150.948C105.979 150.889 106.038 150.86 106.097 150.86C106.097 150.86 106.184 150.86 106.214 150.948C107.885 154.133 110.406 152.877 111.315 151.415C111.638 150.919 111.608 149.72 111.403 149.136C111.227 148.581 111.051 148.142 110.641 147.675C110.172 147.12 109.556 146.74 108.97 146.331C108.442 145.951 107.885 145.6 107.416 145.162C107.181 144.928 106.067 143.759 106.067 143.759C106.067 143.759 104.982 144.928 104.719 145.162H104.748Z" fill="#D6002B"/>
<path d="M12.3364 24.034V25.5829H6.00367V24.034H8.31985V11.0591C6.82461 12.6079 5.27069 13.8061 3.6875 14.6827V12.5787C5.88638 11.4098 7.61619 10.0363 8.84756 8.45825H10.3721V24.034H12.3658H12.3364Z" fill="#D6002B"/>
<path d="M19.6369 25.9626C17.7018 25.9626 16.148 25.1151 14.9753 23.4494C13.8025 21.7837 13.2455 19.6796 13.2455 17.1957C13.2455 14.7118 13.8025 12.6954 14.8873 11.0005C15.9721 9.30555 17.5553 8.4873 19.5783 8.4873C21.6012 8.4873 23.2723 9.36397 24.3864 11.1173C25.4712 12.8707 26.0282 14.9455 26.0282 17.3126C26.0282 19.6796 25.4713 21.6376 24.3572 23.3909C23.2431 25.1151 21.6892 25.9918 19.6662 25.9918L19.6369 25.9626ZM19.6369 24.2969C21.0735 24.2969 22.129 23.654 22.8033 22.3682C23.4776 21.0824 23.8294 19.4751 23.8294 17.5172C23.8294 15.3839 23.4776 13.6305 22.7739 12.1986C22.0703 10.7959 20.9855 10.0946 19.5489 10.0946C18.1123 10.0946 17.0861 10.7374 16.4118 12.0232C15.7375 13.3091 15.3858 15.004 15.3858 17.108C15.3858 19.2121 15.7376 21.0239 16.4705 22.3389C17.2035 23.6247 18.2589 24.2969 19.6662 24.2969H19.6369Z" fill="#D6002B"/>
<path d="M108.442 158.078V156.5H114.775V158.078H112.458V171.053C113.954 169.504 115.508 168.277 117.091 167.429V169.533C114.863 170.673 113.162 172.076 111.931 173.654H110.406V158.078H108.412H108.442Z" fill="#D6002B"/>
<path d="M101.141 156.179C103.076 156.179 104.63 157.026 105.803 158.692C106.976 160.357 107.533 162.462 107.533 164.945C107.533 167.429 106.976 169.446 105.891 171.141C104.806 172.836 103.223 173.654 101.2 173.654C99.177 173.654 97.5058 172.777 96.3917 171.024C95.3069 169.27 94.7499 167.196 94.7499 164.829C94.7499 162.462 95.3069 160.504 96.421 158.75C97.5351 157.026 99.1183 156.149 101.112 156.149L101.141 156.179ZM101.141 157.844C99.7047 157.844 98.6786 158.487 97.9749 159.773C97.3006 161.059 96.9488 162.666 96.9488 164.624C96.9488 166.757 97.3006 168.511 98.0043 169.913C98.7079 171.316 99.7927 172.017 101.229 172.017C102.666 172.017 103.692 171.375 104.366 170.089C105.041 168.803 105.392 167.108 105.392 165.004C105.392 162.9 105.041 161.088 104.308 159.773C103.575 158.458 102.519 157.815 101.112 157.815L101.141 157.844Z" fill="#D6002B"/>
<path d="M47.3426 34.9918C48.7205 33.7352 50.2451 32.8001 51.7403 31.6896C53.3821 30.4915 55.1119 29.4102 56.4313 27.8614C57.516 26.6048 58.0145 25.3483 58.5422 23.7702C59.0699 22.1922 59.1285 18.8024 58.249 17.3997C55.6983 13.3377 48.574 9.77248 43.883 18.7439C43.8244 18.8608 43.6777 18.9485 43.5605 18.9485C43.5605 18.9485 43.2966 18.8608 43.2087 18.7439C38.5177 9.77248 31.3934 13.3377 28.8427 17.3997C27.9632 18.8024 28.0218 22.1922 28.5495 23.7702C29.0772 25.3483 29.5756 26.6048 30.6604 27.8614C31.9798 29.4102 33.7096 30.4623 35.3514 31.6896C36.8466 32.8001 38.3712 33.7644 39.7491 34.9918C40.4528 35.6055 43.5311 38.9077 43.5311 38.9077C43.5311 38.9077 46.6096 35.6055 47.3132 34.9918H47.3426Z" fill="#D6002B"/>
<path d="M81 34.9918C82.3779 33.7352 83.9025 32.8001 85.3977 31.6896C87.0396 30.4915 88.7694 29.4102 90.0887 27.8614C91.1735 26.6048 91.6719 25.3483 92.1996 23.7702C92.7273 22.1922 92.786 18.8024 91.9064 17.3997C89.3557 13.3377 82.2314 9.77248 77.5404 18.7439C77.4818 18.8608 77.3353 18.9485 77.218 18.9485C77.218 18.9485 76.9541 18.8608 76.8954 18.7439C72.2045 9.77248 65.0802 13.3377 62.5295 17.3997C61.6499 18.8024 61.7085 22.1922 62.2363 23.7702C62.764 25.3483 63.2624 26.6048 64.3472 27.8614C65.6665 29.4102 67.3963 30.4623 69.0381 31.6896C70.5334 32.8001 72.0579 33.7644 73.4359 34.9918C74.1395 35.6055 77.218 38.9077 77.218 38.9077C77.218 38.9077 80.2963 35.6055 81 34.9918V34.9918Z" fill="#D6002B"/>
<path d="M47.3426 84.8461C48.7205 83.6187 50.2451 82.6544 51.7403 81.5439C53.3821 80.3458 55.1119 79.2645 56.4313 77.7157C57.516 76.4299 58.0145 75.2025 58.5422 73.6245C59.0699 72.0464 59.1285 68.6566 58.249 67.2539C55.6983 63.1919 48.574 59.6267 43.883 68.5981C43.8244 68.715 43.6777 68.8027 43.5605 68.8027C43.5605 68.8027 43.2966 68.715 43.2087 68.5981C38.5177 59.6267 31.3934 63.1919 28.8427 67.2539C27.9632 68.6566 28.0218 72.0464 28.5495 73.6245C29.0772 75.2025 29.5756 76.4591 30.6604 77.7157C31.9798 79.2645 33.7096 80.3165 35.3514 81.5439C36.8466 82.6544 38.3712 83.6187 39.7491 84.8461C40.4528 85.4597 43.5311 88.7912 43.5311 88.7912C43.5311 88.7912 46.6096 85.489 47.3132 84.8461H47.3426Z" fill="#D6002B"/>
<path d="M81 84.8461C82.3779 83.6187 83.9025 82.6544 85.3977 81.5439C87.0396 80.3458 88.7694 79.2645 90.0887 77.7157C91.1735 76.4299 91.6719 75.2025 92.1996 73.6245C92.7273 72.0464 92.786 68.6566 91.9064 67.2539C89.3557 63.1919 82.2314 59.6267 77.5404 68.5981C77.4818 68.715 77.3353 68.8027 77.218 68.8027C77.218 68.8027 76.9541 68.715 76.8954 68.5981C72.2045 59.6267 65.0802 63.1919 62.5295 67.2539C61.6499 68.6566 61.7085 72.0464 62.2363 73.6245C62.764 75.2025 63.2624 76.4591 64.3472 77.7157C65.6665 79.2645 67.3963 80.3165 69.0381 81.5439C70.5334 82.6544 72.0579 83.6187 73.4359 84.8461C74.1395 85.4597 77.218 88.7912 77.218 88.7912C77.218 88.7912 80.2963 85.489 81 84.8461V84.8461Z" fill="#D6002B"/>
<path d="M64.1711 59.0421C65.5491 57.8148 67.0736 56.8504 68.5689 55.7399C70.2107 54.5418 71.9405 53.4606 73.2598 51.9118C74.3446 50.6552 74.843 49.3986 75.3708 47.8205C75.8985 46.2425 75.9864 42.8527 75.0776 41.45C72.5269 37.388 65.4025 33.8228 60.7116 42.7942C60.6529 42.9111 60.5063 42.9988 60.389 42.9988C60.389 42.9988 60.1252 42.9111 60.0372 42.7942C55.3463 33.8228 48.2513 37.388 45.7006 41.45C44.8211 42.8527 44.8797 46.2425 45.4074 47.8205C45.9351 49.3986 46.4336 50.6552 47.5183 51.9118C48.8377 53.4606 50.5675 54.5418 52.2093 55.7399C53.7045 56.8504 55.2291 57.8148 56.607 59.0421C57.3107 59.6558 60.389 62.958 60.389 62.958C60.389 62.958 63.4675 59.6558 64.1711 59.0421V59.0421Z" fill="#D6002B"/>
<path d="M73.4359 147.675C72.0579 148.932 70.5334 149.867 69.0381 150.977C67.3963 152.175 65.6665 153.257 64.3472 154.805C63.2624 156.062 62.764 157.319 62.2363 158.897C61.7085 160.475 61.6499 163.865 62.5295 165.267C65.0802 169.329 72.2045 172.894 76.8954 163.923C76.9541 163.806 77.1007 163.718 77.218 163.718C77.218 163.718 77.4818 163.806 77.5404 163.923C82.2314 172.894 89.3557 169.329 91.9064 165.267C92.786 163.865 92.7273 160.475 92.1996 158.897C91.6719 157.319 91.1735 156.062 90.0887 154.805C88.7694 153.257 87.0396 152.205 85.3977 150.977C83.9025 149.867 82.3779 148.902 81 147.675C80.2963 147.061 77.218 143.73 77.218 143.73C77.218 143.73 74.1395 147.032 73.4359 147.675V147.675Z" fill="#D6002B"/>
<path d="M39.7784 147.675C38.4004 148.932 36.8759 149.867 35.3806 150.977C33.7681 152.175 32.0091 153.257 30.6898 154.805C29.605 156.062 29.1066 157.319 28.5788 158.897C28.0511 160.475 27.9924 163.865 28.872 165.267C31.4226 169.329 38.5471 172.894 43.238 163.923C43.2966 163.806 43.4432 163.718 43.5898 163.718C43.5898 163.718 43.8536 163.806 43.9123 163.923C48.6032 172.894 55.7275 169.329 58.2782 165.267C59.1578 163.865 59.0992 160.475 58.5714 158.897C58.0437 157.319 57.5453 156.062 56.4605 154.805C55.1412 153.257 53.4114 152.205 51.7696 150.977C50.2743 149.867 48.7498 148.902 47.3718 147.675C46.6682 147.061 43.5898 143.73 43.5898 143.73C43.5898 143.73 40.5114 147.032 39.8077 147.675H39.7784Z" fill="#D6002B"/>
<path d="M73.4359 97.851C72.0579 99.1075 70.5334 100.043 69.0381 101.153C67.3963 102.351 65.6665 103.432 64.3472 104.981C63.2624 106.238 62.764 107.494 62.2363 109.073C61.7085 110.651 61.6499 114.04 62.5295 115.443C65.0802 119.505 72.2045 123.07 76.8954 114.128C76.9541 114.011 77.1007 113.924 77.218 113.924C77.218 113.924 77.4818 114.011 77.5404 114.128C82.2314 123.099 89.3557 119.534 91.9064 115.443C92.786 114.04 92.7273 110.651 92.1996 109.073C91.6719 107.494 91.1735 106.238 90.0887 104.981C88.7694 103.432 87.0396 102.38 85.3977 101.153C83.9025 100.043 82.3779 99.0783 81 97.851C80.2963 97.2373 77.218 93.9351 77.218 93.9351C77.218 93.9351 74.1395 97.2373 73.4359 97.851V97.851Z" fill="#D6002B"/>
<path d="M39.7784 97.851C38.4004 99.1075 36.8759 100.043 35.3806 101.153C33.7681 102.351 32.0091 103.432 30.6898 104.981C29.605 106.238 29.1066 107.494 28.5788 109.073C28.0511 110.651 27.9924 114.04 28.872 115.443C31.4226 119.505 38.5471 123.07 43.238 114.128C43.2966 114.011 43.4432 113.924 43.5898 113.924C43.5898 113.924 43.8536 114.011 43.9123 114.128C48.6032 123.099 55.7275 119.534 58.2782 115.443C59.1578 114.04 59.0992 110.651 58.5714 109.073C58.0437 107.494 57.5453 106.238 56.4605 104.981C55.1412 103.432 53.4114 102.38 51.7696 101.153C50.2743 100.043 48.7498 99.0783 47.3718 97.851C46.6682 97.2373 43.5898 93.9351 43.5898 93.9351C43.5898 93.9351 40.5114 97.2373 39.8077 97.851H39.7784Z" fill="#D6002B"/>
<path d="M56.607 124.18C55.2291 125.407 53.7045 126.372 52.2093 127.482C50.5675 128.68 48.8377 129.762 47.5183 131.31C46.4336 132.596 45.9351 133.824 45.4074 135.402C44.8797 136.98 44.8211 140.369 45.7006 141.772C48.2513 145.834 55.3756 149.399 60.0372 140.428C60.0959 140.311 60.2424 140.223 60.389 140.223C60.389 140.223 60.6529 140.311 60.7116 140.428C65.4025 149.399 72.5269 145.834 75.0776 141.772C75.9571 140.369 75.8985 136.98 75.3708 135.402C74.843 133.824 74.3446 132.567 73.2598 131.31C71.9405 129.762 70.2107 128.71 68.5689 127.482C67.0736 126.372 65.5491 125.407 64.1711 124.18C63.4675 123.566 60.389 120.264 60.389 120.264C60.389 120.264 57.3107 123.566 56.607 124.18V124.18Z" fill="#D6002B"/>
</g>
<defs>
<filter id="filter0_d_59_6267" x="0.667725" y="0.33374" width="119.472" height="185.474" filterUnits="userSpaceOnUse" color-interpolation-filters="sRGB">
<feFlood flood-opacity="0" result="BackgroundImageFix"/>
<feColorMatrix in="SourceAlpha" type="matrix" values="0 0 0 0 0 0 0 0 0 0 0 0 0 0 0 0 0 0 127 0" result="hardAlpha"/>
<feOffset dy="4"/>
<feComposite in2="hardAlpha" operator="out"/>
<feColorMatrix type="matrix" values="0 0 0 0 0 0 0 0 0 0 0 0 0 0 0 0 0 0 0.25 0"/>
<feBlend mode="normal" in2="BackgroundImageFix" result="effect1_dropShadow_59_6267"/>
<feBlend mode="normal" in="SourceGraphic" in2="effect1_dropShadow_59_6267" result="shape"/>
</filter>
</defs>
</svg>
