<svg width="121" height="186" viewBox="0 0 121 186" fill="none" xmlns="http://www.w3.org/2000/svg">
<g filter="url(#filter0_d_59_7069)">
<path d="M10.5104 0.33374H109.753C115.324 0.33374 119.868 4.86332 119.868 10.4157V171.726C119.868 177.278 115.324 181.808 109.753 181.808H10.5104C4.93992 181.808 0.39563 177.278 0.39563 171.726V10.4157C0.39563 4.86332 4.93992 0.33374 10.5104 0.33374Z" fill="white"/>
<path d="M92.1036 113.25C92.1915 113.63 91.0482 114.594 90.6964 114.77C88.2043 115.792 79.526 116.318 76.9167 116.961C74.3074 117.604 70.8771 119.153 69.7923 121.608C69.0008 123.42 69.206 125.494 69.7923 127.365C69.9683 127.92 70.1735 128.475 70.1442 129.06C70.1442 129.702 69.8509 130.316 69.4991 130.871C68.5022 132.449 66.9484 133.589 65.3652 134.583C62.668 136.248 59.5896 137.534 56.4232 137.213C55.1918 137.096 53.9603 136.716 53.0222 135.927C50.9405 134.232 50.6768 131.251 50.5302 128.563C50.3836 125.903 50.9112 121.432 48.5951 120.117C46.4255 118.861 31.6491 116.698 39.8289 116.523C40.1807 116.523 45.8099 116.231 45.9859 115.938C47.7743 113.075 51.5562 114.331 53.9017 111.876C55.6608 110.035 57.6545 108.282 60.0586 107.405C62.4334 106.529 65.0721 106.558 67.5935 106.587C69.0008 106.587 70.408 106.646 71.7566 107.055C75.1282 108.107 77.3857 111.409 80.6987 112.607C81.9301 113.075 92.0743 113.045 92.1036 113.221V113.25Z" fill="#FFD6A1"/>
<path d="M22.619 75.2609C23.8211 79.469 24.1729 83.794 23.7038 88.0605C23.6159 88.9372 23.4692 89.8139 23.1174 90.6614C22.1206 93.0869 19.5407 95.0156 18.4852 97.4119C17.635 99.3698 17.8695 101.532 19.1595 103.344C20.4495 105.156 22.7364 106.617 25.463 107.289C25.7562 107.377 26.0787 107.435 26.3425 107.581C26.753 107.815 26.8996 108.195 27.0461 108.546C27.5739 109.919 27.955 110.387 28.4827 111.76C28.9518 112.988 29.8314 113.981 30.6816 115.121C31.5318 116.261 32.8219 116.991 34.3757 117.634C37.0437 118.745 39.3598 119.066 42.3796 118.54C44.4905 118.189 46.1323 117.868 48.038 117.137C49.9144 116.407 58.2409 112.579 59.8827 111.497C63.8407 108.896 70.5253 108.809 74.7472 111.205C76.5649 112.257 77.9136 113.66 79.8779 114.566C82.3113 115.676 84.3342 116.407 87.266 116.378C90.7256 116.378 94.068 114.741 94.9182 114.244C97.7621 112.608 98.8174 111.205 99.7263 108.692C100.606 106.266 101.485 103.87 102.365 101.445C102.951 99.8666 103.508 98.2593 103.772 96.6521C103.977 95.3078 103.977 93.9636 103.977 92.6193C103.977 87.7975 103.978 82.9758 103.274 78.1832C103.186 77.5695 103.069 76.9266 102.6 76.4006C102.131 75.8746 101.192 75.5239 100.371 75.7285C96.5307 76.6929 91.6931 76.4883 87.6471 76.8974C82.4285 77.4234 77.1218 77.1897 71.8739 76.9266C66.1568 76.6636 60.4104 76.4006 54.6933 76.1669C49.3574 75.9331 44.0214 75.6993 38.6855 75.4363C36.8091 75.3486 34.9328 75.2609 33.1151 74.9687C31.8837 74.7642 30.711 74.4719 29.4796 74.3258C27.2514 74.0628 24.7594 74.5596 22.7071 75.2317L22.619 75.2609Z" fill="#B70027"/>
<path d="M42.9072 60.0359C43.2883 59.6852 43.5522 59.2176 44.0213 58.9546C44.6663 58.5747 45.458 58.7501 46.1616 59.0423C46.836 59.3345 47.4808 59.7436 48.2138 59.8605C49.4158 60.0651 50.618 59.3637 51.4976 58.487C52.3478 57.6104 52.9634 56.5291 53.755 55.594C54.312 54.9218 54.9571 54.3374 55.4848 53.6652C57.156 51.5612 57.7129 48.6389 57.0386 46.0673C56.335 43.4665 54.4 41.2455 51.9666 40.1643C51.7321 40.0474 51.4975 39.9597 51.2337 39.9597C50.9111 39.9597 50.6473 40.1351 50.3835 40.2812C49.6798 40.6903 49.0055 41.0702 48.3605 41.5378C46.2496 43.0281 44.5785 45.1322 43.6109 47.5285C43.3178 48.259 43.0831 49.048 42.526 49.6033C41.881 50.3046 40.9136 50.5677 40.0927 51.006C38.3629 51.8535 36.9849 53.4022 36.3105 55.2141C35.6948 56.909 35.9001 59.13 37.4246 60.0943C37.9524 60.445 38.5974 60.5619 39.2424 60.6788C40.5324 60.9125 42.0277 60.9417 42.9952 60.0651L42.9072 60.0359Z" fill="#990028"/>
<path d="M37.3368 63.1624C36.4573 60.9415 36.3987 58.3114 37.5421 56.1782C38.6562 54.1033 41.4413 53.0221 43.2884 51.6779C46.1322 49.603 46.7774 46.6223 47.2465 43.3201C47.2465 43.2032 47.0998 43.1156 47.0412 43.2324C45.6339 45.7164 45.7805 48.3757 43.5523 50.5382C41.8812 52.1454 39.653 53.0221 37.9232 54.5709C35.6364 56.6457 35.138 60.9415 37.1903 63.2501C37.2489 63.3085 37.3662 63.2501 37.3368 63.1624Z" fill="#0C0A35"/>
<path d="M38.6853 62.1695C38.5094 59.6272 39.0079 57.6985 41.1482 56.1204C42.5848 55.0392 44.1386 54.104 45.6631 53.1397C47.7447 51.7662 49.5333 49.8375 49.2987 47.2075C49.2987 46.9444 48.9469 46.9152 48.8589 47.149C47.8328 49.6914 46.7773 51.1525 44.4905 52.7013C42.9953 53.7241 41.5 54.6885 40.0927 55.799C38.0111 57.4062 37.4541 59.8317 38.4509 62.228C38.5096 62.3449 38.7147 62.3449 38.7147 62.1988L38.6853 62.1695Z" fill="#0C0A35"/>
<path d="M39.8876 62.8119C40.6498 58.9837 43.1125 57.4934 46.1909 55.477C48.1845 54.1912 50.0024 52.6132 50.3836 50.1584C50.4129 49.8954 50.1197 49.7493 49.9731 49.9831C48.8297 51.6488 48.2725 52.9931 46.572 54.2497C45.1941 55.2725 43.4936 56.003 42.2036 57.1427C40.5325 58.6331 39.3011 60.4741 39.653 62.7827C39.653 62.8996 39.8876 62.8996 39.8876 62.7827V62.8119Z" fill="#0C0A35"/>
<path d="M42.9072 62.7243C43.5815 59.5975 45.3114 57.961 48.1846 56.7628C50.0317 56.003 51.2043 54.3081 51.9079 52.4963C51.9666 52.321 51.7321 52.1749 51.5855 52.2625C50.53 52.9931 50.1489 54.2205 49.2694 55.1556C48.2139 56.2953 46.4255 56.383 45.2528 57.3765C43.7575 58.6331 42.2623 60.7079 42.7021 62.7535C42.7021 62.8704 42.8779 62.8704 42.9072 62.7535V62.7243Z" fill="#0C0A35"/>
<path d="M45.9268 62.7829C46.4252 58.2534 52.7286 57.4644 53.3736 52.6718C53.3736 52.4965 53.1391 52.3503 53.0512 52.5257C52.3182 53.8115 51.7025 55.0389 50.7057 56.1201C49.8555 57.026 48.7707 57.6689 47.8032 58.4287C46.6012 59.3638 44.5489 61.2049 45.7803 62.8413C45.8389 62.929 45.9562 62.8998 45.9562 62.7829H45.9268Z" fill="#0C0A35"/>
<path d="M31.1796 69.387C31.0917 69.0071 32.2352 68.0428 32.587 67.8674C35.0791 66.8446 43.7573 66.3186 46.3667 65.6757C48.976 65.0328 52.4062 63.484 53.491 61.0293C54.2826 59.2467 54.0774 57.1426 53.491 55.2724C53.3151 54.7171 53.1392 54.1619 53.1392 53.5774C53.1392 52.9345 53.4323 52.3209 53.7841 51.7656C54.781 50.1876 56.3347 49.0479 57.9179 48.0543C60.6152 46.3886 63.6938 45.1028 66.8602 45.4243C68.0916 45.5412 69.3228 45.9211 70.261 46.7101C72.3426 48.405 72.6066 51.3857 72.7532 54.0742C72.8998 56.7335 72.372 61.2046 74.6881 62.5489C76.887 63.8055 91.6635 65.9679 83.4836 66.1433C83.1318 66.1433 77.5028 66.4355 77.3269 66.7277C75.5384 69.5916 71.7563 68.335 69.4109 70.7605C67.6518 72.6015 65.658 74.3549 63.2539 75.2316C60.8791 76.1083 58.2404 76.0791 55.7191 76.0498C54.3118 76.0498 52.9045 75.9914 51.5559 75.5823C48.1843 74.5302 45.9268 71.2281 42.6138 70.0299C41.3825 69.5916 31.2383 69.5916 31.209 69.4162L31.1796 69.387Z" fill="#FFD6A1"/>
<path d="M100.664 107.377C99.4624 103.169 99.1106 98.8437 99.5797 94.5771C99.6676 93.7005 99.8142 92.8238 100.166 91.9763C101.134 89.5508 103.743 87.6221 104.798 85.2258C105.649 83.2971 105.414 81.1054 104.124 79.2936C102.834 77.4818 100.547 76.0206 97.8206 75.3485C97.5274 75.2608 97.2048 75.2024 96.9703 75.0563C96.5598 74.8225 96.4133 74.4426 96.2667 74.0919C95.7389 72.7185 95.3578 72.2509 94.8301 70.8774C94.361 69.6208 93.5108 68.6273 92.6312 67.5168C91.781 66.3771 90.4909 65.6465 88.9371 65.0036C86.2691 63.8932 83.953 63.5717 80.9332 64.0977C78.8223 64.4484 77.1512 64.7698 75.2748 65.5004C73.3984 66.231 65.0719 70.0592 63.4301 71.1404C59.4721 73.7413 52.7877 73.8289 48.5658 71.4326C46.7481 70.3806 45.3994 68.9779 43.4351 68.072C40.9724 66.9323 38.9787 66.231 36.0468 66.231C32.5873 66.231 29.2743 67.8674 28.3948 68.3642C25.5509 70.0007 24.4954 71.4034 23.5865 73.9166C22.707 76.3421 21.8274 78.7384 20.9478 81.1639C20.3614 82.7419 19.8044 84.3491 19.5406 85.9856C19.3353 87.3299 19.3353 88.6741 19.3353 90.0184C19.3353 94.8402 19.3353 99.6619 20.0389 104.454C20.1269 105.068 20.2443 105.711 20.7134 106.237C21.1825 106.763 22.1205 107.114 22.9414 106.909C26.7821 105.945 31.6197 106.12 35.6657 105.74C40.8843 105.214 46.191 105.448 51.439 105.711C57.1854 105.974 62.9024 106.237 68.6195 106.471C73.9554 106.705 79.2914 106.938 84.6274 107.201C86.5037 107.289 88.38 107.377 90.1977 107.669C91.4291 107.874 92.6018 108.166 93.8332 108.312C96.0614 108.604 98.5536 108.078 100.606 107.406L100.664 107.377Z" fill="#B70027"/>
<path d="M67.7104 53.8409C68.2381 54.7761 68.7951 55.8865 68.3847 56.9093C68.1795 57.4061 67.769 57.8152 67.3293 58.1367C63.4299 61.322 58.0648 62.6078 53.1393 61.5558C53.9895 60.4161 54.0188 58.4874 54.1947 58.5166C58.9443 59.1303 64.3095 57.1724 67.1534 53.3149C67.4172 53.3442 67.5638 53.6071 67.7104 53.8409Z" fill="#990028"/>
<path d="M57.8597 70.03C57.3613 70.3807 56.6283 70.2638 56.1885 69.8254C55.7487 69.4163 55.5728 68.7734 55.6021 68.1889C55.6021 67.5753 55.8074 66.9908 55.9833 66.4356C56.2178 65.705 56.4523 64.9452 56.6869 64.2146C56.9214 63.5133 57.156 62.7827 57.6544 62.2275C57.7424 62.1398 57.889 62.0522 58.0062 62.1398C58.0356 62.1691 58.0649 62.2275 58.0649 62.286C58.534 64.4484 59.003 66.6986 58.5046 68.8611C58.3873 69.2994 58.2408 69.767 57.8597 70.0592V70.03Z" fill="#0C0A35"/>
<path d="M49.1814 66.1729C48.8296 65.793 48.8297 65.1793 49.0935 64.741C49.3574 64.3026 49.797 63.9812 50.2368 63.689C51.0577 63.1045 52.0545 62.4908 52.7875 61.7894C53.1979 61.4095 53.3445 61.8479 53.3445 62.1986C53.2273 63.1337 52.8755 63.7182 52.465 64.5949C52.0546 65.4715 51.3509 66.2313 50.4127 66.4651C49.9729 66.582 49.4745 66.5236 49.152 66.2021L49.1814 66.1729Z" fill="#0C0A35"/>
<path d="M64.1337 66.5235C64.6908 66.8449 65.453 66.6403 65.9514 66.2312C66.3032 65.9098 66.2738 64.8578 66.1858 64.4194C65.8633 62.5492 64.9839 61.9647 63.9578 61.0588C63.7526 60.8834 63.4593 60.7081 63.2834 60.9127C63.1954 61.0004 63.1955 61.1464 63.1955 61.2926C63.1955 62.2861 63.1369 63.2797 63.1955 64.2733C63.2541 65.5591 63.518 66.202 64.1337 66.5527V66.5235Z" fill="#0C0A35"/>
<path d="M47.95 22.6302C47.7741 22.4841 47.4808 22.6887 47.3343 22.8932C45.7804 25.085 46.5134 28.0949 46.1323 30.7542C45.9271 32.2153 45.1941 33.881 44.3146 35.0792C43.1711 36.628 41.6465 37.7677 41.2947 39.5795C41.236 39.9302 41.4999 40.164 41.8517 40.2516C42.6433 40.4854 43.8454 40.3393 44.4024 40.8069C44.637 41.0114 44.637 41.4205 44.637 41.742C44.6957 43.2616 44.168 44.8104 44.4905 46.3008C44.9009 48.1126 46.4841 49.3984 47.1877 51.1225C47.5395 51.97 47.6567 52.9051 47.862 53.7818C48.1845 55.0092 48.7123 56.2073 49.4453 57.2594C50.0903 58.1945 51.5561 58.6036 52.6409 58.1945C54.4293 57.4931 55.9833 56.3534 57.5372 55.2137C59.6774 53.6357 61.9055 51.97 63.1075 49.6029C63.4594 48.9308 63.6939 48.2295 64.0458 47.5573C64.9839 45.6871 66.5964 44.2259 67.7105 42.4433C69.1765 40.0763 69.7336 37.2417 69.9975 34.4655C70.1147 33.1797 70.2027 31.8647 69.9681 30.6081C69.587 28.4164 68.3262 26.4 66.6258 24.9681C64.9253 23.5069 62.7851 22.601 60.5862 22.1919C58.7098 21.8412 56.7748 21.8412 54.8397 21.812C53.2272 21.812 51.6442 21.812 50.0317 21.812C49.3867 21.812 48.038 22.0166 47.95 22.6302V22.6302Z" fill="#FFD6A1"/>
<path d="M59.5309 23.7116C59.5309 23.7116 59.6481 23.8285 59.7068 23.8869C60.1172 24.5006 60.5276 25.1436 60.9381 25.7572C58.9444 26.7508 56.7456 27.3645 54.5174 27.2768C52.2892 27.2184 50.061 26.4001 48.4778 24.8513C49.0348 24.3253 49.6212 23.8285 50.1783 23.3025C52.8463 24.8513 56.2765 25.0559 59.1204 23.7993C59.267 23.7408 59.4136 23.6824 59.5602 23.7409L59.5309 23.7116Z" fill="#0C0A35"/>
<path d="M62.5505 37.0962C62.0521 36.6578 61.4072 36.3656 60.7622 36.2779C60.0292 36.1903 59.267 36.4241 58.622 36.804C57.6545 37.3884 56.8922 38.4404 56.9215 39.5509C56.9801 40.9243 58.2115 42.0056 59.5308 42.4732C60.4984 42.7946 61.6417 42.8531 62.4333 42.2686C62.9904 41.8595 63.3129 41.2166 63.5181 40.5737C63.782 39.8139 64.0164 38.382 62.5212 37.0962H62.5505Z" fill="#F70032"/>
<path d="M45.6338 43.8462C45.9563 43.028 46.3667 42.3559 47.2463 42.2974C48.1551 42.2097 48.7707 43.2033 48.6241 43.9631C48.1844 46.1841 47.5101 47.8205 46.5133 49.8369C45.8976 49.4862 43.2295 45.921 43.2882 44.2553C43.2882 43.817 43.4055 43.3202 43.6987 42.9988C44.0212 42.6773 44.5489 42.5604 44.9594 42.7358C45.3698 42.9111 45.6631 43.3787 45.6338 43.8462V43.8462Z" fill="#F70032"/>
<path d="M81.3439 43.6711C81.4025 45.4245 81.4904 47.2071 80.904 48.8436C80.6108 49.6326 80.2004 50.3924 79.9952 51.2107C79.7899 52.0289 79.8486 52.9933 80.435 53.6069C80.7575 53.9576 81.2265 54.1329 81.6076 54.4544C82.6631 55.3019 82.7804 56.9383 82.194 58.1657C81.6077 59.3931 80.4642 60.2405 79.2622 60.9127C77.122 62.1108 74.6885 62.8414 72.2551 62.6368C69.8216 62.4322 67.4177 61.1756 66.157 59.1008C65.6586 58.2534 65.3067 57.289 65.3653 56.3247C65.424 55.3603 65.6584 54.2498 66.3914 53.5777C68.4144 51.7659 70.2614 52.438 70.2027 50.5093C70.1734 49.1066 68.2385 48.9313 67.5349 48.8728C65.3067 48.6098 61.1142 45.7168 64.867 41.7132C65.8051 40.7196 66.9485 39.9891 68.0626 39.2585C68.3557 39.0832 68.649 38.8494 68.8249 38.5571C69.3819 37.622 68.3851 36.4531 67.3589 36.1316C66.3328 35.8102 65.16 35.8687 64.2219 35.3427C63.0784 34.6705 62.5801 33.2678 62.4922 31.9528C62.4042 30.6378 62.6094 29.2935 62.4335 28.0077C62.2869 26.8095 61.7885 25.6406 61.0263 24.6763C60.7038 24.2672 60.2932 23.8581 59.7948 23.6535C59.355 23.4489 58.8273 23.3905 58.3582 23.3613C56.6284 23.2151 54.8987 23.1567 53.1396 23.1567C52.2308 23.1567 51.2631 23.1567 50.4715 23.5951C47.8036 24.9393 47.569 29.4981 44.9597 30.9884C43.7869 31.6606 42.2037 31.6606 40.9137 31.2807C39.2426 30.8131 38.3045 29.5857 37.6888 27.9785C36.8679 25.8452 38.3631 23.3613 40.4447 22.3969C41.5295 21.9001 42.9955 21.8124 43.6112 20.7896C44.5493 19.3285 43.5818 18.8025 43.9336 17.8089C44.4907 16.2601 46.6602 14.9743 48.302 14.8574C49.8852 14.7405 51.703 14.799 52.3773 16.2601C52.5239 16.5816 52.6117 16.9322 52.7876 17.2537C53.4326 18.4518 55.0453 18.8902 56.3939 18.5687C57.7426 18.2765 58.8859 17.429 60 16.64C61.1141 15.851 62.3455 15.0912 63.7235 15.0035C64.8669 14.9159 66.0103 15.325 67.0071 15.8802C70.6426 17.8966 72.7243 21.8417 74.5713 25.553C75.9493 28.2999 77.2979 31.1053 78.2361 34.0276C79.2916 37.3006 81.1679 40.3105 81.3145 43.7588L81.3439 43.6711Z" fill="#D6002B"/>
<path d="M43.4939 45.6291C44.1682 46.7104 46.1326 46.3597 47.1587 46.1844C48.6246 45.9214 50.4423 45.22 51.3512 43.9927C51.4098 43.9342 51.322 43.7881 51.234 43.8465C50.0319 44.3433 48.9178 45.0155 47.6571 45.3662C46.2205 45.746 44.9599 45.483 43.5526 45.5415C43.494 45.5415 43.4646 45.6 43.4939 45.6584V45.6291Z" fill="#0C0A35"/>
<path d="M53.8432 57.9028C56.5405 57.1722 58.5928 55.0974 60.645 53.3148C62.2576 51.9121 63.3422 50.1295 63.782 48.0547C63.782 47.9085 63.6355 47.8793 63.5769 47.9962C62.756 50.1587 61.7885 51.2692 60.088 52.7888C59.0032 53.7531 57.9478 54.7175 56.8043 55.5942C55.8368 56.354 54.6641 56.7923 53.6673 57.4936C53.462 57.6397 53.5793 57.9904 53.8432 57.932V57.9028Z" fill="#0C0A35"/>
<path d="M48.8296 29.5567C48.9175 29.9658 49.0935 30.5503 49.6212 30.4626C49.7092 30.4626 49.7091 30.3457 49.6797 30.3165C49.5332 29.9951 49.1814 29.7905 48.9761 29.4983C48.9175 29.4106 48.8003 29.4982 48.8296 29.5567Z" fill="#0C0A35"/>
<path d="M54.0482 27.6861C53.9309 27.8614 53.9308 28.0659 53.9308 28.2705C53.9308 28.6212 54.5172 28.6212 54.4878 28.2705C54.4878 28.0659 54.4879 27.8614 54.3706 27.6861C54.2827 27.5692 54.1068 27.5692 54.0188 27.6861H54.0482Z" fill="#0C0A35"/>
<path d="M51.0579 28.4754C51.0285 28.7092 51.175 28.9137 51.3216 29.0891C51.5562 29.3521 51.9961 29.0014 51.8202 28.7092C51.7029 28.5046 51.5562 28.3293 51.3216 28.3C51.175 28.3 51.0872 28.3585 51.0872 28.4754H51.0579Z" fill="#0C0A35"/>
<path d="M59.2375 30.5501C59.4427 30.667 59.5893 30.4916 59.7652 30.3747C59.9997 30.1994 60.1464 29.9948 60.205 29.7026C60.205 29.5857 60.0877 29.5565 59.9998 29.5857C59.7945 29.6734 59.6774 29.8195 59.5308 29.9949C59.4135 30.141 59.2083 30.2286 59.179 30.4624C59.179 30.4916 59.1788 30.5501 59.2375 30.5793V30.5501Z" fill="#0C0A35"/>
<path d="M56.9799 28.9726C57.1265 28.7096 57.361 28.505 57.4196 28.1836C57.4196 28.0959 57.361 28.0375 57.3024 28.0667C56.8919 28.1544 56.628 28.3882 56.4814 28.7681C56.3641 29.0603 56.8333 29.2356 56.9799 28.9726Z" fill="#0C0A35"/>
<path d="M50.0904 33.9108C50.237 33.6771 50.4128 33.5017 50.5888 33.2971C50.7353 33.151 50.8234 33.0634 50.8527 32.8588C50.8527 32.8004 50.7941 32.7419 50.7355 32.7419C50.2664 32.7419 49.9731 33.4141 49.8558 33.794C49.8265 33.9401 50.0024 33.9985 50.0904 33.8816V33.9108Z" fill="#0C0A35"/>
<path d="M52.5824 34.6118C52.7876 34.3488 52.9341 33.8813 52.7875 33.5598C52.7581 33.4721 52.6703 33.4429 52.553 33.4721C52.1719 33.6475 52.1426 34.2027 52.2012 34.5534C52.2306 34.7287 52.4651 34.7287 52.553 34.6118H52.5824Z" fill="#0C0A35"/>
<path d="M54.6345 34.8459C54.8397 34.5829 55.045 34.0862 54.7519 33.8524C54.6639 33.7647 54.5465 33.7647 54.4586 33.8524C54.1361 34.1154 54.3414 34.6122 54.576 34.8459H54.6345V34.8459Z" fill="#0C0A35"/>
<path d="M58.0356 33.9106C58.0356 33.7061 57.9477 33.5307 57.8597 33.3554C57.7718 33.1508 57.7425 33.0047 57.5079 32.9463C57.4493 32.9463 57.3907 32.9463 57.3614 33.0047C57.2441 33.2093 57.3026 33.3262 57.3905 33.5307C57.4785 33.7353 57.5371 33.9399 57.7424 34.0568C57.8596 34.1152 58.0356 34.0568 58.0356 33.8814V33.9106Z" fill="#0C0A35"/>
<path d="M60.2345 33.2974C60.3518 33.0052 59.9707 32.5668 59.7361 32.4499C59.4723 32.3038 59.2084 32.596 59.3256 32.8591C59.4136 33.0636 60.0586 33.7942 60.2345 33.2974Z" fill="#0C0A35"/>
<path d="M60.9967 31.6312C57.3612 34.3489 52.0546 34.5534 48.1846 32.1571C49.0348 30.6376 50.4713 29.4394 52.1425 28.9134C53.8136 28.3874 55.6607 28.5335 57.2438 29.2933C57.7423 29.5271 58.2407 29.8486 58.7098 30.1408C59.472 30.6376 60.2344 31.1344 60.9967 31.602V31.6312Z" fill="white"/>
<path d="M55.6608 30.4627C55.2504 29.9367 54.4588 29.6153 53.6378 29.7906C52.9928 29.9075 52.3185 30.6089 52.3185 31.281C52.3185 31.9239 52.8462 32.4791 53.4326 32.7713C53.9017 33.0051 54.488 33.0928 54.9864 32.9175C55.4848 32.7421 56.687 31.7193 55.6902 30.4627H55.6608Z" fill="#0C0A35"/>
<path d="M45.7807 16.4938C45.077 17.1659 45.1355 17.955 45.1062 18.9193C45.0183 22.543 42.2038 23.1859 39.5065 24.5301C36.8972 25.8451 37.1317 28.9428 38.2165 31.1345C38.3337 31.3391 38.6269 31.1929 38.5683 30.9884C38.0405 28.2999 37.806 25.8452 41.0896 24.5886C42.233 24.1502 43.0833 23.8288 44.0508 23.069C46.4842 21.1403 45.0476 19.0362 46.0738 16.6692C46.1617 16.4939 45.8979 16.3769 45.7513 16.4938H45.7807Z" fill="#0C0A35"/>
<path d="M47.2172 17.7794C46.8947 20.7601 45.9565 22.7181 43.5524 24.5299C42.3797 25.4066 41.0604 25.9911 39.9463 26.9846C38.3045 28.5042 38.4804 31.485 39.7411 33.0922C39.8877 33.2676 40.1222 33.0922 40.0929 32.8876C39.3893 29.8485 39.5944 27.8613 42.5555 26.1664C43.5524 25.6112 44.4613 24.9682 45.3408 24.2669C47.3931 22.6304 47.6277 20.2049 47.4225 17.7502C47.4225 17.6041 47.2172 17.6041 47.1879 17.7502L47.2172 17.7794Z" fill="#0C0A35"/>
<path d="M49.5628 16.6692C48.7418 19.1824 49.1229 21.5787 47.6863 23.975C46.5136 25.9329 44.2562 26.7803 42.6437 28.2707C41.1777 29.6149 40.2688 32.8002 41.6761 34.4075C41.9107 34.6997 42.3797 34.3198 42.2038 33.9984C39.829 29.7903 45.6048 27.5109 47.745 25.1147C49.9146 22.6892 49.8853 19.7084 49.8267 16.6692C49.8267 16.5231 49.6214 16.4939 49.5628 16.64V16.6692Z" fill="#0C0A35"/>
<path d="M43.5522 33.7641C43.2004 30.2282 48.507 27.2767 50.442 24.7343C52.1424 22.5133 52.0545 19.0358 51.9079 16.4057C51.8786 15.8797 51.1457 15.8797 51.1164 16.4057C51.0285 18.2468 51.1163 20.0294 50.7938 21.8412C50.3247 24.4128 48.2431 26.2831 46.4547 28.0365C44.7543 29.7022 42.7606 31.1633 43.2883 33.7934C43.3176 33.9395 43.5816 33.9102 43.5816 33.7641H43.5522Z" fill="#0C0A35"/>
<path d="M53.4326 16.3179C52.7876 17.3699 53.1394 18.8603 53.1101 20.0584C53.0515 21.9871 51.7027 23.7405 51.8786 25.64C51.8786 25.8738 52.1719 25.9614 52.3185 25.7569C53.6964 23.6821 54.9863 18.5973 53.5204 16.3471C53.5204 16.3471 53.4619 16.3471 53.4326 16.3471V16.3179Z" fill="#0C0A35"/>
<path d="M56.2471 16.6107C55.3675 17.575 55.1328 18.744 54.9862 20.0006C54.8396 21.5201 54.5172 23.3904 55.4261 24.7054C55.514 24.8516 55.7778 24.7931 55.7485 24.6177C55.5726 23.3611 55.514 22.163 55.6313 20.9065C55.7486 19.4745 55.6312 18.0426 56.4521 16.786C56.5401 16.6691 56.335 16.523 56.2471 16.6399V16.6107Z" fill="#0C0A35"/>
<path d="M59.3254 16.9912C58.1233 17.5172 58.006 19.4459 57.8595 20.5564C57.5076 22.8357 57.4196 24.8814 58.8562 26.8393C58.9735 27.0146 59.2666 26.8977 59.208 26.6932C59.0321 25.9334 58.7096 25.2612 58.475 24.5307C58.1232 23.4202 58.4165 21.9006 58.5924 20.7609C58.739 19.7089 58.739 18.014 59.5013 17.1665C59.5892 17.0789 59.5013 16.9328 59.3547 16.9912H59.3254Z" fill="#0C0A35"/>
<path d="M62.3453 17.9841C61.1139 17.1659 60.7036 19.7959 60.6156 20.468C60.2638 22.6889 59.8826 26.0788 61.7004 27.7737C61.8177 27.8614 61.9935 27.7738 61.9641 27.6276C61.3485 25.6697 61.1726 23.9456 61.2899 21.8707C61.3485 20.9356 61.2019 18.3347 62.3453 18.0133C62.3453 18.0133 62.3453 18.0133 62.3453 17.9841Z" fill="#0C0A35"/>
<path d="M64.0166 18.4515C63.6941 22.6012 62.7853 28.2996 64.6324 32.2155C65.8637 34.8163 68.7076 36.1605 71.4343 34.8747C71.6395 34.7871 71.5221 34.4656 71.3169 34.4656C69.8803 34.4656 68.5024 34.4656 67.1537 33.8812C65.3067 33.0922 64.8668 30.4037 64.7202 28.6795C64.3977 25.2897 64.3685 21.8413 64.1047 18.4223C64.1047 18.3638 63.9873 18.3638 63.9873 18.4223L64.0166 18.4515Z" fill="#0C0A35"/>
<path d="M65.8341 18.8899C64.5734 21.9291 65.3651 25.465 65.9222 28.5919C66.4499 31.5141 69.3817 33.1214 72.1376 32.7708C72.2842 32.7708 72.3136 32.537 72.167 32.5078C68.7954 31.8064 66.8017 30.5498 66.3033 26.8385C65.9515 24.2085 65.4824 21.5784 65.8928 18.9191C65.8928 18.8607 65.8048 18.8314 65.8048 18.9191L65.8341 18.8899Z" fill="#0C0A35"/>
<path d="M72.9587 37.8264C70.5546 38.82 66.0689 40.7487 65.893 43.9048C65.6878 47.5576 70.0269 47.0608 72.1378 48.785C74.9231 51.0644 69.0593 54.3958 67.828 55.4478C66.8898 56.2368 66.1862 57.5811 66.0689 58.8085C65.8637 61.5846 67.4176 64.1855 70.2908 64.653C70.4667 64.653 70.5546 64.4777 70.408 64.39C66.3034 61.8768 66.2742 57.8733 70.1442 55.0971C71.874 53.8406 73.6624 52.5255 73.7503 50.2461C73.8383 48.3174 71.9032 47.3823 70.3786 46.9147C69.4991 46.6517 68.7075 46.4472 67.8573 46.0673C65.1307 44.8399 67.4468 42.2975 68.385 41.3916C69.7337 40.0474 71.5514 39.1999 72.9587 37.9141C72.9587 37.9141 72.9587 37.8849 72.9587 37.9141V37.8264Z" fill="#0C0A35"/>
<path d="M74.7764 38.5564C72.255 38.5272 69.7924 40.6897 68.8542 42.9107C68.1506 44.5471 70.0563 45.453 71.2583 45.9498C74.4247 47.2356 77.8842 49.9826 74.5126 53.5478C73.2519 54.892 71.5807 55.6518 70.3786 57.0545C68.3264 59.48 69.5871 62.4316 71.4928 64.4772C71.698 64.6817 71.9619 64.4187 71.8739 64.1849C70.5253 61.4672 69.4992 59.3047 72.1672 56.6746C73.0761 55.7687 74.2487 55.0674 75.2162 54.2199C76.6822 52.9341 77.0046 51.1807 76.6528 49.3689C76.3303 47.6155 74.6885 46.3297 73.1639 45.716C72.0205 45.2485 68.8543 44.8978 69.8218 42.7061C70.6427 40.865 73.0174 39.5208 74.8644 38.9364C75.0697 38.8779 75.0403 38.5857 74.8057 38.5857L74.7764 38.5564Z" fill="#0C0A35"/>
<path d="M74.278 40.3105C72.7534 40.7196 70.965 41.6255 71.8738 43.4081C72.2257 44.1387 73.721 44.577 74.3367 44.8985C76.7701 46.2135 77.8255 47.5577 78.0015 50.4216C78.2653 55.068 74.6885 55.974 72.8414 59.393C71.5807 61.7601 73.6622 64.4194 75.1575 66.0558C75.3334 66.2312 75.5681 65.9974 75.4801 65.8221C74.366 63.7472 72.7827 61.8477 74.1021 59.393C74.6884 58.2826 76.0663 57.4351 76.9752 56.5876C78.5291 55.1557 78.969 53.2855 79.1156 51.2691C79.2328 49.5741 78.9982 47.2363 77.7082 45.9505C77.0338 45.3076 76.3304 44.8108 75.4801 44.3725C75.011 44.1095 74.4833 43.9049 73.9849 43.7004C71.9619 42.9113 72.6361 41.2456 74.278 40.369C74.3073 40.369 74.2779 40.2812 74.2486 40.2812L74.278 40.3105Z" fill="#0C0A35"/>
<path d="M77.1217 64.3902C76.4474 63.192 76.3593 61.9647 76.7991 60.7373C77.063 59.6561 77.708 58.6917 78.3237 57.7566C79.2326 56.4124 80.6105 55.4188 81.578 54.1037C83.0439 52.1166 82.575 49.6034 81.5488 47.587C81.4609 47.4117 81.1677 47.4994 81.1677 47.6747C81.4902 50.3925 81.8713 52.5842 79.8777 54.8343C78.9102 55.9156 77.9719 56.8215 77.2096 58.0196C75.9196 60.0068 75.2159 62.7245 76.7991 64.6824C76.8577 64.7701 77.0337 64.7409 77.0924 64.6532C77.151 64.5071 77.1511 64.5363 77.1511 64.361L77.1217 64.3902Z" fill="#0C0A35"/>
<path d="M79.2913 63.2208C78.8515 62.724 79.2326 60.7368 79.2913 60.24C79.5258 58.8374 80.6692 57.7561 81.666 56.8794C83.2785 55.4183 84.1581 53.9571 84.2167 51.707C84.2167 51.5609 84.0116 51.5024 83.9236 51.6193C83.1613 53.1097 82.868 54.6001 81.6073 55.8274C80.6105 56.821 79.6138 57.61 78.9394 58.8666C78.3531 59.9478 77.9718 62.2857 78.8221 63.3085C78.8807 63.3669 78.9687 63.3669 79.0273 63.3669C79.0859 63.3669 79.1739 63.3669 79.2326 63.3085C79.2912 63.3085 79.2912 63.2208 79.2619 63.1916L79.2913 63.2208Z" fill="#0C0A35"/>
<path d="M80.2882 49.4574C81.3437 49.5743 82.018 48.4931 82.663 47.6456C84.3928 45.3662 85.4483 43.9928 88.0283 41.3919C88.6733 40.749 89.3183 40.1353 89.8167 39.3463C89.9633 39.1125 90.11 38.8203 90.11 38.5281C90.11 38.119 89.8168 37.7975 89.5236 37.5345C87.9111 35.9273 86.0934 34.583 84.6568 32.8296C83.1909 31.0763 80.9039 27.3649 80.6694 26.5467C79.3501 22.0172 78.969 20.0008 81.6663 12.4613C81.9302 11.7307 81.4316 10.9125 80.64 10.8832C78.148 10.7663 75.5388 10.591 73.076 10.4741C72.7535 10.4741 72.4017 10.5618 72.1965 10.8248C71.5222 11.5846 71.053 12.8996 70.5839 13.6887C70.1148 14.5361 68.6489 15.9972 67.8573 18.1013C65.6584 23.829 66.6846 28.8845 69.1766 34.4953C70.8478 38.2943 72.7242 41.1289 76.5062 45.074C77.0633 45.6584 80.1417 49.136 80.3176 49.4282L80.2882 49.4574Z" fill="#B70027"/>
<path d="M79.6432 13.5425C80.1709 13.5425 80.6108 13.1041 80.6108 12.5781C80.6108 12.0521 80.1709 11.6138 79.6432 11.6138C79.1155 11.6138 78.6757 12.0521 78.6757 12.5781C78.6757 13.1041 79.1155 13.5425 79.6432 13.5425Z" fill="#0C0A35"/>
<path d="M78.3238 16.8444C78.8516 16.8444 79.262 16.406 79.262 15.9092C79.262 15.4124 78.8222 14.9741 78.3238 14.9741C77.8254 14.9741 77.3856 15.4124 77.3856 15.9092C77.3856 16.406 77.8254 16.8444 78.3238 16.8444Z" fill="#0C0A35"/>
<path d="M77.6497 20.4097C78.8224 20.4097 78.8224 18.5979 77.6497 18.5979C76.477 18.5979 76.477 20.4097 77.6497 20.4097Z" fill="#0C0A35"/>
<path d="M77.6202 24.2676C78.9102 24.2676 78.9102 22.2512 77.6202 22.2512C76.3302 22.2512 76.3302 24.2676 77.6202 24.2676Z" fill="#0C0A35"/>
<path d="M78.2948 27.7159C78.8225 27.7159 79.2623 27.2776 79.2623 26.7516C79.2623 26.2255 78.8225 25.8164 78.2948 25.8164C77.767 25.8164 77.3274 26.2548 77.3274 26.7516C77.3274 27.2483 77.767 27.7159 78.2948 27.7159Z" fill="#0C0A35"/>
<path d="M79.526 30.8424C79.9951 30.8424 80.3762 30.4625 80.3762 29.9949C80.3762 29.5274 79.9951 29.1475 79.526 29.1475C79.0569 29.1475 78.6757 29.5274 78.6757 29.9949C78.6757 30.4625 79.0569 30.8424 79.526 30.8424Z" fill="#0C0A35"/>
<path d="M81.1385 33.6476C82.3699 33.6476 82.3699 31.7773 81.1385 31.7773C79.9071 31.7773 79.9365 33.6476 81.1385 33.6476Z" fill="#0C0A35"/>
<path d="M83.044 36.1898C83.601 36.1898 84.0409 35.7222 84.0409 35.1962C84.0409 34.6702 83.5717 34.2026 83.044 34.2026C82.5162 34.2026 82.0472 34.6702 82.0472 35.1962C82.0472 35.7222 82.5162 36.1898 83.044 36.1898Z" fill="#0C0A35"/>
<path d="M85.2722 38.3234C85.8292 38.3234 86.2984 37.8559 86.2984 37.3007C86.2984 36.7454 85.8292 36.2778 85.2722 36.2778C84.7151 36.2778 84.2461 36.7454 84.2461 37.3007C84.2461 37.8559 84.7151 38.3234 85.2722 38.3234Z" fill="#0C0A35"/>
<path d="M88.292 39.6382C88.6145 39.3752 88.6145 38.7322 88.292 38.4692C88.0575 38.2647 87.7935 38.1478 87.471 38.2647C87.1192 38.3524 86.8555 38.703 86.8555 39.0829C86.8555 39.3752 87.0312 39.6674 87.2658 39.8135C87.6176 40.0181 87.9989 39.9304 88.292 39.6674V39.6382Z" fill="#0C0A35"/>
<path d="M67.9745 13.3668C64.2511 20.3218 65.9514 28.0659 68.6194 35.0501C69.8801 38.3523 71.5807 41.0408 74.2193 43.3787C76.7407 45.5996 78.4411 49.2817 81.4609 50.8597C82.2231 51.2396 83.0147 51.1519 83.6304 50.5674C83.7183 50.4798 83.8064 50.3921 83.8943 50.3337C84.4514 49.8369 84.4807 48.7849 83.8943 48.2881C81.6954 46.447 79.9655 44.3137 78.0892 42.1513C77.063 40.9823 73.5155 36.2482 72.9585 34.8163C71.0528 30.1407 69.8215 26.4001 69.7922 22.9811C69.7043 18.4515 70.2026 16.4352 69.7042 12.9576C69.6162 12.4024 68.1797 12.9576 67.9451 13.396L67.9745 13.3668Z" fill="#0C0A35"/>
<path d="M43.7282 19.2117C43.3764 18.6856 43.0539 17.6044 41.588 14.3314C40.8257 12.6365 40.3859 10.737 40.4739 8.89599C40.5618 7.20106 41.0015 6.79195 41.5 6.20749C41.969 5.65225 42.8193 5.56456 43.5229 5.76912C44.2266 5.94446 44.8716 6.35357 45.5459 6.58736C47.0118 7.08414 48.7416 6.79193 49.9437 5.82758C51.2923 4.74633 52.0546 2.93451 53.6084 2.17472C55.4555 1.26881 57.8304 2.32083 59.0031 4.04498C59.3256 4.51255 59.5894 5.03855 60.0292 5.36C60.8501 5.94446 62.3161 6.03212 63.225 5.623C64.1338 5.21388 64.808 4.62944 65.8048 4.4541C66.8896 4.27876 68.2383 4.24953 69.1765 4.80476C73.6329 7.37637 72.6653 10.5032 72.4014 11.7014C72.1376 12.9579 70.613 14.8575 68.5901 18.3934C67.388 20.4975 67.0069 21.7248 66.4499 21.5495C61.0846 20.0883 57.5664 19.65 50.8232 19.3578C49.24 19.2993 44.08 19.7377 43.6988 19.2117H43.7282Z" fill="#F70032"/>
<path d="M54.6932 6.17848C56.4523 5.50636 57.713 6.85061 58.0061 8.28253C58.2114 9.30533 58.0061 10.3573 57.8009 11.3801C57.5664 12.5198 57.3026 13.6303 56.9801 14.77C56.8335 15.3545 56.6574 15.9389 56.2763 16.4357C55.7192 17.1663 54.5759 16.9909 54.1948 16.1727C53.4618 14.5947 52.9635 12.8706 52.7582 11.1464C52.5823 9.71448 52.6409 8.16563 53.6084 6.99672C53.9016 6.64604 54.2827 6.38307 54.6932 6.20773V6.17848Z" fill="#0C0A35"/>
<path d="M68.1798 9.10025C68.9127 9.4217 69.1766 10.3861 68.9421 11.1459C68.7075 11.9057 68.1212 12.5193 67.5349 13.0454C66.6846 13.8344 64.0753 16.8735 63.1078 17.458C62.58 17.7794 61.9644 17.2242 62.1989 16.6398C63.0491 14.5649 64.779 11.4965 65.7465 10.2107C66.0397 9.83084 66.3621 9.45095 66.8019 9.21717C67.2417 8.98338 67.7694 8.89569 68.2091 9.10025H68.1798Z" fill="#0C0A35"/>
<path d="M44.1681 8.60325C44.5786 8.42791 45.0184 8.34026 45.4288 8.48637C45.8686 8.63249 46.4843 8.86627 46.7188 10.5904C46.8947 11.9347 47.3637 16.8733 46.6308 16.9902C45.634 17.1656 43.6403 11.5255 43.4644 9.71373C43.4644 9.47995 43.4644 9.24617 43.5524 9.04161C43.6697 8.83705 43.9043 8.69091 44.1388 8.60325H44.1681Z" fill="#0C0A35"/>
<path d="M50.5594 65.5588C51.4097 65.5588 51.4097 64.2729 50.5594 64.2729C49.7092 64.2729 49.7092 65.5588 50.5594 65.5588Z" fill="#F70032"/>
<path d="M57.1269 69.1534C58.0944 69.1534 58.0944 67.6631 57.1269 67.6631C56.1594 67.6631 56.1594 69.1534 57.1269 69.1534Z" fill="#F70032"/>
<path d="M64.8083 65.7341C65.7464 65.7341 65.7464 64.2729 64.8083 64.2729C63.8701 64.2729 63.8701 65.7341 64.8083 65.7341Z" fill="#F70032"/>
<path d="M54.4002 62.6369C55.1038 62.6369 55.1038 61.5264 54.4002 61.5264C53.6965 61.5264 53.6965 62.6369 54.4002 62.6369Z" fill="#F70032"/>
<path d="M56.1298 62.6954C56.9214 62.6954 56.9214 61.468 56.1298 61.468C55.3382 61.468 55.3382 62.6954 56.1298 62.6954Z" fill="#F70032"/>
<path d="M59.7361 62.4321C60.5863 62.4321 60.5863 61.1462 59.7361 61.1462C58.8858 61.1462 58.8858 62.4321 59.7361 62.4321Z" fill="#F70032"/>
<path d="M61.6711 61.9346C62.5214 61.9346 62.5214 60.6196 61.6711 60.6196C60.8209 60.6196 60.8209 61.9346 61.6711 61.9346Z" fill="#F70032"/>
<path d="M60.4983 74.5011C58.3287 74.3258 55.954 75.7285 56.5404 78.154C57.1561 80.7256 60.6156 80.8425 62.5213 79.9366C63.5474 79.4398 64.4856 78.2709 64.3683 77.102C64.2511 75.5239 62.8146 74.5888 61.3486 74.4135C60.2639 74.2673 58.8858 74.7349 58.1529 75.5824C57.6544 76.1376 57.4199 76.8682 57.6545 77.5987C57.9184 78.4462 58.6806 78.9138 59.4722 79.1768C60.2638 79.4398 61.1434 78.8846 61.3486 78.1248C61.5832 77.2773 61.0555 76.5175 60.2932 76.2545C59.9414 76.1376 60.2931 76.2545 60.3517 76.3422C60.6156 76.5467 60.645 77.0143 60.5863 77.3065C60.5863 77.365 60.2639 77.8033 60.4691 77.5987C60.2053 77.8618 60.5278 77.5987 60.645 77.5111C60.3225 77.6864 60.7036 77.5111 60.7622 77.5111C60.8502 77.5111 60.9382 77.4526 61.0262 77.4526C60.8503 77.4526 60.821 77.4526 61.0262 77.4526C61.1141 77.4526 61.4952 77.5111 61.114 77.4526C61.202 77.4526 61.3192 77.5111 61.4072 77.5403C61.2899 77.5111 61.3193 77.5403 61.4658 77.5987C61.8177 77.8033 61.3193 77.4234 61.5539 77.6864C61.4953 77.628 61.3192 77.1896 61.4072 77.4526C61.4072 77.3942 61.4073 77.3065 61.378 77.2481C61.378 77.4234 61.378 77.365 61.378 77.1312C61.3193 77.2773 61.3485 77.2481 61.4072 77.0435C61.3192 77.1896 61.3486 77.1604 61.4658 77.0143C61.4072 77.102 61.2899 77.1896 61.2312 77.2773C61.4951 77.0435 61.0848 77.3358 60.9968 77.3942C61.29 77.2481 60.8794 77.4234 60.8501 77.4526C60.7621 77.4526 60.6743 77.5111 60.5863 77.5111C60.7329 77.5111 60.7035 77.5111 60.5276 77.5111C60.381 77.5111 60.2346 77.5111 60.088 77.5111C60.0293 77.5111 59.5894 77.4526 59.9706 77.5111C59.8533 77.5111 59.736 77.4526 59.6188 77.4234C59.3549 77.3357 59.8827 77.5695 59.5016 77.365C59.4136 77.3065 59.1791 77.102 59.5016 77.365C59.2084 77.102 59.5895 77.5403 59.4722 77.365C59.4136 77.2481 59.3256 77.0143 59.4722 77.4526C59.3256 77.1019 59.4722 77.7449 59.4722 77.4819C59.4722 77.1896 59.3843 77.8618 59.4722 77.5987C59.4722 77.4819 59.6188 77.2773 59.4135 77.6864C59.4722 77.5695 59.6482 77.3942 59.355 77.7449C59.6189 77.4526 59.1791 77.8326 59.355 77.7157C59.443 77.6572 59.7361 77.5403 59.355 77.7157C59.5016 77.6572 59.6481 77.628 59.7947 77.5987C59.4135 77.6864 59.7948 77.5987 59.8827 77.5987C60.0879 77.5987 60.2639 77.5987 60.4691 77.5987C61.29 77.6572 61.9936 76.8389 61.9936 76.0791C61.9936 75.2025 61.29 74.618 60.4691 74.5596L60.4983 74.5011Z" fill="#0C0A35"/>
<path d="M60.4984 78.6219C61.114 78.6803 61.5246 78.3589 61.8471 77.8913C62.0816 77.5406 62.0816 76.927 61.8471 76.5763C61.5246 76.1087 61.0847 75.7873 60.4984 75.8457C59.7361 75.9042 59.1205 76.4301 59.1205 77.2192C59.1205 78.0082 59.7654 78.5342 60.4984 78.5926V78.6219Z" fill="#F70032"/>
<path d="M54.4002 76.0791C53.8724 75.8454 53.462 75.8454 52.9343 76.0791C52.0547 76.4883 52.0253 77.7741 52.641 78.3878C53.198 78.943 54.1363 78.943 54.7226 78.3878C55.3383 77.7741 55.3091 76.4883 54.4295 76.0791H54.4002Z" fill="#0C0A35"/>
<path d="M48.5072 76.7512C48.5072 76.7512 48.5072 76.7512 48.5366 76.7512C49.0936 77.1019 49.8266 76.7512 50.0025 76.1667C50.2077 75.4362 49.5039 74.7348 48.771 74.9393C48.771 74.9393 48.7711 74.9393 48.7418 74.9393C47.9209 75.1731 47.7742 76.2836 48.5072 76.7219V76.7512Z" fill="#0C0A35"/>
<path d="M44.7837 75.4071C45.9565 75.4071 45.9565 73.6245 44.7837 73.6245C43.611 73.6245 43.611 75.4071 44.7837 75.4071Z" fill="#0C0A35"/>
<path d="M40.65 74.0924C41.6761 74.0924 41.6761 72.5144 40.65 72.5144C39.6238 72.5144 39.6238 74.0924 40.65 74.0924Z" fill="#0C0A35"/>
<path d="M37.3074 72.9813C38.0697 72.9813 38.0697 71.7832 37.3074 71.7832C36.5451 71.7832 36.5451 72.9813 37.3074 72.9813Z" fill="#0C0A35"/>
<path d="M67.0657 76.868C67.3002 76.7219 67.564 76.4881 67.6813 76.2544C68.0038 75.553 67.74 74.8516 67.007 74.5886C66.6259 74.4717 66.1567 74.5302 65.8049 74.7347C65.2185 75.0854 65.0134 75.8452 65.3652 76.4297C65.717 76.9849 66.4793 77.2187 67.0657 76.868V76.868Z" fill="#0C0A35"/>
<path d="M70.7307 75.3196C70.7307 75.3196 70.7892 75.3196 70.8186 75.3196C71.4342 75.3196 71.9327 74.7935 71.9327 74.2091C71.9327 73.6246 71.4342 73.0986 70.8186 73.0986C70.7892 73.0986 70.76 73.0986 70.7307 73.0986C70.1443 73.0986 69.6458 73.5954 69.6458 74.2091C69.6458 74.8228 70.1443 75.2903 70.7307 75.3196Z" fill="#0C0A35"/>
<path d="M75.3043 73.8C75.3043 73.8 75.3335 73.8001 75.3628 73.7708C75.9198 73.3617 75.9198 72.6604 75.3628 72.2512C75.3628 72.2512 75.3336 72.2513 75.3043 72.222C74.7179 71.7837 73.8969 72.3682 73.8969 73.0111C73.8969 73.654 74.7179 74.2384 75.3043 73.8V73.8Z" fill="#0C0A35"/>
<path d="M79.3793 72.3968C79.3793 72.3968 79.438 72.3968 79.4673 72.3968C80.3762 72.163 80.3762 70.8188 79.4673 70.585C79.438 70.585 79.4086 70.585 79.3793 70.585C78.7636 70.4097 78.1479 70.8772 78.1479 71.5201C78.1479 72.163 78.7636 72.6306 79.3793 72.4553V72.3968Z" fill="#0C0A35"/>
<path d="M82.6337 71.1408C83.6012 71.1408 83.6012 69.6504 82.6337 69.6504C81.6662 69.6504 81.6662 71.1408 82.6337 71.1408Z" fill="#0C0A35"/>
<path d="M86.0053 69.8253C86.9728 69.8253 86.9728 68.335 86.0053 68.335C85.0378 68.335 85.0378 69.8253 86.0053 69.8253Z" fill="#0C0A35"/>
<path d="M89.8166 69.1247C90.7841 69.1247 90.7841 67.6343 89.8166 67.6343C88.8491 67.6343 88.8491 69.1247 89.8166 69.1247Z" fill="#0C0A35"/>
<path d="M33.0564 84.9918C33.0564 84.9918 33.0271 85.1087 32.9977 85.1672C33.76 85.4886 34.2291 86.3653 34.3171 87.1835C34.405 88.0018 34.1999 88.8492 33.9946 89.6383C32.9685 93.408 31.5319 97.0609 29.7434 100.538C28.9518 100.743 28.1017 100.538 27.3101 100.334C24.2904 99.574 21.2411 98.8143 18.2213 98.0837C17.8109 97.9668 17.3419 97.8499 17.0487 97.5577C16.5796 97.0609 16.6088 96.3011 16.6967 95.629C17.1072 92.2099 17.8989 88.8492 18.9836 85.5763C19.4527 84.1736 20.1857 82.5955 21.593 82.1572C22.3846 81.9234 23.2054 82.0696 24.0263 82.2157C27.31 82.8586 30.1246 83.3261 33.0564 84.9626V84.9918Z" fill="#FFD6A1"/>
<path d="M29.0691 70.2933C27.0168 69.9427 24.554 69.4751 22.5897 70.2349C20.6253 70.9947 19.0128 72.5143 18.016 74.3553C17.371 75.5242 17.0192 77.0146 17.6935 78.1835C18.2213 79.0894 19.2768 79.557 20.127 80.1999C20.9772 80.8428 20.0097 83.0637 19.5113 83.9989C22.5897 85.2262 26.108 86.1906 29.3037 87.1257C32.7926 88.1485 34.3758 89.5804 34.6396 88.3531C35.0208 86.4828 35.4019 85.1678 35.9003 84.408C36.7212 83.1806 37.7766 82.8592 38.92 81.924C40.2393 80.8428 40.4445 78.7972 39.7995 77.2191C39.1252 75.6411 37.7766 74.4722 36.3693 73.5371C34.6395 72.3974 32.0303 70.7609 29.0984 70.2641L29.0691 70.2933Z" fill="#F70032"/>
<path d="M26.2545 71.1995C24.1729 70.1475 21.7102 72.7483 20.6548 74.2971C19.6286 75.8167 19.5112 79.4404 21.4756 80.2002C22.6776 80.6677 23.8505 79.4988 23.6159 78.3007C23.4987 77.6578 23.0295 76.4304 23.3813 75.6999C24.1729 74.1511 25.3164 73.2159 26.3719 71.9009C26.5478 71.6963 26.489 71.2872 26.2251 71.1703L26.2545 71.1995Z" fill="#990028"/>
<path d="M29.5965 71.7255C28.2186 71.8132 27.2804 73.1282 26.4888 74.151C25.3161 75.6706 24.583 77.5409 24.2312 79.4404C23.9087 81.2522 27.0459 81.8951 27.4564 80.054C27.7789 78.5929 28.1306 77.1902 28.6583 75.7875C29.0688 74.6478 30.0363 73.5958 30.1829 72.3684C30.2123 72.047 29.919 71.6963 29.5965 71.6963V71.7255Z" fill="#990028"/>
<path d="M31.7959 73.04C30.7111 75.5532 29.7436 78.154 28.6881 80.6964C27.9259 82.5082 30.887 83.5311 31.5906 81.69C32.2063 79.9951 32.7634 78.3001 33.1152 76.5468C33.3498 75.3778 33.5842 73.829 32.646 72.8939C32.3822 72.6017 31.9425 72.7186 31.7959 73.0692V73.04Z" fill="#990028"/>
<path d="M34.9034 74.6477C34.9034 76.0212 35.4019 77.2193 34.9328 78.5636C34.5516 79.6156 33.7308 80.4923 32.9685 81.3105C32.5874 81.6904 32.2649 82.2749 32.4408 82.8301C32.646 83.4146 32.8512 83.8529 33.4962 84.0282C33.9946 84.1743 34.6982 84.1451 35.0793 83.7068C36.2521 82.421 37.5128 80.9014 37.6594 79.0896C37.7766 77.2486 37.1317 75.203 35.3433 74.3847C35.1674 74.297 34.9034 74.4724 34.9034 74.6769V74.6477Z" fill="#990028"/>
<path d="M21.2413 82.2744C21.0067 82.3913 20.8601 82.7127 20.7721 82.9465C20.6255 83.268 20.567 83.5894 20.6842 83.9401C20.8015 84.2323 21.2413 84.2323 21.3879 83.9986C21.6224 83.6187 21.8276 82.6251 21.3879 82.3036C21.3292 82.2744 21.2706 82.2744 21.2119 82.3036L21.2413 82.2744Z" fill="#990028"/>
<path d="M22.9124 82.8592C22.6779 82.7715 22.3846 83.0345 22.238 83.2099C22.0327 83.5313 21.8861 83.9989 22.0327 84.3788C22.1793 84.7003 22.5898 84.671 22.795 84.4372C22.9709 84.2327 23.0296 83.7651 23.059 83.5021C23.059 83.356 23.059 82.9469 22.8831 82.8592H22.9124Z" fill="#990028"/>
<path d="M24.2021 83.3262C23.9089 83.3262 23.7332 83.5015 23.6159 83.7645C23.4986 83.9983 23.4106 84.349 23.4106 84.612C23.4106 85.0211 23.9969 85.3133 24.2608 84.9042C24.4074 84.6996 24.4074 84.4659 24.4661 84.2029C24.4954 83.9983 24.554 83.7645 24.4661 83.56C24.4367 83.4431 24.3194 83.3262 24.2021 83.3262V83.3262Z" fill="#990028"/>
<path d="M25.5511 83.8232C24.994 83.8232 24.8474 84.7291 24.7594 85.1383C24.6715 85.6935 25.5805 85.752 25.6391 85.1967C25.6684 84.9337 26.0788 83.8524 25.5511 83.8524V83.8232Z" fill="#990028"/>
<path d="M26.6649 84.4076C26.3424 84.6999 26.0198 85.4889 26.4009 85.8396C26.6062 86.0149 26.8115 86.0441 27.046 85.898C27.2806 85.7227 27.2513 85.4305 27.31 85.1967C27.3393 84.9337 27.3098 84.6999 27.1632 84.4661C27.046 84.32 26.8115 84.32 26.6942 84.4368L26.6649 84.4076Z" fill="#990028"/>
<path d="M28.4242 84.7874C27.8672 84.7874 27.6913 85.5471 27.7206 85.9855C27.7499 86.453 28.4244 86.3946 28.571 86.0439C28.6589 85.8394 28.9226 84.7874 28.4242 84.7874Z" fill="#990028"/>
<path d="M29.5677 85.2841C29.2452 85.4886 29.1281 85.8978 29.1281 86.2484C29.1281 86.8621 29.949 86.8621 30.0369 86.3069C30.0956 85.9562 30.0955 85.5471 29.8023 85.3133C29.7437 85.2841 29.6557 85.2548 29.5971 85.3133L29.5677 85.2841Z" fill="#990028"/>
<path d="M30.9163 85.8397C30.6231 86.1027 30.4471 86.6871 30.623 87.0378C30.6817 87.1839 30.887 87.2423 31.0629 87.1839C31.4733 86.9793 31.6199 86.3364 31.4147 85.9273C31.3267 85.752 31.0923 85.6935 30.9457 85.8397H30.9163Z" fill="#990028"/>
<path d="M32.1475 86.2782C31.825 86.6289 31.7371 87.2426 32.0303 87.6225C32.1769 87.827 32.4993 87.827 32.6459 87.6809C32.9977 87.3594 33.027 86.6581 32.6459 86.3366C32.4993 86.2197 32.2647 86.1321 32.1181 86.3074L32.1475 86.2782Z" fill="#990028"/>
<path d="M33.8185 86.8333C33.4374 86.7749 33.2029 87.4178 33.1736 87.71C33.115 88.0607 33.672 88.2653 33.8479 87.9438C33.9652 87.7392 34.2583 86.921 33.7892 86.8625L33.8185 86.8333Z" fill="#990028"/>
<path d="M61.6709 85.2847C61.9641 85.3724 62.1987 85.3432 62.4626 85.1971C62.961 84.9341 62.961 84.1743 62.4626 83.8821C62.1987 83.7359 61.9641 83.6775 61.6709 83.7943C60.938 84.0574 60.938 85.0217 61.6709 85.2847Z" fill="#990028"/>
<path d="M70.0854 91.0415C70.0854 91.0415 70.0855 91.0123 70.1148 90.9831C70.4666 90.5447 70.4666 90.1064 70.1148 89.6681C70.1148 89.6681 70.0854 89.6388 70.0854 89.6096C69.8509 89.3466 69.4112 89.2589 69.0887 89.3466C68.6489 89.4635 68.3264 89.8726 68.3264 90.3402C68.3264 90.6908 68.5316 91.0415 68.8248 91.2169C69.1766 91.4214 69.7922 91.4214 70.0561 91.0707L70.0854 91.0415Z" fill="#990028"/>
<path d="M75.1575 83.327C75.3041 83.327 75.4508 83.327 75.5974 83.2685C76.4476 82.9763 76.4476 81.895 75.5974 81.5736C75.4508 81.5151 75.3041 81.5151 75.1575 81.5151C73.9848 81.5151 73.9848 83.3562 75.1575 83.327V83.327Z" fill="#990028"/>
<path d="M83.7478 89.961C84.3048 89.961 84.7445 89.4935 84.7445 88.9674C84.7445 88.4414 84.2755 87.9739 83.7478 87.9739C83.22 87.9739 82.7509 88.4414 82.7509 88.9674C82.7509 89.4935 83.22 89.961 83.7478 89.961Z" fill="#990028"/>
<path d="M86.5037 79.1771C86.7382 79.5278 87.0608 79.7324 87.5006 79.6739C88.3215 79.6155 88.5268 78.6803 87.9111 78.1835C87.7059 78.0374 87.4713 77.9498 87.2075 77.979C86.9143 78.0082 86.6796 78.0959 86.533 78.3589C86.3864 78.5927 86.3864 78.9433 86.533 79.1479L86.5037 79.1771Z" fill="#990028"/>
<path d="M93.0123 85.9273C93.8332 85.9273 93.8332 84.6707 93.0123 84.6707C92.1914 84.6707 92.1914 85.9273 93.0123 85.9273Z" fill="#990028"/>
<path d="M73.2223 103.169C74.3071 103.169 74.3071 101.503 73.2223 101.503C72.1375 101.503 72.1375 103.169 73.2223 103.169Z" fill="#990028"/>
<path d="M77.9719 99.2238C79.0567 99.2238 79.0567 97.5581 77.9719 97.5581C76.8871 97.5581 76.8871 99.2238 77.9719 99.2238Z" fill="#990028"/>
<path d="M79.6136 104.279C80.6984 104.279 80.6984 102.614 79.6136 102.614C78.5289 102.614 78.5289 104.279 79.6136 104.279Z" fill="#990028"/>
<path d="M44.7836 40.1644C45.2527 40.1644 45.2527 39.4338 44.7836 39.4338C44.3145 39.4338 44.3145 40.1644 44.7836 40.1644Z" fill="#0C0A35"/>
<path d="M80.3762 122.603C79.9951 122.953 79.7312 123.421 79.2621 123.684C78.6171 124.064 77.8255 123.888 77.1219 123.596C76.4476 123.304 75.8025 122.895 75.0696 122.778C73.8675 122.603 72.6655 123.275 71.7859 124.151C70.9357 125.028 70.32 126.109 69.5284 127.044C68.9713 127.717 68.3264 128.301 67.7987 128.973C66.1275 131.077 65.5704 134 66.2447 136.571C66.919 139.143 68.8833 141.393 71.3167 142.474C71.5513 142.591 71.7858 142.679 72.0497 142.679C72.3722 142.679 72.6362 142.503 72.9 142.357C73.6037 141.977 74.278 141.568 74.923 141.101C77.0339 139.61 78.7051 137.506 79.6726 135.11C79.9658 134.379 80.2003 133.59 80.7573 133.035C81.4024 132.334 82.3698 132.071 83.22 131.662C84.9498 130.814 86.3278 129.265 86.9728 127.454C87.5885 125.759 87.3833 123.538 85.8587 122.573C85.331 122.223 84.686 122.106 84.041 121.989C82.751 121.755 81.2557 121.726 80.2882 122.603H80.3762Z" fill="#990028"/>
<path d="M85.976 119.476C86.8556 121.697 86.9142 124.327 85.7708 126.46C84.6567 128.535 81.8715 129.616 80.0245 130.96C77.1806 133.035 76.5355 136.016 76.0664 139.318C76.0664 139.435 76.213 139.523 76.2717 139.406C77.6789 136.922 77.5324 134.262 79.7605 132.1C81.4317 130.493 83.66 129.616 85.3898 128.067C87.6766 125.992 88.175 121.697 86.1228 119.388C86.0641 119.33 85.9467 119.388 85.976 119.476Z" fill="#0C0A35"/>
<path d="M84.6273 120.469C84.8032 123.011 84.3047 124.94 82.1644 126.518C80.7278 127.599 79.1741 128.535 77.6788 129.528C75.5972 130.902 73.8087 132.83 74.0432 135.46C74.0432 135.723 74.3951 135.753 74.4831 135.519C75.5092 132.976 76.5646 131.515 78.8515 129.966C80.3467 128.944 81.8419 127.979 83.2492 126.869C85.3308 125.262 85.8879 122.836 84.891 120.44C84.8324 120.323 84.6273 120.323 84.6273 120.469V120.469Z" fill="#0C0A35"/>
<path d="M83.396 119.826C82.6337 123.654 80.171 125.144 77.0926 127.161C75.099 128.447 73.2813 130.025 72.9001 132.479C72.8708 132.742 73.1638 132.888 73.3104 132.655C74.4539 130.989 75.011 129.645 76.7115 128.388C78.1187 127.365 79.7899 126.635 81.0799 125.495C82.751 124.005 83.9824 122.164 83.6306 119.855C83.6306 119.738 83.396 119.738 83.396 119.855V119.826Z" fill="#0C0A35"/>
<path d="M80.4057 119.943C79.7314 123.07 78.0016 124.706 75.1284 125.904C73.2814 126.664 72.1086 128.33 71.4049 130.171C71.3463 130.346 71.5514 130.492 71.698 130.405C72.7535 129.674 73.1347 128.447 74.0143 127.512C75.0698 126.372 76.8582 126.284 78.0309 125.291C79.5261 124.034 81.0214 121.959 80.5816 119.914C80.5816 119.797 80.4057 119.797 80.3763 119.914L80.4057 119.943Z" fill="#0C0A35"/>
<path d="M77.3858 119.856C76.8873 124.386 70.584 125.175 69.939 129.967C69.939 130.143 70.1442 130.289 70.2614 130.113C70.9944 128.828 71.61 127.6 72.6069 126.519C73.4571 125.613 74.5418 124.97 75.5093 124.21C76.7114 123.275 78.7637 121.434 77.5323 119.827C77.4737 119.739 77.3564 119.768 77.3564 119.885L77.3858 119.856Z" fill="#0C0A35"/>
<path d="M55.6022 128.797C55.0744 127.862 54.5175 126.751 54.9279 125.758C55.1331 125.261 55.5436 124.852 55.9833 124.53C59.8827 121.345 65.248 120.059 70.1735 121.111C69.3233 122.251 69.2938 124.18 69.1179 124.15C64.3683 123.537 59.0031 125.495 56.1592 129.352C55.8954 129.323 55.7194 129.06 55.6022 128.826V128.797Z" fill="#990028"/>
<path d="M65.4239 112.637C65.9223 112.286 66.6551 112.403 67.0949 112.842C67.5346 113.251 67.7106 113.894 67.6813 114.507C67.6813 115.121 67.476 115.706 67.3001 116.261C67.0656 116.991 66.8311 117.751 66.5965 118.482C66.362 119.183 66.1274 119.914 65.629 120.469C65.541 120.557 65.3944 120.644 65.2771 120.557C65.2478 120.527 65.2186 120.469 65.2186 120.41C64.7495 118.248 64.2804 115.998 64.7788 113.835C64.8961 113.397 65.0427 112.929 65.4239 112.637V112.637Z" fill="#0C0A35"/>
<path d="M74.1313 116.466C74.4831 116.846 74.4539 117.46 74.19 117.927C73.9261 118.366 73.4863 118.687 73.0759 118.979C72.255 119.564 71.2582 120.177 70.5252 120.879C70.1147 121.259 69.9681 120.82 69.9681 120.47C70.0854 119.535 70.4372 118.95 70.8477 118.073C71.2288 117.197 71.9618 116.437 72.9 116.203C73.3398 116.086 73.8381 116.145 74.1606 116.437L74.1313 116.466Z" fill="#0C0A35"/>
<path d="M59.1496 116.144C58.5925 115.822 57.8302 116.027 57.3318 116.436C56.98 116.728 57.0093 117.78 57.0972 118.248C57.4197 120.118 58.27 120.703 59.3255 121.609C59.5307 121.784 59.8238 121.959 59.9997 121.755C60.0877 121.667 60.0878 121.521 60.0878 121.375C60.0878 120.381 60.1464 119.388 60.0878 118.394C59.9998 117.108 59.7652 116.465 59.1496 116.115V116.144Z" fill="#0C0A35"/>
<path d="M75.3625 160.037C75.5677 160.183 75.8316 159.978 75.9489 159.774C77.5028 157.582 76.7699 154.572 77.1511 151.913C77.3563 150.452 78.0892 148.786 78.9688 147.588C80.1122 146.039 81.6366 144.929 81.9591 143.087C82.0178 142.737 81.7539 142.503 81.4021 142.415C80.6105 142.182 79.4085 142.328 78.8514 141.86C78.6169 141.656 78.617 141.246 78.617 140.925C78.5583 139.405 79.086 137.857 78.7635 136.366C78.3531 134.554 76.7698 133.269 76.0661 131.544C75.7143 130.697 75.5971 129.762 75.3919 128.885C75.0694 127.658 74.5417 126.46 73.8087 125.408C73.1637 124.473 71.6977 124.063 70.613 124.473C68.8245 125.174 67.2707 126.314 65.7168 127.453C63.5766 129.031 61.3483 130.697 60.1463 133.064C59.7945 133.736 59.5599 134.438 59.2081 135.11C58.2406 136.98 56.6574 138.441 55.5433 140.224C54.0774 142.591 53.5204 145.425 53.2565 148.201C53.1393 149.487 53.0807 150.802 53.2859 152.059C53.667 154.251 54.9278 156.267 56.6282 157.728C58.3287 159.189 60.4689 160.095 62.6678 160.504C64.5442 160.855 66.5084 160.855 68.4141 160.884C70.0266 160.884 71.6098 160.884 73.2223 160.884C73.8673 160.884 75.216 160.68 75.304 160.037H75.3625Z" fill="#FFD6A1"/>
<path d="M63.7527 158.956C63.7527 158.956 63.6353 158.839 63.606 158.781C63.1955 158.167 62.7851 157.524 62.3746 156.91C64.3683 155.917 66.5672 155.303 68.7954 155.391C71.0236 155.479 73.2517 156.268 74.8349 157.816C74.2779 158.342 73.6915 158.839 73.1344 159.365C70.4664 157.787 67.0362 157.612 64.1924 158.868C64.0458 158.927 63.8993 158.985 63.7527 158.927V158.956Z" fill="#0C0A35"/>
<path d="M60.7325 145.571C61.2309 146.009 61.8759 146.302 62.5209 146.389C63.2539 146.477 64.0163 146.243 64.6613 145.863C65.6288 145.279 66.3909 144.227 66.3616 143.116C66.303 141.743 65.0717 140.662 63.7524 140.223C62.7849 139.902 61.6413 139.843 60.8497 140.428C60.2927 140.837 59.9702 141.48 59.765 142.123C59.5011 142.883 59.2666 144.315 60.7619 145.6L60.7325 145.571Z" fill="#F70032"/>
<path d="M77.6787 138.821C77.3562 139.639 76.9456 140.311 76.0661 140.37C75.1572 140.457 74.5416 139.464 74.6882 138.704C75.128 136.483 75.8022 134.846 76.799 132.83C77.4147 133.181 80.0828 136.746 80.0242 138.412C80.0242 138.85 79.9069 139.347 79.6137 139.668C79.2912 139.99 78.7635 140.107 78.353 139.931C77.9425 139.756 77.6494 139.288 77.6787 138.821V138.821Z" fill="#F70032"/>
<path d="M41.9398 138.996C41.8812 137.243 41.7931 135.46 42.3795 133.824C42.6727 133.035 43.0831 132.275 43.2883 131.457C43.4936 130.638 43.435 129.674 42.8487 129.06C42.4968 128.71 42.057 128.534 41.6759 128.213C40.6204 127.365 40.5031 125.729 41.0895 124.502C41.6758 123.274 42.8192 122.427 44.0213 121.755C46.1615 120.557 48.595 119.826 51.0284 120.031C53.4618 120.235 55.866 121.492 57.1267 123.566C57.6251 124.414 57.9768 125.378 57.9182 126.343C57.8595 127.336 57.6251 128.417 56.8921 129.09C54.8691 130.901 53.0221 130.229 53.0807 132.158C53.1101 133.561 55.045 133.736 55.7486 133.824C57.9768 134.087 62.1695 136.98 58.4167 140.983C57.4785 141.977 56.3643 142.707 55.2209 143.438C54.9277 143.643 54.6347 143.847 54.4295 144.139C53.8724 145.075 54.8692 146.243 55.8954 146.565C56.9215 146.886 58.0941 146.828 59.0323 147.354C60.1757 148.026 60.6742 149.429 60.7621 150.744C60.8501 152.059 60.6449 153.374 60.8208 154.689C60.9674 155.887 61.4658 157.056 62.2281 157.991C62.5506 158.4 62.961 158.809 63.4594 159.014C63.8992 159.218 64.4269 159.277 64.896 159.306C66.6257 159.423 68.3556 159.511 70.1147 159.511C71.0236 159.511 71.991 159.511 72.7826 159.072C75.4506 157.728 75.6851 153.14 78.2945 151.679C79.4672 151.007 81.0211 151.007 82.3404 151.387C84.0116 151.854 84.9499 153.082 85.5655 154.689C86.3864 156.822 84.8912 159.306 82.8096 160.27C81.7248 160.767 80.2589 160.884 79.6432 161.878C78.705 163.339 79.6725 163.865 79.3207 164.858C78.7637 166.407 76.5941 167.693 74.9523 167.81C73.3691 167.927 71.5513 167.868 70.877 166.407C70.7304 166.086 70.6424 165.735 70.4665 165.414C69.8215 164.186 68.2091 163.806 66.8604 164.099C65.5118 164.391 64.3975 165.238 63.2541 166.027C62.14 166.816 60.9088 167.576 59.5308 167.664C58.3874 167.751 57.244 167.342 56.2472 166.787C52.6117 164.742 50.53 160.826 48.683 157.114C47.305 154.367 45.9857 151.562 45.0182 148.64C43.9627 145.367 42.0864 142.357 41.9398 138.908V138.996Z" fill="#D6002B"/>
<path d="M79.8192 137.008C79.1448 135.927 77.1805 136.278 76.1544 136.453C74.6885 136.716 72.8707 137.418 71.9619 138.645C71.9032 138.703 71.9911 138.849 72.0791 138.791C73.2811 138.294 74.3953 137.622 75.656 137.271C77.0633 136.892 78.3532 137.155 79.7605 137.096C79.8191 137.096 79.8485 137.038 79.8192 136.979V137.008Z" fill="#0C0A35"/>
<path d="M69.4696 124.735C66.743 125.466 64.7202 127.54 62.6679 129.323C61.0554 130.726 59.9706 132.508 59.5015 134.583C59.5015 134.729 59.6481 134.758 59.7067 134.642C60.5276 132.508 61.4951 131.369 63.1956 129.849C64.2804 128.885 65.3358 127.92 66.4792 127.073C67.4468 126.313 68.6195 125.875 69.6163 125.173C69.8216 125.027 69.7043 124.677 69.4404 124.735H69.4696Z" fill="#0C0A35"/>
<path d="M74.4539 153.081C74.3659 152.672 74.1901 152.087 73.6624 152.175C73.5744 152.175 73.5744 152.263 73.6037 152.321C73.7503 152.643 74.1021 152.847 74.3073 153.139C74.3659 153.227 74.4832 153.139 74.4539 153.081Z" fill="#0C0A35"/>
<path d="M69.2352 154.952C69.3525 154.776 69.3524 154.572 69.3524 154.367C69.3524 154.017 68.7661 154.017 68.7954 154.367C68.7954 154.572 68.7953 154.776 68.9126 154.952C69.0005 155.069 69.1473 155.069 69.2646 154.952H69.2352Z" fill="#0C0A35"/>
<path d="M72.2551 154.192C72.2844 153.958 72.1379 153.753 71.9913 153.578C71.7568 153.315 71.3169 153.665 71.4928 153.958C71.61 154.133 71.7568 154.338 71.9913 154.367C72.1379 154.367 72.2257 154.308 72.2257 154.192H72.2551Z" fill="#0C0A35"/>
<path d="M64.075 152.117C63.8698 152 63.7233 152.176 63.5473 152.292C63.3128 152.468 63.1662 152.672 63.1368 152.965C63.1368 153.082 63.2541 153.111 63.3421 153.082C63.5473 152.994 63.6645 152.848 63.8111 152.672C63.9284 152.526 64.1336 152.439 64.1629 152.205C64.1629 152.146 64.163 152.117 64.1044 152.088L64.075 152.117Z" fill="#0C0A35"/>
<path d="M66.3329 153.666C66.1863 153.929 65.9517 154.133 65.8931 154.455C65.8931 154.542 65.9516 154.601 66.0103 154.572C66.4207 154.484 66.6847 154.25 66.8313 153.87C66.9485 153.578 66.4795 153.403 66.3329 153.666Z" fill="#0C0A35"/>
<path d="M73.193 148.757C73.0464 148.961 72.8705 149.166 72.6946 149.341C72.548 149.487 72.46 149.575 72.4307 149.779C72.4307 149.838 72.4894 149.896 72.5481 149.896C73.0171 149.896 73.3103 149.224 73.4276 148.844C73.4569 148.698 73.2809 148.64 73.193 148.757V148.757Z" fill="#0C0A35"/>
<path d="M70.7306 148.026C70.5254 148.289 70.4081 148.756 70.5253 149.078C70.5547 149.166 70.6425 149.195 70.7598 149.166C71.1409 148.99 71.1702 148.435 71.1116 148.084C71.0822 147.909 70.8477 147.909 70.7598 148.026H70.7306Z" fill="#0C0A35"/>
<path d="M68.6783 147.792C68.473 148.055 68.2677 148.552 68.5609 148.786C68.6488 148.873 68.7662 148.873 68.8542 148.786C69.1767 148.523 68.9713 148.026 68.7368 147.792H68.6783V147.792Z" fill="#0C0A35"/>
<path d="M65.2478 148.728C65.2478 148.932 65.3359 149.107 65.4239 149.283C65.5118 149.487 65.5411 149.633 65.7757 149.663C65.8343 149.663 65.8929 149.663 65.9222 149.604C66.0395 149.4 65.9809 149.283 65.8929 149.078C65.8049 148.874 65.7463 148.669 65.5411 148.552C65.4238 148.494 65.2478 148.552 65.2478 148.728V148.728Z" fill="#0C0A35"/>
<path d="M63.0783 149.37C62.961 149.662 63.3423 150.1 63.5768 150.217C63.87 150.363 64.1044 150.071 63.9871 149.808C63.8992 149.603 63.2542 148.873 63.0783 149.37Z" fill="#0C0A35"/>
<path d="M62.3158 151.036C65.9513 148.319 71.2581 148.114 75.1281 150.51C74.2779 152.03 72.8411 153.228 71.17 153.754C69.4989 154.28 67.6518 154.134 66.0686 153.403C65.5702 153.17 65.0718 152.848 64.6027 152.556C63.8404 152.059 63.0781 151.562 62.3158 151.095V151.036Z" fill="white"/>
<path d="M67.6228 152.175C68.0333 152.701 68.7954 153.023 69.6456 152.848C70.2906 152.701 70.965 152.029 70.965 151.357C70.965 150.714 70.4373 150.159 69.8509 149.867C69.3818 149.633 68.7955 149.545 68.2971 149.721C67.7987 149.896 66.5967 150.919 67.5935 152.175H67.6228Z" fill="#0C0A35"/>
<path d="M77.5322 166.144C78.2359 165.472 78.1773 164.654 78.2067 163.718C78.2946 160.095 81.1091 159.452 83.8064 158.108C86.4157 156.793 86.1812 153.695 85.0964 151.503C84.9791 151.299 84.686 151.445 84.7446 151.649C85.2723 154.338 85.5069 156.793 82.2233 158.049C81.0798 158.488 80.2296 158.809 79.2621 159.569C76.8287 161.498 78.2652 163.602 77.2391 165.969C77.1512 166.144 77.415 166.261 77.5616 166.144H77.5322Z" fill="#0C0A35"/>
<path d="M76.0662 164.887C76.3887 161.906 77.3269 159.948 79.731 158.165C80.9037 157.289 82.2231 156.704 83.3079 155.711C84.9498 154.191 84.7739 151.21 83.5132 149.603C83.3666 149.428 83.1321 149.603 83.1614 149.808C83.865 152.847 83.6597 154.834 80.6986 156.5C79.7017 157.055 78.7928 157.669 77.9133 158.399C75.861 160.036 75.6266 162.461 75.8318 164.887C75.8318 165.033 76.0369 165.033 76.0662 164.887V164.887Z" fill="#0C0A35"/>
<path d="M73.75 165.969C74.5709 163.456 74.1898 161.059 75.6264 158.663C76.7991 156.705 79.0566 155.858 80.6691 154.367C82.135 153.023 83.0439 149.838 81.6366 148.231C81.4021 147.938 80.933 148.318 81.1089 148.64C83.4837 152.848 77.7079 155.127 75.5677 157.523C73.3981 159.949 73.4276 162.93 73.4862 165.969C73.4862 166.115 73.6913 166.144 73.75 165.969V165.969Z" fill="#0C0A35"/>
<path d="M79.7605 148.902C80.1123 152.438 74.8057 155.39 72.8707 157.932C71.1703 160.153 71.2582 163.631 71.4048 166.261C71.4048 166.787 72.1671 166.787 72.1965 166.261C72.2844 164.42 72.1964 162.637 72.5189 160.796C72.988 158.224 75.0696 156.354 76.858 154.601C78.5584 152.935 80.5521 151.474 80.0244 148.844C79.9951 148.698 79.7311 148.727 79.7311 148.873L79.7605 148.902Z" fill="#0C0A35"/>
<path d="M69.8799 166.349C70.5249 165.297 70.173 163.806 70.2023 162.608C70.261 160.679 71.6098 158.926 71.4338 157.056C71.4338 156.822 71.1406 156.734 70.994 156.939C69.616 159.014 68.3261 164.098 69.792 166.349C69.792 166.349 69.8506 166.349 69.8799 166.349Z" fill="#0C0A35"/>
<path d="M67.0363 166.027C67.9158 165.063 68.1503 163.923 68.2969 162.637C68.4728 161.118 68.766 159.247 67.8571 157.932C67.7691 157.815 67.5053 157.815 67.5346 158.02C67.6812 159.277 67.7691 160.475 67.6518 161.76C67.5346 163.192 67.6519 164.624 66.831 165.881C66.7431 165.998 66.919 166.144 67.0363 166.027Z" fill="#0C0A35"/>
<path d="M63.9871 165.676C65.1891 165.15 65.2771 163.222 65.453 162.111C65.8048 159.803 65.8929 157.786 64.4563 155.828C64.339 155.653 64.0458 155.741 64.1045 155.975C64.2804 156.734 64.6029 157.406 64.8374 158.137C65.1892 159.247 64.896 160.767 64.7494 161.907C64.6028 162.959 64.6028 164.654 63.8405 165.501C63.7526 165.618 63.8405 165.735 63.9871 165.676Z" fill="#0C0A35"/>
<path d="M60.9674 164.683C62.1988 165.502 62.6091 162.871 62.6971 162.199C63.0489 159.978 63.4301 156.589 61.6123 154.894C61.4951 154.806 61.3192 154.894 61.3486 155.04C61.9936 156.998 62.1401 158.751 62.0228 160.797C61.9642 161.732 62.1108 164.333 60.9674 164.654C60.9674 164.654 60.9674 164.654 60.9674 164.683Z" fill="#0C0A35"/>
<path d="M59.2962 164.216C59.6187 160.095 60.5275 154.397 58.6804 150.481C57.4491 147.88 54.6052 146.507 51.8786 147.822C51.6733 147.909 51.7907 148.231 51.996 148.202C53.4326 148.202 54.8105 148.202 56.1591 148.786C58.0062 149.575 58.4167 152.264 58.5926 153.988C58.9151 157.378 58.9443 160.826 59.2082 164.216C59.2082 164.303 59.3255 164.303 59.3255 164.216H59.2962Z" fill="#0C0A35"/>
<path d="M57.4784 163.777C58.7391 160.738 57.9474 157.202 57.3903 154.075C56.8626 151.153 53.9308 149.546 51.1455 149.896C50.9989 149.896 50.9404 150.13 51.1164 150.159C54.488 150.861 56.4816 152.147 56.98 155.829C57.3318 158.459 57.8008 161.089 57.3903 163.748C57.3903 163.807 57.4491 163.836 57.4784 163.748V163.777Z" fill="#0C0A35"/>
<path d="M50.3249 144.84C52.729 143.847 57.2146 141.918 57.3905 138.762C57.5957 135.109 53.2566 135.606 51.1457 133.882C48.3604 131.602 54.2535 128.271 55.4556 127.219C56.3938 126.43 57.0973 125.086 57.1853 123.858C57.3905 121.082 55.8368 118.481 52.9636 118.014C52.817 118.014 52.6996 118.189 52.8462 118.277C56.9508 120.79 56.9802 124.793 53.1101 127.57C51.3804 128.826 49.5918 130.141 49.5039 132.421C49.4159 134.349 51.351 135.284 52.8756 135.752C53.7551 136.015 54.5467 136.22 55.3969 136.599C58.1235 137.827 55.8074 140.369 54.8692 141.275C53.5205 142.619 51.7028 143.467 50.2955 144.753C50.2955 144.753 50.2955 144.782 50.2955 144.753L50.3249 144.84Z" fill="#0C0A35"/>
<path d="M48.507 144.11C51.0283 144.139 53.4911 141.977 54.4293 139.756C55.133 138.119 53.2273 137.213 52.0252 136.717C48.8588 135.431 45.4284 132.684 48.7707 129.119C50.0314 127.774 51.7027 127.015 52.9047 125.612C54.957 123.186 53.6963 120.235 51.7906 118.189C51.5854 117.985 51.3215 118.248 51.4095 118.481C52.7581 121.199 53.7843 123.362 51.1163 125.992C50.2075 126.898 49.0346 127.599 48.0671 128.446C46.6012 129.732 46.2787 131.486 46.6306 133.297C46.9531 135.051 48.5949 136.337 50.1194 136.95C51.2629 137.418 54.4293 137.769 53.4618 139.96C52.6409 141.801 50.266 143.146 48.4189 143.73C48.2137 143.788 48.2431 144.081 48.4776 144.081L48.507 144.11Z" fill="#0C0A35"/>
<path d="M49.0348 142.356C50.5594 141.947 52.3478 141.041 51.4389 139.259C51.0871 138.528 49.6211 138.09 48.9761 137.768C46.5427 136.453 45.4872 135.109 45.3113 132.245C45.0474 127.599 48.6536 126.693 50.4714 123.274C51.7321 120.907 49.6505 118.247 48.1553 116.611C48.0087 116.436 47.7449 116.669 47.8328 116.845C48.9469 118.92 50.53 120.819 49.2107 123.274C48.6243 124.384 47.2464 125.232 46.3376 126.05C44.7837 127.482 44.3438 129.352 44.1972 131.368C44.0799 133.063 44.3146 135.401 45.6046 136.687C46.2789 137.33 46.9826 137.827 47.8328 138.265C48.3019 138.528 48.8295 138.733 49.3279 138.937C51.3509 139.726 50.6473 141.392 49.0348 142.269C48.9762 142.269 49.0348 142.356 49.0642 142.356H49.0348Z" fill="#0C0A35"/>
<path d="M46.1906 118.277C46.8649 119.475 46.953 120.702 46.5132 121.93C46.2494 123.011 45.6043 124.004 44.9886 124.91C44.0798 126.255 42.7018 127.248 41.7343 128.563C40.2684 130.55 40.7375 133.064 41.7637 135.08C41.8516 135.255 42.1741 135.168 42.1448 134.992C41.8223 132.275 41.4412 130.054 43.4348 127.833C44.4023 126.751 45.3405 125.846 46.1027 124.647C47.3634 122.66 48.0964 119.943 46.4839 117.985C46.4253 117.897 46.2492 117.926 46.1906 118.014C46.132 118.16 46.1321 118.131 46.1321 118.277H46.1906Z" fill="#0C0A35"/>
<path d="M44.0212 119.416C44.461 119.913 44.0799 121.9 44.0212 122.397C43.7867 123.799 42.6433 124.852 41.6465 125.757C40.0339 127.219 39.1544 128.68 39.1251 130.93C39.1251 131.076 39.3303 131.134 39.4182 131.018C40.1512 129.527 40.4738 128.037 41.7345 126.78C42.7313 125.787 43.7281 124.998 44.4024 123.741C44.9888 122.66 45.37 120.322 44.5198 119.299C44.4611 119.241 44.3732 119.241 44.3145 119.241C44.2559 119.241 44.1679 119.241 44.1093 119.27C44.0506 119.27 44.0506 119.358 44.0799 119.387L44.0212 119.416Z" fill="#0C0A35"/>
<path d="M42.995 133.21C41.9396 133.093 41.2653 134.175 40.6203 135.022C38.8905 137.302 37.835 138.675 35.255 141.276C34.61 141.919 33.965 142.533 33.4959 143.322C33.3493 143.555 33.2026 143.848 33.2026 144.14C33.2026 144.549 33.4958 144.87 33.7597 145.133C35.3722 146.741 37.19 148.085 38.6266 149.838C40.0926 151.592 42.3793 155.303 42.6139 156.121C43.9332 160.651 44.3143 162.667 41.617 170.207C41.3531 170.966 41.8516 171.755 42.6432 171.785C45.1353 171.901 47.7447 172.077 50.2074 172.194C50.5299 172.194 50.8817 172.077 51.0869 171.843C51.7613 171.083 52.2303 169.768 52.6701 168.979C53.1392 168.132 54.6051 166.671 55.3967 164.567C57.5955 158.839 56.5694 153.754 54.0773 148.173C52.3768 144.374 50.5591 141.539 46.7477 137.594C46.1907 137.009 43.1123 133.532 42.9364 133.24L42.995 133.21Z" fill="#B70027"/>
<path d="M43.6694 169.096C43.1417 169.096 42.702 169.534 42.702 170.06C42.702 170.586 43.1417 171.024 43.6694 171.024C44.1971 171.024 44.637 170.586 44.637 170.06C44.637 169.534 44.1971 169.096 43.6694 169.096Z" fill="#0C0A35"/>
<path d="M44.989 165.793C44.4613 165.793 44.0508 166.232 44.0508 166.729C44.0508 167.225 44.4906 167.693 44.989 167.693C45.4874 167.693 45.9272 167.255 45.9272 166.729C45.9272 166.203 45.4874 165.793 44.989 165.793Z" fill="#0C0A35"/>
<path d="M45.6338 162.258C44.4611 162.258 44.4611 164.069 45.6338 164.069C46.8066 164.069 46.8066 162.258 45.6338 162.258Z" fill="#0C0A35"/>
<path d="M45.6922 158.4C44.4022 158.4 44.4022 160.416 45.6922 160.416C46.9822 160.416 46.9822 158.4 45.6922 158.4Z" fill="#0C0A35"/>
<path d="M45.0183 154.923C44.4906 154.923 44.0508 155.361 44.0508 155.887C44.0508 156.413 44.4906 156.822 45.0183 156.822C45.5461 156.822 45.9565 156.384 45.9565 155.887C45.9565 155.39 45.5167 154.923 45.0183 154.923Z" fill="#0C0A35"/>
<path d="M43.7575 151.825C43.2884 151.825 42.9071 152.205 42.9071 152.672C42.9071 153.14 43.2884 153.52 43.7575 153.52C44.2265 153.52 44.6076 153.14 44.6076 152.672C44.6076 152.205 44.2265 151.825 43.7575 151.825Z" fill="#0C0A35"/>
<path d="M42.1451 149.019C40.9137 149.019 40.9137 150.89 42.1451 150.89C43.3765 150.89 43.3471 149.019 42.1451 149.019Z" fill="#0C0A35"/>
<path d="M40.2686 146.478C39.7116 146.478 39.2717 146.945 39.2717 147.471C39.2717 147.997 39.7409 148.465 40.2686 148.465C40.7964 148.465 41.2654 147.997 41.2654 147.471C41.2654 146.945 40.7964 146.478 40.2686 146.478Z" fill="#0C0A35"/>
<path d="M38.0404 144.315C37.4833 144.315 37.0143 144.783 37.0143 145.338C37.0143 145.893 37.4833 146.361 38.0404 146.361C38.5974 146.361 39.0664 145.893 39.0664 145.338C39.0664 144.783 38.5974 144.315 38.0404 144.315Z" fill="#0C0A35"/>
<path d="M34.9915 142.999C34.669 143.262 34.669 143.905 34.9915 144.168C35.2261 144.372 35.4898 144.489 35.8123 144.402C36.1642 144.314 36.4281 143.963 36.4281 143.583C36.4281 143.291 36.2521 142.999 36.0176 142.853C35.6658 142.648 35.2847 142.736 34.9915 142.999V142.999Z" fill="#0C0A35"/>
<path d="M55.3382 169.3C59.0617 162.345 57.3611 154.601 54.6932 147.616C53.4325 144.314 51.7321 141.626 49.0934 139.288C46.572 137.067 44.8715 133.385 41.8224 131.836C41.0601 131.456 40.2685 131.544 39.6528 132.099C39.5649 132.187 39.477 132.274 39.3891 132.333C38.832 132.83 38.8027 133.911 39.3891 134.378C41.5879 136.219 43.2883 138.353 45.194 140.515C46.2202 141.684 49.7677 146.418 50.3247 147.85C52.2304 152.526 53.4619 156.266 53.4912 159.685C53.5791 164.215 53.0806 166.231 53.579 169.738C53.667 170.293 55.1037 169.738 55.3382 169.3Z" fill="#0C0A35"/>
<path d="M79.5845 163.455C79.9363 163.981 80.2589 165.063 81.7248 168.336C82.4871 170.031 82.9267 171.93 82.8388 173.771C82.7508 175.466 82.3111 175.846 81.8127 176.46C81.3436 177.015 80.4934 177.073 79.7897 176.898C79.0861 176.723 78.4411 176.313 77.7668 176.08C76.3008 175.583 74.571 175.875 73.369 176.84C72.0204 177.921 71.2581 179.733 69.7042 180.492C67.8278 181.398 65.4531 180.346 64.3097 178.651C63.9872 178.184 63.7233 177.658 63.2835 177.307C62.4626 176.723 60.9967 176.635 60.0879 177.044C59.179 177.453 58.5047 178.038 57.5078 178.213C56.4231 178.388 55.0744 178.418 54.1362 177.862C49.7091 175.291 50.6474 172.164 50.9112 170.966C51.2044 169.709 52.6996 167.81 54.7226 164.274C55.9246 162.17 56.3057 160.942 56.8627 161.088C62.228 162.55 65.7463 162.988 72.4895 163.28C74.0727 163.339 79.2327 162.9 79.6138 163.426L79.5845 163.455Z" fill="#F70032"/>
<path d="M68.6194 176.46C66.8603 177.162 65.5996 175.788 65.3064 174.356C65.1012 173.333 65.3065 172.281 65.5117 171.259C65.7462 170.119 66.0102 169.008 66.3033 167.869C66.4499 167.284 66.6258 166.7 67.007 166.203C67.564 165.472 68.7075 165.648 69.0886 166.466C69.8216 168.044 70.32 169.768 70.5252 171.492C70.7011 172.924 70.6424 174.473 69.6748 175.642C69.3817 175.993 69.0005 176.256 68.5901 176.431L68.6194 176.46Z" fill="#0C0A35"/>
<path d="M55.1332 173.566C54.4002 173.245 54.1363 172.281 54.3709 171.521C54.6054 170.761 55.1917 170.147 55.7781 169.621C56.6283 168.832 59.2377 165.793 60.2052 165.209C60.7329 164.887 61.3486 165.443 61.1141 166.027C60.2638 168.102 58.534 171.17 57.5665 172.485C57.2733 172.865 56.9508 173.245 56.5111 173.479C56.0713 173.713 55.5436 173.8 55.1038 173.596L55.1332 173.566Z" fill="#0C0A35"/>
<path d="M79.1449 174.034C78.7344 174.21 78.2947 174.297 77.8842 174.151C77.4444 174.005 76.8287 173.771 76.5942 172.047C76.4183 170.703 75.9491 165.764 76.6821 165.647C77.6789 165.472 79.6726 171.112 79.8485 172.924C79.8485 173.158 79.8484 173.391 79.7604 173.567C79.6432 173.771 79.4086 173.917 79.174 174.005L79.1449 174.034Z" fill="#0C0A35"/>
<path d="M72.724 117.108C71.8737 117.108 71.8737 118.394 72.724 118.394C73.5742 118.394 73.5742 117.108 72.724 117.108Z" fill="#F70032"/>
<path d="M66.1862 113.485C65.2187 113.485 65.2187 114.976 66.1862 114.976C67.1537 114.976 67.1537 113.485 66.1862 113.485Z" fill="#F70032"/>
<path d="M58.5047 116.933C57.5665 116.933 57.5665 118.394 58.5047 118.394C59.4429 118.394 59.4429 116.933 58.5047 116.933Z" fill="#F70032"/>
<path d="M68.8834 120.031C68.1798 120.031 68.1798 121.141 68.8834 121.141C69.5871 121.141 69.5871 120.031 68.8834 120.031Z" fill="#F70032"/>
<path d="M67.1827 119.943C66.3911 119.943 66.3911 121.17 67.1827 121.17C67.9743 121.17 67.9743 119.943 67.1827 119.943Z" fill="#F70032"/>
<path d="M63.5475 120.235C62.6972 120.235 62.6972 121.55 63.5475 121.55C64.3977 121.55 64.3977 120.235 63.5475 120.235Z" fill="#F70032"/>
<path d="M61.6417 120.703C60.7915 120.703 60.7915 122.018 61.6417 122.018C62.4919 122.018 62.4919 120.703 61.6417 120.703Z" fill="#F70032"/>
<path d="M62.8144 108.137C64.984 108.312 67.3587 106.91 66.7723 104.484C66.1566 101.913 62.6971 101.796 60.7914 102.702C59.7653 103.198 58.8564 104.367 58.9444 105.536C59.0616 107.114 60.4982 108.049 61.9641 108.225C63.0489 108.371 64.4269 107.903 65.1599 107.056C65.6583 106.501 65.8928 105.77 65.6876 105.039C65.4237 104.192 64.6614 103.724 63.8698 103.461C63.0782 103.198 62.1986 103.754 61.9934 104.513C61.7589 105.361 62.2572 106.121 63.0488 106.384C63.4007 106.501 63.049 106.384 62.9903 106.296C62.7265 106.091 62.6971 105.624 62.7557 105.332C62.7557 105.273 63.0782 104.835 62.8729 105.039C63.1368 104.776 62.8143 105.039 62.697 105.127C63.0195 104.952 62.6385 105.127 62.5798 105.156C62.4919 105.156 62.4038 105.185 62.3159 105.215C62.4918 105.215 62.5211 105.215 62.3159 105.215C62.2279 105.215 61.8469 105.156 62.228 105.215C62.1401 105.215 62.0229 105.156 61.9349 105.127C62.0522 105.185 62.0228 105.156 61.8762 105.069C61.5244 104.864 62.052 105.244 61.7882 104.981C61.8468 105.039 62.0229 105.478 61.9349 105.215C61.9349 105.302 61.9349 105.361 61.9349 105.419C61.9349 105.244 61.9349 105.302 61.9349 105.536C61.9935 105.39 61.9642 105.419 61.9056 105.624C61.9935 105.478 61.9641 105.507 61.8469 105.653C61.9348 105.565 61.9935 105.478 62.0815 105.39C61.8176 105.624 62.2279 105.302 62.3159 105.273C62.0227 105.419 62.4333 105.244 62.4626 105.215C62.5506 105.215 62.6385 105.156 62.7557 105.156C62.6091 105.156 62.6092 105.156 62.8144 105.156C62.961 105.156 63.1075 105.156 63.2541 105.156C63.3127 105.156 63.7526 105.215 63.3715 105.156C63.4887 105.156 63.606 105.215 63.7233 105.244C63.9871 105.332 63.4594 105.098 63.8405 105.302C63.9284 105.361 64.163 105.565 63.8405 105.302C64.1337 105.565 63.7526 105.127 63.8698 105.302C63.9285 105.419 64.0164 105.653 63.8698 105.215C64.0164 105.565 63.8698 104.922 63.8698 105.185C63.8698 105.478 63.9578 104.806 63.8698 105.069C63.8698 105.186 63.7233 105.39 63.9285 104.981C63.8699 105.098 63.6939 105.273 63.987 104.923C63.7232 105.215 64.163 104.835 63.987 104.981C63.8991 105.039 63.6059 105.156 63.987 104.981C63.8405 105.039 63.694 105.069 63.5474 105.098C63.9285 105.01 63.5473 105.098 63.4593 105.098C63.2541 105.098 63.0782 105.098 62.8729 105.098C62.052 105.039 61.3485 105.858 61.3485 106.617C61.3485 107.494 62.052 108.079 62.8729 108.137H62.8144Z" fill="#0C0A35"/>
<path d="M62.8147 104.016C62.199 103.957 61.7885 104.279 61.4659 104.746C61.2314 105.097 61.2314 105.711 61.4659 106.061C61.7885 106.529 62.2283 106.85 62.8147 106.792C63.5769 106.734 64.1925 106.208 64.1925 105.419C64.1925 104.63 63.5476 104.104 62.8147 104.045V104.016Z" fill="#F70032"/>
<path d="M68.9124 106.588C69.4401 106.822 69.8506 106.822 70.3783 106.588C71.2579 106.179 71.2873 104.893 70.6716 104.28C70.1146 103.724 69.147 103.724 68.5899 104.28C67.9743 104.893 68.0037 106.179 68.8832 106.588H68.9124Z" fill="#0C0A35"/>
<path d="M74.7761 105.916C74.7761 105.916 74.7763 105.916 74.7469 105.916C74.1899 105.565 73.4569 105.916 73.281 106.5C73.0758 107.231 73.7794 107.932 74.5123 107.727C74.5123 107.727 74.5124 107.727 74.5417 107.727C75.3626 107.494 75.5091 106.383 74.7761 105.945V105.916Z" fill="#0C0A35"/>
<path d="M78.5292 107.231C77.3565 107.231 77.3565 109.013 78.5292 109.013C79.7019 109.013 79.7019 107.231 78.5292 107.231Z" fill="#0C0A35"/>
<path d="M82.6339 108.575C81.6077 108.575 81.6077 110.153 82.6339 110.153C83.66 110.153 83.66 108.575 82.6339 108.575Z" fill="#0C0A35"/>
<path d="M86.0052 109.656C85.2429 109.656 85.2429 110.855 86.0052 110.855C86.7675 110.855 86.7675 109.656 86.0052 109.656Z" fill="#0C0A35"/>
<path d="M56.2178 105.799C55.9832 105.945 55.7193 106.179 55.602 106.413C55.2795 107.114 55.5433 107.815 56.2763 108.078C56.6574 108.195 57.1266 108.137 57.4491 107.932C58.0355 107.582 58.2408 106.822 57.8889 106.237C57.5664 105.653 56.7748 105.419 56.1884 105.799H56.2178Z" fill="#0C0A35"/>
<path d="M52.5825 107.348C52.5825 107.348 52.5237 107.348 52.4651 107.348C51.8494 107.348 51.351 107.874 51.351 108.459C51.351 109.043 51.8494 109.569 52.4651 109.569H52.5825C53.1981 109.569 53.6966 109.072 53.6966 108.459C53.6966 107.845 53.1981 107.377 52.5825 107.348Z" fill="#0C0A35"/>
<path d="M47.9795 108.867C47.9795 108.867 47.9502 108.867 47.9208 108.897C47.3638 109.306 47.3638 110.007 47.9208 110.416C47.9208 110.416 47.9502 110.416 47.9795 110.445C48.5659 110.884 49.3868 110.299 49.3868 109.656C49.3868 109.013 48.5659 108.429 47.9795 108.867V108.867Z" fill="#0C0A35"/>
<path d="M43.9335 110.241C43.9335 110.241 43.8748 110.241 43.8455 110.241C42.9366 110.475 42.9366 111.819 43.8455 112.053C43.8748 112.053 43.9042 112.053 43.9335 112.053C44.5492 112.199 45.1648 111.76 45.1648 111.118C45.1648 110.475 44.5492 110.007 43.9335 110.182V110.241Z" fill="#0C0A35"/>
<path d="M40.6792 111.497C39.7117 111.497 39.7117 112.987 40.6792 112.987C41.6467 112.987 41.6467 111.497 40.6792 111.497Z" fill="#0C0A35"/>
<path d="M37.3077 112.812C36.3402 112.812 36.3402 114.303 37.3077 114.303C38.2752 114.303 38.2752 112.812 37.3077 112.812Z" fill="#0C0A35"/>
<path d="M33.4961 113.543C32.5286 113.543 32.5286 115.034 33.4961 115.034C34.4636 115.034 34.4636 113.543 33.4961 113.543Z" fill="#0C0A35"/>
<path d="M90.2564 97.6751C90.2564 97.6751 90.2858 97.5582 90.3151 97.4998C89.5529 97.1784 89.0837 96.3017 88.9958 95.4834C88.9078 94.6652 89.113 93.8177 89.3182 93.0287C90.3444 89.259 91.781 85.6061 93.5694 82.0994C94.361 81.8948 95.2113 82.0994 96.0029 82.3039C99.0227 83.0637 102.072 83.8235 105.092 84.5541C105.531 84.671 105.971 84.7879 106.264 85.0801C106.733 85.5769 106.704 86.3367 106.616 87.0088C106.206 90.4279 105.414 93.7885 104.329 97.0615C103.86 98.4642 103.127 100.042 101.691 100.481C100.899 100.714 100.078 100.568 99.2572 100.422C95.9735 99.7792 93.1589 99.3116 90.2271 97.6751H90.2564Z" fill="#FFD6A1"/>
<path d="M94.2143 112.374C96.2666 112.725 98.7294 113.193 100.694 112.433C102.658 111.673 104.271 110.153 105.267 108.312C105.912 107.144 106.264 105.624 105.59 104.484C105.062 103.578 104.007 103.111 103.157 102.468C102.306 101.825 103.274 99.604 103.772 98.6689C100.694 97.4415 97.1756 96.4771 93.9799 95.542C90.491 94.5192 88.9078 93.0873 88.6439 94.2854C88.2628 96.1557 87.8817 97.4707 87.3833 98.2305C86.5623 99.4579 85.5068 99.7793 84.3634 100.714C83.0441 101.796 82.8389 103.841 83.4839 105.419C84.1582 106.997 85.5068 108.166 86.9141 109.101C88.6438 110.241 91.2533 111.878 94.1851 112.374H94.2143Z" fill="#F70032"/>
<path d="M97.0584 111.468C99.14 112.52 101.603 109.919 102.658 108.37C103.684 106.851 103.802 103.227 101.837 102.467C100.635 102 99.4624 103.198 99.6969 104.367C99.8142 105.01 100.283 106.237 99.9315 106.968C99.1399 108.517 97.9673 109.452 96.9411 110.767C96.7652 110.971 96.8532 111.38 97.0877 111.497L97.0584 111.468Z" fill="#990028"/>
<path d="M93.6866 110.913C95.0646 110.796 96.0028 109.51 96.7944 108.488C97.9671 106.968 98.7001 105.098 99.0519 103.198C99.3744 101.387 96.2081 100.773 95.827 102.585C95.5045 104.046 95.1526 105.449 94.6248 106.851C94.2144 107.991 93.2468 109.043 93.1002 110.27C93.0416 110.563 93.3641 110.942 93.6866 110.942V110.913Z" fill="#990028"/>
<path d="M91.517 109.627C92.6018 107.114 93.5693 104.513 94.6248 101.971C95.387 100.159 92.4259 99.136 91.7223 101.006C91.1066 102.701 90.5495 104.396 90.1977 106.149C89.9631 107.318 89.7287 108.867 90.6669 109.802C90.9307 110.095 91.3704 109.978 91.517 109.627V109.627Z" fill="#990028"/>
<path d="M88.38 107.99C88.38 106.646 87.8816 105.419 88.3507 104.074C88.7318 103.022 89.5528 102.146 90.3151 101.328C90.6963 100.948 91.0187 100.363 90.8428 99.808C90.6376 99.2235 90.4324 98.8144 89.7874 98.6098C89.289 98.4637 88.5852 98.4929 88.2041 98.9313C87.0314 100.217 85.7707 101.737 85.6241 103.548C85.5068 105.39 86.1519 107.435 87.9403 108.253C88.1163 108.341 88.3507 108.166 88.3507 107.961L88.38 107.99Z" fill="#990028"/>
<path d="M102.043 100.393C102.277 100.276 102.424 99.9545 102.512 99.7207C102.658 99.3992 102.717 99.0777 102.6 98.7271C102.482 98.4348 102.043 98.4349 101.896 98.6687C101.661 99.0486 101.456 100.042 101.896 100.364C101.955 100.393 102.013 100.393 102.072 100.364L102.043 100.393Z" fill="#990028"/>
<path d="M100.371 99.8078C100.606 99.8955 100.928 99.6324 101.046 99.4571C101.251 99.1356 101.398 98.6681 101.222 98.2882C101.075 97.9375 100.665 97.996 100.459 98.2297C100.283 98.4343 100.225 98.9019 100.196 99.1649C100.196 99.311 100.196 99.7201 100.371 99.7785V99.8078Z" fill="#990028"/>
<path d="M99.1108 99.3405C99.4039 99.3405 99.5797 99.1652 99.7263 98.9022C99.8436 98.6684 99.9316 98.3177 99.9316 98.0547C99.9316 97.6163 99.3453 97.3534 99.0814 97.7625C98.9348 97.967 98.9348 98.2008 98.8762 98.4346C98.8468 98.6684 98.7882 98.8729 98.8762 99.0775C98.9055 99.1944 99.0228 99.3113 99.1401 99.3113L99.1108 99.3405Z" fill="#990028"/>
<path d="M97.762 98.8439C98.319 98.8439 98.4657 97.938 98.5536 97.5288C98.6416 96.9736 97.7328 96.9151 97.6741 97.4704C97.6448 97.7334 97.2343 98.8147 97.762 98.8147V98.8439Z" fill="#990028"/>
<path d="M96.6477 98.2304C96.9702 97.9382 97.2928 97.1492 96.941 96.7985C96.7357 96.6232 96.5304 96.5939 96.2959 96.74C96.0613 96.9154 96.0612 97.2076 96.0319 97.4414C96.0026 97.7044 96.0321 97.9382 96.1787 98.172C96.2959 98.3181 96.5304 98.3181 96.6477 98.2012V98.2304Z" fill="#990028"/>
<path d="M94.8596 97.8506C95.3873 97.8506 95.5925 97.0908 95.5632 96.6525C95.5339 96.1849 94.8596 96.2433 94.713 96.594C94.6251 96.7986 94.3612 97.8506 94.8596 97.8506Z" fill="#990028"/>
<path d="M93.7457 97.3529C94.0682 97.1483 94.1855 96.7392 94.1855 96.3885C94.1855 95.7748 93.3646 95.7748 93.2766 96.33C93.218 96.6807 93.2179 97.0898 93.5111 97.3236C93.5697 97.3528 93.6577 97.3821 93.7163 97.3236L93.7457 97.3529Z" fill="#990028"/>
<path d="M92.3673 96.7989C92.6605 96.5359 92.8365 95.9514 92.6606 95.6007C92.5727 95.4254 92.3967 95.3962 92.2208 95.4546C91.8103 95.6592 91.6637 96.3021 91.869 96.7112C91.9569 96.8865 92.1914 96.945 92.3673 96.7989Z" fill="#990028"/>
<path d="M91.1358 96.3892C91.4583 96.0386 91.5463 95.4249 91.2531 95.045C91.1066 94.8404 90.784 94.8404 90.6374 95.0158C90.2856 95.3372 90.2563 96.0385 90.6374 96.36C90.7547 96.4769 91.0185 96.5646 91.1651 96.3892H91.1358Z" fill="#990028"/>
<path d="M89.4941 95.8337C89.8753 95.8922 90.1099 95.2493 90.1392 94.957C90.1979 94.6064 89.6407 94.4018 89.4648 94.7232C89.3475 94.9278 89.0544 95.746 89.5235 95.8045L89.4941 95.8337Z" fill="#990028"/>
<path d="M61.6417 97.3544C61.3485 97.2375 61.1139 97.296 60.85 97.4421C60.3516 97.7051 60.3516 98.4941 60.85 98.7571C61.1139 98.9032 61.3485 98.9617 61.6417 98.8448C62.3746 98.5818 62.3746 97.6174 61.6417 97.3544Z" fill="#990028"/>
<path d="M53.2272 91.5964C53.2272 91.5964 53.1978 91.6256 53.1685 91.6548C52.8167 92.0932 52.8167 92.5315 53.1685 92.9699C53.1685 92.9699 53.1686 92.9991 53.2272 93.0283C53.4325 93.2913 53.9016 93.379 54.2241 93.2913C54.6639 93.1744 54.9863 92.7653 54.9863 92.2977C54.9863 91.947 54.7811 91.5964 54.4879 91.421C54.1361 91.2165 53.5204 91.2165 53.2566 91.5671L53.2272 91.5964Z" fill="#990028"/>
<path d="M48.1553 99.3116C48.0087 99.3116 47.862 99.3116 47.7154 99.37C46.8652 99.6623 46.8652 100.744 47.7154 101.065C47.862 101.123 48.0087 101.123 48.1553 101.123C49.328 101.123 49.328 99.2824 48.1553 99.3116V99.3116Z" fill="#990028"/>
<path d="M39.5651 92.678C39.0081 92.678 38.5682 93.1455 38.5682 93.6715C38.5682 94.1976 39.0374 94.6651 39.5651 94.6651C40.0929 94.6651 40.5619 94.1976 40.5619 93.6715C40.5619 93.1455 40.0929 92.678 39.5651 92.678Z" fill="#990028"/>
<path d="M36.7796 103.49C36.5451 103.139 36.2225 102.935 35.8121 102.993C34.9912 103.081 34.7566 103.987 35.4016 104.484C35.6068 104.63 35.8415 104.717 36.1054 104.688C36.3986 104.659 36.6331 104.542 36.7796 104.308C36.9262 104.075 36.9262 103.724 36.7796 103.519V103.49Z" fill="#990028"/>
<path d="M28.9223 95.1328C28.1014 95.1328 28.1014 96.3894 28.9223 96.3894C29.7432 96.3894 29.7432 95.1328 28.9223 95.1328Z" fill="#990028"/>
<path d="M46.8944 84.2031C45.8096 84.2031 45.8096 85.8688 46.8944 85.8688C47.9792 85.8688 47.9792 84.2031 46.8944 84.2031Z" fill="#990028"/>
<path d="M44.256 79.3809C43.1712 79.3809 43.1712 81.0466 44.256 81.0466C45.3407 81.0466 45.3114 79.3809 44.256 79.3809Z" fill="#990028"/>
<path d="M40.3858 84.7288C39.3304 84.7288 39.3304 86.3945 40.3858 86.3945C41.4413 86.3945 41.4706 84.7288 40.3858 84.7288Z" fill="#990028"/>
<path d="M78.5291 142.503C78.06 142.503 78.06 143.233 78.5291 143.233C78.9982 143.233 78.9982 142.503 78.5291 142.503Z" fill="#0C0A35"/>
<path d="M16.638 106.617C15.4653 102.438 15.0841 96.9151 16.638 96.0384C21.9446 92.8823 27.8082 91.7719 33.7598 90.077C42.614 87.5638 49.5918 86.2196 58.5339 83.9694C63.3714 82.7713 67.6812 80.9886 71.4925 79.7028C80.5226 76.6344 87.7643 72.251 94.2436 68.6274C96.9995 67.0786 106.675 76.9559 106.997 84.4077C106.997 84.7292 106.997 85.0798 106.88 85.4013C106.645 85.8689 106.147 86.1026 105.678 86.3072C92.1914 92.1225 80.9332 94.9864 66.6845 98.5516C62.961 99.4867 55.9832 101.766 52.2891 102.818C44.1972 105.127 36.5451 107.698 29.1862 111.79C28.2187 112.316 27.2219 112.9 26.1371 113.017C24.7885 113.163 23.4691 112.608 22.2377 111.994C19.8336 110.854 17.4002 109.189 16.6965 106.617H16.638Z" fill="#222272"/>
<path d="M63.6353 87.184C64.6028 86.395 65.9222 85.606 67.0363 86.1613C67.8866 86.5704 68.942 87.973 68.8247 88.9082C68.7074 89.8433 68.209 90.6908 67.7106 91.4798C66.5085 93.3208 64.4562 94.6943 62.9317 96.2431C62.7558 96.4185 62.5506 96.623 62.2868 96.6523C62.0815 96.6523 61.8763 96.5938 61.671 96.4769C59.9412 95.6002 58.4754 94.2852 57.3613 92.7072C56.6577 91.6844 56.1005 90.5155 56.1005 89.2589C56.1005 88.0315 56.6869 86.7165 57.801 86.1613C58.7098 85.7229 59.8826 85.8398 60.7328 86.3951C61.583 86.9503 62.14 87.9146 62.3159 88.9082C62.4625 88.2068 63.0197 87.6516 63.5768 87.2133L63.6353 87.184Z" fill="#F70032"/>
<path d="M62.2576 92.3277C63.1371 92.3277 63.1371 90.9834 62.2576 90.9834C61.378 90.9834 61.378 92.3277 62.2576 92.3277Z" fill="#0C0A35"/>
<path d="M52.9926 89.7557C50.5299 88.9374 46.6892 87.0671 44.6076 89.6387C44.2558 90.0771 44.4611 90.7785 45.0768 90.8077C46.3082 90.8077 47.4515 90.3693 48.7122 90.3401C50.1195 90.3401 51.4975 90.3693 52.9047 90.4862C53.3445 90.5155 53.3737 89.8726 52.9926 89.7557V89.7557Z" fill="#0C0A35"/>
<path d="M52.1718 93.0576C49.6505 93.6421 47.1584 94.1096 44.6957 94.8986C43.0832 95.3954 40.8843 95.9506 40.2393 97.6748C40.122 97.9962 40.4151 98.2593 40.7083 98.2885C42.3794 98.4638 44.3732 97.4118 45.9564 96.915C48.1846 96.1844 50.2662 95.1032 52.553 94.4311C53.4325 94.1681 53.0514 92.8823 52.1718 93.0868V93.0576Z" fill="#0C0A35"/>
<path d="M73.8089 87.7105C76.301 87.0968 78.7929 86.5708 81.2557 85.7525C82.8389 85.2265 85.0671 84.6421 85.6534 82.9179C85.7707 82.5965 85.4776 82.3334 85.1844 82.3042C83.5133 82.1581 81.5489 83.2394 79.995 83.7654C77.7668 84.5544 75.7146 85.6648 73.4277 86.3662C72.5775 86.6292 72.9293 87.9443 73.8089 87.7105Z" fill="#0C0A35"/>
<path d="M54.2243 96.6807C53.1689 97.7328 51.6735 98.4634 50.2662 98.9894C49.0349 99.4569 47.481 99.866 46.9533 101.21C46.8067 101.59 47.1293 101.941 47.4518 102.058C48.8591 102.613 50.7354 101.532 51.9374 100.889C53.462 100.071 54.4881 98.9893 55.1917 97.4113C55.4849 96.7976 54.7521 96.1547 54.2243 96.6515V96.6807Z" fill="#0C0A35"/>
<path d="M71.5515 84.5824C72.6362 83.9395 73.721 83.2674 74.8351 82.6537C75.9785 82.0108 77.1219 81.6601 77.9135 80.5497C78.0601 80.3451 77.9136 79.9652 77.6497 79.9068C76.2131 79.6438 75.0404 80.2574 73.8384 80.9295C72.4897 81.6893 71.4342 82.6245 71.0531 84.1733C70.9945 84.4655 71.2876 84.7285 71.5515 84.5824V84.5824Z" fill="#0C0A35"/>
<path d="M73.6915 90.6908C74.3952 91.9473 76.6234 91.9181 77.9134 91.9766C79.4379 92.035 82.1646 91.6551 83.1321 90.3985C83.308 90.1648 83.3373 89.8433 83.0441 89.6972C81.5489 88.9082 79.5259 90.0771 77.9134 90.1648C76.5941 90.2524 74.659 89.3465 73.6915 90.5739C73.6915 90.5739 73.6915 90.6615 73.6915 90.6908V90.6908Z" fill="#0C0A35"/>
<path d="M38.2749 99.399C39.8288 99.399 39.8288 97.0027 38.2749 97.0027C36.721 97.0027 36.721 99.399 38.2749 99.399Z" fill="#990028"/>
<path d="M34.4341 100.48C35.9586 100.48 35.9586 98.1426 34.4341 98.1426C32.9095 98.1426 32.9095 100.48 34.4341 100.48Z" fill="#990028"/>
<path d="M30.9159 101.562C32.118 101.562 32.118 99.7207 30.9159 99.7207C29.7139 99.7207 29.7139 101.562 30.9159 101.562Z" fill="#990028"/>
<path d="M27.8379 102.585C28.952 102.585 28.952 100.861 27.8379 100.861C26.7238 100.861 26.7238 102.585 27.8379 102.585Z" fill="#990028"/>
<path d="M24.9643 103.607C25.9905 103.607 25.9905 102 24.9643 102C23.9382 102 23.9382 103.607 24.9643 103.607Z" fill="#990028"/>
<path d="M88.8198 82.5376C88.8198 82.5376 88.8198 82.4499 88.8198 82.3915C88.7025 81.018 86.7968 81.0472 86.7088 82.3915C86.7088 82.4499 86.7088 82.4792 86.7088 82.5376C86.5915 83.9111 88.9664 83.9111 88.8492 82.5376H88.8198Z" fill="#990028"/>
<path d="M90.96 82.1578C92.3086 82.1578 92.3086 80.0537 90.96 80.0537C89.6113 80.0537 89.6113 82.1578 90.96 82.1578Z" fill="#990028"/>
<path d="M94.5077 80.3756C94.5077 80.3756 94.5369 80.3172 94.5662 80.2879C94.8887 79.8204 94.449 79.1775 93.9213 79.1775C93.3935 79.1775 92.9538 79.8204 93.2763 80.2879C93.2763 80.2879 93.3055 80.3464 93.3349 80.3756C93.628 80.8139 94.2145 80.8139 94.5077 80.3756V80.3756Z" fill="#990028"/>
<path d="M96.765 79.9364C97.7911 79.9364 97.7911 78.3291 96.765 78.3291C95.7388 78.3291 95.7388 79.9364 96.765 79.9364Z" fill="#990028"/>
<path d="M99.7556 78.6801C100.576 78.6801 100.576 77.3943 99.7556 77.3943C98.9347 77.3943 98.9347 78.6801 99.7556 78.6801Z" fill="#990028"/>
<path d="M16.9898 37.2131C17.4882 36.7747 18.0158 36.424 18.5436 36.0441C19.1299 35.6058 19.7456 35.2259 20.2147 34.6999C20.5959 34.2616 20.7718 33.794 20.977 33.2388C21.1529 32.6835 21.1823 31.4854 20.8598 30.9594C19.951 29.4982 17.4296 28.2416 15.7585 31.4269C15.7585 31.4854 15.6997 31.5146 15.6411 31.5146C15.6411 31.5146 15.5532 31.5146 15.5239 31.4269C13.8527 28.2416 11.3314 29.4982 10.4225 30.9594C10.1 31.4562 10.1292 32.6543 10.3051 33.2388C10.5103 33.794 10.6863 34.2323 11.0674 34.6999C11.5365 35.2551 12.1522 35.635 12.7386 36.0441C13.2663 36.424 13.8234 36.7747 14.2925 37.2131C14.5271 37.4469 15.6411 38.6158 15.6411 38.6158C15.6411 38.6158 16.7259 37.4469 16.9898 37.2131V37.2131Z" fill="#D6002B"/>
<path d="M103.391 145.162C102.893 145.6 102.365 145.951 101.837 146.331C101.251 146.769 100.635 147.149 100.166 147.675C99.785 148.113 99.609 148.581 99.4038 149.136C99.2279 149.691 99.1985 150.889 99.521 151.415C100.43 152.877 102.951 154.133 104.623 150.948C104.623 150.919 104.681 150.889 104.74 150.889C104.74 150.889 104.828 150.889 104.857 150.948C106.528 154.133 109.049 152.877 109.958 151.415C110.281 150.919 110.252 149.72 110.046 149.136C109.87 148.581 109.665 148.142 109.284 147.675C108.815 147.12 108.199 146.74 107.613 146.331C107.085 145.951 106.528 145.6 106.059 145.162C105.825 144.928 104.71 143.759 104.71 143.759C104.71 143.759 103.626 144.928 103.362 145.162H103.391Z" fill="#D6002B"/>
<path d="M14.6736 23.215C12.504 23.215 10.8036 22.3968 9.5722 20.7603C8.34083 19.1238 7.72522 17.049 7.72522 14.6235C7.72522 12.0226 8.37021 9.88941 9.63089 8.22371C10.8916 6.558 12.5628 5.73975 14.6444 5.73975C16.726 5.73975 18.3092 6.52876 19.5992 8.10679C20.8892 9.68483 21.5341 11.7596 21.5341 14.3605C21.5341 16.523 21.065 18.3933 20.0682 20.0005C19.1007 21.6078 17.8693 22.6306 16.3447 23.0105V23.2443C16.3447 24.4716 17.0777 25.0853 18.573 25.0853C19.2766 25.0853 19.9217 25.0268 20.5081 24.9391V26.6341C19.951 26.8094 19.3646 26.8971 18.7782 26.8971C17.4882 26.8971 16.4913 26.6341 15.7877 26.0788C15.084 25.5236 14.703 24.5885 14.6151 23.2443L14.6736 23.215ZM14.6736 21.4909C16.1395 21.4909 17.3124 20.8187 18.1333 19.4745C18.9542 18.1302 19.3646 16.4061 19.3646 14.302C19.3646 12.198 18.9248 10.4446 18.0746 9.24648C17.2244 8.04834 16.081 7.43468 14.6444 7.43468C13.2078 7.43468 12.0643 8.07758 11.214 9.3926C10.3638 10.7076 9.95335 12.4026 9.95335 14.5066C9.95335 16.6107 10.3931 18.2471 11.2434 19.5329C12.0936 20.8187 13.237 21.4617 14.6736 21.4617V21.4909Z" fill="#D6002B"/>
<path d="M105.619 158.898C107.789 158.898 109.489 159.716 110.721 161.381C111.952 163.018 112.568 165.064 112.568 167.548C112.568 170.148 111.923 172.282 110.662 173.947C109.401 175.613 107.73 176.431 105.649 176.431C103.567 176.431 101.984 175.642 100.664 174.064C99.3744 172.486 98.7295 170.411 98.7295 167.811C98.7295 165.648 99.2279 163.778 100.195 162.171C101.163 160.563 102.394 159.54 103.919 159.161V158.927C103.919 157.699 103.186 157.086 101.691 157.086C100.987 157.086 100.342 157.144 99.7556 157.232V155.537C100.313 155.362 100.899 155.274 101.485 155.274C102.775 155.274 103.772 155.537 104.476 156.092C105.179 156.647 105.561 157.583 105.649 158.927L105.619 158.898ZM105.619 160.622C104.153 160.622 102.981 161.294 102.16 162.638C101.339 163.982 100.899 165.706 100.899 167.811C100.899 169.915 101.339 171.668 102.189 172.866C103.039 174.064 104.183 174.678 105.619 174.678C107.056 174.678 108.199 174.035 109.049 172.72C109.9 171.405 110.31 169.71 110.31 167.606C110.31 165.502 109.87 163.865 109.02 162.58C108.17 161.294 107.026 160.651 105.59 160.651L105.619 160.622Z" fill="#D6002B"/>
<path d="M39.6235 172.807H18.2799C13.413 172.807 9.48438 168.628 9.48438 163.485V45.834H10.0414V163.485C10.0414 168.336 13.7356 172.252 18.3092 172.252H39.6529V172.807H39.6235Z" fill="#D6002B"/>
<path d="M96.2375 172.252H85.0087V172.807H96.2375V172.252Z" fill="#D6002B"/>
<path d="M110.779 136.893H110.222V18.6568C110.222 13.8058 106.528 9.88996 101.954 9.88996H84.9791V9.33472H101.954C106.821 9.33472 110.75 13.5136 110.75 18.6568V136.893H110.779Z" fill="#D6002B"/>
<path d="M37.8939 9.33472H24.9059V9.88996H37.8939V9.33472Z" fill="#D6002B"/>
</g>
<defs>
<filter id="filter0_d_59_7069" x="0.39563" y="0.33374" width="119.472" height="185.474" filterUnits="userSpaceOnUse" color-interpolation-filters="sRGB">
<feFlood flood-opacity="0" result="BackgroundImageFix"/>
<feColorMatrix in="SourceAlpha" type="matrix" values="0 0 0 0 0 0 0 0 0 0 0 0 0 0 0 0 0 0 127 0" result="hardAlpha"/>
<feOffset dy="4"/>
<feComposite in2="hardAlpha" operator="out"/>
<feColorMatrix type="matrix" values="0 0 0 0 0 0 0 0 0 0 0 0 0 0 0 0 0 0 0.25 0"/>
<feBlend mode="normal" in2="BackgroundImageFix" result="effect1_dropShadow_59_7069"/>
<feBlend mode="normal" in="SourceGraphic" in2="effect1_dropShadow_59_7069" result="shape"/>
</filter>
</defs>
</svg>
