<svg width="121" height="187" viewBox="0 0 121 187" fill="none" xmlns="http://www.w3.org/2000/svg">
<g filter="url(#filter0_d_59_8666)">
<path d="M11.1618 0.797363H110.404C115.975 0.797363 120.519 5.3269 120.519 10.8792V172.19C120.519 177.742 115.975 182.271 110.404 182.271H11.1912C5.62068 182.271 1.07629 177.742 1.07629 172.19V10.8792C1.07629 5.3269 5.62068 0.797363 11.1912 0.797363H11.1618Z" fill="white"/>
<path d="M83.0799 64.0647C87.3017 64.5615 91.6701 65.2629 95.159 67.2208C98.1788 68.9158 100.378 71.3997 102.078 74.0006C107.004 81.5108 105.039 101.178 104.042 101.207C81.6433 101.645 59.2441 102.055 36.8155 102.493C33.4439 102.551 30.0136 102.61 26.7006 102.084C26.2902 101.996 25.8505 101.938 25.5866 101.675C25.3228 101.441 25.2348 101.09 25.1761 100.798C24.5604 97.9049 23.9448 95.0118 23.3584 92.1187C22.6254 88.5828 21.8631 84.9883 22.684 81.4816C23.6809 77.1274 27.0525 73.2407 31.3037 70.4061C35.5841 67.5715 40.7148 65.672 45.9628 64.2401C48.8947 63.4511 51.9144 62.779 55.0222 62.4867C59.1561 62.1068 63.3486 62.399 67.4825 62.6913C72.7012 63.0712 77.9198 63.4511 83.0799 64.0647V64.0647Z" fill="#141247"/>
<path d="M39.3661 120.377C35.1443 119.881 30.7759 119.179 27.287 117.221C24.2672 115.527 22.0683 113.043 20.3678 110.442C15.4423 102.931 17.4067 83.2644 18.4035 83.2352C40.8027 82.7968 63.2019 82.3878 85.6011 81.9494C88.9728 81.891 92.403 81.8325 95.716 82.3877C96.1265 82.4462 96.5663 82.5338 96.8301 82.7969C97.094 83.0306 97.1819 83.3813 97.2405 83.7028C97.8562 86.5958 98.472 89.4889 99.0583 92.3819C99.7913 95.8887 100.554 99.5123 99.7326 103.019C98.7358 107.373 95.3642 111.26 91.113 114.095C86.8325 116.929 81.7018 118.799 76.4538 120.231C73.522 121.02 70.5022 121.692 67.3945 121.985C63.2606 122.365 59.0681 122.072 54.9342 121.751C49.7155 121.371 44.4968 120.991 39.3368 120.377H39.3661Z" fill="#141247"/>
<path d="M28.6648 76.5722C26.5832 76.806 24.5016 77.1859 22.6838 78.1795C20.3091 79.5237 17.4066 82.2122 16.0286 84.5793C13.3313 89.255 12.8329 94.5443 14.6213 99.6291C15.8527 103.107 18.6379 105.883 21.8923 107.636C25.1466 109.39 28.8407 110.208 32.5055 110.558C33.4437 102.61 33.473 94.5443 33.5023 86.5372C33.5023 83.9656 33.5023 81.3355 32.5641 78.9393C32.183 78.0041 31.5966 77.0398 30.6291 76.6599C30.0134 76.4261 29.3098 76.4846 28.6648 76.543V76.5722Z" fill="#0C0A35"/>
<path d="M93.7809 107.87C95.8625 107.636 97.9441 107.257 99.7618 106.263C102.166 104.919 105.068 102.23 106.417 99.8632C109.114 95.1875 109.613 89.8982 107.824 84.8134C106.593 81.3359 103.808 78.5597 100.553 76.8063C97.2991 75.0529 93.605 74.2347 89.9402 73.884C89.002 81.8327 88.9727 89.8689 88.9434 97.9052C88.9434 100.477 88.9434 103.107 89.8816 105.503C90.2627 106.438 90.8491 107.403 91.8166 107.783C92.4323 108.016 93.1359 107.958 93.7809 107.899V107.87Z" fill="#0C0A35"/>
<path d="M99.3515 98.3429C101.58 95.0115 101.052 86.2739 97.4752 83.9068C97.2113 83.7315 96.8595 83.9653 96.8595 84.2575C96.8595 86.4784 97.7097 88.787 97.9735 91.008C98.2374 93.375 97.7977 95.8882 98.2961 98.1968C98.4133 98.7228 99.0876 98.7228 99.3515 98.3429V98.3429Z" fill="#990028"/>
<path d="M102.899 97.8163C105.831 97.3488 105.889 92.8192 105.625 90.6567C105.332 88.202 104.277 84.4615 101.726 83.4679C101.433 83.351 101.14 83.7017 101.198 83.9939C101.814 86.1564 102.87 88.1143 103.368 90.3353C103.984 93.0822 103.339 94.8941 102.43 97.378C102.312 97.6702 102.635 97.8748 102.899 97.8455V97.8163Z" fill="#990028"/>
<path d="M24.8242 84.2578C26.1435 83.9071 27.3455 83.2934 28.6649 82.9136C29.9842 82.5337 31.5381 82.4168 32.6815 83.0305C33.8249 83.6441 34.294 84.7546 34.9683 85.719C36.3756 87.7061 39.0435 89.1965 41.9167 89.1672C45.1124 89.138 48.2495 87.297 51.2986 88.0568C53.7321 88.6413 55.2273 90.6869 57.6021 91.4467C61.4721 92.7033 65.606 90.1316 69.7985 90.0732C72.1733 90.044 74.4601 90.8329 76.747 91.359C79.0631 91.885 81.4965 92.1772 83.9006 92.1772C85.7184 92.1772 87.6241 92.0311 89.1193 91.1836C90.4386 90.4531 91.3182 89.2549 92.7841 88.7289C94.3087 88.1737 96.0971 88.4367 97.6803 88.875C99.2635 89.2842 100.876 89.8102 102.547 89.7225C104.218 89.6348 108.147 88.1152 108.176 86.771C108.264 83.0597 107.121 79.1146 104.805 76.0462C101.081 71.1075 96.3609 67.8638 94.6018 67.0456C88.7382 64.2402 82.8158 63.3342 75.9847 62.9251C72.8769 62.7498 69.7399 62.9251 66.6322 62.9251C61.0031 62.9251 55.2566 62.1945 49.7154 63.1881C34.8803 65.8474 30.5413 64.6785 24.0912 72.2764C20.4557 76.5722 20.1625 81.5985 20.9541 82.8843C22.1855 84.9007 24.0033 84.5501 24.8242 84.3163V84.2578Z" fill="#191956"/>
<path d="M67.2187 4.12838C67.2773 3.89459 67.4239 3.63159 67.6584 3.63159C67.8343 3.63159 67.981 3.80691 68.0689 3.98225C68.8312 5.3265 69.4762 6.72919 69.916 8.21956C68.8898 8.21956 67.8636 8.16111 66.8375 8.07344C66.6616 8.07344 66.4857 8.01501 66.4271 7.8689C66.3978 7.78123 66.4271 7.69354 66.4271 7.57665C66.6616 6.43696 66.8962 5.26805 67.2187 4.15758V4.12838Z" fill="#0C0A35"/>
<path d="M75.8676 57.4315C75.809 56.4087 75.5158 55.4151 75.2519 54.4216C74.1671 50.1258 73.8739 45.5962 74.431 41.1836C69.095 41.7681 64.023 44.4858 60.5927 48.6062C59.6838 49.6875 58.7457 50.944 57.3384 51.1486C57.6609 53.8663 57.4263 56.6425 56.6641 59.2726C62.8796 59.5063 69.0951 59.1264 75.2226 58.1329C75.4279 58.1036 75.6624 58.0452 75.7797 57.8991C75.8676 57.753 75.8676 57.5776 75.8676 57.4023V57.4315Z" fill="#FCC07E"/>
<path d="M76.1314 55.6489C75.9848 55.2398 75.4864 55.0644 75.0759 55.1813C72.9943 55.6781 71.5578 55.8534 65.5182 56.2041C59.42 56.5547 57.3677 56.0288 56.8986 56.7301C51.7386 64.5034 48.279 66.6366 44.6436 69.1206C44.3504 69.3251 44.4089 69.7635 44.7608 69.8511C46.4905 70.3479 49.0999 70.2895 50.2726 70.1142C55.6086 69.3544 56.9865 67.4549 59.977 64.2988C60.9445 69.4128 63.2607 72.1598 65.6648 73.2703C67.3066 71.5461 69.3589 68.39 69.8866 64.6203C70.1798 65.2924 71.118 66.5198 71.6164 67.0458C74.3723 69.9973 79.0633 71.5169 83.8128 71.7215C83.9301 71.7215 84.018 71.6337 84.0473 71.5461C84.2233 70.5525 81.6726 68.0978 80.1187 65.3216C77.6853 60.9382 77.8319 60.5875 76.1021 55.6781L76.1314 55.6489Z" fill="#0C0A35"/>
<path d="M51.0054 41.475C50.8295 43.1992 50.5363 44.9233 50.595 46.6767C50.6243 48.4008 51.0054 50.1834 52.0022 51.6445C53.1749 53.3687 55.2565 54.4792 57.3381 54.4792C59.4197 54.4792 61.7359 53.8071 63.583 52.8135C65.6646 51.6738 67.8634 50.2711 69.5052 48.5761C71.4696 46.5305 72.2319 43.842 73.2873 41.2412C75.6621 35.3382 77.128 28.7923 75.5448 22.6555C75.4862 22.4217 75.4275 22.1879 75.2516 22.0126C75.0464 21.808 74.7826 21.7203 74.4894 21.6619C67.9221 20.2008 60.9737 21.7203 54.4357 20.3176C53.2043 23.7951 54.4063 27.8864 52.7351 31.1885C51.8263 33.0004 50.1551 34.3154 48.6892 35.6889C47.9562 36.3902 47.194 37.4422 47.6924 38.3189C48.3081 39.4294 50.3017 39.0495 50.8881 40.1892C51.0933 40.5691 51.064 41.0659 51.0054 41.5042V41.475Z" fill="#FFD6A1"/>
<path d="M66.7204 52.1707C64.5215 51.7616 61.0033 50.3004 58.9217 47.1736C57.6903 45.3033 57.1039 42.9947 56.4882 40.8614C56.3416 40.277 56.2244 39.751 56.0484 39.2542C55.9312 38.9035 55.3742 38.9035 54.993 38.9328C52.5596 39.2542 52.325 39.3419 50.2434 39.6341C50.1554 42.9947 49.0414 46.5307 46.3441 48.6055C44.497 50.0082 42.5913 51.4694 40.3925 52.1999C43.0311 51.4986 46.0803 50.9726 48.3084 49.4238C50.5366 47.875 51.9146 45.5371 52.7942 42.9655C53.8203 45.2449 55.2862 47.3489 57.104 49.1023C57.5144 49.4822 57.9248 49.8913 58.4232 50.1543C58.9216 50.4466 59.8599 50.9433 60.3876 51.1771C63.0556 52.2584 65.313 52.0831 66.6617 52.1707H66.7204Z" fill="#0C0A35"/>
<path d="M52.2074 51.9666C53.6733 53.8953 55.9308 53.9829 57.6019 53.8953C56.8103 55.5318 55.9601 57.1975 54.6407 58.4248C53.4973 59.4768 52.0021 60.1782 50.4482 60.3535C51.1812 57.6066 52.1487 54.8012 52.2074 51.9666Z" fill="#0C0A35"/>
<path d="M82.2294 53.5158C84.1057 54.071 86.0408 54.5971 87.9758 54.451C86.5392 50.6228 86.0408 48.7233 85.3958 44.6905C85.2492 43.697 84.5456 38.2323 84.4869 37.2387C84.1644 31.774 84.1938 28.6179 84.5749 23.1532C84.5749 23.0071 84.5748 22.861 84.5162 22.7149C84.3989 22.5396 84.1644 22.5104 83.9591 22.4811C79.8839 22.1305 75.7793 23.5624 71.7041 23.1532C70.9125 28.764 70.1209 34.4625 70.8832 40.1025C71.147 42.0312 71.4989 44.0184 72.5543 45.6256C76.5416 51.7624 79.5321 52.6976 82.2294 53.5158V53.5158Z" fill="#141247"/>
<path d="M69.8279 27.0099C69.8279 27.0099 70.0332 28.471 69.74 28.3834C68.7138 28.1788 67.7463 28.208 67.1892 28.1788C62.293 27.9158 60.8858 27.8866 57.2503 28.5002C57.1331 27.8866 57.1037 27.2729 57.1624 26.6592C61.2669 26.893 65.3715 26.9222 69.476 26.7176C69.5933 26.7176 69.7106 26.7176 69.7986 26.8053C69.8572 26.8637 69.8572 26.9222 69.8572 27.0099H69.8279Z" fill="#0C0A35"/>
<path d="M69.0068 40.5995C69.3293 40.1027 69.3879 39.4306 69.124 38.8754C69.0067 38.5832 68.8015 38.3494 68.5669 38.1448C67.8633 37.5896 66.7786 37.648 66.1336 38.2617C65.3713 38.9923 65.4299 40.3658 66.2509 41.0379C67.0718 41.6808 68.4497 41.4762 69.0068 40.5995V40.5995Z" fill="#D6002B"/>
<path d="M53.5562 15.4964C53.5562 14.9704 53.7322 14.4736 53.9667 14.006C55.3154 11.0253 58.0126 8.7459 61.0617 7.54776C64.1108 6.34962 67.5118 6.20351 70.7661 6.72952C72.1734 6.96331 73.5807 7.31399 74.812 8.01534C75.8382 8.59979 76.7177 9.35956 77.568 10.1778C79.3564 11.8435 81.1448 13.7723 81.4087 16.1978C72.32 17.1037 63.0847 18.0096 54.1426 16.1978C53.9667 16.1685 53.7908 16.1101 53.6735 15.9932C53.5563 15.8763 53.527 15.6717 53.527 15.4964H53.5562Z" fill="#222272"/>
<path d="M52.0314 38.378C51.8555 40.745 51.5329 42.849 50.8879 45.1577C50.0963 47.9338 48.22 49.6288 46.6075 51.8789C46.4902 52.0543 46.7541 52.2296 46.9007 52.1127C50.6534 48.7813 53.1161 43.3751 52.3832 38.3487C52.3539 38.1442 52.0314 38.2026 52.0314 38.4072V38.378Z" fill="#B70027"/>
<path d="M54.1129 37.0626C52.6176 41.8259 54.2595 48.5764 58.8332 51.1188C58.9798 51.2064 60.5336 51.5863 60.4163 51.4986C58.4813 50.1836 55.8427 47.3198 55.1097 44.9235C54.3474 42.4396 54.2888 39.6926 54.5526 37.121C54.5526 36.858 54.2008 36.8288 54.1129 37.0626V37.0626Z" fill="#B70027"/>
<path d="M39.8057 52.2003C46.3437 52.0249 52.3833 44.2517 50.4776 37.9688C50.419 37.7642 50.0965 37.735 50.0379 37.9688C49.774 39.1961 49.9792 40.365 49.7153 41.6216C49.3928 43.2289 48.8065 44.8654 48.0735 46.3265C46.5196 49.5118 42.5616 50.5054 39.7177 51.9957C39.6298 52.0542 39.6592 52.1711 39.7764 52.1711L39.8057 52.2003Z" fill="#B70027"/>
<path d="M55.491 37.1206C54.8753 40.8027 56.048 45.2445 58.4228 48.1376C60.7683 50.9722 64.2571 54.479 68.391 53.4854C68.6549 53.427 68.7135 53.0178 68.479 52.8717C67.189 52.1996 65.7817 51.9658 64.4624 51.3521C62.7619 50.5631 61.2667 48.6929 60.0353 47.2902C57.4553 44.4263 56.5757 40.7734 55.7842 37.1206C55.7548 36.9745 55.5203 36.9745 55.491 37.1206V37.1206Z" fill="#B70027"/>
<path d="M49.7153 61.4343C52.4126 58.6289 52.8817 54.9176 53.7319 51.294C53.7613 51.1479 53.5267 51.0894 53.4974 51.2355C52.8231 52.9597 52.6472 54.8299 52.0901 56.6125C51.5917 58.249 50.6242 60.0024 49.7153 61.4343Z" fill="#B70027"/>
<path d="M51.2401 61.2595C52.4421 60.4705 52.9698 58.9216 53.5269 57.665C54.3771 55.7363 54.6703 53.6907 54.9928 51.5867C55.0221 51.3821 54.7289 51.2944 54.6409 51.499C53.908 53.2231 53.9666 55.1519 53.2337 56.9052C52.618 58.3664 51.7385 59.7106 51.1228 61.1426C51.0934 61.2302 51.1814 61.2887 51.2401 61.2302V61.2595Z" fill="#B70027"/>
<path d="M53.937 60.4403C55.3736 57.8979 56.7223 54.8002 56.5464 51.8195C56.5464 51.6149 56.1945 51.5565 56.1359 51.7611C55.6375 53.1638 55.4909 54.7126 55.1097 56.1445C54.6993 57.5764 53.9664 58.8914 53.7025 60.3526C53.7025 60.4987 53.8784 60.5279 53.937 60.411V60.4403Z" fill="#B70027"/>
<path d="M74.1083 50.9431C73.1701 46.4135 73.4633 41.7671 73.3167 37.1791C73.1408 31.9482 74.4015 27.0972 74.8706 21.954C74.8706 21.7202 74.5187 21.6325 74.4307 21.8371C72.3491 26.3666 72.3785 32.2989 72.5251 37.1791C72.6423 41.7086 72.0853 46.7934 74.0497 50.9723C74.0497 51.0307 74.1376 50.9723 74.1083 50.9723V50.9431Z" fill="#B70027"/>
<path d="M76.5416 52.3753C75.3689 46.823 75.5155 41.1538 75.9553 35.543C76.3071 30.9842 76.483 26.63 78.0369 22.305C78.1248 22.0712 77.8024 21.8959 77.6265 22.0712C74.8998 25.052 75.5155 30.7796 75.2223 34.5202C74.7532 40.3063 74.548 46.823 76.4536 52.4046C76.4536 52.463 76.5709 52.4046 76.5416 52.4046V52.3753Z" fill="#B70027"/>
<path d="M78.77 53.9539C77.5679 43.8136 77.8905 32.9426 80.1773 23.0069C80.2359 22.7438 79.8548 22.5685 79.7082 22.8315C77.2748 27.0104 77.8318 32.5043 77.5386 37.1215C77.2161 42.5862 76.6591 48.723 78.5061 53.9831C78.5354 54.1 78.7406 54.1 78.7406 53.9831L78.77 53.9539Z" fill="#B70027"/>
<path d="M83.0503 55.5024C82.5226 52.7847 81.7604 50.1254 81.5552 47.3492C81.3499 44.6022 81.2326 41.7969 81.2033 39.0207C81.1153 34.082 80.9101 28.9388 82.1415 24.1462C82.2001 23.9417 81.9069 23.7956 81.7897 24.0001C79.6787 28.1498 80.3823 33.4976 80.3823 37.9979C80.3823 44.1055 80.7636 49.8331 82.8452 55.5608C82.9038 55.7069 83.0797 55.6485 83.0797 55.5024H83.0503Z" fill="#B70027"/>
<path d="M86.158 56.2329C85.1319 51.4403 84.6921 46.5601 83.9592 41.7091C83.4901 38.6407 83.2262 35.5139 83.1676 32.4162C83.1383 29.4939 83.842 26.6301 83.5781 23.7078C83.5781 23.5033 83.2262 23.4156 83.1676 23.6494C82.4053 29.0848 82.2001 34.4034 82.9331 39.8389C83.6661 45.2159 83.8712 51.265 86.0115 56.2913C86.0408 56.379 86.158 56.2913 86.158 56.2329V56.2329Z" fill="#B70027"/>
<path d="M89.5299 15.0579C87.0671 17.9802 85.3373 21.5162 84.5457 25.2275C80.7636 25.5782 76.9522 25.5782 73.1702 25.549C71.6163 25.549 70.0331 25.4321 68.4792 25.4321C63.3192 25.3444 61.2963 25.0229 54.3185 25.1106C53.5562 25.1106 52.7353 24.6138 52.3249 23.9709C50.0674 20.5226 48.748 17.5711 46.6664 15.2041C46.5491 15.0872 46.3732 14.8826 46.4905 14.7657C46.6077 14.6196 46.7544 14.5904 46.9303 14.532C51.5626 13.3923 56.3708 13.2754 61.1204 13.2754C70.2384 13.2754 79.3271 13.5384 88.4158 14.1228C88.7383 14.1228 89.0608 14.1813 89.3246 14.3274C89.5885 14.5027 89.7644 14.8242 89.5591 15.0579H89.5299Z" fill="#0C0A35"/>
<path d="M49.9499 15.9641C50.5656 16.2563 51.1812 16.5485 51.7969 16.8115C52.178 16.9869 52.5592 17.1622 52.9697 17.1622C53.087 17.1622 53.2042 17.1622 53.3215 17.0745C53.4095 17.0161 56.4586 13.071 56.5172 12.5742C53.7319 12.6619 50.888 12.8664 48.3373 13.9769C48.2201 14.0354 48.1321 14.0938 48.0735 14.1815C48.0149 14.2984 48.0735 14.4445 48.1321 14.5321C48.4839 15.2043 49.2463 15.5842 49.9499 15.9056V15.9641Z" fill="#990028"/>
<path d="M63.9053 16.4604C65.3712 15.1454 66.2215 14.0641 67.6581 12.6906C65.0487 12.5445 62.4687 12.3984 59.8594 12.2231C59.2144 12.1939 58.4814 12.1646 57.983 12.5738C59.7715 13.6842 60.9442 15.6421 62.8205 16.6649C62.9085 16.6942 63.1724 17.1325 63.9347 16.4312L63.9053 16.4604Z" fill="#990028"/>
<path d="M69.036 13.2163C69.4758 13.9176 69.9156 14.6482 70.3554 15.3496C70.6192 15.7587 70.8831 16.1678 71.1763 16.5477C71.4988 16.9568 71.9092 17.3075 72.349 17.5997C72.6129 17.7751 72.9647 17.6581 73.1699 17.3951C74.4306 15.671 75.1636 15.0865 76.3363 13.9176C76.7175 13.5377 76.8641 13.5085 77.0693 13.0117C75.8966 12.9533 74.6944 12.8656 73.5217 12.8072C71.9678 12.7195 70.3847 12.6318 68.8601 12.9825C68.8601 13.0994 68.9481 13.1871 69.0654 13.2163H69.036Z" fill="#990028"/>
<path d="M79.3267 12.5155C78.9162 12.8077 79.1508 13.4506 79.4146 13.8598C80.4408 15.5547 81.4963 17.2788 82.9035 18.6815C83.1674 18.9445 83.5779 18.8861 83.7538 18.5939C84.2522 17.7464 87.3013 14.4734 87.829 13.3922C85.249 13.3045 82.6983 12.9831 80.1769 12.4278C79.8838 12.3694 79.5612 12.3109 79.3267 12.4863V12.5155Z" fill="#990028"/>
<path d="M56.7518 12.3689C57.4262 12.3689 57.4262 11.3169 56.7518 11.3169C56.0775 11.3169 56.0775 12.3689 56.7518 12.3689Z" fill="#0C0A35"/>
<path d="M58.7749 10.3826C59.2147 10.3826 59.2147 9.71045 58.7749 9.71045C58.3351 9.71045 58.3351 10.3826 58.7749 10.3826Z" fill="#0C0A35"/>
<path d="M60.5048 12.3986C61.0032 12.3986 61.0032 11.6096 60.5048 11.6096C60.0064 11.6096 60.0064 12.3986 60.5048 12.3986Z" fill="#0C0A35"/>
<path d="M62.2635 9.91447C62.9085 9.91447 62.9085 8.9209 62.2635 8.9209C61.6185 8.9209 61.6185 9.91447 62.2635 9.91447Z" fill="#0C0A35"/>
<path d="M60.5338 8.7464C61.0029 8.7464 61.0029 7.98657 60.5338 7.98657C60.0647 7.98657 60.0647 8.7464 60.5338 8.7464Z" fill="#0C0A35"/>
<path d="M64.3161 7.89749C64.8732 7.89749 64.8732 7.05005 64.3161 7.05005C63.7591 7.05005 63.7591 7.89749 64.3161 7.89749Z" fill="#0C0A35"/>
<path d="M65.2247 10.6741C65.6352 10.6741 65.6352 10.0312 65.2247 10.0312C64.8143 10.0312 64.8143 10.6741 65.2247 10.6741Z" fill="#0C0A35"/>
<path d="M63.7295 12.779C64.4332 12.779 64.4332 11.6978 63.7295 11.6978C63.0259 11.6978 63.0259 12.779 63.7295 12.779Z" fill="#0C0A35"/>
<path d="M67.2772 12.8956C67.9809 12.8956 67.9809 11.7852 67.2772 11.7852C66.5736 11.7852 66.5736 12.8956 67.2772 12.8956Z" fill="#0C0A35"/>
<path d="M66.9839 8.89204C67.453 8.89204 67.453 8.19067 66.9839 8.19067C66.5148 8.19067 66.5148 8.89204 66.9839 8.89204Z" fill="#0C0A35"/>
<path d="M69.1537 7.66496C69.6521 7.66496 69.6521 6.87598 69.1537 6.87598C68.6553 6.87598 68.6553 7.66496 69.1537 7.66496Z" fill="#0C0A35"/>
<path d="M69.7692 10.1482C69.7692 10.1482 69.7986 10.1482 69.8279 10.1482C70.4143 10.3235 70.4143 9.27146 69.8279 9.44679C69.8279 9.44679 69.8279 9.44679 69.7692 9.44679C69.4467 9.56369 69.4467 10.0313 69.7692 10.119V10.1482Z" fill="#0C0A35"/>
<path d="M71.206 12.8957C71.851 12.8957 71.851 11.9021 71.206 11.9021C70.561 11.9021 70.561 12.8957 71.206 12.8957Z" fill="#0C0A35"/>
<path d="M72.3492 8.62869C72.9062 8.62869 72.9062 7.78125 72.3492 7.78125C71.7921 7.78125 71.7921 8.62869 72.3492 8.62869Z" fill="#0C0A35"/>
<path d="M73.6393 11.0248C74.2843 11.0248 74.2843 10.0312 73.6393 10.0312C72.9943 10.0312 72.9943 11.0248 73.6393 11.0248Z" fill="#0C0A35"/>
<path d="M76.0726 10.1778C76.5417 10.1778 76.5417 9.44727 76.0726 9.44727C75.6036 9.44727 75.6036 10.1778 76.0726 10.1778Z" fill="#0C0A35"/>
<path d="M75.3399 13.0119C75.897 13.0119 75.897 12.1353 75.3399 12.1353C74.7829 12.1353 74.7829 13.0119 75.3399 13.0119Z" fill="#0C0A35"/>
<path d="M77.8905 12.4563C78.5648 12.4563 78.5648 11.4043 77.8905 11.4043C77.2162 11.4043 77.2162 12.4563 77.8905 12.4563Z" fill="#0C0A35"/>
<path d="M57.045 14.4152C56.7225 16.1101 56.5759 18.2433 57.1037 19.909C57.4555 21.0487 59.2145 20.8734 59.2438 19.6168C59.2438 17.7466 58.7455 16.1685 58.1884 14.4152C58.0125 13.9184 57.1916 13.8307 57.0743 14.4152H57.045Z" fill="#F70032"/>
<path d="M48.2203 16.2561C48.103 16.9574 48.3962 17.6296 48.7773 18.1848C49.2464 18.8862 49.6276 19.7921 50.2726 20.3181C51.0055 20.9317 52.0903 20.172 51.6212 19.2953C51.2694 18.6816 50.771 18.0095 50.2726 17.5127C49.8035 17.0159 49.1878 16.636 48.7187 16.11C48.5721 15.9639 48.2789 16.0223 48.2203 16.2269V16.2561Z" fill="#F70032"/>
<path d="M67.3942 14.9701C67.0424 15.9053 66.6613 16.8112 66.5147 17.8048C66.4267 18.4184 66.456 19.0321 66.3095 19.6458C65.9283 21.1946 68.4204 21.8083 68.6842 20.2887C68.9774 18.5938 68.6842 16.6066 68.3324 14.9701C68.2152 14.4734 67.5408 14.561 67.3942 14.9701Z" fill="#F70032"/>
<path d="M77.4506 15.3791C76.8642 16.1389 76.5417 17.1325 76.3952 18.0676C76.2779 18.8566 75.9261 19.9379 76.3952 20.6392C76.659 21.0483 77.1867 21.3114 77.6558 21.1652C77.6851 21.1652 77.7438 21.1652 77.7731 21.136C78.1836 21.0191 78.594 20.6684 78.682 20.2301C78.8286 19.4119 78.7406 18.6521 78.682 17.8338C78.6233 16.9864 78.7113 16.1097 78.1835 15.3791C77.9783 15.0869 77.6265 15.0869 77.392 15.3791H77.4506Z" fill="#F70032"/>
<path d="M87.4188 16.3438C86.6272 16.6945 86.1288 17.4835 85.6597 18.1848C85.132 18.9446 84.4869 19.7337 84.5162 20.698C84.5162 21.487 85.7476 21.9546 86.1288 21.1363C86.7738 19.7336 87.7412 18.3602 88.0051 16.8114C88.0638 16.4315 87.7413 16.1977 87.3895 16.3438H87.4188Z" fill="#F70032"/>
<path d="M58.4229 21.9252C59.0093 21.9252 59.0093 21.0193 58.4229 21.0193C57.8366 21.0193 57.8366 21.9252 58.4229 21.9252Z" fill="#F70032"/>
<path d="M51.7679 21.7492C52.3543 21.7492 52.3543 20.8433 51.7679 20.8433C51.1815 20.8433 51.1815 21.7492 51.7679 21.7492Z" fill="#F70032"/>
<path d="M67.3359 22.3632C67.8636 22.3632 67.8636 21.5449 67.3359 21.5449C66.8081 21.5449 66.8081 22.3632 67.3359 22.3632Z" fill="#F70032"/>
<path d="M77.2745 22.0133C77.2745 22.0133 77.2452 22.0133 77.2159 22.0425C77.0986 22.1594 77.0986 22.3932 77.2159 22.4808C77.2159 22.4808 77.2452 22.5101 77.2745 22.5393C77.509 22.7439 77.9195 22.6269 77.9195 22.2763C77.9195 21.9256 77.509 21.8087 77.2745 22.0133Z" fill="#F70032"/>
<path d="M85.0148 22.9481C85.6891 22.9481 85.6891 21.9253 85.0148 21.9253C84.3405 21.9253 84.3405 22.9481 85.0148 22.9481Z" fill="#F70032"/>
<path d="M57.8952 18.3316C58.7455 18.3316 58.7455 17.0166 57.8952 17.0166C57.045 17.0166 57.045 18.3316 57.8952 18.3316Z" fill="#0C0A35"/>
<path d="M49.9204 19.0608C50.5947 19.0608 50.5947 18.0088 49.9204 18.0088C49.2461 18.0088 49.2461 19.0608 49.9204 19.0608Z" fill="#0C0A35"/>
<path d="M67.5117 18.7399C68.3326 18.7399 68.3326 17.4541 67.5117 17.4541C66.6908 17.4541 66.6908 18.7399 67.5117 18.7399Z" fill="#0C0A35"/>
<path d="M77.5092 19.0324C78.3887 19.0324 78.3887 17.6589 77.5092 17.6589C76.6296 17.6589 76.6296 19.0324 77.5092 19.0324Z" fill="#0C0A35"/>
<path d="M86.1876 19.9092C87.1258 19.9092 87.1258 18.4773 86.1876 18.4773C85.2495 18.4773 85.2495 19.9092 86.1876 19.9092Z" fill="#0C0A35"/>
<path d="M67.3653 19.763C67.7171 19.763 67.7171 19.2078 67.3653 19.2078C67.0135 19.2078 67.0135 19.763 67.3653 19.763Z" fill="#0C0A35"/>
<path d="M58.0419 19.2655C58.4523 19.2655 58.4523 18.6226 58.0419 18.6226C57.6314 18.6226 57.6314 19.2655 58.0419 19.2655Z" fill="#0C0A35"/>
<path d="M50.507 19.1786C50.507 19.1786 50.507 19.1786 50.4777 19.1786C50.0379 19.0618 50.2138 19.9092 50.5656 19.5586C50.6829 19.4417 50.6243 19.2371 50.4777 19.2079L50.507 19.1786Z" fill="#0C0A35"/>
<path d="M49.305 17.9801C49.6568 17.9801 49.6568 17.4541 49.305 17.4541C48.9532 17.4541 48.9532 17.9801 49.305 17.9801Z" fill="#0C0A35"/>
<path d="M57.778 16.753C58.2471 16.753 58.2471 16.0225 57.778 16.0225C57.3089 16.0225 57.3089 16.753 57.778 16.753Z" fill="#0C0A35"/>
<path d="M67.7463 17.2493C68.3033 17.2493 68.3033 16.4019 67.7463 16.4019C67.1892 16.4019 67.1892 17.2493 67.7463 17.2493Z" fill="#0C0A35"/>
<path d="M77.4215 19.9966C77.8613 19.9966 77.8613 19.3245 77.4215 19.3245C76.9817 19.3245 76.9817 19.9966 77.4215 19.9966Z" fill="#0C0A35"/>
<path d="M77.5092 17.3082C77.8904 17.3082 77.8904 16.6946 77.5092 16.6946C77.1281 16.6946 77.1281 17.3082 77.5092 17.3082Z" fill="#0C0A35"/>
<path d="M86.0115 20.1719C85.8063 19.7335 85.132 20.1135 85.3665 20.5226C85.6011 20.9317 86.1874 20.581 86.0115 20.1719Z" fill="#0C0A35"/>
<path d="M86.774 18.4769C87.1258 18.4769 87.1258 17.9216 86.774 17.9216C86.4222 17.9216 86.3929 18.4769 86.774 18.4769Z" fill="#0C0A35"/>
<path d="M60.3873 29.8735C60.4753 30.1073 60.5632 30.3703 60.8857 30.3703C60.9443 30.3703 61.003 30.3119 61.0323 30.2534C61.1203 30.0489 61.0323 29.9027 60.9444 29.6982C60.8271 29.3475 60.27 29.5229 60.4166 29.8443L60.3873 29.8735Z" fill="#0C0A35"/>
<path d="M64.1987 28.8806C64.0521 29.1728 63.9641 29.6112 64.2573 29.8742C64.4039 29.9911 64.6678 30.0203 64.7557 29.8157C64.873 29.5235 64.8143 29.2605 64.7264 28.9683C64.6677 28.7345 64.3159 28.676 64.1987 28.9098V28.8806Z" fill="#0C0A35"/>
<path d="M67.8047 29.4647C67.7461 29.64 67.6581 29.7861 67.5701 29.9323C67.3649 30.2829 67.922 30.5751 68.0686 30.2245C68.1565 30.0199 68.2445 29.8153 68.3031 29.5816C68.391 29.2601 67.922 29.1433 67.8047 29.4355V29.4647Z" fill="#0C0A35"/>
<path d="M61.0327 34.0527C61.2672 33.965 61.5897 33.702 61.5604 33.439C61.5604 33.3806 61.5311 33.3221 61.4724 33.3221C61.1499 33.2052 60.8567 33.6728 60.9154 33.9358C60.9154 33.9943 60.974 34.0819 61.0619 34.0527H61.0327Z" fill="#0C0A35"/>
<path d="M64.4037 33.234C64.1105 33.4677 64.1105 34.0814 64.1984 34.4321C64.2864 34.7828 64.7848 34.7828 64.9021 34.4321C64.99 34.0814 64.9901 33.4677 64.6969 33.234C64.6089 33.1463 64.521 33.1463 64.433 33.234H64.4037Z" fill="#0C0A35"/>
<path d="M67.424 32.825C67.424 33.1465 67.5119 33.4679 67.7758 33.6725C67.8637 33.7602 68.0103 33.7894 68.1276 33.731C68.1276 33.731 68.1569 33.731 68.1863 33.6725C68.2742 33.5556 68.3035 33.4679 68.2155 33.3218C68.0982 33.088 67.893 32.9419 67.7464 32.7374C67.6585 32.5912 67.424 32.6497 67.424 32.825V32.825Z" fill="#0C0A35"/>
<path d="M62.4396 29.2019C62.0877 29.3772 62.205 29.874 62.293 30.1663C62.4396 30.5462 63.0259 30.4 62.9087 29.9909C62.8207 29.7279 62.8207 29.3772 62.5568 29.2019C62.5275 29.2019 62.4689 29.2019 62.4103 29.2019H62.4396Z" fill="#0C0A35"/>
<path d="M66.3388 29.143C66.2509 29.3475 65.8404 30.3411 66.3388 30.3411C66.6027 30.3411 66.6613 29.9905 66.6906 29.7567C66.7493 29.4937 66.6613 29.2599 66.4268 29.1138C66.3975 29.1138 66.3388 29.1138 66.3095 29.1138L66.3388 29.143Z" fill="#0C0A35"/>
<path d="M62.5278 34.5489C63.0262 34.5489 63.3195 33.8768 63.3195 33.4384C63.3195 33.1754 63.0262 33.0293 62.821 33.1462C62.4692 33.3508 62.264 33.906 62.2933 34.2859C62.2933 34.4028 62.3812 34.5197 62.5278 34.5197V34.5489Z" fill="#0C0A35"/>
<path d="M65.8992 33.293C65.6646 33.6729 65.7232 34.3743 66.1923 34.5788C66.3975 34.6665 66.6321 34.5788 66.6907 34.3743C66.8373 33.9067 66.3976 33.5853 66.163 33.2638C66.1044 33.1762 65.9578 33.2054 65.8992 33.2638V33.293Z" fill="#0C0A35"/>
<path d="M58.1886 31.9777C58.1886 31.9777 58.3058 31.7147 58.3938 31.6271C59.3613 30.7504 60.6513 30.2243 61.9706 29.9905C63.2606 29.7568 64.6093 29.7275 65.9286 29.7275C66.8081 29.7275 69.4468 30.5166 70.4437 31.2471C68.8898 32.7667 66.8082 33.7019 64.6679 33.9064C62.4984 34.111 60.2994 33.5558 58.4817 32.3576C58.3351 32.27 58.1886 32.1531 58.1886 31.9777Z" fill="white"/>
<path d="M62.9673 32.1828C63.3191 32.6211 63.9348 32.8257 64.4918 32.7088C65.0489 32.5919 65.518 32.1536 65.6646 31.6276C65.6939 31.5107 65.7232 31.3645 65.7232 31.2477C65.6938 30.5171 64.0814 29.7865 63.0259 30.8385C62.6448 31.1892 62.6448 31.8029 62.9673 32.1828V32.1828Z" fill="#0C0A35"/>
<path d="M64.2282 72.0721C64.2282 72.0721 64.0523 72.1597 63.9936 72.189C61.8827 73.2702 62.7916 76.9815 65.2544 76.777C65.3423 76.777 65.4303 76.777 65.5182 76.777C69.7108 76.3971 67.8637 70.2311 64.2282 72.0721V72.0721Z" fill="#F70032"/>
<path d="M44.1159 72.4813C47.0184 72.4813 47.0184 68.0103 44.1159 68.0103C41.2133 68.0103 41.2133 72.4813 44.1159 72.4813Z" fill="#F70032"/>
<path d="M48.7775 69.4716C50.6539 68.7995 52.1199 67.8059 53.6738 66.5493C54.9344 65.5265 53.0581 63.5685 51.856 64.7375C50.7126 65.8772 49.5692 67.163 48.1033 67.9228C47.2824 68.3611 47.8394 69.7638 48.7483 69.4423L48.7775 69.4716Z" fill="#990028"/>
<path d="M65.5766 70.5228C65.8991 69.8214 66.0457 69.0908 66.163 68.3311C66.3389 67.3667 66.6028 66.4315 66.72 65.4672C66.9546 63.5969 63.5829 63.5385 63.7589 65.4672C63.8468 66.3146 63.9347 67.1621 63.9934 68.0388C64.052 68.9155 64.14 69.7922 64.6384 70.5228C64.8436 70.8442 65.4007 70.9319 65.5766 70.5228Z" fill="#990028"/>
<path d="M81.35 68.9156C80.9689 68.5065 80.6463 67.6006 80.2945 67.0453C80.1186 66.7823 79.9721 66.4901 79.7961 66.1978C79.7082 66.0517 79.6495 65.8764 79.5615 65.7303C79.7375 66.0518 79.4443 65.4673 79.3856 65.3504C79.0925 64.7367 78.2716 64.4737 77.6559 64.649C76.8056 64.8828 76.4539 65.701 76.6005 66.5193C76.7764 67.4836 77.7731 68.0389 78.4768 68.5649C78.8286 68.7987 79.0925 69.1494 79.4443 69.4124C79.8548 69.7338 80.2359 69.8215 80.6757 69.9968C81.3207 70.2598 81.7311 69.3539 81.3207 68.8864L81.35 68.9156Z" fill="#990028"/>
<path d="M57.6021 58.5709H57.6607C58.2471 58.7754 58.6869 58.0448 58.423 57.5773C58.423 57.5773 58.423 57.5188 58.3937 57.5188C58.1592 57.1389 57.6022 57.0513 57.2797 57.3727C56.8692 57.7818 57.1037 58.3663 57.6021 58.5416V58.5709Z" fill="#990028"/>
<path d="M60.5929 58.5993C60.8568 58.3071 60.8568 57.898 60.5929 57.6058C60.1531 57.109 59.3616 57.5181 59.3616 58.1318C59.3616 58.7454 60.1824 59.1253 60.5929 58.6286V58.5993Z" fill="#990028"/>
<path d="M62.1759 58.8621C63.1727 58.8621 63.1727 57.3425 62.1759 57.3425C61.179 57.3425 61.2084 58.8621 62.1759 58.8621Z" fill="#990028"/>
<path d="M64.2571 58.716C65.1367 58.716 65.1367 57.3425 64.2571 57.3425C63.3776 57.3425 63.3483 58.716 64.2571 58.716Z" fill="#990028"/>
<path d="M66.2511 58.5122C67.1306 58.5122 67.1306 57.1387 66.2511 57.1387C65.3715 57.1387 65.3715 58.5122 66.2511 58.5122Z" fill="#990028"/>
<path d="M68.0394 58.2787C68.831 58.2787 68.831 57.0806 68.0394 57.0806C67.2478 57.0806 67.2478 58.2787 68.0394 58.2787Z" fill="#990028"/>
<path d="M69.8863 58.1911C69.8863 58.1911 69.945 58.1911 69.9743 58.2203C70.4141 58.3664 70.8832 57.9573 70.8832 57.5482C70.8832 57.1391 70.4141 56.7007 69.9743 56.8468C69.9743 56.8468 69.9157 56.8468 69.8863 56.8468C69.2413 57.0806 69.2413 57.9281 69.8863 58.1619V58.1911Z" fill="#990028"/>
<path d="M72.5249 58.1322C73.4925 58.1322 73.4925 56.6418 72.5249 56.6418C71.5574 56.6418 71.5574 58.1322 72.5249 58.1322Z" fill="#990028"/>
<path d="M74.6363 57.7819C75.3986 57.7819 75.3986 56.5837 74.6363 56.5837C73.8741 56.5837 73.8447 57.7819 74.6363 57.7819Z" fill="#990028"/>
<path d="M65.1956 66.7535C65.6647 66.7535 66.0459 66.3736 66.0459 65.9061C66.0459 65.4385 65.6647 65.0586 65.1956 65.0586C64.7265 65.0586 64.3453 65.4385 64.3453 65.9061C64.3453 66.3736 64.7265 66.7535 65.1956 66.7535Z" fill="#F70032"/>
<path d="M52.7356 66.6651C53.0288 66.5483 53.2633 66.3729 53.3513 66.0515C53.4978 65.4963 53.0874 64.9702 52.5303 64.9702C52.0613 64.9702 51.6802 65.3501 51.6802 65.8177C51.6802 66.3437 52.2372 66.8405 52.7649 66.6359L52.7356 66.6651Z" fill="#F70032"/>
<path d="M77.304 66.4317C77.304 66.4317 77.304 66.4902 77.3333 66.4902C77.5092 66.8116 77.8903 66.9577 78.2128 66.8408C78.5647 66.7531 78.7699 66.4317 78.7992 66.081C78.7992 66.081 78.7992 66.0226 78.7992 65.9934C78.8286 65.4674 78.2422 65.0875 77.7731 65.2043C77.2454 65.3505 77.0401 65.9349 77.2746 66.4025L77.304 66.4317Z" fill="#F70032"/>
<path d="M54.4944 64.3276C54.729 64.1523 54.9635 63.977 55.1688 63.8016C55.374 63.5971 55.6672 63.3925 55.6379 63.0711C55.6379 62.9249 55.5206 62.7788 55.3447 62.7788C54.729 62.808 54.4651 63.6848 54.172 64.0939C54.0254 64.2984 54.3185 64.4737 54.4944 64.3276V64.3276Z" fill="#F70032"/>
<path d="M53.3803 63.772C53.3803 63.772 53.5856 63.6844 53.7029 63.6259C53.7908 63.5675 53.8788 63.4798 53.9667 63.3921C54.1426 63.246 54.3479 62.983 54.4065 62.7492C54.5238 62.3401 54.0547 62.0186 53.7029 62.194C53.4683 62.3109 53.2631 62.6031 53.2044 62.8661C53.2044 62.983 53.1458 63.0999 53.1458 63.2168C53.1458 63.3045 53.1458 63.4506 53.1458 63.5382C53.0872 63.6844 53.2338 63.9181 53.4097 63.8012L53.3803 63.772Z" fill="#F70032"/>
<path d="M54.9343 65.2917C55.2275 65.2917 55.4328 65.2917 55.726 65.1456C56.0192 64.9995 56.283 64.8241 56.4002 64.5319C56.5468 64.2105 56.283 63.7137 55.9019 63.889C55.638 64.0059 55.4328 64.152 55.2275 64.3566C55.1396 64.4442 55.0516 64.5319 54.9637 64.6488C54.8757 64.7657 54.8464 64.8826 54.7584 64.9995C54.6998 65.1164 54.7585 65.2625 54.9051 65.2625L54.9343 65.2917Z" fill="#F70032"/>
<path d="M63.9055 64.1817C64.0227 64.0356 64.0814 63.9479 64.1401 63.7433C64.1694 63.5388 64.14 63.2758 64.0814 63.0712C63.9348 62.6621 63.2605 62.5744 63.1725 63.0712C63.0846 63.5388 63.2605 63.9771 63.671 64.2109C63.7589 64.2694 63.8762 64.2401 63.9348 64.1817H63.9055Z" fill="#F70032"/>
<path d="M65.4593 63.6265C65.6352 63.4512 65.6352 63.1882 65.5766 62.9544C65.518 62.7206 65.5766 62.4868 65.4887 62.2531C65.4593 62.1654 65.3421 62.1069 65.2542 62.1069C64.5505 62.1362 64.6385 63.422 65.1662 63.685C65.2542 63.7434 65.3714 63.7434 65.4593 63.6557V63.6265Z" fill="#F70032"/>
<path d="M66.3977 63.831C66.5736 63.7433 66.7202 63.568 66.8374 63.4218C66.984 63.2465 67.16 63.0712 67.2186 62.8374C67.3066 62.6036 67.0134 62.2822 66.7788 62.3991C66.3391 62.5744 65.87 63.2758 66.1338 63.7726C66.1925 63.8602 66.2804 63.8894 66.3683 63.831H66.3977Z" fill="#F70032"/>
<path d="M76.5712 64.5913C76.6591 64.1529 76.5125 63.5685 76.1021 63.3055C75.8675 63.1593 75.5157 63.3054 75.4864 63.5685C75.3692 64.1237 75.8089 64.5912 76.3073 64.7373C76.4246 64.7666 76.5419 64.7082 76.5712 64.5913V64.5913Z" fill="#F70032"/>
<path d="M75.75 65.2921C75.5741 65.1168 75.4275 64.9999 75.193 64.883C74.8998 64.7077 74.6946 64.62 74.3721 64.7662C74.1375 64.883 74.1375 65.2045 74.2841 65.3798C74.5773 65.7305 75.2223 65.5844 75.6327 65.5259C75.75 65.5259 75.8086 65.3798 75.7207 65.2921H75.75Z" fill="#F70032"/>
<path d="M77.8317 63.8892C77.8317 63.6846 77.8903 63.4508 77.9196 63.2463C78.0076 62.6326 77.0987 62.6326 77.1574 63.1294C77.1867 63.4509 77.2453 63.7431 77.4505 63.9769C77.5678 64.123 77.8317 64.0938 77.8317 63.86V63.8892Z" fill="#F70032"/>
<path d="M55.286 73.9121C55.843 73.9121 55.843 73.0354 55.286 73.0354C54.7289 73.0354 54.7289 73.9121 55.286 73.9121Z" fill="#F70032"/>
<path d="M47.8685 75.8708C48.4255 75.8708 48.4255 74.9941 47.8685 74.9941C47.3114 74.9941 47.3114 75.8708 47.8685 75.8708Z" fill="#F70032"/>
<path d="M17.7292 101.061C18.2862 101.061 18.2862 100.184 17.7292 100.184C17.1721 100.184 17.1721 101.061 17.7292 101.061Z" fill="#F70032"/>
<path d="M46.9594 80.6926C47.5165 80.6926 47.5165 79.8159 46.9594 79.8159C46.4024 79.8159 46.4024 80.6926 46.9594 80.6926Z" fill="#F70032"/>
<path d="M40.3628 78.0047C41.0371 78.0047 41.0371 76.9526 40.3628 76.9526C39.6885 76.9526 39.6885 78.0047 40.3628 78.0047Z" fill="#F70032"/>
<path d="M31.362 74.994C32.1536 74.994 32.1536 73.7959 31.362 73.7959C30.5704 73.7959 30.5704 74.994 31.362 74.994Z" fill="#F70032"/>
<path d="M26.7592 79.6994C27.5508 79.6994 27.5508 78.5012 26.7592 78.5012C25.9676 78.5012 25.9676 79.6994 26.7592 79.6994Z" fill="#F70032"/>
<path d="M52.2661 81.9197C52.2661 81.9197 52.2661 81.949 52.2661 81.9782C52.0609 82.4458 52.4714 82.8549 52.9405 82.6503C52.9405 82.6503 52.9698 82.6503 52.9991 82.6503C53.3216 82.5334 53.3216 82.0659 53.1164 81.8321C52.9112 81.5983 52.4421 81.6275 52.2955 81.949L52.2661 81.9197Z" fill="#F70032"/>
<path d="M36.4925 70.9321C36.4925 70.9321 36.4925 70.9613 36.4925 70.9905C36.2872 71.4581 36.6977 71.8672 37.1668 71.6626C37.1668 71.6626 37.1961 71.6626 37.2254 71.6626C37.5479 71.5165 37.5479 71.0782 37.3427 70.8444C37.1375 70.6398 36.6684 70.6398 36.5218 70.9613L36.4925 70.9321Z" fill="#F70032"/>
<path d="M62.3518 79.9624C63.202 79.9624 63.202 78.6182 62.3518 78.6182C61.5016 78.6182 61.5016 79.9624 62.3518 79.9624Z" fill="#F70032"/>
<path d="M42.5617 86.3912C43.412 86.3912 43.412 85.0762 42.5617 85.0762C41.7115 85.0762 41.7115 86.3912 42.5617 86.3912Z" fill="#F70032"/>
<path d="M32.0952 81.1605C32.0952 81.1605 32.1246 81.1605 32.1539 81.1605C32.0366 81.1605 31.9193 81.1605 31.8314 81.1021C31.8314 81.1021 31.8314 81.1021 31.8607 81.1021C32.2418 81.3066 32.623 80.8975 32.4471 80.5176C32.3885 80.4299 32.3298 80.3423 32.2125 80.313C31.9486 80.1961 31.6262 80.2838 31.5382 80.5761C31.4503 80.9267 31.7727 81.1897 32.0952 81.1313V81.1605Z" fill="#F70032"/>
<path d="M17.6118 98.4017C17.6118 98.4017 17.6411 98.4017 17.6704 98.4017C17.5531 98.4017 17.4358 98.4017 17.3478 98.3432C17.3478 98.3432 17.3479 98.3432 17.3772 98.3432C17.7583 98.5478 18.1395 98.1679 17.9636 97.7588C17.9049 97.6711 17.8463 97.5835 17.729 97.5542C17.4651 97.4374 17.1427 97.525 17.0547 97.8172C16.9668 98.1679 17.2893 98.4309 17.6118 98.3725V98.4017Z" fill="#F70032"/>
<path d="M66.5733 87.4429C67.1597 87.4429 67.1597 86.5662 66.5733 86.5662C65.987 86.5662 65.987 87.4429 66.5733 87.4429Z" fill="#F70032"/>
<path d="M73.9326 73.3284C74.4896 73.3284 74.4896 72.481 73.9326 72.481C73.3755 72.481 73.3755 73.3284 73.9326 73.3284Z" fill="#F70032"/>
<path d="M97.9149 86.4496C98.7065 86.4496 98.7065 85.2515 97.9149 85.2515C97.1233 85.2515 97.1233 86.4496 97.9149 86.4496Z" fill="#F70032"/>
<path d="M103.691 83.089C104.482 83.089 104.482 81.8909 103.691 81.8909C102.899 81.8909 102.899 83.089 103.691 83.089Z" fill="#F70032"/>
<path d="M104.365 87.0336C105.157 87.0336 105.157 85.8354 104.365 85.8354C103.573 85.8354 103.573 87.0336 104.365 87.0336Z" fill="#F70032"/>
<path d="M31.6262 86.2154C32.4472 86.2154 33.1214 85.5433 33.1214 84.725C33.1214 83.9068 32.4472 83.2346 31.6262 83.2346C30.8053 83.2346 30.131 83.9068 30.131 84.725C30.131 85.5433 30.8053 86.2154 31.6262 86.2154Z" fill="#990028"/>
<path d="M30.3363 88.2317C30.3363 88.2317 30.3363 88.2609 30.3363 88.2902C30.5415 88.7285 31.1278 88.9038 31.5676 88.7869C32.1539 88.6408 32.4472 88.0271 32.3299 87.4427V87.3842C32.2126 86.7997 31.5383 86.4783 30.9813 86.6244C30.2483 86.829 30.0431 87.5888 30.3363 88.2317Z" fill="#990028"/>
<path d="M45.4644 93.1415C45.4644 93.1415 45.4643 93.1999 45.4936 93.2292C45.6695 93.5506 46.1093 93.6675 46.4025 93.4629C46.5197 93.4045 46.5784 93.3168 46.6371 93.2292C46.8423 92.9369 46.6957 92.4986 46.4025 92.3233C46.4025 92.3233 46.3438 92.2941 46.3145 92.2648C45.7575 91.9434 45.1418 92.557 45.435 93.1415H45.4644Z" fill="#990028"/>
<path d="M60.6512 96.0632C60.6512 96.0632 60.6512 96.1217 60.6805 96.1509C60.8564 96.4723 61.2963 96.5892 61.5894 96.3847C61.7067 96.3262 61.7653 96.2385 61.824 96.1509C62.0292 95.8586 61.8826 95.4203 61.5894 95.245C61.5894 95.245 61.5308 95.245 61.5015 95.2158C60.9444 94.8943 60.3287 95.508 60.6219 96.0925L60.6512 96.0632Z" fill="#990028"/>
<path d="M23.0943 86.0987C20.8662 89.4301 21.3938 98.1677 24.9707 100.535C25.2345 100.71 25.5864 100.476 25.5864 100.184C25.5864 97.9632 24.7362 95.6546 24.4723 93.4337C24.2084 91.0666 24.6482 88.5534 24.1498 86.2448C24.0325 85.7188 23.3582 85.7188 23.0943 86.0987V86.0987Z" fill="#990028"/>
<path d="M19.5468 86.625C16.615 87.0926 16.5564 91.5929 16.8203 93.7846C17.1134 96.2101 18.169 99.9799 20.7197 100.973C21.0422 101.09 21.306 100.74 21.2474 100.447C20.6317 98.2849 19.6056 96.327 19.0778 94.1061C18.4621 91.3591 19.1071 89.5765 20.016 87.0634C20.1332 86.7711 19.8107 86.5666 19.5468 86.5958V86.625Z" fill="#990028"/>
<path d="M96.9473 100.389C95.628 100.739 94.4259 101.353 93.1066 101.733C91.7873 102.113 90.2333 102.23 89.0899 101.616C87.9465 101.032 87.4774 99.892 86.8031 98.9569C85.3958 96.9697 82.7278 95.4794 79.8546 95.5086C76.6589 95.5378 73.5219 97.3788 70.4728 96.6483C68.0394 96.0638 66.5441 94.0474 64.1987 93.2584C60.3286 92.0018 56.1947 94.5734 52.0022 94.6319C49.6274 94.6611 47.3699 93.8721 45.0538 93.3461C42.7376 92.8201 40.3042 92.5278 37.9001 92.5278C36.0823 92.5278 34.1767 92.6739 32.6814 93.5214C31.3621 94.252 30.4825 95.4501 29.0166 95.9761C27.4921 96.5313 25.7037 96.2684 24.1205 95.8592C22.5373 95.4501 20.9248 94.9241 19.2537 95.0117C17.5825 95.0994 15.2076 96.1807 15.149 97.5249C15.0611 101.236 16.9961 104.743 18.5207 108.25C21.0128 114.007 30.9224 122.569 45.8161 121.838C48.9238 121.692 52.0316 121.838 55.1686 121.838C60.8271 121.838 75.1051 122.014 80.7049 121.634C93.3118 120.757 94.4846 118.127 98.8823 111.698C101.931 107.256 101.609 103.165 100.817 101.879C99.5859 99.8628 97.7682 100.243 96.9473 100.447V100.389Z" fill="#191956"/>
<path d="M55.2271 180.314C55.1685 180.547 55.0219 180.81 54.7874 180.81C54.5821 180.81 54.4648 180.635 54.3769 180.46C53.6146 179.116 52.9696 177.713 52.5298 176.222C53.5559 176.222 54.5821 176.281 55.6083 176.369C55.7842 176.369 55.96 176.427 56.0187 176.573C56.048 176.661 56.0187 176.748 56.0187 176.865C55.7841 178.005 55.5496 179.174 55.2271 180.284V180.314Z" fill="#0C0A35"/>
<path d="M46.5782 127.011C46.6369 128.034 46.9301 129.027 47.194 130.021C48.2788 134.317 48.572 138.846 48.0149 143.259C53.3508 142.674 58.4229 139.957 61.8532 135.836C62.762 134.755 63.7002 133.498 65.1075 133.294C64.785 130.576 65.0195 127.8 65.7818 125.141C59.5663 124.936 53.3508 125.287 47.2233 126.28C47.018 126.28 46.7835 126.368 46.6662 126.514C46.5782 126.66 46.5782 126.836 46.5782 127.011V127.011Z" fill="#FCC07E"/>
<path d="M46.3146 128.794C46.4612 129.203 46.9596 129.378 47.3701 129.29C49.4517 128.794 50.8882 128.618 56.9278 128.268C63.026 127.917 65.0783 128.443 65.5474 127.742C70.7074 119.968 74.1671 117.835 77.8025 115.351C78.0957 115.147 78.0371 114.708 77.6852 114.591C75.9555 114.095 73.3461 114.182 72.1734 114.328C66.8374 115.117 65.4595 116.988 62.469 120.144C61.5015 115.03 59.1853 112.283 56.7812 111.172C55.1394 112.897 53.0871 116.053 52.5594 119.822C52.2662 119.15 51.328 117.923 50.8296 117.397C48.0737 114.445 43.3827 112.926 38.6332 112.721C38.5159 112.721 38.428 112.809 38.3987 112.897C38.2227 113.89 40.7734 116.345 42.3273 119.15C44.7607 123.534 44.6141 123.855 46.3439 128.794H46.3146Z" fill="#0C0A35"/>
<path d="M71.4405 142.967C71.6164 141.242 71.9096 139.518 71.851 137.765C71.8217 136.012 71.4405 134.258 70.4437 132.797C69.2709 131.073 67.1893 129.962 65.1077 129.962C62.9968 129.962 60.7099 130.635 58.8629 131.628C56.7813 132.768 54.5824 134.17 52.9406 135.865C50.9763 137.911 50.1846 140.6 49.1585 143.23C46.7837 149.133 45.3178 155.679 46.901 161.815C46.9597 162.049 47.0183 162.283 47.1942 162.458C47.3995 162.663 47.6926 162.75 47.9564 162.809C54.5238 164.27 61.4722 162.751 68.0102 164.153C69.2416 160.676 68.0396 156.584 69.7107 153.282C70.6196 151.47 72.2907 150.155 73.7566 148.782C74.4896 148.081 75.2519 147.029 74.7535 146.152C74.1378 145.041 72.1441 145.421 71.5578 144.282C71.3525 143.902 71.3818 143.405 71.4405 142.967V142.967Z" fill="#FFD6A1"/>
<path d="M55.726 132.27C57.9248 132.68 61.443 134.17 63.4953 137.268C64.7267 139.138 65.313 141.446 65.9287 143.58C66.1046 144.164 66.1925 144.69 66.3684 145.187C66.4857 145.538 67.0428 145.538 67.4239 145.508C69.8574 145.187 70.0919 145.099 72.1735 144.807C72.2615 141.417 73.3755 137.91 76.0728 135.836C77.9199 134.433 79.8256 132.972 82.0245 132.241C79.3859 132.943 76.3367 133.469 74.1085 135.017C71.8803 136.566 70.5024 138.904 69.6228 141.476C68.5967 139.167 67.1308 137.092 65.313 135.339C64.9026 134.93 64.4921 134.55 63.9937 134.287C63.4952 133.995 62.5571 133.498 62.0294 133.264C59.3614 132.183 57.1039 132.358 55.7552 132.27H55.726Z" fill="#0C0A35"/>
<path d="M70.2383 132.505C68.7724 130.576 66.5149 130.488 64.8438 130.576C65.6353 128.939 66.4856 127.274 67.8049 126.046C68.9483 124.994 70.4436 124.293 71.9974 124.118C71.2645 126.865 70.297 129.67 70.2383 132.505V132.505Z" fill="#0C0A35"/>
<path d="M40.187 130.927C38.3107 130.371 36.3757 129.845 34.4407 129.992C35.8773 133.82 36.3757 135.69 37.0207 139.752C37.1673 140.746 37.8709 146.21 37.9296 147.233C38.2521 152.698 38.2228 155.854 37.8416 161.289C37.8416 161.435 37.8416 161.581 37.9002 161.728C38.0175 161.903 38.252 161.932 38.4573 161.961C42.5325 162.312 46.6371 160.909 50.7123 161.318C51.5039 155.708 52.2955 149.98 51.5332 144.369C51.2694 142.44 50.9176 140.453 49.8622 138.846C45.8749 132.709 42.8843 131.774 40.187 130.956V130.927Z" fill="#141247"/>
<path d="M52.6179 157.432C52.6179 157.432 52.4127 156 52.7059 156.058C53.7321 156.263 54.6996 156.234 55.2566 156.263C60.1528 156.526 61.56 156.555 65.1955 155.941C65.3128 156.555 65.3421 157.169 65.2834 157.753C61.1789 157.519 57.0743 157.49 52.9698 157.695C52.8525 157.695 52.7352 157.695 52.6472 157.607C52.5886 157.549 52.5886 157.49 52.5886 157.403L52.6179 157.432Z" fill="#0C0A35"/>
<path d="M53.4391 143.844C53.1166 144.341 53.0579 145.013 53.3218 145.568C53.4391 145.86 53.6443 146.094 53.8789 146.299C54.5825 146.825 55.6672 146.795 56.3122 146.182C57.0745 145.451 57.0159 144.078 56.1949 143.406C55.374 142.733 53.9962 142.967 53.4391 143.844V143.844Z" fill="#D6002B"/>
<path d="M68.8897 168.945C68.8897 169.471 68.7138 169.968 68.4792 170.436C67.1306 173.417 64.4333 175.696 61.3549 176.894C58.3058 178.092 54.9048 178.238 51.6505 177.712C50.2432 177.479 48.8359 177.128 47.6046 176.426C46.5784 175.842 45.6989 175.053 44.8486 174.264C43.0602 172.598 41.2718 170.67 41.0079 168.244C50.0966 167.338 59.332 166.432 68.2741 168.273C68.45 168.303 68.6258 168.361 68.7431 168.478C68.8603 168.595 68.8897 168.799 68.8897 168.975V168.945Z" fill="#222272"/>
<path d="M70.4144 146.064C70.5903 143.697 70.9128 141.593 71.5579 139.313C72.3494 136.537 74.2258 134.842 75.8383 132.592C75.9556 132.417 75.6917 132.242 75.5451 132.358C71.7924 135.69 69.3296 141.096 70.0626 146.122C70.0919 146.327 70.4144 146.269 70.4144 146.064V146.064Z" fill="#B70027"/>
<path d="M68.3328 147.378C69.828 142.615 68.1862 135.835 63.6125 133.322C63.4659 133.234 61.9121 132.854 62.0294 132.942C63.9644 134.257 66.603 137.121 67.336 139.517C68.0983 142.001 68.1569 144.748 67.8931 147.32C67.8931 147.583 68.2449 147.612 68.3328 147.378V147.378Z" fill="#B70027"/>
<path d="M82.64 132.241C76.102 132.417 70.0624 140.19 71.9681 146.473C72.0267 146.677 72.3492 146.707 72.4078 146.473C72.6717 145.245 72.4665 144.076 72.7304 142.82C73.0529 141.213 73.6393 139.576 74.3722 138.115C75.9261 134.959 79.8841 133.936 82.728 132.446C82.8159 132.387 82.7865 132.27 82.6693 132.27L82.64 132.241Z" fill="#B70027"/>
<path d="M66.9548 147.321C67.5705 143.638 66.3978 139.197 64.023 136.304C61.6775 133.469 58.1886 129.962 54.0254 130.956C53.7615 131.014 53.7029 131.423 53.9375 131.569C55.2275 132.241 56.6347 132.475 57.9541 133.089C59.6545 133.907 61.1498 135.777 62.3812 137.151C64.9612 140.015 65.8408 143.668 66.6324 147.321C66.6324 147.467 66.8962 147.467 66.9255 147.321H66.9548Z" fill="#B70027"/>
<path d="M72.7305 123.007C70.0332 125.813 69.5641 129.524 68.7139 133.148C68.6846 133.294 68.8898 133.352 68.9484 133.206C69.6227 131.482 69.7987 129.612 70.3557 127.858C70.8541 126.222 71.8216 124.468 72.7305 123.037V123.007Z" fill="#B70027"/>
<path d="M71.2058 123.183C70.0038 123.972 69.5054 125.521 68.919 126.748C68.0688 128.677 67.7756 130.752 67.4531 132.827C67.4238 133.031 67.717 133.119 67.8049 132.914C68.5379 131.19 68.4792 129.262 69.1829 127.508C69.7986 126.047 70.6781 124.703 71.2938 123.271C71.3231 123.183 71.2351 123.125 71.1765 123.183H71.2058Z" fill="#B70027"/>
<path d="M68.5086 124.001C67.072 126.543 65.7234 129.641 65.8993 132.621C65.8993 132.826 66.2511 132.884 66.3097 132.68C66.8081 131.277 66.9547 129.728 67.3359 128.296C67.7463 126.864 68.4792 125.549 68.7431 124.088C68.7431 123.942 68.5672 123.913 68.5086 124.03V124.001Z" fill="#B70027"/>
<path d="M48.3375 133.499C49.305 138.028 48.9825 142.675 49.1291 147.263C49.305 152.494 48.0443 157.345 47.5459 162.488C47.5459 162.722 47.8977 162.809 47.9857 162.605C50.0673 158.075 50.0379 152.143 49.8913 147.263C49.7741 142.733 50.3311 137.648 48.3668 133.47C48.3668 133.411 48.2789 133.47 48.3082 133.499H48.3375Z" fill="#B70027"/>
<path d="M45.9042 132.066C47.0769 137.619 46.9303 143.288 46.4905 148.899C46.1387 153.457 45.9628 157.782 44.409 162.137C44.321 162.37 44.6435 162.546 44.8194 162.37C47.5461 159.39 46.9303 153.633 47.2235 149.921C47.6926 144.135 47.8979 137.618 45.9922 132.037C45.9922 131.978 45.8749 132.008 45.9042 132.037V132.066Z" fill="#B70027"/>
<path d="M43.676 130.489C44.878 140.629 44.5555 151.5 42.2687 161.436C42.21 161.699 42.5912 161.874 42.7378 161.641C45.1712 157.433 44.6142 151.968 44.9074 147.351C45.2299 141.886 45.7869 135.749 43.9398 130.489C43.9105 130.372 43.7053 130.372 43.7053 130.518L43.676 130.489Z" fill="#B70027"/>
<path d="M39.3955 128.939C39.9232 131.657 40.6855 134.316 40.92 137.092C41.1253 139.839 41.2425 142.645 41.2718 145.392C41.3598 150.33 41.5651 155.474 40.3337 160.295C40.2751 160.5 40.5682 160.646 40.6855 160.441C42.8258 156.321 42.0927 150.944 42.0927 146.444C42.0927 140.336 41.7116 134.638 39.63 128.881C39.5714 128.735 39.3955 128.793 39.3955 128.939V128.939Z" fill="#B70027"/>
<path d="M36.2876 128.209C37.3137 133.002 37.7535 137.882 38.4865 142.733C38.9555 145.801 39.2194 148.928 39.278 152.026C39.3073 154.948 38.6037 157.812 38.8676 160.764C38.8676 160.968 39.2194 161.056 39.2487 160.822C40.0109 155.387 40.2162 150.068 39.4539 144.633C38.721 139.256 38.5158 133.206 36.3755 128.18C36.3462 128.092 36.2289 128.18 36.2289 128.239L36.2876 128.209Z" fill="#B70027"/>
<path d="M32.9162 169.383C35.379 166.461 37.1087 162.954 37.9003 159.214C41.6823 158.863 45.4937 158.863 49.2758 158.892C50.8297 158.892 52.4129 159.009 53.9668 159.009C59.1268 159.068 61.1497 159.418 68.1275 159.331C68.8898 159.331 69.7107 159.827 70.1211 160.47C72.3786 163.919 73.698 166.87 75.7796 169.266C75.8969 169.383 76.0728 169.588 75.9555 169.705C75.8383 169.822 75.6917 169.88 75.5158 169.909C70.9128 171.049 66.0752 171.166 61.3256 171.166C52.2369 171.166 43.1189 170.903 34.0302 170.318C33.7077 170.318 33.3852 170.289 33.1214 170.114C32.8575 169.938 32.6816 169.617 32.8869 169.383H32.9162Z" fill="#0C0A35"/>
<path d="M72.5249 168.478C71.9092 168.186 71.2935 167.894 70.6778 167.602C70.2967 167.426 69.9155 167.251 69.5051 167.251C69.3878 167.251 69.2412 167.251 69.1533 167.339C69.0653 167.397 66.0163 171.342 65.9869 171.839C68.7722 171.722 71.616 171.547 74.1667 170.436C74.284 170.378 74.3719 170.319 74.4305 170.232C74.4892 170.115 74.4306 169.969 74.3719 169.881C74.0201 169.209 73.2579 168.829 72.5542 168.508L72.5249 168.478Z" fill="#990028"/>
<path d="M58.5402 167.981C57.0743 169.296 56.2241 170.377 54.7875 171.751C57.3968 171.897 60.0062 172.043 62.5862 172.218C63.2312 172.248 63.9641 172.277 64.4625 171.868C62.6741 170.757 61.5014 168.799 59.625 167.777C59.537 167.747 59.2732 167.309 58.5109 168.01L58.5402 167.981Z" fill="#990028"/>
<path d="M53.4095 171.225C52.9698 170.524 52.53 169.793 52.0902 169.092C51.8263 168.683 51.5625 168.274 51.2693 167.894C50.9468 167.485 50.5363 167.134 50.0966 166.842C49.8327 166.666 49.4809 166.783 49.2756 167.046C48.015 168.77 47.282 169.384 46.1093 170.553C45.7282 170.933 45.5816 170.933 45.3763 171.459C46.5491 171.517 47.7511 171.605 48.9238 171.663C50.4777 171.751 52.0609 171.839 53.5854 171.488C53.5854 171.371 53.4975 171.254 53.3802 171.254L53.4095 171.225Z" fill="#990028"/>
<path d="M43.1186 171.926C43.5291 171.634 43.2946 170.991 43.0307 170.582C42.0045 168.887 40.9491 167.163 39.5711 165.76C39.3073 165.497 38.8968 165.556 38.6915 165.848C38.1931 166.696 35.1441 169.939 34.6163 171.05C37.1963 171.137 39.747 171.43 42.2684 172.014C42.5616 172.073 42.8841 172.131 43.1186 171.956V171.926Z" fill="#990028"/>
<path d="M65.6941 172.072C65.0198 172.072 65.0198 173.124 65.6941 173.124C66.3684 173.124 66.3684 172.072 65.6941 172.072Z" fill="#0C0A35"/>
<path d="M63.671 174.06C63.2312 174.06 63.2312 174.732 63.671 174.732C64.1108 174.732 64.1108 174.06 63.671 174.06Z" fill="#0C0A35"/>
<path d="M61.9409 172.043C61.4425 172.043 61.4425 172.832 61.9409 172.832C62.4394 172.832 62.4394 172.043 61.9409 172.043Z" fill="#0C0A35"/>
<path d="M60.1821 174.527C59.5371 174.527 59.5371 175.521 60.1821 175.521C60.8271 175.521 60.8271 174.527 60.1821 174.527Z" fill="#0C0A35"/>
<path d="M61.9121 175.695C61.443 175.695 61.443 176.455 61.9121 176.455C62.3812 176.455 62.3812 175.695 61.9121 175.695Z" fill="#0C0A35"/>
<path d="M58.1301 176.543C57.573 176.543 57.573 177.391 58.1301 177.391C58.6871 177.391 58.6871 176.543 58.1301 176.543Z" fill="#0C0A35"/>
<path d="M57.2208 173.797C56.8103 173.797 56.8103 174.44 57.2208 174.44C57.6313 174.44 57.6313 173.797 57.2208 173.797Z" fill="#0C0A35"/>
<path d="M58.7163 171.664C58.0127 171.664 58.0127 172.745 58.7163 172.745C59.42 172.745 59.42 171.664 58.7163 171.664Z" fill="#0C0A35"/>
<path d="M55.1687 171.576C54.4651 171.576 54.4651 172.657 55.1687 172.657C55.8724 172.657 55.8724 171.576 55.1687 171.576Z" fill="#0C0A35"/>
<path d="M55.4616 175.55C54.9925 175.55 54.9925 176.281 55.4616 176.281C55.9307 176.281 55.9307 175.55 55.4616 175.55Z" fill="#0C0A35"/>
<path d="M53.2923 176.777C52.7939 176.777 52.7939 177.566 53.2923 177.566C53.7907 177.566 53.7907 176.777 53.2923 176.777Z" fill="#0C0A35"/>
<path d="M52.6766 174.294C52.6766 174.294 52.6766 174.294 52.6473 174.294C52.0609 174.118 52.0609 175.17 52.6473 174.995H52.6766C53.0285 174.878 53.0285 174.411 52.6766 174.323V174.294Z" fill="#0C0A35"/>
<path d="M51.2397 171.576C50.5947 171.576 50.5947 172.569 51.2397 172.569C51.8847 172.569 51.8847 171.576 51.2397 171.576Z" fill="#0C0A35"/>
<path d="M50.0966 175.813C49.5396 175.813 49.5396 176.66 50.0966 176.66C50.6537 176.66 50.6537 175.813 50.0966 175.813Z" fill="#0C0A35"/>
<path d="M48.8065 173.417C48.1615 173.417 48.1615 174.411 48.8065 174.411C49.4515 174.411 49.4515 173.417 48.8065 173.417Z" fill="#0C0A35"/>
<path d="M46.3731 174.264C45.904 174.264 45.904 174.994 46.3731 174.994C46.8422 174.994 46.8422 174.264 46.3731 174.264Z" fill="#0C0A35"/>
<path d="M47.1063 171.429C46.5492 171.429 46.5492 172.306 47.1063 172.306C47.6633 172.306 47.6633 171.429 47.1063 171.429Z" fill="#0C0A35"/>
<path d="M44.5553 171.985C43.881 171.985 43.881 173.008 44.5553 173.008C45.2296 173.008 45.2296 171.985 44.5553 171.985Z" fill="#0C0A35"/>
<path d="M65.3712 170.026C65.6937 168.331 65.8404 166.198 65.3126 164.532C64.9608 163.393 63.2017 163.568 63.1724 164.825C63.1724 166.695 63.6708 168.273 64.2279 170.026C64.4038 170.523 65.2247 170.64 65.342 170.026H65.3712Z" fill="#F70032"/>
<path d="M74.2256 168.185C74.3428 167.484 74.0496 166.812 73.6685 166.257C73.1994 165.555 72.8182 164.679 72.1732 164.124C71.4403 163.51 70.3555 164.27 70.8539 165.146C71.1764 165.76 71.7042 166.432 72.2026 166.929C72.701 167.426 73.3167 167.806 73.7565 168.332C73.9031 168.478 74.1962 168.419 74.2548 168.215L74.2256 168.185Z" fill="#F70032"/>
<path d="M55.0515 169.471C55.4033 168.536 55.7844 167.63 55.931 166.637C56.019 166.023 55.9897 165.41 56.1363 164.796C56.5174 163.247 54.0254 162.604 53.7615 164.153C53.4683 165.848 53.7615 167.835 54.1133 169.501C54.2306 169.998 54.9049 169.91 55.0515 169.501V169.471Z" fill="#F70032"/>
<path d="M44.9952 169.062C45.5816 168.302 45.9041 167.309 46.0506 166.374C46.1679 165.585 46.5197 164.503 46.0506 163.773C45.7868 163.364 45.2591 163.101 44.79 163.247C44.7607 163.247 44.702 163.247 44.6727 163.276C44.2622 163.393 43.8518 163.744 43.7638 164.182C43.6172 165 43.7052 165.76 43.7638 166.578C43.7931 167.426 43.7345 168.302 44.2623 169.033C44.4675 169.325 44.8193 169.325 45.0538 169.033L44.9952 169.062Z" fill="#F70032"/>
<path d="M35.027 168.098C35.8186 167.748 36.317 166.959 36.7861 166.257C37.3138 165.497 37.9295 164.708 37.9295 163.744C37.9295 162.955 36.6981 162.487 36.317 163.306C35.672 164.708 34.7045 166.082 34.4407 167.631C34.382 168.011 34.7045 168.244 35.0563 168.098H35.027Z" fill="#F70032"/>
<path d="M64.0225 162.517C63.4362 162.517 63.4362 163.423 64.0225 163.423C64.6089 163.423 64.6089 162.517 64.0225 162.517Z" fill="#F70032"/>
<path d="M70.6781 162.692C70.0917 162.692 70.0917 163.598 70.6781 163.598C71.2644 163.598 71.2644 162.692 70.6781 162.692Z" fill="#F70032"/>
<path d="M55.11 162.078C54.5823 162.078 54.5823 162.896 55.11 162.896C55.6378 162.896 55.6378 162.078 55.11 162.078Z" fill="#F70032"/>
<path d="M45.1713 162.428C45.1713 162.428 45.2005 162.428 45.2299 162.37C45.3471 162.253 45.3471 162.048 45.2299 161.932C45.2299 161.932 45.2006 161.932 45.1713 161.873C44.9367 161.669 44.5262 161.785 44.5262 162.136C44.5262 162.487 44.9367 162.604 45.1713 162.399V162.428Z" fill="#F70032"/>
<path d="M37.4313 161.494C36.7863 161.494 36.7863 162.517 37.4313 162.517C38.0763 162.517 38.1056 161.494 37.4313 161.494Z" fill="#F70032"/>
<path d="M64.5213 166.14C63.6711 166.14 63.6711 167.455 64.5213 167.455C65.3716 167.455 65.3716 166.14 64.5213 166.14Z" fill="#0C0A35"/>
<path d="M72.5253 165.381C71.851 165.381 71.851 166.433 72.5253 166.433C73.1996 166.433 73.1996 165.381 72.5253 165.381Z" fill="#0C0A35"/>
<path d="M54.9342 165.702C54.1133 165.702 54.1133 166.987 54.9342 166.987C55.7551 166.987 55.7551 165.702 54.9342 165.702Z" fill="#0C0A35"/>
<path d="M44.9366 165.41C44.0571 165.41 44.0571 166.784 44.9366 166.784C45.8162 166.784 45.8162 165.41 44.9366 165.41Z" fill="#0C0A35"/>
<path d="M36.2586 164.533C35.3204 164.533 35.3204 165.965 36.2586 165.965C37.1968 165.965 37.1968 164.533 36.2586 164.533Z" fill="#0C0A35"/>
<path d="M55.0806 164.679C54.7288 164.679 54.7288 165.235 55.0806 165.235C55.4325 165.235 55.4325 164.679 55.0806 164.679Z" fill="#0C0A35"/>
<path d="M64.4039 165.176C63.9935 165.176 63.9935 165.819 64.4039 165.819C64.8144 165.819 64.8144 165.176 64.4039 165.176Z" fill="#0C0A35"/>
<path d="M71.9388 165.263C71.9388 165.263 71.9387 165.263 71.968 165.263C72.4371 165.409 72.232 164.562 71.8508 164.883C71.7336 165 71.7922 165.205 71.9388 165.234V165.263Z" fill="#0C0A35"/>
<path d="M73.1408 166.462C72.789 166.462 72.789 166.988 73.1408 166.988C73.4926 166.988 73.4926 166.462 73.1408 166.462Z" fill="#0C0A35"/>
<path d="M64.6679 167.689C64.1988 167.689 64.1988 168.42 64.6679 168.42C65.137 168.42 65.137 167.689 64.6679 167.689Z" fill="#0C0A35"/>
<path d="M54.6996 167.191C54.1426 167.191 54.1426 168.039 54.6996 168.039C55.2567 168.039 55.2567 167.191 54.6996 167.191Z" fill="#0C0A35"/>
<path d="M45.0244 164.445C44.5846 164.445 44.5846 165.117 45.0244 165.117C45.4642 165.117 45.4642 164.445 45.0244 164.445Z" fill="#0C0A35"/>
<path d="M44.9364 167.134C44.5552 167.134 44.5552 167.747 44.9364 167.747C45.3175 167.747 45.3175 167.134 44.9364 167.134Z" fill="#0C0A35"/>
<path d="M36.4344 164.27C36.6396 164.708 37.314 164.328 37.0794 163.919C36.8449 163.51 36.2585 163.861 36.4344 164.27Z" fill="#0C0A35"/>
<path d="M35.6718 165.965C35.32 165.965 35.32 166.52 35.6718 166.52C36.0236 166.52 36.053 165.965 35.6718 165.965Z" fill="#0C0A35"/>
<path d="M62.0585 154.568C61.9705 154.305 61.8826 154.071 61.5895 154.071C61.5308 154.071 61.4721 154.13 61.4428 154.188C61.3548 154.393 61.4428 154.539 61.5308 154.743C61.648 155.094 62.2051 154.918 62.0585 154.597V154.568Z" fill="#0C0A35"/>
<path d="M58.2474 155.562C58.394 155.269 58.482 154.831 58.1888 154.568C58.0422 154.451 57.7783 154.422 57.6904 154.627C57.5731 154.919 57.6611 155.182 57.7197 155.474C57.7783 155.708 58.1301 155.766 58.2474 155.532V155.562Z" fill="#0C0A35"/>
<path d="M54.6409 154.977C54.6995 154.801 54.7875 154.655 54.8755 154.509C55.0807 154.188 54.5236 153.895 54.377 154.217C54.2891 154.421 54.2011 154.626 54.1425 154.831C54.0546 155.152 54.5236 155.269 54.6409 154.977V154.977Z" fill="#0C0A35"/>
<path d="M61.413 150.388C61.1785 150.476 60.856 150.739 60.8853 151.002C60.8853 151.06 60.9146 151.119 60.9732 151.119C61.2957 151.236 61.589 150.768 61.5596 150.505C61.5596 150.447 61.501 150.388 61.413 150.388V150.388Z" fill="#0C0A35"/>
<path d="M58.0417 151.207C58.3349 150.944 58.3349 150.36 58.2469 150.009C58.159 149.658 57.6606 149.658 57.5433 150.009C57.4554 150.36 57.4553 150.944 57.7485 151.207C57.8364 151.265 57.9538 151.265 58.0124 151.207H58.0417Z" fill="#0C0A35"/>
<path d="M55.0221 151.645C55.0221 151.324 54.9342 151.002 54.6703 150.798C54.5824 150.71 54.4358 150.681 54.3185 150.768C54.3185 150.768 54.2893 150.768 54.2599 150.798C54.172 150.914 54.1426 151.002 54.2306 151.148C54.3479 151.382 54.5531 151.528 54.6997 151.733C54.7876 151.879 55.0221 151.82 55.0221 151.645V151.645Z" fill="#0C0A35"/>
<path d="M60.0062 155.239C60.358 155.064 60.2407 154.567 60.1235 154.275C59.9769 153.895 59.3904 154.041 59.5077 154.45C59.5957 154.713 59.5956 155.064 59.8595 155.269C59.8888 155.269 59.9475 155.269 60.0062 155.269V155.239Z" fill="#0C0A35"/>
<path d="M56.1066 155.298C56.1945 155.093 56.605 154.1 56.1066 154.1C55.8427 154.1 55.7841 154.45 55.7548 154.684C55.6961 154.947 55.7841 155.21 56.0186 155.327C56.0479 155.327 56.1066 155.327 56.1359 155.298H56.1066Z" fill="#0C0A35"/>
<path d="M59.9181 149.893C59.4197 149.893 59.1265 150.565 59.1265 150.974C59.1265 151.237 59.4197 151.383 59.6249 151.266C59.9767 151.061 60.1819 150.506 60.1526 150.126C60.1526 150.009 60.0647 149.893 59.9181 149.893V149.893Z" fill="#0C0A35"/>
<path d="M56.5469 151.149C56.7814 150.769 56.7228 150.068 56.2537 149.863C56.0484 149.776 55.8139 149.863 55.7552 150.068C55.6086 150.536 56.0484 150.857 56.2829 151.179C56.3416 151.266 56.4882 151.237 56.5469 151.149V151.149Z" fill="#0C0A35"/>
<path d="M64.2571 152.493C64.2571 152.493 64.1399 152.727 64.052 152.844C63.0845 153.721 61.7944 154.247 60.4751 154.48C59.1851 154.743 57.8365 154.743 56.5171 154.743C55.6376 154.743 52.9989 153.954 52.0021 153.224C53.5559 151.733 55.6376 150.769 57.7778 150.565C59.9474 150.36 62.1463 150.915 63.964 152.113C64.1106 152.201 64.2571 152.318 64.2571 152.493V152.493Z" fill="white"/>
<path d="M59.4785 152.288C59.1266 151.85 58.5109 151.646 57.9539 151.762C57.3968 151.879 56.9277 152.318 56.7811 152.844C56.7518 152.961 56.7225 153.107 56.7225 153.224C56.7519 153.954 58.3643 154.685 59.4198 153.662C59.8009 153.311 59.801 152.698 59.4785 152.318V152.288Z" fill="#0C0A35"/>
<path d="M58.2177 112.37C58.2177 112.37 58.3936 112.283 58.4523 112.254C60.5632 111.172 59.6544 107.432 57.1916 107.666C57.1037 107.666 57.0156 107.666 56.9277 107.666C52.7645 108.045 54.5822 114.211 58.2177 112.37V112.37Z" fill="#F70032"/>
<path d="M78.33 111.961C75.4274 111.961 75.4274 116.461 78.33 116.461C81.2325 116.461 81.2325 111.961 78.33 111.961Z" fill="#F70032"/>
<path d="M73.6686 114.971C71.7922 115.643 70.3263 116.636 68.7724 117.893C67.5117 118.916 69.3881 120.874 70.5901 119.705C71.7335 118.565 72.877 117.279 74.3429 116.49C75.1638 116.052 74.6067 114.649 73.6979 114.971H73.6686Z" fill="#990028"/>
<path d="M56.8692 113.919C56.5467 114.62 56.4001 115.351 56.2828 116.111C56.1069 117.075 55.8431 118.01 55.7258 118.975C55.4913 120.845 58.8628 120.903 58.6869 118.975C58.5989 118.127 58.511 117.28 58.4524 116.403C58.3938 115.555 58.3058 114.65 57.8074 113.919C57.6022 113.598 57.0451 113.51 56.8692 113.919V113.919Z" fill="#990028"/>
<path d="M41.1253 115.526C41.5064 115.935 41.8289 116.841 42.1514 117.396C42.3274 117.659 42.4739 117.951 42.6498 118.244C42.7378 118.39 42.7964 118.565 42.8844 118.711C42.7085 118.39 43.0017 118.974 43.0603 119.091C43.3535 119.705 44.1451 119.968 44.7901 119.792C45.6403 119.559 45.9921 118.74 45.8455 117.922C45.6696 116.958 44.6728 116.403 43.9398 115.877C43.6173 115.643 43.3241 115.292 43.0016 115.029C42.5912 114.708 42.2101 114.62 41.7703 114.445C41.1253 114.182 40.7148 115.088 41.1253 115.555V115.526Z" fill="#990028"/>
<path d="M64.8439 125.9H64.7852C64.1989 125.666 63.7591 126.426 64.0229 126.894C64.0229 126.894 64.023 126.923 64.0523 126.952C64.2868 127.332 64.8439 127.42 65.1664 127.098C65.5769 126.689 65.3423 126.105 64.8439 125.929V125.9Z" fill="#990028"/>
<path d="M61.8535 125.841C61.5897 126.133 61.5897 126.543 61.8535 126.835C62.2933 127.332 63.0849 126.922 63.0849 126.309C63.0849 125.695 62.264 125.315 61.8535 125.783V125.841Z" fill="#990028"/>
<path d="M60.27 125.579C59.2731 125.579 59.2731 127.098 60.27 127.098C61.2668 127.098 61.2668 125.579 60.27 125.579Z" fill="#990028"/>
<path d="M58.1886 125.726C57.309 125.726 57.309 127.099 58.1886 127.099C59.0681 127.099 59.0975 125.726 58.1886 125.726Z" fill="#990028"/>
<path d="M56.1948 125.93C55.3153 125.93 55.3153 127.303 56.1948 127.303C57.0744 127.303 57.0744 125.93 56.1948 125.93Z" fill="#990028"/>
<path d="M54.4066 126.163C53.615 126.163 53.615 127.361 54.4066 127.361C55.1982 127.361 55.1982 126.163 54.4066 126.163Z" fill="#990028"/>
<path d="M52.5593 126.251C52.5593 126.251 52.5007 126.251 52.4714 126.251C52.0316 126.105 51.5625 126.485 51.5625 126.923C51.5625 127.362 52.0316 127.771 52.4714 127.625C52.5007 127.625 52.53 127.625 52.5593 127.596C53.2043 127.362 53.2043 126.514 52.5593 126.28V126.251Z" fill="#990028"/>
<path d="M49.9207 126.309C48.9532 126.309 48.9532 127.8 49.9207 127.8C50.8882 127.8 50.8882 126.309 49.9207 126.309Z" fill="#990028"/>
<path d="M47.8098 126.66C47.0182 126.66 47.0182 127.859 47.8098 127.859C48.6014 127.859 48.6014 126.66 47.8098 126.66Z" fill="#990028"/>
<path d="M57.2504 117.689C56.7813 117.689 56.4001 118.069 56.4001 118.536C56.4001 119.004 56.7813 119.384 57.2504 119.384C57.7195 119.384 58.1007 119.004 58.1007 118.536C58.1007 118.069 57.7195 117.689 57.2504 117.689Z" fill="#F70032"/>
<path d="M19.2828 110.938C18.6084 110.149 15.618 106.35 15.9991 105.386C16.2337 104.831 16.7614 104.451 17.2891 104.159C41.7113 90.8039 68.2738 80.6051 91.963 66.5489C92.4028 66.2859 92.8719 66.0229 93.3703 65.9937C93.8101 65.9937 94.2499 66.169 94.6603 66.3443C99.0874 68.3607 103.808 70.757 106.007 75.082C106.241 75.5203 106.417 76.0171 106.388 76.5139C106.3 77.2153 105.801 77.8581 105.215 78.2672C94.6896 85.7483 85.2198 90.5701 69.8277 98.0219C56.9862 104.217 41.6527 109.653 29.163 116.52C28.3128 116.988 27.3453 117.484 26.3778 117.309C25.4103 117.134 21.1006 113.13 19.2535 110.968L19.2828 110.938Z" fill="#990028"/>
<path d="M69.7104 117.777C69.4172 117.893 69.1827 118.069 69.0948 118.39C68.9482 118.916 69.3586 119.472 69.9157 119.472C70.3848 119.472 70.7658 119.092 70.7658 118.595C70.7658 118.069 70.2088 117.572 69.6811 117.777H69.7104Z" fill="#F70032"/>
<path d="M45.1421 118.011C45.1421 118.011 45.142 117.952 45.1127 117.952C44.9368 117.66 44.5557 117.514 44.2332 117.601C43.8814 117.689 43.6761 118.011 43.6468 118.361C43.6468 118.361 43.6468 118.42 43.6468 118.449C43.6175 118.975 44.2039 119.355 44.673 119.238C45.1714 119.092 45.4059 118.507 45.1421 118.04V118.011Z" fill="#F70032"/>
<path d="M67.9516 120.114C67.717 120.319 67.4824 120.465 67.2772 120.67C67.072 120.874 66.7789 121.079 66.8082 121.4C66.8082 121.546 66.9254 121.692 67.1013 121.692C67.717 121.663 67.9809 120.786 68.2741 120.377C68.4207 120.173 68.1275 119.997 67.9516 120.144V120.114Z" fill="#F70032"/>
<path d="M69.0659 120.669C69.0659 120.669 68.8606 120.757 68.7433 120.815C68.6554 120.874 68.5674 120.962 68.4795 121.049C68.3036 121.225 68.0984 121.488 68.0397 121.721C67.9225 122.13 68.3915 122.452 68.7433 122.247C68.9779 122.13 69.1831 121.838 69.2124 121.575C69.2124 121.458 69.2711 121.341 69.2711 121.225C69.2711 121.137 69.2711 120.991 69.2711 120.903C69.3298 120.757 69.1832 120.523 69.0073 120.64L69.0659 120.669Z" fill="#F70032"/>
<path d="M67.5117 119.149C67.2185 119.149 67.0133 119.149 66.7201 119.296C66.4563 119.442 66.163 119.617 66.0458 119.909C65.8992 120.231 66.163 120.727 66.5441 120.552C66.808 120.435 67.0133 120.289 67.2185 120.085C67.3064 119.968 67.3944 119.88 67.4823 119.792C67.5703 119.675 67.5996 119.559 67.6876 119.442C67.7462 119.325 67.6876 119.179 67.541 119.179L67.5117 119.149Z" fill="#F70032"/>
<path d="M58.5403 120.26C58.5403 120.26 58.3643 120.494 58.3057 120.699C58.2764 120.903 58.3057 121.166 58.3644 121.371C58.511 121.78 59.1853 121.868 59.2732 121.371C59.3612 120.903 59.1852 120.465 58.7748 120.231C58.6868 120.173 58.5696 120.202 58.5109 120.26H58.5403Z" fill="#F70032"/>
<path d="M56.9863 120.816C56.8104 120.991 56.8104 121.254 56.869 121.488C56.9277 121.722 56.869 121.985 56.957 122.189C56.9863 122.277 57.1036 122.335 57.1916 122.335C57.8952 122.277 57.8073 121.02 57.2795 120.757C57.1916 120.699 57.0743 120.699 56.9863 120.786V120.816Z" fill="#F70032"/>
<path d="M56.0484 120.61C55.8725 120.698 55.7259 120.874 55.6086 121.02C55.462 121.195 55.2861 121.37 55.2275 121.604C55.1395 121.838 55.4034 122.159 55.6672 122.042C56.107 121.867 56.5761 121.137 56.3122 120.669C56.2536 120.581 56.1657 120.552 56.0777 120.61H56.0484Z" fill="#F70032"/>
<path d="M45.8748 119.851C45.7868 120.289 45.9334 120.874 46.3439 121.137C46.5784 121.283 46.9302 121.137 46.9595 120.874C47.0768 120.319 46.637 119.851 46.1386 119.705C46.0213 119.705 45.9041 119.734 45.8748 119.851V119.851Z" fill="#F70032"/>
<path d="M46.725 119.15C46.9009 119.326 47.0474 119.443 47.2527 119.559C47.5459 119.735 47.7511 119.822 48.0736 119.676C48.3081 119.559 48.3081 119.238 48.1615 119.063C47.8684 118.712 47.2234 118.858 46.8129 118.917C46.6956 118.917 46.637 119.063 46.725 119.15Z" fill="#F70032"/>
<path d="M44.5849 120.553C44.5849 120.757 44.5263 120.991 44.497 121.196C44.409 121.78 45.3179 121.809 45.2593 121.313C45.23 120.991 45.1713 120.728 44.9954 120.465C44.8781 120.319 44.6143 120.348 44.6143 120.582L44.5849 120.553Z" fill="#F70032"/>
<path d="M67.1601 110.53C66.603 110.53 66.603 111.406 67.1601 111.406C67.7171 111.406 67.7171 110.53 67.1601 110.53Z" fill="#F70032"/>
<path d="M73.8444 104.246C73.17 104.246 73.17 105.298 73.8444 105.298C74.5187 105.298 74.5187 104.246 73.8444 104.246Z" fill="#F70032"/>
<path d="M83.8713 106.175C83.109 106.175 83.109 107.373 83.8713 107.373C84.6335 107.373 84.6629 106.175 83.8713 106.175Z" fill="#F70032"/>
<path d="M85.4545 113.772C84.6629 113.772 84.6629 114.97 85.4545 114.97C86.2461 114.97 86.2461 113.772 85.4545 113.772Z" fill="#F70032"/>
<path d="M68.9482 103.544C68.9482 103.544 68.9482 103.515 68.9482 103.486C69.1534 103.018 68.743 102.609 68.274 102.814C68.274 102.814 68.2446 102.814 68.2153 102.814C67.8928 102.96 67.8928 103.398 68.0981 103.632C68.3033 103.836 68.7724 103.836 68.919 103.515L68.9482 103.544Z" fill="#F70032"/>
<path d="M60.0941 104.48C59.2439 104.48 59.2439 105.795 60.0941 105.795C60.9443 105.795 60.9443 104.48 60.0941 104.48Z" fill="#F70032"/>
<path d="M90.3505 103.282C90.3505 103.282 90.3212 103.282 90.2918 103.282C90.4091 103.282 90.5264 103.282 90.6144 103.311C90.6144 103.311 90.6144 103.311 90.585 103.311C90.2039 103.106 89.8227 103.515 89.9986 103.895C90.0573 103.983 90.116 104.071 90.2332 104.1C90.4971 104.217 90.8196 104.129 90.9076 103.837C90.9955 103.486 90.673 103.223 90.3505 103.282V103.282Z" fill="#F70032"/>
<path d="M85.1321 99.804C85.1321 99.804 85.1028 99.804 85.0734 99.804C85.1907 99.804 85.308 99.8332 85.396 99.8624C85.396 99.8624 85.396 99.8624 85.3666 99.8624C84.9855 99.6579 84.6043 100.067 84.7802 100.447C84.8389 100.535 84.8976 100.622 85.0148 100.651C85.2787 100.768 85.6012 100.681 85.6599 100.388C85.7478 100.038 85.4253 99.7748 85.1028 99.8332L85.1321 99.804Z" fill="#F70032"/>
<path d="M93.2534 109.506C93.2534 109.506 93.2241 109.506 93.1948 109.506C93.3121 109.506 93.4293 109.506 93.5173 109.565C93.5173 109.565 93.5172 109.565 93.4879 109.565C93.1068 109.36 92.7257 109.769 92.9016 110.149C92.9602 110.266 93.0188 110.325 93.1361 110.354C93.4 110.471 93.7225 110.383 93.8105 110.091C93.8984 109.74 93.5759 109.477 93.2534 109.536V109.506Z" fill="#F70032"/>
<path d="M98.9704 103.311C98.9704 103.311 98.941 103.311 98.9117 103.311C99.029 103.311 99.1463 103.311 99.2343 103.34C99.2343 103.34 99.2342 103.34 99.2049 103.34C98.8238 103.136 98.4426 103.545 98.6185 103.925C98.6771 104.042 98.7358 104.1 98.8531 104.129C99.117 104.246 99.4394 104.159 99.5274 103.866C99.6153 103.516 99.2929 103.253 98.9704 103.311V103.311Z" fill="#F70032"/>
<path d="M77.7731 99.7456C77.1868 99.7456 77.1868 100.622 77.7731 100.622C78.3595 100.622 78.3302 99.7456 77.7731 99.7456Z" fill="#F70032"/>
<path d="M77.3333 109.185C76.747 109.185 76.747 110.061 77.3333 110.061C77.9197 110.061 77.8904 109.185 77.3333 109.185Z" fill="#F70032"/>
<path d="M48.5132 111.114C47.9562 111.114 47.9562 111.961 48.5132 111.961C49.0703 111.961 49.0703 111.114 48.5132 111.114Z" fill="#F70032"/>
<path d="M35.7602 117.076C35.2031 117.076 35.2031 117.923 35.7602 117.923C36.3172 117.923 36.3172 117.076 35.7602 117.076Z" fill="#F70032"/>
<path d="M90.82 98.2268C89.9991 98.2268 89.3247 98.8989 89.3247 99.7172C89.3247 100.535 89.9991 101.208 90.82 101.208C91.6409 101.208 92.3151 100.535 92.3151 99.7172C92.3151 98.8989 91.6409 98.2268 90.82 98.2268Z" fill="#990028"/>
<path d="M92.1094 96.2102C92.1094 96.2102 92.1094 96.1809 92.1094 96.1517C91.9042 95.7134 91.3179 95.538 90.8781 95.6549C90.2918 95.801 89.9985 96.4147 90.1158 96.9992C90.1158 96.9992 90.1158 97.0284 90.1158 97.0577C90.2331 97.6421 90.9074 97.9636 91.4644 97.8174C92.1974 97.6129 92.4026 96.8531 92.1094 96.2102Z" fill="#990028"/>
<path d="M76.9816 91.3009C76.9816 91.3009 76.9816 91.2425 76.9522 91.2132C76.7763 90.8918 76.3366 90.7749 76.0434 90.9795C75.9261 91.0379 75.8674 91.0963 75.8088 91.2132C75.6036 91.5055 75.7502 91.9438 76.0434 92.1191C76.0434 92.1191 76.102 92.1192 76.1313 92.1776C76.6884 92.4698 77.304 91.8561 77.0109 91.3009H76.9816Z" fill="#990028"/>
<path d="M61.7946 88.3781C61.7946 88.3781 61.7947 88.3196 61.7654 88.2904C61.5894 87.9689 61.1497 87.852 60.8565 88.0566C60.7392 88.115 60.6805 88.1735 60.6219 88.2904C60.4167 88.5826 60.5633 89.021 60.8565 89.1963C60.8565 89.1963 60.9151 89.1963 60.9444 89.2547C61.5015 89.547 62.1171 88.9625 61.824 88.3781H61.7946Z" fill="#990028"/>
<path d="M61.9414 91.2715C61.9414 91.2715 61.9414 91.2715 61.9121 91.2715C60.798 90.5993 59.332 91.4468 59.332 92.7326C59.332 93.3463 59.6546 93.9015 60.1823 94.1938C60.8859 94.6029 61.6482 94.4275 62.2639 93.9308C62.2639 93.9308 62.2639 93.9308 62.2932 93.9308C62.6157 93.6677 62.7916 93.1418 62.7916 92.7619C62.7916 92.1774 62.4691 91.6222 61.9707 91.3299L61.9414 91.2715Z" fill="#990028"/>
<path d="M82.4055 71.0779C82.2589 71.2825 82.171 71.5162 82.083 71.75C81.7605 72.6267 82.2882 73.6495 83.0505 74.1171C83.8421 74.5846 84.9562 74.4677 85.6012 73.7956C85.6012 73.7664 85.6598 73.7372 85.7185 73.7079C85.5719 73.8248 85.4253 73.9417 85.2787 74.0294C85.2787 74.0294 85.308 74.0294 85.3373 74.0002C86.5394 73.3281 86.7447 71.6039 85.7772 70.6395C85.3667 70.2304 84.8389 70.0259 84.2526 70.0259C83.8714 70.0259 83.5196 70.1135 83.1678 70.3181C82.8453 70.4934 82.5814 70.7565 82.4055 71.0779V71.0779Z" fill="#F70032"/>
<path d="M40.0403 113.364C40.1869 113.159 40.2748 112.925 40.3628 112.662C40.6853 111.786 40.1576 110.763 39.3953 110.324C38.6037 109.857 37.4896 109.974 36.8446 110.646C36.8153 110.675 36.786 110.704 36.7273 110.734C36.8739 110.617 37.0205 110.529 37.1671 110.412C37.1671 110.412 37.1085 110.412 37.1085 110.441C35.9064 111.113 35.7306 112.838 36.6687 113.802C37.0792 114.182 37.6069 114.416 38.1933 114.416C38.5744 114.416 38.9262 114.328 39.278 114.123C39.6005 113.948 39.8644 113.685 40.0403 113.364Z" fill="#F70032"/>
<path d="M19.4882 100.622C18.6966 100.622 18.6966 101.82 19.4882 101.82C20.2798 101.82 20.2798 100.622 19.4882 100.622Z" fill="#F70032"/>
<path d="M22.3616 98.2268C21.57 98.2268 21.57 99.425 22.3616 99.425C23.1532 99.425 23.1239 98.2268 22.3616 98.2268Z" fill="#F70032"/>
<path d="M85.4545 65.5547C84.6629 65.5547 84.6629 66.7528 85.4545 66.7528C86.2461 66.7528 86.2461 65.5547 85.4545 65.5547Z" fill="#F70032"/>
<path d="M59.6834 100.389C63.5828 100.389 66.8078 97.145 66.8078 93.2876C66.8078 89.4302 63.5534 86.1572 59.6834 86.1572C55.8134 86.1572 52.5591 89.401 52.5591 93.2876C52.5591 97.1743 55.8134 100.389 59.6834 100.389Z" fill="#F70032"/>
<path d="M47.2822 101.412C48.6309 101.412 49.7743 100.272 49.7743 98.9277C49.7743 97.5835 48.6309 96.4146 47.2822 96.4146C45.9336 96.4146 44.7902 97.5542 44.7902 98.9277C44.7902 100.301 45.9336 101.412 47.2822 101.412Z" fill="#F70032"/>
<path d="M39.0729 103.574C41.0959 103.574 41.0959 100.447 39.0729 100.447C37.0499 100.447 37.0499 103.574 39.0729 103.574Z" fill="#F70032"/>
<path d="M72.4663 90.95C75.9258 90.95 75.9258 85.6023 72.4663 85.6023C69.0067 85.6023 69.0067 90.95 72.4663 90.95Z" fill="#F70032"/>
<path d="M79.7959 85.398C80.9687 85.398 80.9687 83.5862 79.7959 83.5862C78.6232 83.5862 78.6232 85.398 79.7959 85.398Z" fill="#F70032"/>
<path d="M59.5664 95.6259C62.6448 95.6259 62.6448 90.8625 59.5664 90.8625C56.488 90.8625 56.488 95.6259 59.5664 95.6259Z" fill="#191956"/>
<path d="M59.8594 90.3369C61.3839 90.3369 61.3839 87.999 59.8594 87.999C58.3348 87.999 58.3348 90.3369 59.8594 90.3369Z" fill="#191956"/>
<path d="M56.3415 91.1545C57.7781 91.1545 57.7781 88.9336 56.3415 88.9336C54.9049 88.9336 54.9049 91.1545 56.3415 91.1545Z" fill="#191956"/>
<path d="M55.1686 94.7197C56.6931 94.7197 56.6931 92.3818 55.1686 92.3818C53.644 92.3818 53.644 94.7197 55.1686 94.7197Z" fill="#191956"/>
<path d="M57.5434 97.992C58.7748 97.992 58.7748 96.0925 57.5434 96.0925C56.312 96.0925 56.312 97.992 57.5434 97.992Z" fill="#191956"/>
<path d="M61.9997 96.6773C61.9997 96.6773 61.9118 96.5896 61.8531 96.5312C61.56 96.239 61.0908 96.239 60.7976 96.5312C60.739 96.5896 60.7097 96.6189 60.6511 96.6773C60.0647 97.2618 60.4751 98.2846 61.3253 98.2846C62.1756 98.2846 62.5861 97.2618 61.9997 96.6773Z" fill="#191956"/>
<path d="M63.6712 95.5373C65.1078 95.5373 65.1078 93.3164 63.6712 93.3164C62.2346 93.3164 62.2346 95.5373 63.6712 95.5373Z" fill="#191956"/>
<path d="M63.4071 91.8561C64.9903 91.8561 64.9903 89.4014 63.4071 89.4014C61.8239 89.4014 61.8239 91.8561 63.4071 91.8561Z" fill="#191956"/>
<path d="M31.1276 105.97C31.714 107.227 33.737 106.35 33.3559 105.035C32.8868 103.37 30.3654 104.334 31.1276 105.97Z" fill="#191956"/>
<path d="M27.6096 108.921C29.7498 108.921 29.7498 105.648 27.6096 105.648C25.4693 105.648 25.4693 108.921 27.6096 108.921Z" fill="#191956"/>
<path d="M22.9187 110.383C24.2967 110.383 24.2967 108.25 22.9187 108.25C21.5408 108.25 21.5408 110.383 22.9187 110.383Z" fill="#191956"/>
<path d="M86.7152 80.663C86.7152 80.663 86.6273 80.8091 86.5687 80.8675C87.4482 79.7571 86.1289 78.442 85.0148 79.3187C84.6923 79.5817 84.5457 79.9324 84.6043 80.3708C84.7509 81.5397 86.3048 81.8611 86.7152 80.663V80.663Z" fill="#191956"/>
<path d="M90.6437 79.6405C92.696 79.6405 92.696 76.4844 90.6437 76.4844C88.5914 76.4844 88.5914 79.6405 90.6437 79.6405Z" fill="#191956"/>
<path d="M95.3348 76.7768C97.0939 76.7768 97.0939 74.0591 95.3348 74.0591C93.5757 74.0591 93.5757 76.7768 95.3348 76.7768Z" fill="#191956"/>
<path d="M104.658 148.548C104.658 148.256 104.776 147.817 104.776 147.525C104.776 147.233 104.776 146.912 104.746 146.619C104.629 145.597 104.248 144.603 103.486 143.902C104.189 143.872 105.948 143.872 106.652 143.902C105.86 144.603 105.509 145.567 105.391 146.619C105.362 146.941 105.362 147.233 105.362 147.525C105.362 147.817 105.479 148.256 105.479 148.548H104.658V148.548Z" fill="#0C0A35"/>
<path d="M104.922 147.379C104.307 146.415 103.192 145.772 102.049 145.801C100.906 145.83 99.7915 146.678 99.5862 147.788C99.381 148.782 99.8794 149.776 100.554 150.506C101.228 151.237 102.166 151.733 103.016 152.289C103.867 152.844 105.069 154.247 105.069 154.247C105.069 154.247 106.388 152.873 107.121 152.318C107.913 151.704 108.909 151.237 109.584 150.506C110.258 149.776 110.757 148.753 110.551 147.788C110.317 146.678 109.232 145.83 108.089 145.801C106.945 145.772 105.86 146.415 105.215 147.379H104.922V147.379Z" fill="#0C0A35"/>
<path d="M16.4684 33.7017C16.4684 33.9939 16.3511 34.4322 16.3511 34.7245C16.3511 35.0167 16.3511 35.3382 16.3804 35.6304C16.4977 36.6824 16.8788 37.6467 17.6411 38.3481C16.9374 38.3773 15.1784 38.3773 14.4747 38.3481C15.237 37.6467 15.6181 36.6824 15.7354 35.6304C15.7647 35.3382 15.7647 35.0167 15.7647 34.7245C15.7647 34.4322 15.6474 33.9939 15.6474 33.7017H16.4684V33.7017Z" fill="#0C0A35"/>
<path d="M16.2045 34.8708C16.8202 35.8352 17.9343 36.478 19.0778 36.4488C20.2212 36.4196 21.3353 35.5722 21.5405 34.4617C21.7457 33.4973 21.2473 32.4745 20.5729 31.7439C19.8986 31.0134 18.9604 30.5166 18.1102 29.9613C17.26 29.4061 16.058 28.0034 16.058 28.0034C16.058 28.0034 14.7386 29.3769 14.0057 29.9321C13.2141 30.5458 12.2172 31.0134 11.5429 31.7439C10.8686 32.4745 10.3701 33.4973 10.5754 34.4617C10.8099 35.5722 11.8947 36.4196 13.0381 36.4488C14.1815 36.478 15.2663 35.8352 15.9113 34.8708H16.2045V34.8708Z" fill="#0C0A35"/>
<path d="M19.7521 9.27139V20.9313C19.7521 22.9769 19.283 24.3796 18.3741 25.1978C17.4652 26.0161 16.2339 26.396 14.7093 26.396C13.8884 26.396 13.0675 26.2791 12.2466 26.0453V24.3212C13.0675 24.4965 13.8005 24.5842 14.4455 24.5842C15.3836 24.5842 16.0873 24.4381 16.527 24.1751C16.9668 23.8828 17.26 23.5321 17.4359 23.0938C17.5825 22.6555 17.6705 21.9249 17.6705 20.9313V9.24219H19.7814L19.7521 9.27139Z" fill="#0C0A35"/>
<path d="M101.785 173.796V162.107C101.785 160.061 102.254 158.659 103.163 157.84C104.072 157.022 105.303 156.642 106.827 156.642C107.648 156.642 108.469 156.759 109.29 156.993V158.717C108.469 158.542 107.766 158.454 107.091 158.454C106.153 158.454 105.449 158.6 105.01 158.863C104.57 159.126 104.277 159.506 104.13 159.945C103.984 160.383 103.896 161.113 103.896 162.107V173.796H101.785Z" fill="#0C0A35"/>
<path d="M39.4539 173.27H18.931C14.0642 173.27 10.1355 169.091 10.1355 163.948V46.2967C10.1355 46.1506 10.2528 46.0337 10.3994 46.0337C10.5459 46.0337 10.6632 46.1506 10.6632 46.2967V163.948C10.6632 168.799 14.3573 172.715 18.931 172.715H39.4539C39.6004 172.715 39.7177 172.832 39.7177 172.978C39.7177 173.124 39.6004 173.241 39.4539 173.241V173.27Z" fill="#191956"/>
<path d="M96.8593 173.27H75.9553C75.8087 173.27 75.6914 173.153 75.6914 173.007C75.6914 172.861 75.8087 172.744 75.9553 172.744H96.8593C97.0059 172.744 97.1231 172.861 97.1231 173.007C97.1231 173.153 97.0059 173.27 96.8593 173.27Z" fill="#191956"/>
<path d="M111.138 137.618C110.991 137.618 110.874 137.501 110.874 137.355V19.1193C110.874 14.2683 107.18 10.3525 102.606 10.3525H83.0506C82.904 10.3525 82.7867 10.2355 82.7867 10.0894C82.7867 9.9433 82.904 9.82642 83.0506 9.82642H102.606C107.473 9.82642 111.401 14.0053 111.401 19.1485V137.384C111.401 137.53 111.284 137.647 111.138 137.647V137.618Z" fill="#191956"/>
<path d="M51.8265 10.3525H25.5279C25.3813 10.3525 25.264 10.2355 25.264 10.0894C25.264 9.9433 25.3813 9.82642 25.5279 9.82642H51.8265C51.9731 9.82642 52.0903 9.9433 52.0903 10.0894C52.0903 10.2355 51.9731 10.3525 51.8265 10.3525Z" fill="#191956"/>
</g>
<defs>
<filter id="filter0_d_59_8666" x="1.07629" y="0.797363" width="119.443" height="185.474" filterUnits="userSpaceOnUse" color-interpolation-filters="sRGB">
<feFlood flood-opacity="0" result="BackgroundImageFix"/>
<feColorMatrix in="SourceAlpha" type="matrix" values="0 0 0 0 0 0 0 0 0 0 0 0 0 0 0 0 0 0 127 0" result="hardAlpha"/>
<feOffset dy="4"/>
<feComposite in2="hardAlpha" operator="out"/>
<feColorMatrix type="matrix" values="0 0 0 0 0 0 0 0 0 0 0 0 0 0 0 0 0 0 0.25 0"/>
<feBlend mode="normal" in2="BackgroundImageFix" result="effect1_dropShadow_59_8666"/>
<feBlend mode="normal" in="SourceGraphic" in2="effect1_dropShadow_59_8666" result="shape"/>
</filter>
</defs>
</svg>
