<svg width="235" height="94" viewBox="0 0 235 94" fill="none" xmlns="http://www.w3.org/2000/svg">
<g filter="url(#filter0_d_53_181)">
<path d="M6.1499 24C6.1499 10.7452 14.3873 0 24.5485 0H210.835C220.996 0 229.233 10.7452 229.233 24L231 42.5L229.233 62C229.233 75.2548 220.996 86 210.835 86H24.5485C14.3873 86 6.1499 75.2548 6.1499 62L4.5 42.5L6.1499 24Z" fill="url(#paint0_linear_53_181)"/>
<path d="M8.64002 24.2221L8.6499 24.1113V24C8.6499 17.8742 10.5562 12.4203 13.5228 8.55045C16.4875 4.68312 20.4078 2.5 24.5485 2.5H210.835C214.975 2.5 218.896 4.68312 221.86 8.55045C224.827 12.4203 226.733 17.8742 226.733 24V24.1191L226.745 24.2376L228.489 42.5061L226.744 61.7744L226.733 61.887V62C226.733 68.1258 224.827 73.5798 221.86 77.4496C218.896 81.3169 214.975 83.5 210.835 83.5H24.5485C20.4078 83.5 16.4875 81.3169 13.5228 77.4496C10.5562 73.5798 8.6499 68.1258 8.6499 62V61.8944L8.641 61.7892L7.00941 42.5057L8.64002 24.2221Z" stroke="#FEF0C7" stroke-width="5"/>
</g>
<g filter="url(#filter1_d_53_181)">
<path d="M52.5322 45.5413C52.7221 45.2755 52.7411 44.9526 52.5892 44.5728C52.5132 44.307 52.4942 44.155 52.5322 44.1171C52.5702 44.0791 52.5702 44.0221 52.5322 43.9462C52.4942 43.6423 52.4942 43.4334 52.5322 43.3195C52.5702 43.1675 52.5702 43.0156 52.5322 42.8637C52.5322 42.5599 52.5322 42.4079 52.5322 42.4079C52.5702 42.37 52.5892 42.313 52.5892 42.237C52.5892 42.0091 52.5702 41.8762 52.5322 41.8382C52.5322 41.7623 52.5322 41.6863 52.5322 41.6103C52.5702 41.3065 52.5702 41.1356 52.5322 41.0976C52.5322 41.0596 52.5322 41.0216 52.5322 40.9837V40.0151C52.5322 39.5974 52.5322 39.2745 52.5322 39.0466C52.5702 38.5529 52.5702 38.23 52.5322 38.0781C52.4942 37.8882 52.4942 37.7173 52.5322 37.5654C52.4942 37.1476 52.4752 36.8248 52.4752 36.5969C52.4752 36.331 52.4752 36.1221 52.4752 35.9702C52.5132 35.3245 52.5132 34.8498 52.4752 34.5459C52.4752 34.2421 52.4942 33.9952 52.5322 33.8053C52.6082 33.4635 52.6082 33.0837 52.5322 32.6659C52.5322 32.476 52.5322 32.2861 52.5322 32.0962C52.5702 31.9062 52.5702 31.7163 52.5322 31.5264C52.4942 31.1087 52.4942 30.8618 52.5322 30.7858C52.4942 30.5579 52.4563 30.406 52.4183 30.33C52.3803 30.2541 52.3613 30.1781 52.3613 30.1022C52.3613 29.9123 52.3613 29.7603 52.3613 29.6464C52.3993 29.4945 52.3993 29.3615 52.3613 29.2476C52.3613 28.9817 52.3423 28.8108 52.3043 28.7349C52.2663 28.6589 52.2474 28.5829 52.2474 28.507C52.1714 28.0892 52.1334 27.8043 52.1334 27.6524C52.0954 27.0447 52.0764 26.551 52.0764 26.1712C52.1144 25.7913 52.0954 25.4495 52.0195 25.1457C52.0195 25.0317 52.0005 24.9178 51.9625 24.8038C51.9245 24.6899 51.9055 24.576 51.9055 24.462C51.9055 24.3101 51.9055 24.1582 51.9055 24.0062C51.9435 23.8163 51.9815 23.6264 52.0195 23.4365C52.0954 23.2466 52.1334 23.0757 52.1334 22.9238C52.1714 22.7339 52.2284 22.601 52.3043 22.525C52.6462 22.3351 52.7981 22.2212 52.7601 22.1832C52.7601 22.1072 52.7981 22.0502 52.874 22.0123C52.988 21.9743 53.0829 21.9173 53.1589 21.8413C53.2349 21.7654 53.3298 21.6894 53.4438 21.6135C53.8236 21.5755 54.0135 21.5565 54.0135 21.5565C54.0514 21.5185 54.1084 21.4995 54.1844 21.4995C54.4123 21.5375 54.6022 21.5565 54.7541 21.5565C54.944 21.5185 55.1149 21.5375 55.2668 21.6135C55.3428 21.5375 55.4377 21.5185 55.5517 21.5565C55.6656 21.5565 55.7986 21.5565 55.9505 21.5565H56.6911C56.843 21.7084 56.995 21.7844 57.1469 21.7844C57.2988 21.7844 57.4697 21.7844 57.6596 21.7844C58.0774 21.8224 58.4192 21.8034 58.6851 21.7274C58.951 21.6514 59.2168 21.6135 59.4827 21.6135C59.6726 21.6135 59.8435 21.6325 59.9954 21.6704C60.1474 21.7084 60.2803 21.6894 60.3942 21.6135C60.5462 21.6894 60.7171 21.7274 60.907 21.7274C61.1349 21.7274 61.3438 21.7464 61.5337 21.7844C61.9135 21.8603 62.2743 21.8603 62.6161 21.7844H63.2428C63.4327 21.7844 63.6036 21.8034 63.7555 21.8413C63.9454 21.8413 64.1353 21.8413 64.3252 21.8413C64.781 21.8034 65.0089 21.7844 65.0089 21.7844C65.1608 21.7844 65.3127 21.7844 65.4647 21.7844C65.6546 21.7844 65.8635 21.8034 66.0913 21.8413C66.5471 21.8793 66.775 21.9173 66.775 21.9553C66.813 21.9553 66.851 21.9553 66.8889 21.9553C67.0029 21.9553 67.1358 21.9553 67.2877 21.9553C67.4397 21.9173 67.5536 21.9363 67.6296 22.0123C68.0853 21.9743 68.3322 21.9743 68.3702 22.0123C68.4462 22.0123 68.5221 22.0123 68.5981 22.0123L69.5666 22.1832C69.9084 22.1832 70.0983 22.2022 70.1363 22.2401C70.1743 22.2781 70.2313 22.2781 70.3072 22.2401C70.6111 22.43 70.801 22.525 70.8769 22.525C70.9529 22.487 71.0288 22.487 71.1048 22.525C71.2567 22.601 71.3707 22.6959 71.4466 22.8099C71.5606 22.8858 71.6745 22.9048 71.7885 22.8668C72.0543 23.1327 72.1873 23.2466 72.1873 23.2087C72.1873 23.1707 72.2252 23.1897 72.3012 23.2656C72.4151 23.4175 72.5101 23.5125 72.5861 23.5505C72.662 23.5885 72.738 23.6264 72.8139 23.6644C73.0418 23.9303 73.1748 24.0822 73.2127 24.1202C73.2507 24.1202 73.2697 24.1582 73.2697 24.2341C73.6495 24.538 73.8394 24.6899 73.8394 24.6899C74.0673 24.8418 74.2192 24.9748 74.2952 25.0887C74.3712 25.2026 74.5041 25.2596 74.694 25.2596C74.8839 25.6014 75.0548 25.7724 75.2067 25.7724C75.2067 25.8863 75.2447 25.9812 75.3207 26.0572C75.4346 26.0952 75.4916 26.2091 75.4916 26.399C75.7195 26.551 75.8904 26.6839 76.0043 26.7978C76.1563 26.9877 76.3082 27.1587 76.4601 27.3106L76.8589 27.8233C77.0868 28.0892 77.2197 28.2601 77.2577 28.3361C77.3716 28.488 77.4666 28.6589 77.5425 28.8488C77.6565 29.0007 77.7135 29.1526 77.7135 29.3046C77.9034 29.4945 78.0173 29.6844 78.0553 29.8743C78.2832 30.2541 78.4161 30.463 78.4541 30.501C78.4921 30.501 78.53 30.5389 78.568 30.6149C78.682 30.8808 78.7579 31.0327 78.7959 31.0707C78.8339 31.1087 78.8909 31.1656 78.9668 31.2416C79.2707 31.5454 79.4226 31.7163 79.4226 31.7543C79.4606 31.7923 79.5175 31.7923 79.5935 31.7543C79.6315 31.9062 79.6695 32.0582 79.7075 32.2101C79.7834 32.324 79.8594 32.457 79.9353 32.6089C80.1252 32.9887 80.2392 33.2546 80.2772 33.4065C80.3531 33.5204 80.4671 33.6154 80.619 33.6913C80.695 34.0332 80.8279 34.318 81.0178 34.5459C81.2457 34.7358 81.3976 35.0397 81.4736 35.4575C81.5495 35.5714 81.6065 35.7043 81.6445 35.8562C81.7204 35.9702 81.7964 36.1031 81.8724 36.255C82.0623 36.5589 82.1382 36.7298 82.1002 36.7678C82.1002 36.8058 82.1192 36.8437 82.1572 36.8817L82.499 37.5654C82.6889 37.8312 82.7839 38.0212 82.7839 38.1351C82.7839 38.249 82.8219 38.382 82.8978 38.5339C83.0118 38.7998 83.0877 38.9897 83.1257 39.1036C83.1637 39.2175 83.2017 39.3505 83.2397 39.5024C83.3156 39.6543 83.3536 39.8062 83.3536 39.9582C83.3916 40.0721 83.4296 40.1861 83.4675 40.3C83.6195 40.7558 83.7334 41.0216 83.8094 41.0976C83.8474 41.2115 83.8284 41.3255 83.7524 41.4394C83.6764 41.5154 83.6764 41.6103 83.7524 41.7243C83.8284 41.9522 83.8663 42.1041 83.8663 42.18C83.9043 42.218 83.9233 42.275 83.9233 42.351C83.9613 42.4649 83.9993 42.5978 84.0373 42.7498C84.1132 42.9017 84.1512 43.0346 84.1512 43.1486C84.0752 43.6043 84.0563 43.9082 84.0942 44.0601C84.1322 44.212 84.0752 44.326 83.9233 44.4019C83.9993 44.6678 84.0373 44.8957 84.0373 45.0856C84.0752 45.2375 84.0563 45.4464 83.9803 45.7123C83.8663 46.0541 83.7714 46.244 83.6954 46.282C83.6575 46.282 83.6195 46.32 83.5815 46.3959C83.4675 46.6998 83.3916 46.8897 83.3536 46.9656C83.3536 47.0036 83.3346 47.0416 83.2966 47.0796C83.1827 47.2315 83.0877 47.4594 83.0118 47.7632C82.9358 47.8392 82.8599 47.9341 82.7839 48.0481C82.7079 48.162 82.6889 48.3139 82.7269 48.5038C82.537 48.9976 82.3471 49.3964 82.1572 49.7002C81.8913 50.118 81.7394 50.4219 81.7014 50.6118C81.7014 50.7637 81.6635 50.8966 81.5875 51.0106L81.2457 51.5803C80.9798 51.9601 80.8089 52.245 80.7329 52.4349C80.695 52.5868 80.638 52.7577 80.562 52.9476C80.4101 53.2894 80.3151 53.5173 80.2772 53.6312C80.2392 53.7452 80.1822 53.8781 80.1063 54.03C80.0303 54.22 79.9543 54.3909 79.8784 54.5428C79.8024 54.6947 79.7264 54.8656 79.6505 55.0555C79.4606 55.1315 79.3276 55.3214 79.2517 55.6252C79.0238 55.7392 78.8529 55.9671 78.7389 56.3089C78.587 56.3849 78.4731 56.4988 78.3971 56.6507C78.3591 56.7647 78.2832 56.8976 78.1692 57.0495C77.9034 57.3534 77.7514 57.5243 77.7135 57.5623C77.7135 57.5623 77.6945 57.5623 77.6565 57.5623C77.5805 57.6382 77.5046 57.7522 77.4286 57.9041C77.3906 58.018 77.3147 58.113 77.2007 58.1889C76.9728 58.4928 76.8589 58.6827 76.8589 58.7587C76.4411 59.1385 76.1942 59.3853 76.1183 59.4993C75.9663 59.6512 75.8334 59.7841 75.7195 59.8981C75.6055 59.974 75.5106 60.107 75.4346 60.2969C75.1308 60.5248 74.9409 60.7337 74.8649 60.9236C74.599 61.1514 74.4091 61.3034 74.2952 61.3793C74.1813 61.4173 74.0863 61.5123 74.0103 61.6642C73.8584 61.6642 73.7445 61.7022 73.6685 61.7781C73.5925 61.8541 73.5166 61.93 73.4406 62.006C73.0988 62.2339 72.8709 62.3288 72.757 62.2909L72.4151 62.8606C72.2252 63.0125 72.0733 63.0885 71.9594 63.0885C71.8834 63.0885 71.8075 63.1264 71.7315 63.2024C71.5796 63.3543 71.4276 63.5062 71.2757 63.6582L70.763 64.057C70.4212 64.1709 70.1173 64.2279 69.8514 64.2279C69.5096 64.3038 69.3007 64.3228 69.2248 64.2849C69.1488 64.2469 69.0728 64.2279 68.9969 64.2279C68.5791 64.2659 68.3132 64.2659 68.1993 64.2279C68.1233 64.1899 68.0284 64.1519 67.9144 64.1139C67.8005 64.1139 67.5916 64.1519 67.2877 64.2279C67.0599 64.1519 66.832 64.1329 66.6041 64.1709C66.3762 64.2089 66.1293 64.1899 65.8635 64.1139C65.4837 64.076 65.1418 64.057 64.838 64.057C64.5721 64.095 64.3632 64.076 64.2113 64C64.0594 64.038 63.9075 64.057 63.7555 64.057C63.6416 64.095 63.4897 64.1139 63.2998 64.1139C63.0339 64.076 62.863 64.076 62.787 64.1139C62.749 64.1519 62.6921 64.1709 62.6161 64.1709C62.1983 64.1709 61.9704 64.1899 61.9325 64.2279C61.8945 64.2659 61.8375 64.2849 61.7615 64.2849C61.3438 64.2849 61.0589 64.3228 60.907 64.3988C60.755 64.3608 60.5841 64.3418 60.3942 64.3418C60.2043 64.3418 60.0144 64.3608 59.8245 64.3988C59.3688 64.4748 59.0649 64.4938 58.913 64.4558C58.7611 64.4558 58.5901 64.4558 58.4002 64.4558C58.0204 64.4938 57.7736 64.4938 57.6596 64.4558C57.5837 64.4558 57.5077 64.4938 57.4317 64.5697C57.2038 64.4178 56.919 64.4178 56.5772 64.5697C56.2353 64.7216 55.9695 64.7026 55.7796 64.5127C55.6656 64.5887 55.4947 64.6077 55.2668 64.5697C55.0769 64.5317 54.887 64.5127 54.6971 64.5127C54.3933 64.5507 54.1654 64.5317 54.0135 64.4558C53.4817 64.1899 53.2159 64.038 53.2159 64C53.2159 63.924 53.1969 63.7911 53.1589 63.6012C53.0829 63.2594 53.0639 63.0695 53.1019 63.0315C53.1399 62.9935 53.1589 62.9365 53.1589 62.8606V62.1769C53.1589 62.025 53.1589 61.8541 53.1589 61.6642C53.1969 61.4743 53.2349 61.2654 53.2728 61.0375C53.3868 60.4298 53.4248 60.012 53.3868 59.7841C53.3868 59.5562 53.4058 59.3284 53.4438 59.1005C53.5197 58.6067 53.5387 58.3029 53.5007 58.1889C53.4627 57.8471 53.4438 57.6572 53.4438 57.6192C53.4817 57.5812 53.5007 57.5243 53.5007 57.4483C53.5007 57.1445 53.4817 56.9736 53.4438 56.9356C53.4058 56.8596 53.3868 56.7837 53.3868 56.7077C53.4627 56.2899 53.4817 56.081 53.4438 56.081C53.4058 56.043 53.3868 55.9861 53.3868 55.9101C53.3868 55.6822 53.3488 55.4543 53.2728 55.2264V54.5428C53.2349 54.0111 53.1969 53.6692 53.1589 53.5173C53.045 53.0995 52.988 52.7957 52.988 52.6058C53.026 52.3779 53.045 52.188 53.045 52.0361C53.007 51.7322 53.007 51.4094 53.045 51.0675C53.045 50.9536 53.026 50.7827 52.988 50.5548C52.95 50.3269 52.931 50.118 52.931 49.9281C52.893 49.4724 52.855 49.2255 52.8171 49.1875C52.8171 49.1495 52.8171 49.0925 52.8171 49.0166V48.0481C52.7411 47.7442 52.7031 47.5733 52.7031 47.5353C52.7411 47.4594 52.7601 47.3834 52.7601 47.3075C52.7221 46.8137 52.7221 46.4529 52.7601 46.225C52.7981 45.9591 52.7221 45.7312 52.5322 45.5413ZM64.6101 58.4168C64.9139 58.4548 65.1228 58.4358 65.2368 58.3599C65.3887 58.2839 65.5216 58.2079 65.6356 58.132C65.9774 57.8281 66.1103 57.6572 66.0344 57.6192C65.9964 57.5812 66.0154 57.5623 66.0913 57.5623C66.5091 57.1825 66.756 56.9546 66.832 56.8786C66.9459 56.7647 67.0409 56.6697 67.1168 56.5937C67.4207 56.2139 67.6106 55.9861 67.6865 55.9101C67.8005 55.7962 67.8954 55.6822 67.9714 55.5683C68.1233 55.3404 68.2373 55.1315 68.3132 54.9416C68.4272 54.7137 68.5791 54.5238 68.769 54.3719C68.769 54.182 68.788 54.03 68.826 53.9161C68.9019 53.8022 68.9779 53.7072 69.0538 53.6312C69.1678 53.3274 69.2438 53.1755 69.2817 53.1755C69.3577 53.1755 69.4147 53.1565 69.4526 53.1185C69.4526 52.9286 69.5666 52.7197 69.7945 52.4918C69.9084 52.3019 70.0034 52.131 70.0793 51.9791C70.1933 51.7892 70.2882 51.6183 70.3642 51.4663C70.4781 51.2385 70.5921 51.0106 70.706 50.7827C70.8579 50.5168 70.9719 50.2889 71.0478 50.099L71.3327 49.5293C71.5226 49.0736 71.6745 48.7887 71.7885 48.6748C71.9784 48.105 72.1493 47.6493 72.3012 47.3075C72.4531 46.9656 72.605 46.6428 72.757 46.3389L73.2127 45.8832C73.2887 45.6933 73.3077 45.5034 73.2697 45.3135C73.2697 45.1236 73.2887 44.9906 73.3267 44.9147C73.4026 44.6488 73.4596 44.4969 73.4976 44.4589C73.5356 44.4209 73.5546 44.3639 73.5546 44.288C73.6305 44.0981 73.6495 43.9462 73.6115 43.8322C73.6115 43.7183 73.6115 43.6043 73.6115 43.4904C73.5736 43.2625 73.5356 43.0536 73.4976 42.8637C73.4976 42.6738 73.5166 42.4839 73.5546 42.294C73.4026 41.9522 73.3267 41.7243 73.3267 41.6103C73.3267 41.4964 73.3077 41.4014 73.2697 41.3255C73.2317 41.2495 73.1748 41.1546 73.0988 41.0406C73.0608 40.8887 73.0228 40.7748 72.9849 40.6988C72.8329 40.357 72.738 40.1671 72.7 40.1291C72.4721 39.8252 72.3392 39.6163 72.3012 39.5024C72.3012 39.3885 72.2822 39.2935 72.2442 39.2175C72.0543 38.9517 71.9404 38.7808 71.9024 38.7048C71.8644 38.5909 71.8264 38.4959 71.7885 38.42C71.5986 37.9642 71.5036 37.6983 71.5036 37.6224C71.3137 37.2425 71.1998 37.0337 71.1618 36.9957C71.1618 36.9197 71.1428 36.8437 71.1048 36.7678C70.8769 36.388 70.744 36.1981 70.706 36.1981C70.668 36.1601 70.63 36.1221 70.5921 36.0841C70.4781 35.7803 70.3832 35.5904 70.3072 35.5144C70.0793 35.0587 69.9464 34.8118 69.9084 34.7738C69.5666 34.394 69.3577 34.0901 69.2817 33.8623C69.0538 33.4825 68.8639 33.1976 68.712 33.0077C68.5981 32.8178 68.5031 32.6089 68.4272 32.381L67.9714 31.8683C67.7815 31.6024 67.6486 31.3935 67.5726 31.2416C67.3447 30.8618 67.1928 30.6149 67.1168 30.501C66.813 30.1212 66.6041 29.8933 66.4901 29.8173C66.4142 29.7034 66.3382 29.6084 66.2623 29.5325C65.5406 28.9248 65.0089 28.45 64.6671 28.1082C64.3252 27.9942 64.1163 27.9373 64.0404 27.9373C63.9644 27.8993 63.9264 27.8613 63.9264 27.8233C63.6226 27.6714 63.3757 27.5954 63.1858 27.5954C63.0339 27.7853 62.92 27.8803 62.844 27.8803C62.768 27.8803 62.7111 27.9373 62.6731 28.0512C62.6731 28.507 62.6541 28.7728 62.6161 28.8488C62.6161 28.8868 62.6161 28.9437 62.6161 29.0197C62.6161 29.3995 62.6161 29.6464 62.6161 29.7603C62.6541 29.8363 62.6351 29.9123 62.5591 29.9882C62.5591 30.33 62.5591 30.5959 62.5591 30.7858C62.5971 30.9757 62.5971 31.1656 62.5591 31.3555V32.2671C62.5212 32.495 62.5022 32.7038 62.5022 32.8937C62.5401 33.0457 62.5591 33.2166 62.5591 33.4065C62.5591 33.5584 62.5591 33.7293 62.5591 33.9192C62.5971 34.0712 62.5971 34.2041 62.5591 34.318C62.5212 34.7738 62.5212 35.0397 62.5591 35.1156C62.4832 35.5714 62.4642 35.9512 62.5022 36.255C62.5781 36.5209 62.6351 36.8058 62.6731 37.1096C62.6351 37.8312 62.6161 38.363 62.6161 38.7048C62.6541 39.0466 62.6541 39.3695 62.6161 39.6733C62.5022 40.5089 62.4832 41.1546 62.5591 41.6103C62.5591 42.0281 62.5591 42.256 62.5591 42.294C62.5971 42.294 62.5971 42.332 62.5591 42.4079C62.4832 42.8257 62.4452 43.1865 62.4452 43.4904C62.4832 43.7942 62.5022 44.0791 62.5022 44.345C62.5022 44.4589 62.4832 44.5728 62.4452 44.6868C62.4452 44.8007 62.4452 44.9147 62.4452 45.0286C62.4452 45.2945 62.4642 45.5983 62.5022 45.9401C62.5781 46.282 62.6161 46.5858 62.6161 46.8517C62.6161 47.1555 62.6161 47.3644 62.6161 47.4784C62.6541 47.5923 62.6921 47.7252 62.73 47.8772L62.6731 48.6178C62.6731 48.7317 62.6731 48.8457 62.6731 48.9596C62.7111 49.0356 62.749 49.1305 62.787 49.2445C62.787 49.3584 62.787 49.4724 62.787 49.5863C62.787 49.7002 62.825 49.7952 62.901 49.8712C62.825 50.137 62.787 50.2889 62.787 50.3269C62.825 50.3649 62.844 50.4219 62.844 50.4978C62.882 51.1435 62.901 51.5423 62.901 51.6942C62.9389 51.8841 62.9389 52.093 62.901 52.3209C62.901 52.5488 62.92 52.7577 62.9579 52.9476C62.9579 53.0995 62.9769 53.2514 63.0149 53.4034C63.0529 53.5173 63.0719 53.6123 63.0719 53.6882C63.0719 53.9161 63.0529 54.125 63.0149 54.3149C62.9769 54.5048 63.0149 54.6947 63.1288 54.8846C63.0909 55.3784 63.0719 55.7012 63.0719 55.8531C63.0719 55.9671 63.1099 56.062 63.1858 56.138C63.0719 56.2519 63.0529 56.4228 63.1288 56.6507C63.2048 56.8786 63.2428 57.0685 63.2428 57.2204C63.3188 57.6382 63.3567 57.9611 63.3567 58.1889C63.5466 58.2649 63.7365 58.3219 63.9264 58.3599C64.1543 58.3978 64.3822 58.4168 64.6101 58.4168ZM113.833 39.6163C113.833 39.7683 113.871 39.9012 113.947 40.0151C114.023 40.0911 114.061 40.1861 114.061 40.3C114.061 40.7178 114.042 41.0596 114.004 41.3255C114.004 41.5534 114.004 41.7812 114.004 42.0091C113.89 42.5029 113.814 42.8827 113.776 43.1486C113.776 43.6043 113.738 43.9272 113.662 44.1171C113.586 44.269 113.529 44.4399 113.491 44.6298C113.415 44.8197 113.358 45.0476 113.32 45.3135C113.32 45.5413 113.301 45.8072 113.263 46.1111C113.188 46.5288 113.112 46.8137 113.036 46.9656C112.998 47.0796 112.979 47.1745 112.979 47.2505C112.979 47.7062 112.941 47.9911 112.865 48.105C112.827 48.181 112.789 48.276 112.751 48.3899C112.713 48.8077 112.675 49.0736 112.637 49.1875C112.637 49.2635 112.599 49.3204 112.523 49.3584C112.067 49.4724 111.82 49.5103 111.782 49.4724C111.782 49.3964 111.744 49.3204 111.668 49.2445C111.25 49.0925 110.947 48.9976 110.757 48.9596C110.605 48.8837 110.491 48.7697 110.415 48.6178L109.446 48.4469C109.105 48.257 108.82 48.143 108.592 48.105C108.402 48.0671 108.25 47.9911 108.136 47.8772C107.756 47.7252 107.509 47.6493 107.395 47.6493C107.281 47.6493 107.187 47.6493 107.111 47.6493C106.921 47.5733 106.712 47.5543 106.484 47.5923C106.066 47.6303 105.819 47.6493 105.743 47.6493C105.667 47.6113 105.572 47.5923 105.458 47.5923C105.231 47.6303 105.06 47.6493 104.946 47.6493C104.832 47.6113 104.699 47.5923 104.547 47.5923C104.205 47.5923 103.996 47.6113 103.92 47.6493C103.882 47.6493 103.825 47.6493 103.749 47.6493C103.559 47.6113 103.388 47.5733 103.237 47.5353C103.085 47.4974 102.933 47.4974 102.781 47.5353C102.325 47.5353 102.002 47.5733 101.812 47.6493C101.394 47.6493 101.072 47.6873 100.844 47.7632C100.654 47.8392 100.445 47.8772 100.217 47.8772C100.065 47.9151 99.9132 47.9151 99.7613 47.8772C99.6474 47.8392 99.4954 47.8392 99.3055 47.8772C99.2296 47.9531 99.1916 48.105 99.1916 48.3329C99.1916 48.5228 99.2296 48.6748 99.3055 48.7887C99.2296 48.9786 99.1916 49.1685 99.1916 49.3584C99.2296 49.5103 99.2486 49.6812 99.2486 49.8712C99.2486 50.137 99.2296 50.3269 99.1916 50.4409C99.1536 50.5168 99.1346 50.6118 99.1346 50.7257C99.0966 50.8776 99.0776 51.0296 99.0776 51.1815C99.1156 51.3334 99.1346 51.5043 99.1346 51.6942C99.0966 51.9601 99.0966 52.245 99.1346 52.5488C99.1726 53.0425 99.1156 53.4413 98.9637 53.7452C98.9257 54.0111 98.9827 54.2579 99.1346 54.4858C99.2486 54.8276 99.3435 55.0365 99.4195 55.1125C99.7613 55.1505 99.9702 55.1885 100.046 55.2264C100.16 55.2644 100.255 55.2454 100.331 55.1695C100.407 55.2454 100.502 55.3024 100.616 55.3404C100.768 55.3404 100.901 55.3784 101.015 55.4543H101.869L102.553 55.5683C103.009 55.6062 103.294 55.6252 103.407 55.6252C103.559 55.6252 103.673 55.6252 103.749 55.6252C104.167 55.6632 104.414 55.7012 104.49 55.7392C104.908 55.7012 105.117 55.6822 105.117 55.6822C105.306 55.7202 105.477 55.7582 105.629 55.7962C105.781 55.8341 105.895 55.8151 105.971 55.7392C106.199 55.7392 106.332 55.7202 106.37 55.6822C106.446 55.6442 106.522 55.6252 106.598 55.6252C106.94 55.5113 107.13 55.4733 107.168 55.5113C107.244 55.5493 107.319 55.5303 107.395 55.4543C107.661 55.3404 107.908 55.3214 108.136 55.3974C108.402 55.4353 108.687 55.4543 108.991 55.4543C109.408 55.4543 109.693 55.4543 109.845 55.4543C109.997 55.4163 110.149 55.3974 110.301 55.3974C110.491 55.3594 110.681 55.3214 110.871 55.2834C111.099 55.2454 111.345 55.2075 111.611 55.1695H112.922C113.301 55.2075 113.51 55.2075 113.548 55.1695C113.624 55.1315 113.681 55.1695 113.719 55.2834C114.061 55.2834 114.365 55.2834 114.631 55.2834C114.897 55.2834 115.125 55.3214 115.314 55.3974C115.314 55.7392 115.333 55.9481 115.371 56.024C115.409 56.062 115.428 56.119 115.428 56.195C115.466 56.3089 115.466 56.4418 115.428 56.5937C115.39 56.7077 115.409 56.8026 115.485 56.8786C115.333 56.9925 115.257 57.1825 115.257 57.4483C115.257 57.6762 115.238 57.9231 115.2 58.1889C115.163 58.3409 115.125 58.4738 115.087 58.5877C115.049 58.7017 115.011 58.7966 114.973 58.8726C114.859 59.1764 114.764 59.3853 114.688 59.4993C114.65 59.6132 114.593 59.7462 114.517 59.8981C114.327 60.4298 114.213 60.7906 114.175 60.9805C114.175 61.1704 114.137 61.3603 114.061 61.5502C113.833 61.93 113.719 62.1769 113.719 62.2909C113.719 62.4048 113.643 62.4998 113.491 62.5757C113.529 62.8036 113.51 62.9935 113.434 63.1454C113.358 63.2974 113.282 63.4493 113.206 63.6012C113.131 63.905 113.093 64.076 113.093 64.1139C113.131 64.1899 113.131 64.2279 113.093 64.2279C112.789 64.4178 112.599 64.4938 112.523 64.4558C112.447 64.4558 112.371 64.4748 112.295 64.5127L111.383 64.6837C111.194 64.6837 111.023 64.6647 110.871 64.6267C110.719 64.5887 110.548 64.5697 110.358 64.5697C110.016 64.5697 109.826 64.5697 109.788 64.5697C109.75 64.6077 109.693 64.6077 109.617 64.5697C109.313 64.4938 109.105 64.4558 108.991 64.4558C108.877 64.4938 108.744 64.4938 108.592 64.4558C108.25 64.4558 107.908 64.4178 107.566 64.3418C107.263 64.3038 106.959 64.3038 106.655 64.3418C106.389 64.2279 106.085 64.1899 105.743 64.2279H104.433C104.053 64.2659 103.825 64.2659 103.749 64.2279C103.711 64.2279 103.673 64.2279 103.635 64.2279C103.256 64.2279 103.009 64.2279 102.895 64.2279C102.819 64.2659 102.743 64.2849 102.667 64.2849C102.477 64.2849 102.306 64.2659 102.154 64.2279C102.04 64.2279 101.869 64.2469 101.641 64.2849C101.338 64.3608 101.091 64.3798 100.901 64.3418C100.711 64.3038 100.578 64.3418 100.502 64.4558C100.312 64.4178 100.16 64.3798 100.046 64.3418C99.9702 64.3418 99.9132 64.3608 99.8752 64.3988C99.7233 64.3228 99.5144 64.3038 99.2486 64.3418C99.0207 64.4178 98.8118 64.4558 98.6219 64.4558C98.47 64.3798 98.299 64.3608 98.1091 64.3988C97.9572 64.4748 97.7863 64.4938 97.5964 64.4558C97.4825 64.4558 97.3305 64.4558 97.1406 64.4558C96.9887 64.4558 96.8558 64.4938 96.7418 64.5697C96.324 64.4558 96.1151 64.3988 96.1151 64.3988C95.4695 64.3988 94.7478 64.4178 93.9502 64.4558C93.4945 64.3418 93.1337 64.2849 92.8678 64.2849C92.6399 64.2849 92.45 64.2659 92.2981 64.2279H90.8738C90.6839 64.2659 90.494 64.2279 90.3041 64.1139C90.1522 64 89.9813 63.943 89.7913 63.943C89.4115 63.7151 89.2026 63.5822 89.1647 63.5442L88.7659 62.9745C88.6519 62.7466 88.576 62.5947 88.538 62.5187C88.538 62.4428 88.538 62.3858 88.538 62.3478C88.6139 61.8921 88.6709 61.6072 88.7089 61.4933C88.7849 61.0375 88.8228 60.7906 88.8228 60.7526C88.8608 60.6767 88.8798 60.6007 88.8798 60.5248C88.9178 60.3728 88.9178 60.2399 88.8798 60.126C88.8798 60.012 88.8798 59.8981 88.8798 59.7841C88.9558 59.2904 88.9748 58.9675 88.9368 58.8156C88.9368 58.6637 88.9558 58.4928 88.9938 58.3029C89.0317 58.151 89.0507 57.999 89.0507 57.8471C89.0507 57.6572 89.0697 57.4863 89.1077 57.3344C89.1457 57.2204 89.1837 57.0875 89.2216 56.9356C89.2976 56.7457 89.2976 56.5558 89.2216 56.3659C89.1457 56.024 89.1077 55.8341 89.1077 55.7962C89.1457 55.7582 89.1647 55.7012 89.1647 55.6252C89.2026 55.1315 89.2216 54.8087 89.2216 54.6567V53.8591C89.2216 53.7452 89.2026 53.6312 89.1647 53.5173C89.1647 53.4034 89.1647 53.3084 89.1647 53.2325C89.2026 52.7007 89.2026 52.3589 89.1647 52.207C89.1647 52.055 89.1457 51.8841 89.1077 51.6942C89.1077 51.3144 89.0887 51.0296 89.0507 50.8397C89.0127 50.5738 89.0127 50.4029 89.0507 50.3269C89.0887 50.251 89.1077 50.156 89.1077 50.0421C89.1457 49.7762 89.1457 49.4724 89.1077 49.1305C89.1457 48.8267 89.1457 48.6558 89.1077 48.6178C89.1077 48.5418 89.1077 48.4279 89.1077 48.276C89.0317 47.7442 88.9938 47.3264 88.9938 47.0226C89.0317 46.7187 89.0697 46.4149 89.1077 46.1111C89.1077 45.7692 89.0887 45.5983 89.0507 45.5983C89.0507 45.5603 89.0507 45.5034 89.0507 45.4274C89.0127 45.2375 88.9938 45.0666 88.9938 44.9147C89.0317 44.7248 89.0317 44.5728 88.9938 44.4589C88.9178 44.1171 88.9178 43.7183 88.9938 43.2625C88.9938 43.1486 88.9938 43.0346 88.9938 42.9207C88.9938 42.7687 89.0127 42.6358 89.0507 42.5219C89.0507 42.4079 89.0697 42.313 89.1077 42.237C89.1457 42.1231 89.1647 42.0091 89.1647 41.8952C89.1267 41.4394 89.1077 41.1925 89.1077 41.1546C89.1457 41.1166 89.1647 41.0596 89.1647 40.9837C89.2406 40.6418 89.2216 40.338 89.1077 40.0721L89.2216 39.2175C89.2976 39.0276 89.3546 38.8757 89.3926 38.7618C89.4305 38.6478 89.4115 38.4959 89.3356 38.306C89.2216 37.9642 89.1457 37.7173 89.1077 37.5654C89.1077 37.3755 89.1077 37.1856 89.1077 36.9957C89.0697 36.7298 89.0697 36.5019 89.1077 36.312C89.1837 36.0841 89.1837 35.8183 89.1077 35.5144C89.1457 35.1726 89.1457 34.9447 89.1077 34.8308C89.1077 34.7168 89.1077 34.6029 89.1077 34.4889L89.2216 33.5774C89.2976 33.0837 89.3356 32.7798 89.3356 32.6659C89.3736 32.5519 89.3926 32.438 89.3926 32.324C89.3926 32.1341 89.3736 31.9252 89.3356 31.6974C89.2976 31.4315 89.3166 31.1466 89.3926 30.8428C89.4305 30.5769 89.4305 30.425 89.3926 30.387C89.3926 30.349 89.3926 30.2921 89.3926 30.2161C89.3926 29.7603 89.3736 29.5135 89.3356 29.4755C89.3356 29.3995 89.3356 29.3236 89.3356 29.2476C89.3736 28.7159 89.3356 28.393 89.2216 28.2791C89.1457 27.9373 89.1267 27.6714 89.1647 27.4815C89.2026 27.2916 89.2026 27.1397 89.1647 27.0257C89.0887 26.57 89.0507 26.2851 89.0507 26.1712C89.0887 26.0572 89.1077 25.9433 89.1077 25.8293C89.0317 25.3736 88.9748 25.1267 88.9368 25.0887C88.9368 25.0127 88.9368 24.9368 88.9368 24.8608C88.9748 24.405 88.9558 24.1012 88.8798 23.9493C88.8038 23.7594 88.7469 23.6075 88.7089 23.4935C88.8608 23.1137 88.9558 22.8858 88.9938 22.8099C89.0317 22.6959 89.0507 22.62 89.0507 22.582C89.4305 22.3921 89.6964 22.2212 89.8483 22.0692C90.1522 21.9933 90.3421 21.9553 90.418 21.9553C90.532 21.9173 90.6649 21.8983 90.8168 21.8983C91.0447 21.9743 91.2156 21.9933 91.3296 21.9553C91.4815 21.9173 91.6334 21.9553 91.7853 22.0692C91.9373 21.9933 92.0892 21.9743 92.2411 22.0123C92.393 22.0123 92.5639 22.0312 92.7538 22.0692C92.9817 22.0692 93.1906 22.0502 93.3805 22.0123C93.5704 21.9363 93.7603 21.9743 93.9502 22.1262C94.406 22.1262 94.6719 22.1072 94.7478 22.0692C94.8618 22.0312 94.9567 22.0123 95.0327 22.0123C95.3365 22.0123 95.5075 21.9933 95.5454 21.9553C95.5834 21.9173 95.6404 21.8983 95.7163 21.8983C96.1341 21.8603 96.495 21.8983 96.7988 22.0123C97.1026 22.0882 97.4635 22.1072 97.8813 22.0692C98.1851 22.0692 98.4889 22.0123 98.7928 21.8983C99.0966 21.8224 99.2865 21.8034 99.3625 21.8413C99.4764 21.8793 99.5714 21.8983 99.6474 21.8983C99.8752 21.9363 100.103 21.9363 100.331 21.8983C100.597 21.8603 100.844 21.8413 101.072 21.8413C101.224 21.8413 101.375 21.8603 101.527 21.8983C101.679 21.9363 101.831 21.9553 101.983 21.9553C102.173 21.9553 102.344 21.9363 102.496 21.8983C102.686 21.8224 102.857 21.8224 103.009 21.8983C103.275 21.9743 103.426 22.0123 103.464 22.0123C103.54 21.9743 103.597 21.9553 103.635 21.9553C103.939 21.9553 104.186 21.9743 104.376 22.0123C104.604 22.0123 104.851 22.0123 105.117 22.0123C105.231 22.0123 105.344 21.9933 105.458 21.9553C105.572 21.9173 105.686 21.8983 105.8 21.8983L106.655 21.9553C106.845 21.9933 107.016 22.0502 107.168 22.1262C107.357 22.1642 107.547 22.1642 107.737 22.1262C108.231 21.9743 108.554 21.9173 108.706 21.9553C108.858 21.9553 109.01 21.9363 109.162 21.8983C109.503 21.7844 109.731 21.7274 109.845 21.7274L110.928 21.5565C111.08 21.4805 111.213 21.4425 111.326 21.4425C111.44 21.4046 111.535 21.3666 111.611 21.3286C111.991 21.5565 112.181 21.7084 112.181 21.7844C112.181 21.8224 112.2 21.8793 112.238 21.9553C112.314 22.0692 112.371 22.1832 112.409 22.2971C112.447 22.3731 112.485 22.487 112.523 22.6389C112.675 23.0567 112.789 23.3226 112.865 23.4365C112.941 23.5505 112.979 23.6834 112.979 23.8353C113.131 24.2151 113.206 24.424 113.206 24.462C113.206 24.5 113.225 24.557 113.263 24.6329C113.415 25.1267 113.491 25.4495 113.491 25.6014C113.529 25.7154 113.586 25.8673 113.662 26.0572C113.738 26.513 113.814 26.8168 113.89 26.9687C114.042 27.2726 114.118 27.5195 114.118 27.7094C114.27 28.2031 114.365 28.6969 114.403 29.1906C114.441 29.4565 114.441 29.6084 114.403 29.6464C114.365 29.6844 114.327 29.7413 114.289 29.8173C114.289 30.2731 114.251 30.6529 114.175 30.9567C114.099 31.2226 113.985 31.4505 113.833 31.6404C113.605 31.7163 113.377 31.7543 113.15 31.7543C112.96 31.7543 112.751 31.7733 112.523 31.8113C112.447 31.8493 112.276 31.8683 112.01 31.8683C111.782 31.8683 111.573 31.8493 111.383 31.8113C111.042 31.7353 110.852 31.6784 110.814 31.6404C110.776 31.6024 110.719 31.5834 110.643 31.5834C110.301 31.4695 110.073 31.4125 109.959 31.4125C109.883 31.4125 109.845 31.3935 109.845 31.3555C109.693 31.2796 109.541 31.2416 109.389 31.2416C109.275 31.2416 109.143 31.2036 108.991 31.1276C108.687 31.0517 108.516 31.0327 108.478 31.0707C108.478 31.0707 108.44 31.0707 108.364 31.0707C108.25 31.0707 108.136 31.0517 108.022 31.0137C107.908 30.9757 107.794 30.9377 107.68 30.8998C107.528 30.8618 107.376 30.8618 107.225 30.8998C107.111 30.8998 106.959 30.8808 106.769 30.8428C106.389 30.8428 106.142 30.8618 106.028 30.8998C105.914 30.8998 105.8 30.8998 105.686 30.8998C105.572 30.8998 105.458 30.8998 105.344 30.8998C105.231 30.8618 105.117 30.8428 105.003 30.8428C104.661 30.8428 104.338 30.8428 104.034 30.8428C103.73 30.8048 103.464 30.8048 103.237 30.8428C103.085 30.8428 102.952 30.8428 102.838 30.8428C102.724 30.8428 102.591 30.7858 102.439 30.6719C102.325 30.7478 102.211 30.7668 102.097 30.7288C101.983 30.6909 101.869 30.6719 101.755 30.6719C101.3 30.7478 101.034 30.7668 100.958 30.7288C100.882 30.6909 100.806 30.6719 100.73 30.6719C100.236 30.7478 99.9892 30.8238 99.9892 30.8998C99.7993 30.8238 99.6474 30.8048 99.5334 30.8428C99.4195 30.8808 99.2676 30.9187 99.0776 30.9567C98.8877 31.2986 98.7738 31.5264 98.7358 31.6404C98.6978 31.7163 98.6599 31.7923 98.6219 31.8683V32.8937C98.6978 33.0457 98.7358 33.2546 98.7358 33.5204C98.7358 33.7483 98.7358 33.9192 98.7358 34.0332C98.7738 34.413 98.7928 34.6788 98.7928 34.8308C98.8308 34.9827 98.8498 35.1346 98.8498 35.2865C98.7738 35.5904 98.7738 35.9132 98.8498 36.255C98.8118 36.369 98.7928 36.5209 98.7928 36.7108C98.8308 36.9007 98.8498 37.0716 98.8498 37.2236V37.8502C98.8877 37.9262 98.8877 38.0212 98.8498 38.1351C98.8498 38.2111 98.8498 38.344 98.8498 38.5339C99.1536 38.6858 99.3435 38.8187 99.4195 38.9327C99.4954 39.0087 99.5524 39.0846 99.5904 39.1606C100.008 39.1606 100.255 39.1796 100.331 39.2175C100.407 39.2175 100.502 39.2175 100.616 39.2175C100.996 39.3695 101.243 39.3885 101.356 39.2745C101.47 39.2365 101.603 39.2365 101.755 39.2745C101.907 39.2745 102.021 39.2745 102.097 39.2745H102.781C102.895 39.2745 103.009 39.2935 103.123 39.3315C103.237 39.3315 103.369 39.3315 103.521 39.3315C103.825 39.2555 103.977 39.2365 103.977 39.2745C104.015 39.3125 104.072 39.3505 104.148 39.3885C104.566 39.3125 104.832 39.2935 104.946 39.3315C105.06 39.3315 105.155 39.3315 105.231 39.3315C105.42 39.2935 105.591 39.2745 105.743 39.2745C105.895 39.2745 106.104 39.2555 106.37 39.2175C106.826 39.2555 107.111 39.2935 107.225 39.3315C107.338 39.3315 107.452 39.3315 107.566 39.3315C107.68 39.2935 107.794 39.2745 107.908 39.2745C108.098 39.2745 108.307 39.2745 108.535 39.2745C108.763 39.2365 108.972 39.2175 109.162 39.2175C109.579 39.2555 109.826 39.2745 109.902 39.2745C109.978 39.2745 110.054 39.2745 110.13 39.2745C110.244 39.3125 110.396 39.3315 110.586 39.3315C110.776 39.3315 110.947 39.2935 111.099 39.2175C111.288 39.2935 111.459 39.3315 111.611 39.3315C111.763 39.2935 111.915 39.2745 112.067 39.2745C112.637 39.2745 112.941 39.2745 112.979 39.2745C113.396 39.4644 113.624 39.5594 113.662 39.5594C113.7 39.5594 113.757 39.5784 113.833 39.6163ZM144.939 54.8276C144.56 54.9416 144.351 55.0175 144.313 55.0555C144.313 55.0935 144.275 55.1315 144.199 55.1695L143.686 55.6252C143.306 55.8911 143.116 56.024 143.116 56.024C142.85 56.2139 142.661 56.3469 142.547 56.4228C142.471 56.4988 142.395 56.5748 142.319 56.6507C142.243 56.7267 142.167 56.8026 142.091 56.8786C141.749 57.2204 141.559 57.4103 141.521 57.4483C141.483 57.4863 141.426 57.5243 141.35 57.5623C141.122 57.6762 140.951 57.8281 140.838 58.018C140.382 58.3219 140.097 58.4928 139.983 58.5308C139.565 58.7966 139.337 58.9486 139.299 58.9865C139.299 59.0245 139.261 59.0625 139.185 59.1005C138.768 59.2524 138.502 59.3284 138.388 59.3284C138.312 59.3284 138.236 59.3474 138.16 59.3853C137.552 59.6892 137.058 59.8031 136.679 59.7272C136.375 59.6512 136.109 59.5373 135.881 59.3853C135.577 59.2334 135.349 59.1385 135.197 59.1005C135.083 59.0625 134.969 59.0055 134.856 58.9296C134.628 58.7017 134.476 58.5687 134.4 58.5308C134.324 58.4548 134.248 58.3788 134.172 58.3029C133.982 58.113 133.735 58.018 133.431 58.018C133.089 57.6762 132.862 57.5053 132.748 57.5053C132.672 57.4673 132.577 57.4103 132.463 57.3344C132.235 57.1445 132.064 56.9925 131.95 56.8786C131.684 56.6127 131.494 56.4228 131.38 56.3089C131.152 55.9671 131 55.7582 130.925 55.6822C130.849 55.6062 130.773 55.5303 130.697 55.4543C130.279 55.3784 130.07 55.3974 130.07 55.5113C130.108 55.5873 130.108 55.6632 130.07 55.7392C130.032 55.8151 129.994 55.9101 129.956 56.024C129.918 56.138 129.88 56.2519 129.842 56.3659C129.728 56.7837 129.671 57.0115 129.671 57.0495C129.519 57.4673 129.424 57.6952 129.386 57.7332C129.386 57.7332 129.386 57.7712 129.386 57.8471L129.215 58.5308C129.177 58.9865 129.139 59.2714 129.101 59.3853C129.063 59.8791 128.969 60.2589 128.817 60.5248C128.665 61.0185 128.57 61.2844 128.532 61.3224L128.418 61.949C128.38 62.2529 128.342 62.4618 128.304 62.5757C128.304 62.6897 128.304 62.8226 128.304 62.9745C128.19 63.3163 128.057 63.5632 127.905 63.7151C127.791 64.019 127.734 64.1899 127.734 64.2279C127.772 64.2659 127.772 64.3038 127.734 64.3418C127.544 64.4938 127.411 64.6077 127.335 64.6837C127.259 64.7976 127.183 64.8925 127.107 64.9685C126.842 65.0445 126.595 65.0635 126.367 65.0255C125.797 64.9875 125.322 64.9305 124.943 64.8546C124.753 64.7786 124.544 64.6837 124.316 64.5697C124.126 64.4938 123.917 64.4178 123.689 64.3418C123.157 64.1139 122.873 64 122.835 64C122.493 63.924 122.284 63.8671 122.208 63.8291C122.17 63.7911 122.113 63.7531 122.037 63.7151C121.657 63.6012 121.448 63.5252 121.41 63.4873C121.372 63.4113 121.334 63.4113 121.296 63.4873C120.803 63.3353 120.48 63.2784 120.328 63.3163C120.214 63.3163 120.119 63.2784 120.043 63.2024C119.739 62.9365 119.549 62.7846 119.473 62.7466C119.435 62.6707 119.34 62.6327 119.188 62.6327C118.885 62.3668 118.638 62.1769 118.448 62.063C118.258 61.7591 118.068 61.5502 117.878 61.4363C117.65 61.2844 117.536 61.0375 117.536 60.6957C117.536 60.5058 117.555 60.3538 117.593 60.2399C117.631 60.126 117.688 59.993 117.764 59.8411C117.916 59.4993 118.011 59.2904 118.049 59.2144C118.087 59.1005 118.144 58.9865 118.22 58.8726C118.372 58.5687 118.486 58.3599 118.562 58.2459C118.638 58.132 118.695 58.018 118.733 57.9041C118.771 57.7522 118.828 57.6382 118.904 57.5623C118.98 57.3724 119.037 57.1825 119.075 56.9925C119.113 56.7647 119.226 56.5937 119.416 56.4798C119.53 56.024 119.644 55.7392 119.758 55.6252C119.72 55.5113 119.739 55.3594 119.815 55.1695C119.929 54.9416 120.005 54.7897 120.043 54.7137C120.271 54.182 120.442 53.8022 120.556 53.5743C120.708 53.3084 120.841 53.0236 120.955 52.7197C121.144 52.3019 121.258 52.055 121.296 51.9791C121.334 51.9031 121.372 51.8272 121.41 51.7512C121.562 51.3714 121.638 51.1815 121.638 51.1815C121.638 51.1435 121.657 51.1055 121.695 51.0675C121.809 50.8776 121.885 50.7067 121.923 50.5548C121.961 50.4029 122.018 50.27 122.094 50.156C122.17 49.9661 122.265 49.7382 122.379 49.4724C122.493 49.2065 122.607 48.9596 122.721 48.7317C122.873 48.3139 122.987 48.105 123.063 48.105C123.138 47.7632 123.195 47.5923 123.233 47.5923C123.271 47.5543 123.309 47.4974 123.347 47.4214C123.461 47.0036 123.518 46.7567 123.518 46.6808C123.556 46.6048 123.594 46.5288 123.632 46.4529C123.67 46.263 123.708 46.0921 123.746 45.9401C123.784 45.7502 123.822 45.5793 123.86 45.4274C123.974 45.0856 124.107 44.7627 124.259 44.4589C124.335 44.345 124.392 44.212 124.43 44.0601C124.506 43.9082 124.601 43.7942 124.715 43.7183C124.791 43.4144 124.829 43.2435 124.829 43.2055C124.829 43.1296 124.848 43.0536 124.886 42.9776C125.075 42.5219 125.17 42.294 125.17 42.294C125.208 42.256 125.246 42.199 125.284 42.1231C125.512 41.6293 125.626 41.3065 125.626 41.1546C125.664 41.0026 125.721 40.8317 125.797 40.6418C125.873 40.4519 125.949 40.262 126.025 40.0721C126.139 39.8822 126.196 39.6733 126.196 39.4454C126.272 39.3695 126.348 39.2745 126.424 39.1606C126.5 39.0466 126.576 38.9137 126.652 38.7618C126.766 38.4959 126.823 38.325 126.823 38.249C126.823 38.1351 126.842 38.0401 126.88 37.9642C126.956 37.7743 127.031 37.6224 127.107 37.5084C127.183 37.3565 127.24 37.1856 127.278 36.9957C127.468 36.5019 127.639 36.1031 127.791 35.7993C127.943 35.4954 128.057 35.1916 128.133 34.8877C128.209 34.6978 128.247 34.5269 128.247 34.375C128.285 34.2231 128.342 34.0522 128.418 33.8623C128.494 33.6344 128.589 33.4065 128.703 33.1786L128.817 32.438C128.855 32.362 128.893 32.2861 128.931 32.2101C128.969 32.0962 129.025 31.9822 129.101 31.8683C129.215 31.5264 129.272 31.2606 129.272 31.0707C129.31 30.8428 129.367 30.6339 129.443 30.444C129.557 30.0642 129.633 29.8553 129.671 29.8173C129.823 29.2096 129.956 28.7159 130.07 28.3361C130.222 27.7284 130.336 27.3106 130.412 27.0827C130.488 26.8548 130.564 26.5889 130.64 26.2851C130.678 26.0572 130.716 25.9053 130.754 25.8293C130.792 25.7534 130.83 25.6584 130.868 25.5445C130.981 25.0887 131.057 24.8038 131.095 24.6899C131.171 24.538 131.247 24.424 131.323 24.3481L131.722 23.4935C131.874 23.3416 131.969 23.1707 132.007 22.9808C132.083 22.7909 132.235 22.6579 132.463 22.582C132.615 22.2401 132.71 22.0692 132.748 22.0692C132.786 22.0312 132.824 21.9743 132.862 21.8983C133.013 21.6704 133.165 21.4805 133.317 21.3286C133.469 21.1767 133.602 21.0817 133.716 21.0437C133.83 21.0058 133.944 21.0058 134.058 21.0437C134.21 21.0437 134.343 21.0627 134.457 21.1007C134.761 21.0248 134.913 21.0437 134.913 21.1577C134.95 21.2337 135.026 21.2526 135.14 21.2147C135.558 21.2526 135.843 21.2716 135.995 21.2716C136.147 21.2337 136.318 21.2526 136.508 21.3286C136.963 21.2526 137.248 21.3096 137.362 21.4995C137.742 21.3476 137.932 21.2906 137.932 21.3286C137.932 21.3286 137.97 21.3286 138.046 21.3286C138.464 21.2906 138.73 21.2716 138.844 21.2716C138.957 21.2337 139.071 21.2147 139.185 21.2147C139.375 21.2147 139.546 21.2147 139.698 21.2147C139.888 21.1767 140.078 21.1577 140.268 21.1577C140.534 21.1577 140.781 21.2147 141.008 21.3286C141.236 21.4046 141.445 21.4995 141.635 21.6135C142.015 21.9173 142.186 22.0882 142.148 22.1262C142.11 22.1642 142.129 22.2022 142.205 22.2401C142.281 22.3161 142.357 22.4111 142.433 22.525C142.509 22.601 142.566 22.6769 142.604 22.7529C142.642 22.8288 142.642 22.9238 142.604 23.0377C142.604 23.1517 142.604 23.2656 142.604 23.3796C142.68 23.7214 142.794 24.0252 142.945 24.2911C143.135 24.6329 143.23 24.8608 143.23 24.9748C143.23 25.0507 143.268 25.1457 143.344 25.2596C143.382 25.5255 143.553 25.7724 143.857 26.0002C143.895 26.418 144.047 26.8548 144.313 27.3106C144.427 27.4625 144.503 27.6904 144.541 27.9942C144.579 28.1841 144.617 28.3361 144.655 28.45C144.731 28.5639 144.806 28.7159 144.882 28.9058C145.034 29.2856 145.148 29.5894 145.224 29.8173C145.3 30.0452 145.376 30.2541 145.452 30.444C145.49 30.5579 145.528 30.6909 145.566 30.8428C145.642 30.9947 145.699 31.1656 145.737 31.3555C145.813 31.5454 145.87 31.7163 145.908 31.8683C145.946 31.9822 146.022 32.1151 146.136 32.2671C146.288 32.5329 146.364 32.7418 146.364 32.8937C146.364 33.0077 146.402 33.1406 146.478 33.2925C146.554 33.4445 146.611 33.5964 146.649 33.7483C146.725 33.8623 146.819 33.9762 146.933 34.0901C146.933 34.28 146.952 34.451 146.99 34.6029C147.066 34.7548 147.142 34.9067 147.218 35.0587C147.37 35.5144 147.446 35.7993 147.446 35.9132C147.522 36.0272 147.56 36.1411 147.56 36.255C147.598 36.331 147.655 36.407 147.731 36.4829C147.769 36.7108 147.845 36.9197 147.959 37.1096C148.035 37.2236 148.092 37.3375 148.13 37.4514C148.206 37.5654 148.282 37.6793 148.358 37.7933C148.51 38.1351 148.567 38.382 148.529 38.5339C148.529 38.6478 148.548 38.7618 148.586 38.8757C148.624 39.2555 148.775 39.6353 149.041 40.0151C149.193 40.6608 149.326 41.0596 149.44 41.2115C149.516 41.4014 149.592 41.6293 149.668 41.8952C149.744 42.1611 149.82 42.3889 149.896 42.5788C149.972 42.6928 150.029 42.7877 150.067 42.8637C150.105 42.9397 150.143 43.0726 150.181 43.2625C150.257 43.6423 150.333 43.9082 150.409 44.0601C150.485 44.174 150.542 44.288 150.58 44.4019C150.618 44.4779 150.656 44.5918 150.694 44.7437C150.769 44.9337 150.826 45.0856 150.864 45.1995C150.902 45.3135 150.959 45.4274 151.035 45.5413C151.111 45.6933 151.149 45.8262 151.149 45.9401C151.187 46.0541 151.244 46.187 151.32 46.3389C151.434 46.7187 151.529 46.9656 151.605 47.0796C151.681 47.1555 151.757 47.2695 151.833 47.4214C151.909 47.5733 151.947 47.7252 151.947 47.8772C151.985 48.0291 152.042 48.2 152.118 48.3899C152.194 48.5038 152.27 48.6178 152.346 48.7317C152.422 48.8077 152.498 48.9216 152.574 49.0736C152.688 49.3774 152.744 49.5673 152.744 49.6433C152.744 49.7192 152.782 49.7952 152.858 49.8712C153.124 50.251 153.257 50.4788 153.257 50.5548C153.257 50.6308 153.257 50.7067 153.257 50.7827C153.333 50.9726 153.409 51.1435 153.485 51.2954C153.599 51.4094 153.694 51.5423 153.77 51.6942C153.96 52.074 154.074 52.3399 154.112 52.4918C154.188 52.6437 154.264 52.7767 154.34 52.8906C154.454 53.0046 154.587 53.1755 154.738 53.4034C154.852 53.7072 154.909 53.8781 154.909 53.9161C154.909 53.9541 154.947 54.0111 155.023 54.087C155.175 54.5428 155.27 54.7897 155.308 54.8276C155.346 54.8656 155.365 54.9036 155.365 54.9416C155.441 55.0175 155.479 55.1125 155.479 55.2264C155.479 55.3404 155.517 55.4543 155.593 55.5683C155.631 55.6822 155.669 55.7962 155.707 55.9101C155.783 55.9861 155.84 56.081 155.878 56.195C156.106 56.6127 156.22 56.8596 156.22 56.9356C156.486 57.2394 156.619 57.4483 156.619 57.5623C156.656 57.6762 156.713 57.7712 156.789 57.8471C156.865 57.999 156.979 58.1889 157.131 58.4168C157.397 58.8726 157.587 59.1385 157.701 59.2144C157.853 59.2904 157.967 59.4043 158.043 59.5562C158.195 59.9361 158.29 60.2209 158.328 60.4108C158.366 60.6007 158.423 60.7716 158.499 60.9236C158.347 61.3413 158.271 61.5692 158.271 61.6072L157.758 62.006C157.492 62.3099 157.321 62.4618 157.245 62.4618C157.169 62.4618 157.093 62.4808 157.017 62.5187C156.41 62.6707 155.897 62.8986 155.479 63.2024C155.099 63.2784 154.871 63.3353 154.795 63.3733C154.757 63.3733 154.719 63.4113 154.681 63.4873C154.53 63.4873 154.397 63.5062 154.283 63.5442C154.169 63.5822 154.055 63.6202 153.941 63.6582C153.865 63.6962 153.77 63.7151 153.656 63.7151C153.58 63.7151 153.466 63.7341 153.314 63.7721C153.2 63.8101 153.067 63.8671 152.915 63.943C152.801 64.019 152.669 64.095 152.517 64.1709C152.441 64.2089 152.346 64.2469 152.232 64.2849C152.118 64.3608 152.023 64.4178 151.947 64.4558C151.757 64.4938 151.548 64.5127 151.32 64.5127C151.092 64.5507 150.864 64.5887 150.637 64.6267C150.447 64.6647 150.276 64.6837 150.124 64.6837C149.972 64.6837 149.801 64.7026 149.611 64.7406C149.345 64.7406 149.155 64.7216 149.041 64.6837C148.927 64.6837 148.794 64.6647 148.643 64.6267C148.491 64.5507 148.358 64.5127 148.244 64.5127C148.13 64.5507 148.035 64.5507 147.959 64.5127C147.541 63.943 147.256 63.5632 147.104 63.3733C146.99 63.1454 146.914 62.8226 146.876 62.4048L146.592 61.7212C146.554 61.5692 146.535 61.3603 146.535 61.0945C146.345 60.6767 146.25 60.4108 146.25 60.2969C146.136 60.069 146.079 59.8221 146.079 59.5562C146.079 59.2904 146.041 59.0435 145.965 58.8156C145.889 58.6257 145.832 58.4168 145.794 58.1889C145.794 57.9611 145.756 57.7142 145.68 57.4483C145.642 57.2964 145.604 57.1445 145.566 56.9925C145.528 56.8026 145.49 56.6127 145.452 56.4228C145.338 55.9671 145.281 55.7392 145.281 55.7392C145.129 55.3594 145.015 55.0555 144.939 54.8276ZM137.419 34.8877C137.001 35.1536 136.755 35.4764 136.679 35.8562C136.641 36.1981 136.546 36.4829 136.394 36.7108C136.204 37.1666 136.071 37.5084 135.995 37.7363C135.919 37.8123 135.881 37.9072 135.881 38.0212C135.881 38.1351 135.862 38.249 135.824 38.363C135.634 38.7808 135.52 39.0656 135.482 39.2175C135.482 39.3315 135.444 39.4834 135.368 39.6733C135.254 39.7493 135.178 39.8822 135.14 40.0721C135.102 40.224 135.026 40.357 134.913 40.4709C134.837 41.0026 134.723 41.4584 134.571 41.8382C134.381 42.332 134.267 42.6358 134.229 42.7498C134.229 42.8257 134.229 42.9397 134.229 43.0916C134.039 43.4714 133.944 43.6993 133.944 43.7752C133.944 43.8132 133.906 43.8702 133.83 43.9462C133.716 44.212 133.621 44.4019 133.545 44.5159C133.507 44.6298 133.469 44.7248 133.431 44.8007C133.317 45.2185 133.241 45.5034 133.203 45.6553C133.165 45.8072 133.127 45.9401 133.089 46.0541C133.013 46.5858 132.956 46.8897 132.919 46.9656C132.919 47.0416 132.881 47.1365 132.805 47.2505C132.729 47.4404 132.672 47.6113 132.634 47.7632C132.634 47.8772 132.596 48.0101 132.52 48.162C132.444 48.5418 132.387 48.8077 132.349 48.9596C132.273 49.2255 132.216 49.3964 132.178 49.4724C132.14 49.5483 132.102 49.6243 132.064 49.7002C131.912 50.08 131.836 50.3079 131.836 50.3839C131.798 50.5738 131.741 50.7447 131.665 50.8966C131.627 51.0106 131.589 51.1245 131.551 51.2385C131.703 51.3144 131.836 51.3524 131.95 51.3524C132.064 51.3144 132.216 51.2764 132.406 51.2385C132.71 51.3904 133.051 51.4284 133.431 51.3524C133.849 51.2385 134.153 51.2385 134.343 51.3524C134.419 51.2764 134.514 51.2385 134.628 51.2385C134.78 51.2385 134.913 51.2385 135.026 51.2385C135.14 51.2005 135.349 51.1815 135.653 51.1815C135.767 51.1815 135.881 51.2005 135.995 51.2385C136.147 51.2385 136.299 51.2385 136.451 51.2385H137.761C138.065 51.2005 138.236 51.2005 138.274 51.2385C138.312 51.2385 138.369 51.2385 138.445 51.2385C138.521 51.2764 138.616 51.2954 138.73 51.2954C138.844 51.2575 138.957 51.2385 139.071 51.2385H140.496H141.35C141.54 51.2385 141.711 51.2195 141.863 51.1815C142.053 51.1435 142.205 51.1625 142.319 51.2385C142.433 51.2005 142.68 51.1815 143.059 51.1815C143.249 50.6877 143.344 50.4409 143.344 50.4409C143.192 50.099 143.078 49.8142 143.002 49.5863C142.964 49.3584 142.888 49.1305 142.775 48.9026C142.775 48.7127 142.737 48.5228 142.661 48.3329C142.623 48.143 142.585 47.9531 142.547 47.7632C142.433 47.3075 142.357 47.0036 142.319 46.8517C142.281 46.6618 142.224 46.4909 142.148 46.3389C141.996 46.0351 141.92 45.8452 141.92 45.7692C141.92 45.6553 141.901 45.5603 141.863 45.4844C141.673 45.1046 141.578 44.8387 141.578 44.6868C141.502 44.5349 141.426 44.307 141.35 44.0031C141.16 43.6233 141.065 43.3764 141.065 43.2625C141.065 43.1106 141.046 42.9966 141.008 42.9207C140.856 42.4649 140.762 42.18 140.724 42.0661C140.724 41.9522 140.705 41.8572 140.667 41.7812C140.629 41.6673 140.591 41.5724 140.553 41.4964C140.553 41.3825 140.534 41.2685 140.496 41.1546C140.306 40.8507 140.192 40.6228 140.154 40.4709C140.116 40.319 140.059 40.1861 139.983 40.0721C139.907 39.8822 139.85 39.6923 139.812 39.5024C139.774 39.3125 139.717 39.1606 139.641 39.0466L139.356 38.306C139.128 37.7743 138.957 37.4325 138.844 37.2805C138.73 37.1286 138.673 36.9577 138.673 36.7678C138.483 36.5399 138.388 36.35 138.388 36.1981C138.274 36.0082 138.217 35.8752 138.217 35.7993C138.217 35.6853 138.179 35.5904 138.103 35.5144C137.913 35.0966 137.685 34.8877 137.419 34.8877ZM160.663 22.0692C161.081 21.9173 161.404 21.8413 161.632 21.8413C161.708 21.8413 161.822 21.8224 161.974 21.7844C162.164 21.7464 162.316 21.7084 162.43 21.6704C162.695 21.5945 162.904 21.6325 163.056 21.7844C163.284 21.7084 163.493 21.6704 163.683 21.6704C164.063 21.7084 164.31 21.7274 164.424 21.7274C164.537 21.6894 164.632 21.6704 164.708 21.6704C165.012 21.6704 165.297 21.6894 165.563 21.7274C165.867 21.7274 166.171 21.6894 166.475 21.6135C166.588 21.7274 166.721 21.7654 166.873 21.7274C167.025 21.6894 167.196 21.6704 167.386 21.6704C167.766 21.6704 167.994 21.6704 168.07 21.6704C168.184 21.6325 168.279 21.6135 168.355 21.6135C168.658 21.6894 168.848 21.7274 168.924 21.7274C169 21.6894 169.076 21.6704 169.152 21.6704C169.418 21.6325 169.646 21.6704 169.836 21.7844C170.064 21.8603 170.292 21.9173 170.519 21.9553C170.747 22.1452 170.899 22.2971 170.975 22.4111C171.241 22.7149 171.374 22.9428 171.374 23.0947C171.374 23.2087 171.412 23.3036 171.488 23.3796C171.45 23.5315 171.469 23.6834 171.545 23.8353C171.621 23.9493 171.64 24.1012 171.602 24.2911C171.564 24.6329 171.545 24.8608 171.545 24.9748C171.583 25.0507 171.602 25.1267 171.602 25.2026C171.602 25.3925 171.583 25.6014 171.545 25.8293C171.507 26.0192 171.526 26.2281 171.602 26.456C171.564 26.9118 171.488 27.4055 171.374 27.9373C171.298 28.431 171.317 28.8488 171.431 29.1906C171.279 29.4565 171.222 29.6084 171.26 29.6464C171.298 29.6844 171.336 29.7413 171.374 29.8173C171.298 29.9692 171.26 30.1212 171.26 30.2731C171.298 30.425 171.336 30.5959 171.374 30.7858C171.298 30.9377 171.241 31.1087 171.203 31.2986C171.203 31.4885 171.203 31.6784 171.203 31.8683C171.241 32.1341 171.222 32.381 171.146 32.6089C171.07 32.7988 171.051 33.0267 171.089 33.2925C171.051 33.9382 171.032 34.5839 171.032 35.2296C171.032 35.8373 171.013 36.407 170.975 36.9387C170.975 37.2425 170.937 37.5464 170.861 37.8502C170.823 38.23 170.823 38.5909 170.861 38.9327C170.899 39.2365 170.918 39.5214 170.918 39.7873V40.5279C170.918 40.6798 170.899 40.8317 170.861 40.9837C170.861 41.1356 170.861 41.2685 170.861 41.3825C170.899 41.8002 170.918 42.199 170.918 42.5788C170.918 42.9587 170.956 43.3385 171.032 43.7183L171.089 44.4589C171.051 44.5728 171.032 44.7058 171.032 44.8577C171.07 44.9716 171.089 45.0856 171.089 45.1995C171.089 45.5034 171.089 45.6743 171.089 45.7123C171.127 45.7502 171.146 45.8072 171.146 45.8832C171.146 45.9971 171.127 46.1111 171.089 46.225C171.089 46.3389 171.089 46.4529 171.089 46.5668C171.127 47.0606 171.203 47.3644 171.317 47.4784C171.355 47.7822 171.355 48.0671 171.317 48.3329C171.317 48.5988 171.336 48.8647 171.374 49.1305C171.488 49.5483 171.526 49.8142 171.488 49.9281C171.488 50.0041 171.488 50.099 171.488 50.213C171.45 50.7067 171.469 51.1435 171.545 51.5233C171.621 51.9031 171.659 52.207 171.659 52.4349V53.1185L171.602 53.8591C171.678 54.2389 171.83 54.4478 172.058 54.4858C172.324 54.5238 172.513 54.5238 172.627 54.4858L173.482 54.7137C173.672 54.7517 173.824 54.7897 173.938 54.8276C174.09 54.8276 174.261 54.8466 174.45 54.8846C174.716 54.8087 174.906 54.7897 175.02 54.8276C175.134 54.8276 175.191 54.7707 175.191 54.6567C175.381 54.7707 175.666 54.8276 176.046 54.8276C176.425 54.7897 176.767 54.7897 177.071 54.8276C177.413 54.8276 177.641 54.8276 177.755 54.8276C177.907 54.8276 178.021 54.7897 178.097 54.7137C178.4 54.7517 178.761 54.7707 179.179 54.7707C179.635 54.7707 179.977 54.7327 180.205 54.6567C180.432 54.7327 180.717 54.7707 181.059 54.7707C181.439 54.7327 181.762 54.6947 182.028 54.6567C182.256 54.6187 182.445 54.6187 182.597 54.6567C182.749 54.6947 182.844 54.6947 182.882 54.6567C183.262 54.5428 183.585 54.5048 183.851 54.5428C184.155 54.6947 184.325 54.7517 184.363 54.7137C184.439 54.6377 184.515 54.6377 184.591 54.7137C184.743 54.8276 184.838 54.9416 184.876 55.0555C184.914 55.1695 184.971 55.2644 185.047 55.3404C185.009 55.5683 185.028 55.7582 185.104 55.9101C185.18 56.062 185.18 56.2329 185.104 56.4228C184.99 56.8026 184.895 57.0115 184.819 57.0495C184.781 57.0875 184.743 57.1445 184.705 57.2204C184.591 57.5243 184.534 57.7142 184.534 57.7901C184.572 57.8661 184.553 57.9611 184.477 58.075C184.287 58.4928 184.174 58.7397 184.136 58.8156C184.098 58.8536 184.06 58.9106 184.022 58.9865C183.832 59.4043 183.737 59.6702 183.737 59.7841C183.585 60.05 183.509 60.2589 183.509 60.4108C183.205 60.7906 183.053 61.0185 183.053 61.0945C183.053 61.1704 183.034 61.2464 182.996 61.3224C182.958 61.4743 182.92 61.6072 182.882 61.7212C182.844 61.7971 182.787 61.8921 182.711 62.006C182.559 62.2339 182.464 62.3858 182.426 62.4618C182.426 62.5377 182.407 62.6137 182.369 62.6897C182.18 62.9555 182.085 63.1454 182.085 63.2594C181.895 63.5632 181.762 63.7531 181.686 63.8291C181.534 64.095 181.42 64.2089 181.344 64.1709C181.268 64.1709 181.23 64.2089 181.23 64.2849C180.926 64.4368 180.736 64.4938 180.66 64.4558C180.584 64.4178 180.508 64.3988 180.432 64.3988C180.281 64.4748 180.034 64.4748 179.692 64.3988C179.502 64.3988 179.331 64.4178 179.179 64.4558C179.027 64.4938 178.856 64.4748 178.666 64.3988C178.476 64.3228 178.344 64.2849 178.268 64.2849C178.192 64.3228 178.116 64.3418 178.04 64.3418C177.85 64.3418 177.679 64.3418 177.527 64.3418C177.375 64.3798 177.204 64.3608 177.014 64.2849C176.9 64.3608 176.786 64.3798 176.672 64.3418C176.558 64.3418 176.425 64.3418 176.274 64.3418H175.305C174.925 64.2659 174.659 64.2089 174.507 64.1709C174.052 64.2469 173.786 64.2469 173.71 64.1709C173.216 64.095 172.817 64.095 172.513 64.1709C172.286 64.2469 172.115 64.2659 172.001 64.2279C171.925 64.1899 171.849 64.1709 171.773 64.1709C171.583 64.2089 171.45 64.2279 171.374 64.2279C171.298 64.2659 171.203 64.2849 171.089 64.2849C170.747 64.2469 170.538 64.2279 170.462 64.2279C170.387 64.2279 170.349 64.2089 170.349 64.1709C170.083 64.1329 169.798 64.1139 169.494 64.1139C169.228 64.1139 168.924 64.1139 168.582 64.1139C168.469 64.076 168.355 64.057 168.241 64.057C168.127 64.057 168.013 64.019 167.899 63.943C167.519 63.7531 167.291 63.6582 167.215 63.6582C167.139 63.6202 167.063 63.6012 166.987 63.6012C166.873 63.5252 166.759 63.4303 166.645 63.3163C166.531 63.2024 166.38 63.0885 166.19 62.9745C166 62.7846 165.867 62.6137 165.791 62.4618C165.487 62.12 165.316 61.949 165.278 61.949C165.24 61.9111 165.221 61.8541 165.221 61.7781C165.107 61.6642 164.974 61.5692 164.822 61.4933C164.708 61.3793 164.613 61.2274 164.537 61.0375C164.386 60.9615 164.272 60.8666 164.196 60.7526C164.12 60.6007 164.025 60.4298 163.911 60.2399C163.531 59.9361 163.36 59.7841 163.398 59.7841C163.284 59.5562 163.189 59.4233 163.113 59.3853C163.075 59.3094 163.018 59.2334 162.942 59.1575C162.562 58.7017 162.316 58.3599 162.202 58.132C162.126 57.8661 161.974 57.6952 161.746 57.6192C161.746 57.4293 161.689 57.3154 161.575 57.2774C161.499 57.2014 161.423 57.1255 161.347 57.0495C161.195 56.7077 161.1 56.5368 161.062 56.5368C161.024 56.4988 161.005 56.4418 161.005 56.3659C161.005 56.024 161.024 55.8151 161.062 55.7392C161.1 55.6632 161.119 55.5683 161.119 55.4543C160.967 54.8846 160.91 54.4099 160.948 54.03C160.834 53.8781 160.796 53.7262 160.834 53.5743C160.91 53.4224 160.872 53.3084 160.72 53.2325C160.758 52.7007 160.777 52.207 160.777 51.7512C160.739 51.4094 160.72 51.1815 160.72 51.0675C160.72 50.9536 160.72 50.8587 160.72 50.7827C160.758 50.6687 160.777 50.5548 160.777 50.4409C160.777 50.213 160.777 49.9851 160.777 49.7572C160.777 49.4913 160.796 49.2255 160.834 48.9596C160.872 48.8457 160.91 48.7317 160.948 48.6178C160.986 48.5038 161.005 48.4089 161.005 48.3329C161.005 47.9531 161.005 47.7442 161.005 47.7062C161.043 47.6303 161.062 47.5733 161.062 47.5353C160.986 47.3834 160.929 47.2505 160.891 47.1365C160.891 47.0226 160.891 46.9276 160.891 46.8517C160.891 46.7377 160.91 46.6238 160.948 46.5099C160.986 46.3959 161.005 46.282 161.005 46.168L160.834 45.5413V44.9147C160.872 44.6108 160.872 44.269 160.834 43.8892C160.834 43.4714 160.853 43.0916 160.891 42.7498C161.043 42.18 161.1 41.7812 161.062 41.5534C161.024 41.3255 160.967 41.0596 160.891 40.7558C161.005 40.338 161.043 40.0721 161.005 39.9582C160.967 39.8442 160.948 39.7303 160.948 39.6163C160.986 39.2365 160.986 39.0276 160.948 38.9897C160.948 38.9137 160.948 38.8377 160.948 38.7618C160.948 38.5339 160.929 38.382 160.891 38.306C160.853 38.1921 160.834 38.0781 160.834 37.9642C160.91 37.6224 160.948 37.4325 160.948 37.3945C160.986 37.3185 161.005 37.2425 161.005 37.1666L160.948 36.4829L160.891 35.6284C160.853 35.2865 160.834 34.9827 160.834 34.7168C160.758 33.9952 160.758 33.4635 160.834 33.1216C160.91 32.7798 160.853 32.495 160.663 32.2671C160.739 31.9252 160.777 31.6784 160.777 31.5264C160.777 31.3745 160.796 31.2036 160.834 31.0137C160.872 30.5579 160.872 30.3111 160.834 30.2731C160.834 30.2351 160.834 30.1781 160.834 30.1022C160.91 29.6464 160.91 29.3046 160.834 29.0767C160.796 28.8108 160.777 28.545 160.777 28.2791C160.739 27.8993 160.72 27.6904 160.72 27.6524C160.758 27.5764 160.777 27.5005 160.777 27.4245C160.739 27.3106 160.72 27.1776 160.72 27.0257C160.758 26.8358 160.777 26.6459 160.777 26.456C160.777 26.2281 160.739 25.9623 160.663 25.6584C160.701 25.3166 160.682 25.0317 160.606 24.8038C160.569 24.538 160.55 24.2721 160.55 24.0062C160.512 23.7404 160.512 23.5505 160.55 23.4365C160.587 23.3226 160.606 23.1897 160.606 23.0377C160.569 22.8099 160.587 22.6389 160.663 22.525C160.739 22.3731 160.739 22.2212 160.663 22.0692Z" fill="#FEF0C7"/>
</g>
<defs>
<filter id="filter0_d_53_181" x="0.5" y="0" width="234.5" height="94" filterUnits="userSpaceOnUse" color-interpolation-filters="sRGB">
<feFlood flood-opacity="0" result="BackgroundImageFix"/>
<feColorMatrix in="SourceAlpha" type="matrix" values="0 0 0 0 0 0 0 0 0 0 0 0 0 0 0 0 0 0 127 0" result="hardAlpha"/>
<feOffset dy="4"/>
<feGaussianBlur stdDeviation="2"/>
<feComposite in2="hardAlpha" operator="out"/>
<feColorMatrix type="matrix" values="0 0 0 0 0 0 0 0 0 0 0 0 0 0 0 0 0 0 0.25 0"/>
<feBlend mode="normal" in2="BackgroundImageFix" result="effect1_dropShadow_53_181"/>
<feBlend mode="normal" in="SourceGraphic" in2="effect1_dropShadow_53_181" result="shape"/>
</filter>
<filter id="filter1_d_53_181" x="51.9055" y="20.9868" width="133.312" height="46.5265" filterUnits="userSpaceOnUse" color-interpolation-filters="sRGB">
<feFlood flood-opacity="0" result="BackgroundImageFix"/>
<feColorMatrix in="SourceAlpha" type="matrix" values="0 0 0 0 0 0 0 0 0 0 0 0 0 0 0 0 0 0 127 0" result="hardAlpha"/>
<feOffset dy="2.43077"/>
<feComposite in2="hardAlpha" operator="out"/>
<feColorMatrix type="matrix" values="0 0 0 0 0 0 0 0 0 0 0 0 0 0 0 0 0 0 0.25 0"/>
<feBlend mode="normal" in2="BackgroundImageFix" result="effect1_dropShadow_53_181"/>
<feBlend mode="normal" in="SourceGraphic" in2="effect1_dropShadow_53_181" result="shape"/>
</filter>
<linearGradient id="paint0_linear_53_181" x1="117.5" y1="0" x2="117.5" y2="86" gradientUnits="userSpaceOnUse">
<stop stop-color="#F4725D"/>
<stop offset="1" stop-color="#EE5142"/>
</linearGradient>
</defs>
</svg>
