<svg width="121" height="187" viewBox="0 0 121 187" fill="none" xmlns="http://www.w3.org/2000/svg">
<g filter="url(#filter0_d_59_6789)">
<path d="M110.618 0.896729H11.4045C5.81827 0.896729 1.28967 5.40985 1.28967 10.977V172.261C1.28967 177.828 5.81827 182.342 11.4045 182.342H110.618C116.204 182.342 120.733 177.828 120.733 172.261V10.977C120.733 5.40985 116.204 0.896729 110.618 0.896729Z" fill="white"/>
<path d="M16.5062 37.7701C16.5062 37.7701 16.77 37.7408 16.8873 37.6532C17.7669 37.0688 20.0243 34.673 20.6987 34.0302C20.8159 33.9133 20.9333 33.738 20.9333 33.5627C20.9333 33.4166 20.8159 33.2997 20.6987 33.212C19.7018 32.2186 18.6758 31.3128 17.7376 30.261C17.3271 29.8227 16.8579 29.2968 16.5648 29.2676H16.4182C16.125 29.2676 15.6559 29.7935 15.2455 30.261C14.3073 31.2836 13.2811 32.2186 12.2843 33.212C12.167 33.3289 12.0791 33.4166 12.0498 33.5627C12.0498 33.738 12.167 33.9133 12.2843 34.0302C12.9293 34.7022 15.2162 37.0688 16.0957 37.6532C16.213 37.7408 16.3595 37.7701 16.4768 37.7701H16.5062Z" fill="#D6002B"/>
<path d="M105.546 153.27C105.546 153.27 105.81 153.24 105.927 153.153C106.806 152.568 109.064 150.173 109.738 149.53C109.855 149.413 109.973 149.238 109.973 149.062C109.973 148.916 109.855 148.799 109.738 148.712C108.741 147.718 107.715 146.812 106.777 145.761C106.367 145.322 105.898 144.796 105.604 144.796H105.458C105.165 144.796 104.695 145.322 104.285 145.761C103.347 146.812 102.321 147.718 101.324 148.712C101.236 148.828 101.119 148.916 101.089 149.062C101.089 149.238 101.207 149.384 101.324 149.53C101.969 150.202 104.256 152.598 105.135 153.153C105.253 153.24 105.399 153.27 105.516 153.27H105.546Z" fill="#D6002B"/>
<path d="M10.6424 23.1316L12.3429 22.5181C13.0465 24.0666 14.2193 24.8556 15.8611 24.8556C17.5029 24.8556 18.6756 24.1835 19.4965 22.8395C20.3175 21.4955 20.728 19.6839 20.7573 17.3756C19.6432 19.3917 18.0013 20.4144 15.7732 20.4144C14.2193 20.4144 12.9 19.8884 11.8445 18.8365C10.789 17.7555 10.2613 16.4699 10.2613 14.8922C10.2613 13.3144 10.8184 11.9411 11.9325 10.8015C13.0466 9.66204 14.4831 9.10693 16.2129 9.10693C18.3238 9.10693 19.9657 9.83742 21.0798 11.3275C22.1939 12.8177 22.7803 14.8629 22.7803 17.4341C22.7803 20.1514 22.1939 22.372 20.9918 24.0666C19.7898 25.7613 18.0893 26.6086 15.8905 26.6086C13.3104 26.6086 11.5806 25.4691 10.701 23.2193L10.6424 23.1316ZM16.2423 18.6905C17.415 18.6905 18.3825 18.2814 19.1741 17.4633C19.9657 16.6452 20.3468 15.7103 20.3468 14.6292C20.3468 13.5481 19.9657 12.6715 19.2327 11.9119C18.4997 11.1522 17.5029 10.7724 16.3009 10.7724C15.0988 10.7724 14.102 11.1522 13.369 11.9411C12.6654 12.73 12.2843 13.665 12.2843 14.7753C12.2843 15.9732 12.6654 16.9374 13.4863 17.6094C14.2779 18.3107 15.1868 18.6612 16.2423 18.6612V18.6905Z" fill="#D6002B"/>
<path d="M110.882 160.107L109.181 160.72C108.478 159.172 107.305 158.383 105.663 158.383C104.021 158.383 102.848 159.055 102.028 160.399C101.207 161.743 100.796 163.584 100.767 165.892C101.881 163.876 103.523 162.853 105.751 162.853C107.305 162.853 108.624 163.379 109.68 164.46C110.735 165.512 111.263 166.827 111.263 168.405C111.263 169.982 110.706 171.356 109.592 172.495C108.478 173.635 107.041 174.19 105.34 174.19C103.23 174.19 101.617 173.459 100.474 171.969C99.3596 170.479 98.7732 168.463 98.7732 165.863C98.7732 163.262 99.3596 160.925 100.562 159.259C101.764 157.565 103.464 156.717 105.663 156.717C108.243 156.717 109.973 157.857 110.852 160.107H110.882ZM105.282 164.548C104.109 164.548 103.142 164.957 102.35 165.775C101.558 166.593 101.177 167.528 101.177 168.609C101.177 169.69 101.558 170.567 102.291 171.326C103.024 172.086 104.021 172.466 105.223 172.466C106.425 172.466 107.422 172.086 108.155 171.297C108.859 170.508 109.24 169.573 109.24 168.463C109.24 167.265 108.829 166.33 108.038 165.629C107.246 164.928 106.337 164.577 105.282 164.577V164.548Z" fill="#D6002B"/>
<path d="M42.3647 39.2307C42.8338 39.2307 43.2735 39.1138 43.6547 38.8509C46.5572 36.9517 54.004 29.092 56.1736 26.9006C56.584 26.4916 56.9945 25.9657 56.9359 25.3813C56.8772 24.9138 56.5254 24.534 56.2029 24.2126C52.9486 20.9694 49.5183 17.9306 46.4692 14.5413C45.1499 13.0804 43.596 11.3858 42.6285 11.3274H42.1301C41.1626 11.3858 39.5794 13.0804 38.2601 14.5413C35.211 17.9598 31.7808 20.9986 28.5264 24.2126C28.2039 24.534 27.8521 24.9138 27.7935 25.3813C27.7348 25.9657 28.1453 26.4624 28.5558 26.9006C30.7253 29.092 38.1721 36.9517 41.0747 38.8509C41.4558 39.1138 41.8956 39.2307 42.3647 39.2307V39.2307Z" fill="#D6002B"/>
<path d="M79.6866 39.2307C80.1557 39.2307 80.5955 39.1138 80.9766 38.8509C83.8791 36.9517 91.326 29.092 93.4956 26.9006C93.906 26.4916 94.3164 25.9657 94.2578 25.3813C94.1992 24.9138 93.8473 24.534 93.5248 24.2126C90.2705 20.9694 86.8403 17.9306 83.7912 14.5413C82.4719 13.0804 80.918 11.3858 79.9212 11.3274H79.4227C78.4552 11.3858 76.8721 13.0804 75.5528 14.5413C72.5037 17.9598 69.0734 20.9986 65.8191 24.2126C65.4966 24.534 65.1448 24.9138 65.0861 25.3813C65.0275 25.9657 65.4379 26.4624 65.8483 26.9006C68.0179 29.092 75.4648 36.9517 78.3673 38.8509C78.7485 39.1138 79.1882 39.2307 79.6573 39.2307H79.6866Z" fill="#D6002B"/>
<path d="M42.3647 75.491C42.8338 75.491 43.2735 75.3741 43.6547 75.1111C46.5572 73.1827 54.004 65.3523 56.1736 63.1609C56.584 62.7518 56.9945 62.2259 56.9359 61.6416C56.8772 61.1741 56.5254 60.7942 56.2029 60.4728C52.9486 57.2296 49.5183 54.1909 46.4692 50.8016C45.1499 49.3407 43.596 47.6461 42.6285 47.5876H42.1301C41.1626 47.6461 39.5794 49.3407 38.2601 50.8016C35.211 54.2201 31.7808 57.2588 28.5264 60.4728C28.2039 60.7942 27.8521 61.1741 27.7935 61.6416C27.7348 62.2259 28.1453 62.7518 28.5558 63.1609C30.7253 65.3523 38.1721 73.1827 41.0747 75.1111C41.4558 75.3741 41.8956 75.491 42.3647 75.491V75.491Z" fill="#D6002B"/>
<path d="M79.6866 75.491C80.1557 75.491 80.5955 75.3741 80.9766 75.1111C83.8791 73.1827 91.326 65.3523 93.4956 63.1609C93.906 62.7518 94.3164 62.2259 94.2578 61.6416C94.1992 61.1741 93.8473 60.7942 93.5248 60.4728C90.2705 57.2296 86.8403 54.1909 83.7912 50.8016C82.4719 49.3407 80.918 47.6461 79.9212 47.5876H79.4227C78.4552 47.6461 76.8721 49.3407 75.5528 50.8016C72.5037 54.2201 69.0734 57.2588 65.8191 60.4728C65.4966 60.7942 65.1448 61.1741 65.0861 61.6416C65.0275 62.2259 65.4379 62.7518 65.8483 63.1609C68.0179 65.3523 75.4648 73.1827 78.3673 75.1111C78.7485 75.3741 79.1882 75.491 79.6573 75.491H79.6866Z" fill="#D6002B"/>
<path d="M61.0111 105.585C61.4802 105.585 61.92 105.468 62.3011 105.205C65.2036 103.277 72.6506 95.4465 74.8201 93.2551C75.2306 92.8461 75.641 92.3202 75.5823 91.7358C75.5237 91.2683 75.1719 90.8885 74.8494 90.5671C71.595 87.3531 68.1648 84.2852 65.1157 80.8959C63.7963 79.435 62.2425 77.7403 61.2457 77.6819H60.7473C59.7798 77.7403 58.1965 79.435 56.8772 80.8959C53.8281 84.3144 50.3979 87.3531 47.1436 90.5671C46.8211 90.9177 46.4693 91.2683 46.4106 91.7358C46.352 92.3202 46.7624 92.8461 47.1729 93.2551C49.3424 95.4465 56.7893 103.306 59.6918 105.205C60.073 105.468 60.5128 105.585 60.9819 105.585H61.0111Z" fill="#D6002B"/>
<path d="M79.6575 144.037C79.2177 144.037 78.7486 144.154 78.3675 144.417C75.465 146.345 68.0181 154.176 65.8485 156.367C65.4381 156.776 65.0277 157.302 65.0863 157.886C65.1449 158.354 65.4968 158.734 65.8193 159.055C69.0736 162.298 72.5039 165.337 75.553 168.726C76.8723 170.187 78.4261 171.882 79.4229 171.94H79.9214C80.8889 171.882 82.4721 170.187 83.7914 168.726C86.8405 165.337 90.2707 162.269 93.525 159.055C93.8475 158.734 94.1993 158.354 94.258 157.886C94.3166 157.302 93.9062 156.805 93.4958 156.367C91.3262 154.176 83.8793 146.316 80.9768 144.417C80.5957 144.154 80.1559 144.037 79.6868 144.037H79.6575Z" fill="#D6002B"/>
<path d="M42.3352 144.037C41.8661 144.037 41.4263 144.154 41.0452 144.417C38.1427 146.345 30.6958 154.176 28.5263 156.367C28.1158 156.776 27.7053 157.302 27.764 157.886C27.8226 158.354 28.1744 158.734 28.4969 159.055C31.7513 162.298 35.1815 165.337 38.2306 168.726C39.55 170.187 41.1039 171.882 42.1007 171.94H42.599C43.5666 171.882 45.1497 170.187 46.4397 168.726C49.4888 165.337 52.9191 162.269 56.1734 159.055C56.4959 158.734 56.8478 158.354 56.9064 157.886C56.965 157.302 56.5546 156.805 56.1441 156.367C53.9745 154.176 46.5277 146.316 43.6252 144.417C43.2441 144.154 42.8043 144.037 42.3352 144.037V144.037Z" fill="#D6002B"/>
<path d="M79.6575 107.748C79.2177 107.748 78.7486 107.864 78.3675 108.127C75.465 110.056 68.0181 117.886 65.8485 120.078C65.4381 120.487 65.0277 121.013 65.0863 121.597C65.1449 122.064 65.4968 122.444 65.8193 122.766C69.0736 126.009 72.5039 129.048 75.553 132.466C76.8723 133.927 78.4261 135.622 79.4229 135.68H79.9214C80.8889 135.622 82.4721 133.927 83.7914 132.466C86.8405 129.048 90.2707 126.009 93.525 122.766C93.8475 122.444 94.1993 122.064 94.258 121.597C94.3166 121.013 93.9062 120.516 93.4958 120.078C91.3262 117.886 83.8793 110.027 80.9768 108.127C80.5957 107.864 80.1559 107.748 79.6868 107.748H79.6575Z" fill="#D6002B"/>
<path d="M42.3352 107.748C41.8661 107.748 41.4263 107.864 41.0452 108.127C38.1427 110.056 30.6958 117.886 28.5263 120.078C28.1158 120.487 27.7053 121.013 27.764 121.597C27.8226 122.064 28.1744 122.444 28.4969 122.766C31.7513 126.009 35.1815 129.048 38.2306 132.466C39.55 133.927 41.1039 135.622 42.1007 135.68H42.599C43.5666 135.622 45.1497 133.927 46.4397 132.466C49.4888 129.048 52.9191 126.009 56.1734 122.766C56.4959 122.444 56.8478 122.064 56.9064 121.597C56.965 121.013 56.5546 120.516 56.1441 120.078C53.9745 117.886 46.5277 110.027 43.6252 108.127C43.2441 107.864 42.8043 107.748 42.3352 107.748V107.748Z" fill="#D6002B"/>
</g>
<defs>
<filter id="filter0_d_59_6789" x="1.28967" y="0.896729" width="119.443" height="185.445" filterUnits="userSpaceOnUse" color-interpolation-filters="sRGB">
<feFlood flood-opacity="0" result="BackgroundImageFix"/>
<feColorMatrix in="SourceAlpha" type="matrix" values="0 0 0 0 0 0 0 0 0 0 0 0 0 0 0 0 0 0 127 0" result="hardAlpha"/>
<feOffset dy="4"/>
<feComposite in2="hardAlpha" operator="out"/>
<feColorMatrix type="matrix" values="0 0 0 0 0 0 0 0 0 0 0 0 0 0 0 0 0 0 0.25 0"/>
<feBlend mode="normal" in2="BackgroundImageFix" result="effect1_dropShadow_59_6789"/>
<feBlend mode="normal" in="SourceGraphic" in2="effect1_dropShadow_59_6789" result="shape"/>
</filter>
</defs>
</svg>
