<svg width="121" height="186" viewBox="0 0 121 186" fill="none" xmlns="http://www.w3.org/2000/svg">
<g filter="url(#filter0_d_59_6217)">
<path d="M11.2694 0.33374H110.512C116.083 0.33374 120.627 4.86332 120.627 10.4157V171.726C120.627 177.278 116.083 181.808 110.512 181.808H11.2694C5.69894 181.808 1.1546 177.278 1.1546 171.726V10.4157C1.1546 4.86332 5.69894 0.33374 11.2694 0.33374Z" fill="white"/>
<path d="M17.7486 37.2131C18.247 36.7747 18.7747 36.424 19.3025 36.0441C19.8888 35.6058 20.5046 35.2259 20.9736 34.6999C21.3548 34.2616 21.5307 33.794 21.7359 33.2388C21.9118 32.6835 21.9411 31.4854 21.648 30.9594C20.7391 29.4982 18.2177 28.2416 16.5466 31.4269C16.5466 31.4854 16.4879 31.5146 16.4293 31.5146C16.4293 31.5146 16.3414 31.5146 16.312 31.4269C14.6409 28.2416 12.1195 29.4982 11.2106 30.9594C10.8881 31.4562 10.9174 32.6543 11.1227 33.2388C11.2986 33.794 11.5038 34.2323 11.8849 34.6999C12.354 35.2551 12.9697 35.635 13.5561 36.0441C14.0838 36.424 14.6409 36.7747 15.11 37.2131C15.3445 37.4469 16.4586 38.6158 16.4586 38.6158C16.4586 38.6158 17.5434 37.4469 17.8073 37.2131H17.7486Z" fill="#D6002B"/>
<path d="M104.15 145.162C103.651 145.6 103.124 145.951 102.596 146.331C102.01 146.769 101.394 147.149 100.925 147.675C100.544 148.113 100.368 148.581 100.162 149.136C99.9865 149.691 99.9572 150.919 100.25 151.415C101.159 152.877 103.681 154.133 105.352 150.948C105.352 150.889 105.41 150.86 105.469 150.86C105.469 150.86 105.557 150.86 105.586 150.948C107.257 154.133 109.779 152.877 110.688 151.415C111.01 150.919 110.981 149.72 110.776 149.136C110.6 148.581 110.395 148.142 110.013 147.675C109.544 147.12 108.929 146.74 108.342 146.331C107.815 145.951 107.257 145.6 106.788 145.162C106.554 144.928 105.44 143.759 105.44 143.759C105.44 143.759 104.355 144.928 104.091 145.162H104.15Z" fill="#D6002B"/>
<path d="M22.0589 12.2568L20.1532 12.7828C19.5082 11.0879 18.3061 10.2112 16.6057 10.2112C13.4393 10.2112 11.8268 12.812 11.7682 18.0137C12.2666 16.8448 12.9702 15.9973 13.9084 15.4421C14.8172 14.8868 15.8141 14.5946 16.8402 14.5946C18.3941 14.5946 19.7134 15.1499 20.7689 16.2311C21.8243 17.3123 22.3521 18.6274 22.3521 20.147C22.3521 21.6665 21.795 23.0985 20.6516 24.2382C19.5375 25.3779 18.1009 25.9623 16.3418 25.9623C14.3482 25.9623 12.765 25.2025 11.5922 23.7122C10.4195 22.2218 9.83313 20.1762 9.83313 17.6046C9.83313 15.033 10.3902 12.9289 11.5043 11.1464C12.6184 9.36376 14.3481 8.48706 16.6936 8.48706C19.3909 8.48706 21.1794 9.74362 22.0882 12.2568H22.0589ZM16.2832 24.2674C17.4852 24.2674 18.4527 23.8875 19.215 23.0985C19.9773 22.3095 20.3584 21.3743 20.3584 20.2639C20.3584 19.1534 19.9773 18.2475 19.2443 17.4585C18.5114 16.6694 17.5732 16.2896 16.4591 16.2896C15.345 16.2896 14.3189 16.6987 13.4686 17.5169C12.6184 18.3352 12.2079 19.2703 12.2079 20.3807C12.2079 21.4035 12.589 22.2802 13.3513 23.0692C14.1136 23.8583 15.0811 24.2674 16.2832 24.2674V24.2674Z" fill="#D6002B"/>
<path d="M99.1949 169.885L101.101 169.359C101.746 171.054 102.948 171.931 104.648 171.931C107.814 171.931 109.427 169.33 109.515 164.128C109.017 165.297 108.313 166.144 107.375 166.7C106.466 167.255 105.469 167.547 104.443 167.547C102.889 167.547 101.57 166.992 100.514 165.911C99.4587 164.829 98.931 163.514 98.931 161.995C98.931 160.475 99.488 159.043 100.602 157.904C101.716 156.764 103.153 156.179 104.912 156.179C106.906 156.179 108.489 156.939 109.661 158.43C110.834 159.92 111.421 161.966 111.421 164.537C111.421 167.109 110.864 169.213 109.749 170.995C108.635 172.778 106.906 173.655 104.56 173.655C101.863 173.655 100.074 172.398 99.1655 169.885H99.1949ZM104.971 157.845C103.769 157.845 102.801 158.225 102.039 159.014C101.276 159.803 100.895 160.738 100.895 161.849C100.895 162.959 101.276 163.865 102.009 164.654C102.742 165.443 103.681 165.823 104.795 165.823C105.909 165.823 106.935 165.414 107.785 164.596C108.635 163.777 109.046 162.813 109.046 161.732C109.046 160.709 108.665 159.832 107.902 159.043C107.14 158.254 106.173 157.845 104.971 157.845V157.845Z" fill="#D6002B"/>
<path d="M45.0733 34.9918C46.4513 33.7352 47.9759 32.8001 49.4711 31.6896C51.1129 30.4915 52.8427 29.4102 54.162 27.8614C55.2468 26.6048 55.7452 25.3483 56.2729 23.7702C56.8007 22.1922 56.8593 18.8024 55.9798 17.3997C53.4291 13.3377 46.3047 9.77248 41.6138 18.7439C41.5551 18.8608 41.4085 18.9485 41.2913 18.9485C41.2913 18.9485 41.0274 18.8608 40.9688 18.7439C36.2778 9.77248 29.1535 13.3377 26.6028 17.3997C25.7232 18.8024 25.7818 22.1922 26.3096 23.7702C26.8373 25.3483 27.3357 26.6048 28.4205 27.8614C29.7398 29.4102 31.4696 30.4623 33.1115 31.6896C34.6067 32.8001 36.1312 33.7644 37.5092 34.9918C38.2128 35.6055 41.2913 38.9077 41.2913 38.9077C41.2913 38.9077 44.3697 35.6055 45.0733 34.9918V34.9918Z" fill="#D6002B"/>
<path d="M84.2132 34.9918C85.5912 33.7352 87.1157 32.8001 88.6109 31.6896C90.2528 30.4915 91.9826 29.4102 93.3019 27.8614C94.3867 26.6048 94.8851 25.3483 95.4128 23.7702C95.9406 22.1922 95.9992 18.8024 95.1196 17.3997C92.5689 13.3377 85.4446 9.77248 80.7537 18.7439C80.695 18.8608 80.5484 18.9485 80.4311 18.9485C80.4311 18.9485 80.1673 18.8608 80.1086 18.7439C75.4177 9.77248 68.2934 13.3377 65.7427 17.3997C64.8631 18.8024 64.9217 22.1922 65.4495 23.7702C65.9772 25.3483 66.4756 26.6048 67.5604 27.8614C68.8797 29.4102 70.6095 30.4623 72.2513 31.6896C73.7466 32.8001 75.2711 33.7644 76.6491 34.9918C77.3527 35.6055 80.4311 38.9077 80.4311 38.9077C80.4311 38.9077 83.5096 35.6055 84.2132 34.9918V34.9918Z" fill="#D6002B"/>
<path d="M45.0733 100.042C46.4513 98.8145 47.9759 97.8502 49.4711 96.7397C51.1129 95.5416 52.8427 94.4603 54.162 92.9115C55.2468 91.6549 55.7452 90.3983 56.2729 88.8203C56.8007 87.2422 56.8593 83.8524 55.9798 82.4497C53.4291 78.3877 46.3047 74.8225 41.6138 83.7939C41.5551 83.9108 41.4085 83.9985 41.2913 83.9985C41.2913 83.9985 41.0274 83.9108 40.9688 83.7939C36.2778 74.8225 29.1535 78.3877 26.6028 82.4497C25.7232 83.8524 25.7818 87.2422 26.3096 88.8203C26.8373 90.3983 27.3357 91.6549 28.4205 92.9115C29.7398 94.4603 31.4696 95.5416 33.1115 96.7397C34.6067 97.8502 36.1312 98.8145 37.5092 100.042C38.2128 100.656 41.2913 103.987 41.2913 103.987C41.2913 103.987 44.3697 100.685 45.0733 100.042V100.042Z" fill="#D6002B"/>
<path d="M84.2132 100.042C85.5912 98.8143 87.1157 97.8499 88.6109 96.7395C90.2528 95.5413 91.9826 94.4601 93.3019 92.9113C94.3867 91.6547 94.8851 90.3981 95.4128 88.82C95.9406 87.242 95.9992 83.8522 95.1196 82.4495C92.5689 78.3875 85.4446 74.8223 80.7537 83.7937C80.695 83.9106 80.5484 83.9983 80.4311 83.9983C80.4311 83.9983 80.1673 83.9106 80.1086 83.7937C75.4177 74.8223 68.2934 78.3875 65.7427 82.4495C64.8631 83.8522 64.9217 87.242 65.4495 88.82C65.9772 90.3981 66.4756 91.6547 67.5604 92.9113C68.8797 94.4601 70.6095 95.5413 72.2513 96.7395C73.7466 97.8499 75.2711 98.8143 76.6491 100.042C77.3527 100.655 80.4311 103.987 80.4311 103.987C80.4311 103.987 83.5096 100.685 84.2132 100.042V100.042Z" fill="#D6002B"/>
<path d="M76.6787 147.149C75.3007 148.406 73.7761 149.341 72.2809 150.451C70.6391 151.65 68.9094 152.731 67.59 154.28C66.5053 155.565 66.0068 156.793 65.4791 158.371C64.9514 159.949 64.8927 163.339 65.7722 164.741C68.3229 168.803 75.4473 172.369 80.1383 163.397C80.1969 163.28 80.3435 163.193 80.4607 163.193C80.4607 163.193 80.7247 163.28 80.7833 163.397C85.4742 172.369 92.5986 168.803 95.1493 164.741C96.0288 163.339 95.9702 159.949 95.4425 158.371C94.9147 156.793 94.4163 155.536 93.3315 154.28C92.0122 152.731 90.2824 151.679 88.6406 150.451C87.1454 149.341 85.6208 148.377 84.2428 147.149C83.5392 146.536 80.4607 143.233 80.4607 143.233C80.4607 143.233 77.3823 146.536 76.6787 147.149V147.149Z" fill="#D6002B"/>
<path d="M37.5385 147.149C36.1605 148.406 34.636 149.341 33.1407 150.451C31.4989 151.65 29.7691 152.731 28.4498 154.28C27.365 155.565 26.8666 156.793 26.3389 158.371C25.8112 159.949 25.7525 163.339 26.632 164.741C29.1827 168.803 36.3071 172.369 40.9981 163.397C41.0567 163.28 41.2033 163.193 41.3206 163.193C41.3206 163.193 41.5844 163.28 41.6431 163.397C46.334 172.369 53.429 168.803 56.0091 164.741C56.8886 163.339 56.83 159.949 56.3023 158.371C55.7745 156.793 55.2761 155.536 54.1913 154.28C52.872 152.731 51.1422 151.679 49.5004 150.451C48.0051 149.341 46.4806 148.377 45.1026 147.149C44.399 146.536 41.3206 143.233 41.3206 143.233C41.3206 143.233 38.2421 146.536 37.5385 147.149V147.149Z" fill="#D6002B"/>
</g>
<defs>
<filter id="filter0_d_59_6217" x="1.1546" y="0.33374" width="119.472" height="185.474" filterUnits="userSpaceOnUse" color-interpolation-filters="sRGB">
<feFlood flood-opacity="0" result="BackgroundImageFix"/>
<feColorMatrix in="SourceAlpha" type="matrix" values="0 0 0 0 0 0 0 0 0 0 0 0 0 0 0 0 0 0 127 0" result="hardAlpha"/>
<feOffset dy="4"/>
<feComposite in2="hardAlpha" operator="out"/>
<feColorMatrix type="matrix" values="0 0 0 0 0 0 0 0 0 0 0 0 0 0 0 0 0 0 0.25 0"/>
<feBlend mode="normal" in2="BackgroundImageFix" result="effect1_dropShadow_59_6217"/>
<feBlend mode="normal" in="SourceGraphic" in2="effect1_dropShadow_59_6217" result="shape"/>
</filter>
</defs>
</svg>
