<svg width="121" height="187" viewBox="0 0 121 187" fill="none" xmlns="http://www.w3.org/2000/svg">
<g filter="url(#filter0_d_59_6676)">
<path d="M11.134 0.896729H110.377C115.947 0.896729 120.491 5.42558 120.491 10.977V172.261C120.491 177.813 115.947 182.342 110.377 182.342H11.134C5.56349 182.342 1.01916 177.813 1.01916 172.261V10.977C1.01916 5.42558 5.56349 0.896729 11.134 0.896729Z" fill="white"/>
<path d="M16.5288 37.4778C16.5288 37.4778 16.7927 37.4487 16.9099 37.361C17.7895 36.7767 20.047 34.4099 20.7213 33.7379C20.8386 33.621 20.9852 33.4457 20.9559 33.2704C20.9559 33.1243 20.8386 33.0075 20.7213 32.9198C19.7245 31.9556 18.6984 31.0207 17.7602 29.9688C17.3497 29.5306 16.8806 29.0046 16.5874 28.9753H16.4408C16.1476 28.9753 15.6786 29.5013 15.2681 29.9688C14.3299 30.9915 13.3038 31.9264 12.307 32.9198C12.219 33.0367 12.1017 33.1243 12.0724 33.2704C12.0724 33.4457 12.1897 33.621 12.307 33.7379C12.952 34.4099 15.2388 36.7767 16.1183 37.361C16.2356 37.4487 16.3822 37.4778 16.4995 37.4778H16.5288Z" fill="#D6002B"/>
<path d="M105.568 153.007C105.568 153.007 105.832 152.977 105.95 152.89C106.829 152.305 109.087 149.91 109.761 149.267C109.878 149.15 110.025 148.975 109.996 148.799C109.996 148.653 109.878 148.536 109.761 148.449C108.764 147.455 107.738 146.549 106.8 145.498C106.389 145.059 105.92 144.533 105.627 144.504H105.48C105.187 144.504 104.718 145.03 104.308 145.498C103.37 146.52 102.343 147.455 101.347 148.449C101.259 148.565 101.141 148.653 101.112 148.799C101.112 148.975 101.229 149.121 101.347 149.267C101.992 149.939 104.278 152.305 105.158 152.89C105.275 152.977 105.422 153.007 105.539 153.007H105.568Z" fill="#D6002B"/>
<path d="M14.0954 17.9895V16.324H16.0304C17.4377 16.324 18.4345 16.0319 19.0502 15.4475C19.6659 14.8632 19.9591 14.1619 19.9591 13.3438C19.9591 12.4381 19.6366 11.7075 18.9329 11.1816C18.2586 10.6557 17.4084 10.3928 16.3822 10.3928C14.4765 10.3928 13.1865 11.2985 12.4535 13.1393L10.5479 12.5841C11.6327 10.0129 13.6556 8.72729 16.5874 8.72729C18.2293 8.72729 19.5779 9.1656 20.5747 10.0421C21.6009 10.9187 22.0993 11.9705 22.0993 13.1977C22.0993 14.1619 21.8061 14.98 21.1904 15.6812C20.5747 16.3825 19.8125 16.8207 18.8449 17.0252C19.9004 17.1713 20.8386 17.6389 21.6009 18.3693C22.3632 19.0998 22.7443 20.0639 22.7443 21.2327C22.7443 22.6351 22.1579 23.8038 21.0145 24.768C19.8711 25.7322 18.3172 26.1998 16.3236 26.1998C14.7404 26.1998 13.3917 25.8199 12.2776 25.0895C11.1635 24.3298 10.372 23.3364 9.96149 22.1093L11.9258 21.4665C12.5122 23.4825 13.9781 24.5051 16.3236 24.5051C17.8481 24.5051 18.9329 24.1837 19.5779 23.5409C20.2522 22.8981 20.5747 22.1384 20.5747 21.2327C20.5747 20.2685 20.1643 19.4796 19.3727 18.866C18.5811 18.2524 17.467 17.9602 16.0304 17.9602H14.0954V17.9895Z" fill="#D6002B"/>
<path d="M108.002 164.694V166.359H106.067C104.66 166.359 103.663 166.651 103.047 167.236C102.432 167.82 102.138 168.521 102.138 169.339C102.138 170.245 102.49 170.976 103.135 171.501C103.809 172.027 104.66 172.29 105.686 172.29C107.592 172.29 108.882 171.385 109.614 169.544L111.52 170.099C110.435 172.67 108.412 173.956 105.481 173.956C103.839 173.956 102.49 173.518 101.493 172.641C100.497 171.764 99.9688 170.713 99.9688 169.486C99.9688 168.521 100.262 167.703 100.878 167.002C101.493 166.301 102.256 165.833 103.223 165.658C102.168 165.512 101.229 165.044 100.467 164.314C99.7049 163.583 99.3238 162.619 99.3238 161.451C99.3238 160.048 99.9101 158.879 101.054 157.915C102.197 156.951 103.751 156.483 105.744 156.483C107.328 156.483 108.676 156.863 109.79 157.594C110.904 158.353 111.696 159.347 112.107 160.574L110.142 161.217C109.556 159.201 108.09 158.178 105.774 158.178C104.249 158.178 103.164 158.499 102.519 159.142C101.845 159.785 101.523 160.545 101.523 161.451C101.523 162.415 101.933 163.204 102.725 163.788C103.516 164.402 104.63 164.694 106.067 164.694H108.002V164.694Z" fill="#D6002B"/>
<path d="M61.034 38.939C61.5031 38.939 61.9429 38.8221 62.324 38.5591C65.2266 36.6307 72.6734 28.8003 74.843 26.6089C75.2534 26.1998 75.6639 25.6739 75.6052 25.0896C75.5466 24.6221 75.1948 24.2423 74.8723 23.9209C71.6179 20.6777 68.1877 17.639 65.1386 14.2497C63.8193 12.7888 62.2654 11.0941 61.2686 11.0356H60.7702C59.8027 11.0941 58.2195 12.7888 56.9001 14.2497C53.851 17.6682 50.4208 20.7069 47.1665 23.9209C46.844 24.2423 46.4921 24.6221 46.4335 25.0896C46.3749 25.6739 46.7853 26.1706 47.1958 26.6089C49.3653 28.8003 56.8122 36.6599 59.7147 38.5591C60.0958 38.8221 60.5356 38.939 61.0047 38.939H61.034Z" fill="#D6002B"/>
<path d="M61.0047 143.744C60.5356 143.744 60.0958 143.861 59.7147 144.124C56.8122 146.053 49.3653 153.883 47.1958 156.074C46.7853 156.484 46.3749 157.009 46.4335 157.594C46.4921 158.061 46.844 158.441 47.1665 158.763C50.4208 161.977 53.851 165.044 56.9001 168.434C58.2195 169.895 59.7733 171.589 60.7702 171.648H61.2686C62.2361 171.589 63.8193 169.895 65.1386 168.434C68.1877 165.015 71.6179 161.977 74.8723 158.763C75.1948 158.412 75.5466 158.061 75.6052 157.594C75.6639 157.009 75.2534 156.513 74.843 156.074C72.6734 153.883 65.2266 146.023 62.324 144.124C61.9429 143.861 61.5031 143.744 61.034 143.744H61.0047Z" fill="#D6002B"/>
<path d="M60.4768 105.294C60.9459 105.294 61.3857 105.177 61.7668 104.914C64.6693 102.985 72.1162 95.1548 74.2858 92.9635C74.6962 92.5544 75.1067 92.0284 75.048 91.4441C74.9894 90.9766 74.6376 90.5968 74.3151 90.2754C71.0607 87.0321 67.6305 83.9935 64.5814 80.6042C63.2621 79.1432 61.7082 77.4486 60.7114 77.3901H60.213C59.2454 77.4486 57.6623 79.1432 56.3723 80.6042C53.3231 83.9935 49.8929 87.0614 46.6386 90.2754C46.3161 90.5968 45.9642 90.9766 45.9056 91.4441C45.847 92.0284 46.2574 92.5544 46.6679 92.9635C48.8375 95.1548 56.2843 103.015 59.1868 104.914C59.568 105.177 60.0077 105.294 60.4768 105.294V105.294Z" fill="#D6002B"/>
</g>
<defs>
<filter id="filter0_d_59_6676" x="1.01916" y="0.896729" width="119.472" height="185.445" filterUnits="userSpaceOnUse" color-interpolation-filters="sRGB">
<feFlood flood-opacity="0" result="BackgroundImageFix"/>
<feColorMatrix in="SourceAlpha" type="matrix" values="0 0 0 0 0 0 0 0 0 0 0 0 0 0 0 0 0 0 127 0" result="hardAlpha"/>
<feOffset dy="4"/>
<feComposite in2="hardAlpha" operator="out"/>
<feColorMatrix type="matrix" values="0 0 0 0 0 0 0 0 0 0 0 0 0 0 0 0 0 0 0.25 0"/>
<feBlend mode="normal" in2="BackgroundImageFix" result="effect1_dropShadow_59_6676"/>
<feBlend mode="normal" in="SourceGraphic" in2="effect1_dropShadow_59_6676" result="shape"/>
</filter>
</defs>
</svg>
