<svg width="121" height="187" viewBox="0 0 121 187" fill="none" xmlns="http://www.w3.org/2000/svg">
<g filter="url(#filter0_d_59_6742)">
<path d="M10.6516 0.896729H109.918C115.49 0.896729 120.036 5.42558 120.036 10.977V172.261C120.036 177.813 115.49 182.342 109.918 182.342H10.6516C5.0797 182.342 0.534302 177.813 0.534302 172.261V10.977C0.534302 5.42558 5.0797 0.896729 10.6516 0.896729Z" fill="white"/>
<path d="M15.7542 37.7701C15.7542 37.7701 16.0182 37.7408 16.1355 37.6532C17.0152 37.0688 19.2733 34.673 19.9478 34.0302C20.0651 33.9133 20.2116 33.738 20.1823 33.5627C20.1823 33.4166 20.0651 33.2997 19.9478 33.212C18.9507 32.2186 17.9243 31.3128 16.9859 30.261C16.5753 29.8227 16.1061 29.2968 15.8128 29.2676H15.6663C15.373 29.2676 14.9038 29.7935 14.4933 30.261C13.5548 31.2836 12.5284 32.2186 11.5313 33.212C11.4434 33.3289 11.326 33.4166 11.2967 33.5627C11.2967 33.738 11.414 33.9133 11.5313 34.0302C12.1765 34.7022 14.4639 37.0688 15.3436 37.6532C15.4609 37.7408 15.6076 37.7701 15.7249 37.7701H15.7542Z" fill="#D6002B"/>
<path d="M104.816 153.27C104.816 153.27 105.08 153.24 105.197 153.153C106.077 152.568 108.335 150.173 109.009 149.53C109.127 149.413 109.273 149.238 109.244 149.062C109.244 148.916 109.127 148.799 109.009 148.712C108.012 147.718 106.986 146.812 106.047 145.761C105.637 145.322 105.168 144.796 104.874 144.796H104.728C104.435 144.796 103.965 145.322 103.555 145.761C102.616 146.812 101.59 147.718 100.593 148.712C100.476 148.828 100.388 148.916 100.358 149.062C100.358 149.238 100.476 149.384 100.593 149.53C101.238 150.202 103.525 152.598 104.405 153.153C104.522 153.24 104.669 153.27 104.786 153.27H104.816Z" fill="#D6002B"/>
<path d="M16.0769 26.1703H13.9068C13.9068 23.3654 14.4933 20.6189 15.637 17.96C16.7807 15.3012 18.1883 13.0514 19.8599 11.2106H10.7103L10.9156 9.36987H22.0593V10.6262C20.0652 13.0221 18.5402 15.5349 17.5431 18.1646C16.5461 20.765 16.0476 23.2486 16.0476 25.586C16.0476 25.7029 16.0476 25.9074 16.0476 26.1703H16.0769Z" fill="#D6002B"/>
<path d="M103.966 157.068H106.136C106.136 159.873 105.549 162.62 104.406 165.278C103.262 167.937 101.825 170.187 100.183 171.999H109.332L109.127 173.839H97.9835V172.583C99.9776 170.187 101.502 167.674 102.5 165.045C103.497 162.444 103.995 159.961 103.995 157.623C103.995 157.506 103.995 157.302 103.995 157.039L103.966 157.068Z" fill="#D6002B"/>
<path d="M41.6193 39.2307C42.0885 39.2307 42.5283 39.1138 42.9095 38.8509C45.8128 36.9517 53.2615 29.092 55.4316 26.9006C55.8421 26.4916 56.2527 25.9657 56.1941 25.3813C56.1354 24.9138 55.7835 24.534 55.4609 24.2126C52.2058 20.9694 48.7747 17.9306 45.7248 14.5413C44.4052 13.0804 42.8509 11.3858 41.8539 11.3274H41.3553C40.3875 11.3858 38.804 13.0804 37.4844 14.5413C34.4345 17.9598 31.0034 20.9986 27.7483 24.2126C27.4257 24.534 27.0738 24.9138 27.0151 25.3813C26.9565 25.9657 27.3671 26.4624 27.7776 26.9006C29.9477 29.092 37.3964 36.9517 40.2996 38.8509C40.6808 39.1138 41.1207 39.2307 41.5899 39.2307H41.6193Z" fill="#D6002B"/>
<path d="M78.9506 39.2307C79.4199 39.2307 79.8597 39.1138 80.241 38.8509C83.1442 36.9517 90.5929 29.092 92.7629 26.9006C93.1735 26.4916 93.5841 25.9657 93.5254 25.3813C93.4668 24.9138 93.1149 24.534 92.7923 24.2126C89.5372 20.9694 86.1061 17.9306 83.0562 14.5413C81.7366 13.0804 80.1824 11.3858 79.1853 11.3274H78.6867C77.719 11.3858 76.1354 13.0804 74.8451 14.5413C71.7952 17.9598 68.3641 20.9986 65.109 24.2126C64.7864 24.534 64.4345 24.9138 64.3759 25.3813C64.3172 25.9657 64.7278 26.4624 65.1383 26.9006C67.3084 29.092 74.7571 36.9517 77.6603 38.8509C78.0415 39.1138 78.4814 39.2307 78.9506 39.2307V39.2307Z" fill="#D6002B"/>
<path d="M41.6193 105.585C42.0885 105.585 42.5283 105.469 42.9095 105.206C45.8128 103.277 53.2615 95.4467 55.4316 93.2554C55.8421 92.8463 56.2527 92.3204 56.1941 91.7361C56.1354 91.2686 55.7835 90.8888 55.4609 90.5674C52.2058 87.3534 48.7747 84.2855 45.7248 80.8961C44.4052 79.4352 42.8509 77.7406 41.8539 77.6821H41.3553C40.3875 77.7406 38.804 79.4352 37.4844 80.8961C34.4345 84.3147 31.0034 87.3534 27.7483 90.5674C27.4257 90.918 27.0738 91.2686 27.0151 91.7361C26.9565 92.3204 27.3671 92.8463 27.7776 93.2554C29.9477 95.4467 37.3964 103.307 40.2996 105.206C40.6808 105.469 41.1207 105.585 41.5899 105.585H41.6193Z" fill="#D6002B"/>
<path d="M78.9506 105.585C79.4199 105.585 79.8597 105.469 80.241 105.206C83.1442 103.277 90.5929 95.4467 92.7629 93.2554C93.1735 92.8463 93.5841 92.3204 93.5254 91.7361C93.4668 91.2686 93.1149 90.8888 92.7923 90.5674C89.5372 87.3534 86.1061 84.2855 83.0562 80.8961C81.7366 79.4352 80.1824 77.7406 79.1853 77.6821H78.6867C77.719 77.7406 76.1354 79.4352 74.8451 80.8961C71.7952 84.3147 68.3641 87.3534 65.109 90.5674C64.7864 90.918 64.4345 91.2686 64.3759 91.7361C64.3172 92.3204 64.7278 92.8463 65.1383 93.2554C67.3084 95.4467 74.7571 103.307 77.6603 105.206C78.0415 105.469 78.4814 105.585 78.9506 105.585V105.585Z" fill="#D6002B"/>
<path d="M80.7691 144.037C80.2999 144.037 79.86 144.154 79.4787 144.416C76.5755 146.345 69.1269 154.175 66.9568 156.367C66.5462 156.776 66.1356 157.302 66.1943 157.886C66.2529 158.354 66.6048 158.733 66.9274 159.055C70.1825 162.298 73.6137 165.337 76.6635 168.726C77.9832 170.187 79.5374 171.882 80.5345 171.94H81.033C82.0007 171.882 83.5844 170.187 84.8747 168.726C87.9246 165.337 91.3556 162.269 94.6107 159.055C94.9333 158.733 95.2852 158.354 95.3439 157.886C95.4025 157.302 94.992 156.805 94.5815 156.367C92.4114 154.175 84.9626 146.316 82.0594 144.416C81.6782 144.154 81.2383 144.037 80.7691 144.037V144.037Z" fill="#D6002B"/>
<path d="M43.4376 144.037C42.9684 144.037 42.5285 144.154 42.1473 144.416C39.244 146.345 31.7953 154.175 29.6252 156.367C29.2146 156.776 28.8041 157.302 28.8628 157.886C28.9214 158.354 29.2734 158.733 29.5959 159.055C32.8511 162.298 36.2822 165.337 39.332 168.726C40.6517 170.187 42.2059 171.882 43.2029 171.94H43.7015C44.6692 171.882 46.2528 170.187 47.5725 168.726C50.6224 165.337 54.0534 162.269 57.3085 159.055C57.6311 158.733 57.983 158.354 58.0416 157.886C58.1003 157.302 57.6898 156.805 57.2792 156.367C55.1091 154.175 47.6604 146.316 44.7572 144.416C44.376 144.154 43.9361 144.037 43.4669 144.037H43.4376Z" fill="#D6002B"/>
<path d="M59.7133 71.6632C60.1826 71.6632 60.6224 71.5463 61.0037 71.2833C63.9069 69.3549 71.3556 61.5245 73.5256 59.3331C73.9362 58.924 74.3468 58.3982 74.2881 57.8138C74.2295 57.3463 73.8776 56.9664 73.555 56.645C70.2999 53.4018 66.8688 50.3631 63.8189 46.9738C62.4992 45.5129 60.9451 43.8182 59.948 43.7598H59.4494C58.4817 43.8182 56.8981 45.5129 55.5784 46.9738C52.5286 50.3923 49.0975 53.431 45.8423 56.645C45.5198 56.9664 45.1678 57.3463 45.1092 57.8138C45.0505 58.3982 45.4611 58.8948 45.8717 59.3331C48.0418 61.5245 55.4905 69.3549 58.3937 71.2833C58.775 71.5463 59.2148 71.6632 59.684 71.6632H59.7133Z" fill="#D6002B"/>
<path d="M41.6193 39.2307C42.0885 39.2307 42.5283 39.1138 42.9095 38.8509C45.8128 36.9517 53.2615 29.092 55.4316 26.9006C55.8421 26.4916 56.2527 25.9657 56.1941 25.3813C56.1354 24.9138 55.7835 24.534 55.4609 24.2126C52.2058 20.9694 48.7747 17.9306 45.7248 14.5413C44.4052 13.0804 42.8509 11.3858 41.8539 11.3274H41.3553C40.3875 11.3858 38.804 13.0804 37.4844 14.5413C34.4345 17.9598 31.0034 20.9986 27.7483 24.2126C27.4257 24.534 27.0738 24.9138 27.0151 25.3813C26.9565 25.9657 27.3671 26.4624 27.7776 26.9006C29.9477 29.092 37.3964 36.9517 40.2996 38.8509C40.6808 39.1138 41.1207 39.2307 41.5899 39.2307H41.6193Z" fill="#D6002B"/>
<path d="M78.9506 39.2307C79.4199 39.2307 79.8597 39.1138 80.241 38.8509C83.1442 36.9517 90.5929 29.092 92.7629 26.9006C93.1735 26.4916 93.5841 25.9657 93.5254 25.3813C93.4668 24.9138 93.1149 24.534 92.7923 24.2126C89.5372 20.9694 86.1061 17.9306 83.0562 14.5413C81.7366 13.0804 80.1824 11.3858 79.1853 11.3274H78.6867C77.719 11.3858 76.1354 13.0804 74.8451 14.5413C71.7952 17.9598 68.3641 20.9986 65.109 24.2126C64.7864 24.534 64.4345 24.9138 64.3759 25.3813C64.3172 25.9657 64.7278 26.4624 65.1383 26.9006C67.3084 29.092 74.7571 36.9517 77.6603 38.8509C78.0415 39.1138 78.4814 39.2307 78.9506 39.2307V39.2307Z" fill="#D6002B"/>
<path d="M41.6193 105.585C42.0885 105.585 42.5283 105.469 42.9095 105.206C45.8128 103.277 53.2615 95.4467 55.4316 93.2554C55.8421 92.8463 56.2527 92.3204 56.1941 91.7361C56.1354 91.2686 55.7835 90.8888 55.4609 90.5674C52.2058 87.3534 48.7747 84.2855 45.7248 80.8961C44.4052 79.4352 42.8509 77.7406 41.8539 77.6821H41.3553C40.3875 77.7406 38.804 79.4352 37.4844 80.8961C34.4345 84.3147 31.0034 87.3534 27.7483 90.5674C27.4257 90.918 27.0738 91.2686 27.0151 91.7361C26.9565 92.3204 27.3671 92.8463 27.7776 93.2554C29.9477 95.4467 37.3964 103.307 40.2996 105.206C40.6808 105.469 41.1207 105.585 41.5899 105.585H41.6193Z" fill="#D6002B"/>
<path d="M78.9506 105.585C79.4199 105.585 79.8597 105.469 80.241 105.206C83.1442 103.277 90.5929 95.4467 92.7629 93.2554C93.1735 92.8463 93.5841 92.3204 93.5254 91.7361C93.4668 91.2686 93.1149 90.8888 92.7923 90.5674C89.5372 87.3534 86.1061 84.2855 83.0562 80.8961C81.7366 79.4352 80.1824 77.7406 79.1853 77.6821H78.6867C77.719 77.7406 76.1354 79.4352 74.8451 80.8961C71.7952 84.3147 68.3641 87.3534 65.109 90.5674C64.7864 90.918 64.4345 91.2686 64.3759 91.7361C64.3172 92.3204 64.7278 92.8463 65.1383 93.2554C67.3084 95.4467 74.7571 103.307 77.6603 105.206C78.0415 105.469 78.4814 105.585 78.9506 105.585V105.585Z" fill="#D6002B"/>
<path d="M80.7691 144.037C80.2999 144.037 79.86 144.154 79.4787 144.416C76.5755 146.345 69.1269 154.175 66.9568 156.367C66.5462 156.776 66.1356 157.302 66.1943 157.886C66.2529 158.354 66.6048 158.733 66.9274 159.055C70.1825 162.298 73.6137 165.337 76.6635 168.726C77.9832 170.187 79.5374 171.882 80.5345 171.94H81.033C82.0007 171.882 83.5844 170.187 84.8747 168.726C87.9246 165.337 91.3556 162.269 94.6107 159.055C94.9333 158.733 95.2852 158.354 95.3439 157.886C95.4025 157.302 94.992 156.805 94.5815 156.367C92.4114 154.175 84.9626 146.316 82.0594 144.416C81.6782 144.154 81.2383 144.037 80.7691 144.037V144.037Z" fill="#D6002B"/>
<path d="M43.4376 144.037C42.9684 144.037 42.5285 144.154 42.1473 144.416C39.244 146.345 31.7953 154.175 29.6252 156.367C29.2146 156.776 28.8041 157.302 28.8628 157.886C28.9214 158.354 29.2734 158.733 29.5959 159.055C32.8511 162.298 36.2822 165.337 39.332 168.726C40.6517 170.187 42.2059 171.882 43.2029 171.94H43.7015C44.6692 171.882 46.2528 170.187 47.5725 168.726C50.6224 165.337 54.0534 162.269 57.3085 159.055C57.6311 158.733 57.983 158.354 58.0416 157.886C58.1003 157.302 57.6898 156.805 57.2792 156.367C55.1091 154.175 47.6604 146.316 44.7572 144.416C44.376 144.154 43.9361 144.037 43.4669 144.037H43.4376Z" fill="#D6002B"/>
<path d="M59.7133 71.6632C60.1826 71.6632 60.6224 71.5463 61.0037 71.2833C63.9069 69.3549 71.3556 61.5245 73.5256 59.3331C73.9362 58.924 74.3468 58.3982 74.2881 57.8138C74.2295 57.3463 73.8776 56.9664 73.555 56.645C70.2999 53.4018 66.8688 50.3631 63.8189 46.9738C62.4992 45.5129 60.9451 43.8182 59.948 43.7598H59.4494C58.4817 43.8182 56.8981 45.5129 55.5784 46.9738C52.5286 50.3923 49.0975 53.431 45.8423 56.645C45.5198 56.9664 45.1678 57.3463 45.1092 57.8138C45.0505 58.3982 45.4611 58.8948 45.8717 59.3331C48.0418 61.5245 55.4905 69.3549 58.3937 71.2833C58.775 71.5463 59.2148 71.6632 59.684 71.6632H59.7133Z" fill="#D6002B"/>
</g>
<defs>
<filter id="filter0_d_59_6742" x="0.534302" y="0.896729" width="119.502" height="185.445" filterUnits="userSpaceOnUse" color-interpolation-filters="sRGB">
<feFlood flood-opacity="0" result="BackgroundImageFix"/>
<feColorMatrix in="SourceAlpha" type="matrix" values="0 0 0 0 0 0 0 0 0 0 0 0 0 0 0 0 0 0 127 0" result="hardAlpha"/>
<feOffset dy="4"/>
<feComposite in2="hardAlpha" operator="out"/>
<feColorMatrix type="matrix" values="0 0 0 0 0 0 0 0 0 0 0 0 0 0 0 0 0 0 0.25 0"/>
<feBlend mode="normal" in2="BackgroundImageFix" result="effect1_dropShadow_59_6742"/>
<feBlend mode="normal" in="SourceGraphic" in2="effect1_dropShadow_59_6742" result="shape"/>
</filter>
</defs>
</svg>
