<svg width="121" height="187" viewBox="0 0 121 187" fill="none" xmlns="http://www.w3.org/2000/svg">
<g filter="url(#filter0_d_59_6058)">
<path d="M11.0295 0.627686H110.296C115.868 0.627686 120.414 5.15722 120.414 10.7096V172.02C120.414 177.572 115.868 182.102 110.296 182.102H11.0588C5.48693 182.102 0.941528 177.572 0.941528 172.02V10.7096C0.941528 5.15722 5.48693 0.627686 11.0588 0.627686H11.0295Z" fill="white"/>
<path d="M16.5429 34.7312C16.5429 35.0234 16.4256 35.4325 16.4256 35.754C16.4256 36.0462 16.4256 36.3385 16.4549 36.6599C16.5722 37.6827 16.9242 38.6471 17.6866 39.3192C17.0121 39.3484 15.2526 39.3484 14.5781 39.3192C15.3406 38.6471 15.6924 37.6827 15.8097 36.6599C15.8391 36.3677 15.8391 36.0754 15.8391 35.754C15.8391 35.4618 15.7218 35.0234 15.7218 34.7312H16.5136H16.5429Z" fill="#0C0A35"/>
<path d="M16.3377 35.4911C16.631 35.5496 16.8069 35.8126 17.3348 36.3678C17.804 36.8938 18.2732 37.4198 19.3582 37.566C19.9154 37.6244 20.6485 37.3322 20.9711 36.8938C21.235 36.5139 21.411 36.0756 21.5283 35.608C21.7629 34.7606 21.6749 33.9131 21.235 33.1533C20.8245 32.3935 19.6808 32.0428 19.0064 32.452C18.6251 32.6857 18.5078 32.9488 18.1852 33.0072C18.0679 33.0072 17.9799 32.9195 18.0092 32.8318C18.1558 32.3058 18.5078 32.2474 18.6837 31.6337C18.889 30.9032 19.0063 30.3479 17.9506 29.4128C17.1588 28.7114 15.194 28.7699 14.3729 29.4128C13.5224 30.0557 13.4344 30.6401 13.6397 31.3707C13.7864 31.9552 14.1383 32.2182 14.2849 32.6857C14.3435 32.8611 14.1676 33.0072 14.021 32.9487C13.7864 32.8611 13.6398 32.6273 13.3172 32.4227C12.6134 32.0136 11.499 32.3351 11.0884 33.1241C10.6779 33.8839 10.5899 34.7313 10.8245 35.5788C10.9418 36.0171 11.0884 36.4847 11.3817 36.8646C11.7043 37.303 12.4374 37.5952 12.9946 37.5367C14.0796 37.4198 14.5488 36.8646 15.018 36.3386C15.5459 35.7834 15.7218 35.4911 16.0151 35.4619H16.3963L16.3377 35.4911Z" fill="#0C0A35"/>
<path d="M13.1999 17.1972C11.0591 16.2621 10.0034 14.9178 10.0034 13.1644C10.0034 11.8786 10.5313 10.8266 11.587 10.0084C12.6427 9.19012 14.0503 8.78101 15.8098 8.78101C17.5694 8.78101 18.9183 9.19011 19.9447 9.97913C20.9711 10.7681 21.4697 11.791 21.4697 13.0768C21.4697 14.8594 20.3847 16.1159 18.1853 16.905C19.9448 17.7232 21.0591 18.5122 21.499 19.272C21.9389 20.0318 22.1735 20.7916 22.1735 21.5514C22.1735 22.8956 21.587 24.0353 20.4433 24.9412C19.2996 25.8472 17.7454 26.3147 15.7806 26.3147C13.6691 26.3147 12.0562 25.8471 10.9125 24.912C9.76881 23.9769 9.18231 22.8956 9.18231 21.6098C9.18231 19.7104 10.5313 18.2492 13.1999 17.2264V17.1972ZM15.5166 18.1031C12.6721 18.7752 11.235 19.9734 11.235 21.6683C11.235 22.545 11.6163 23.2756 12.4081 23.8308C13.1999 24.386 14.3436 24.6782 15.8392 24.6782C17.1295 24.6782 18.1559 24.4152 18.9477 23.86C19.7395 23.3048 20.1207 22.6034 20.1207 21.7559C20.1207 20.1195 18.5958 18.8921 15.5166 18.1031ZM15.7512 16.1744C17.1588 15.7945 18.1559 15.3562 18.7424 14.8594C19.3289 14.3626 19.6222 13.7489 19.6222 13.0183C19.6222 12.1416 19.2702 11.4987 18.5664 11.0604C17.8626 10.622 16.9535 10.3882 15.8098 10.3882C14.6661 10.3882 13.8451 10.622 13.1413 11.0896C12.4375 11.5572 12.1149 12.2001 12.1149 12.9891C12.1149 13.7781 12.496 14.4502 13.2585 15.0347C14.021 15.6192 14.8421 15.999 15.7218 16.1744H15.7512Z" fill="#0C0A35"/>
<path d="M104.695 147.999C104.695 147.707 104.813 147.297 104.813 146.976C104.813 146.655 104.813 146.392 104.783 146.07C104.666 145.047 104.314 144.083 103.552 143.411C104.226 143.382 105.956 143.382 106.66 143.411C105.898 144.083 105.546 145.047 105.428 146.07C105.399 146.362 105.399 146.655 105.399 146.976C105.399 147.297 105.516 147.707 105.516 147.999H104.725H104.695Z" fill="#0C0A35"/>
<path d="M104.93 147.239C104.637 147.181 104.461 146.918 103.933 146.334C103.463 145.807 102.994 145.281 101.909 145.135C101.352 145.077 100.619 145.369 100.296 145.807C100.003 146.187 99.8565 146.626 99.7392 147.093C99.5046 147.941 99.5925 148.788 100.003 149.548C100.414 150.308 101.557 150.658 102.232 150.249C102.613 150.016 102.73 149.753 103.053 149.694C103.17 149.694 103.258 149.782 103.229 149.869C103.082 150.395 102.73 150.454 102.554 151.068C102.349 151.798 102.232 152.353 103.288 153.289C104.079 153.99 106.044 153.931 106.865 153.289C107.716 152.646 107.804 152.061 107.598 151.331C107.422 150.746 107.1 150.483 106.953 150.016C106.895 149.84 107.071 149.694 107.217 149.753C107.452 149.84 107.598 150.074 107.921 150.279C108.625 150.688 109.739 150.366 110.15 149.577C110.56 148.817 110.648 147.97 110.414 147.123C110.296 146.684 110.15 146.217 109.856 145.837C109.534 145.398 108.801 145.106 108.244 145.165C107.159 145.311 106.689 145.837 106.22 146.363C105.692 146.947 105.516 147.21 105.252 147.269H104.871L104.93 147.239Z" fill="#0C0A35"/>
<path d="M107.599 165.533C109.739 166.468 110.795 167.812 110.795 169.565C110.795 170.851 110.267 171.903 109.211 172.721C108.156 173.54 106.748 173.949 104.989 173.949C103.229 173.949 101.88 173.54 100.854 172.751C99.8272 171.962 99.3287 170.939 99.3287 169.653C99.3287 167.87 100.414 166.585 102.613 165.825C100.854 165.007 99.7393 164.218 99.2994 163.458C98.8595 162.698 98.6249 161.938 98.6249 161.178C98.6249 159.834 99.2114 158.694 100.355 157.789C101.499 156.883 103.053 156.415 105.018 156.415C107.129 156.415 108.742 156.883 109.886 157.789C111.03 158.724 111.616 159.805 111.616 161.091C111.616 162.99 110.267 164.451 107.599 165.474V165.533ZM105.282 164.627C108.126 163.955 109.563 162.756 109.563 161.061C109.563 160.185 109.182 159.454 108.39 158.899C107.599 158.344 106.455 158.052 104.959 158.052C103.669 158.052 102.643 158.315 101.851 158.87C101.059 159.425 100.678 160.126 100.678 160.974C100.678 162.61 102.203 163.838 105.282 164.627ZM105.047 166.555C103.64 166.935 102.642 167.374 102.056 167.87C101.469 168.367 101.176 168.981 101.176 169.711C101.176 170.559 101.528 171.231 102.232 171.669C102.936 172.108 103.845 172.341 104.989 172.341C106.132 172.341 106.953 172.108 107.657 171.64C108.361 171.173 108.684 170.53 108.684 169.741C108.684 168.952 108.302 168.28 107.54 167.695C106.777 167.111 105.956 166.731 105.077 166.555H105.047Z" fill="#0C0A35"/>
<path d="M60.2966 59.3953C60.2966 60.1551 60.5898 61.2363 60.5898 61.9669C60.5898 62.6974 60.5898 63.4865 60.5019 64.2462C60.2086 66.8471 59.2995 69.3018 57.3347 71.026C59.0942 71.1428 63.5224 71.1428 65.2819 71.026C63.3465 69.3018 62.408 66.8179 62.1147 64.2462C62.0268 63.4865 62.0268 62.7267 62.0268 61.9669C62.0268 61.2071 62.32 60.1258 62.32 59.3953H60.2672H60.2966Z" fill="#0C0A35"/>
<path d="M60.8535 61.2656C60.1204 61.3824 59.6805 62.0838 58.3315 63.5449C57.0998 64.86 55.8975 66.2627 53.1409 66.6133C51.7333 66.7887 49.8858 66.0289 49.0353 64.9184C48.3022 63.9541 47.9209 62.8144 47.6277 61.6454C47.0705 59.483 47.2758 57.3205 48.3316 55.3625C49.3873 53.4046 52.2611 52.5279 54.05 53.6092C54.9884 54.1644 55.311 54.8658 56.1908 55.0119C56.4547 55.0703 56.6893 54.8073 56.6306 54.5443C56.2787 53.2293 55.3403 53.0539 54.9004 51.4759C54.3726 49.6056 54.0793 48.1445 56.748 45.8067C58.8007 44.0241 63.7568 44.1702 65.9269 45.8067C68.1263 47.4724 68.3315 48.992 67.8037 50.833C67.3931 52.2941 66.5427 52.9663 66.1614 54.2228C66.0148 54.632 66.4254 55.0411 66.836 54.895C67.4811 54.632 67.8036 54.0767 68.6248 53.58C70.4136 52.5279 73.2582 53.3754 74.3433 55.3333C75.4283 57.2913 75.6336 59.4537 75.0471 61.6162C74.7538 62.7852 74.3432 63.9248 73.6394 64.8892C72.789 65.9997 70.9121 66.7595 69.5338 66.5841C66.7772 66.2334 65.5749 64.8307 64.3433 63.5157C62.9943 62.0546 62.5837 61.3532 61.8212 61.2363H60.8535V61.2656Z" fill="#0C0A35"/>
<path d="M60.2966 124.094C60.2966 123.335 60.5898 122.253 60.5898 121.523C60.5898 120.792 60.5898 120.003 60.5019 119.243C60.2086 116.643 59.2995 114.188 57.3347 112.464C59.0942 112.347 63.5224 112.347 65.2819 112.464C63.3465 114.188 62.408 116.672 62.1147 119.243C62.0268 120.003 62.0268 120.763 62.0268 121.523C62.0268 122.283 62.32 123.364 62.32 124.094H60.2672H60.2966Z" fill="#0C0A35"/>
<path d="M60.8536 122.224C60.1204 122.107 59.6805 121.406 58.3315 119.945C57.0999 118.63 55.8976 117.227 53.141 116.906C51.7333 116.73 49.8858 117.49 49.0354 118.6C48.3023 119.565 47.921 120.704 47.6277 121.873C47.0706 124.036 47.2759 126.198 48.3316 128.156C49.3873 130.114 52.2612 130.991 54.05 129.91C54.9885 129.354 55.3111 128.653 56.1908 128.507C56.4548 128.449 56.6893 128.712 56.6307 128.975C56.2788 130.29 55.3404 130.465 54.9005 132.043C54.3726 133.913 54.0794 135.374 56.748 137.712C58.8008 139.495 63.7568 139.349 65.9269 137.712C68.1263 136.047 68.3316 134.527 67.8037 132.686C67.3932 131.225 66.5427 130.553 66.1615 129.296C66.0149 128.887 66.4255 128.478 66.836 128.624C67.4812 128.887 67.8037 129.442 68.6248 129.939C70.4137 130.991 73.2583 130.143 74.3433 128.186C75.4284 126.228 75.6336 124.065 75.0471 121.903C74.7539 120.734 74.3433 119.594 73.6395 118.63C72.789 117.519 70.9122 116.759 69.5339 116.935C66.7773 117.256 65.575 118.659 64.3433 119.974C62.9943 121.435 62.5837 122.136 61.8213 122.253H60.8536V122.224Z" fill="#0C0A35"/>
<path d="M40.6776 26.1685C40.6776 26.9283 40.9709 28.0095 40.9709 28.7401C40.9709 29.4999 40.9709 30.2597 40.8829 31.0195C40.5896 33.6203 39.6512 36.075 37.7157 37.7992C39.4752 37.9161 43.9034 37.9161 45.663 37.7992C43.7275 36.075 42.789 33.5911 42.4958 31.0195C42.4078 30.2597 42.4078 29.4999 42.4078 28.7401C42.4078 27.9803 42.7011 26.899 42.7011 26.1685H40.6483H40.6776Z" fill="#0C0A35"/>
<path d="M41.2054 28.039C40.4723 28.1559 40.0325 28.8572 38.6835 30.3184C37.4518 31.6334 36.2494 33.0361 33.4928 33.3868C32.0852 33.5621 30.2377 32.8023 29.3873 31.6919C28.6834 30.7275 28.2729 29.5878 27.9797 28.4189C27.4225 26.2564 27.6278 24.0939 28.6835 22.136C29.7392 20.1781 32.6131 19.3014 34.402 20.3826C35.3404 20.9379 35.6629 21.6392 36.5427 21.7853C36.8066 21.8438 37.0412 21.5808 36.9826 21.3178C36.6307 20.0027 35.6922 19.8274 35.2524 18.2493C34.7245 16.3791 34.4313 14.9472 37.0999 12.5801C39.1527 10.7975 44.1087 10.9436 46.2788 12.5801C48.4782 14.2458 48.6834 15.7654 48.1556 17.6064C47.745 19.0676 46.8946 19.7397 46.5134 20.9963C46.3961 21.4054 46.7773 21.8145 47.1879 21.6684C47.833 21.4054 48.1557 20.821 48.9768 20.3534C50.7656 19.3014 53.6102 20.1488 54.6952 22.1068C55.7802 24.0647 55.9855 26.2272 55.399 28.3897C55.1057 29.5586 54.6952 30.6983 53.9914 31.6626C53.141 32.8023 51.2935 33.5329 49.8859 33.3576C47.1293 33.0069 45.9269 31.6334 44.6952 30.2892C43.3462 28.828 42.9357 28.1267 42.1732 28.0098H41.2054V28.039Z" fill="#0C0A35"/>
<path d="M78.5661 26.1685C78.5661 26.9283 78.8593 28.0095 78.8593 28.7401C78.8593 29.4999 78.8593 30.2597 78.7713 31.0195C78.478 33.6203 77.569 36.075 75.6042 37.7992C77.3637 37.9161 81.7918 37.9161 83.5514 37.7992C81.6159 36.075 80.6775 33.5911 80.3843 31.0195C80.2963 30.2597 80.2963 29.4999 80.2963 28.7401C80.2963 27.9803 80.5896 26.899 80.5896 26.1685H78.5367H78.5661Z" fill="#0C0A35"/>
<path d="M79.1232 28.039C78.3901 28.1559 77.9501 28.8572 76.6012 30.3184C75.3695 31.6334 74.1672 33.0361 71.4106 33.3868C70.0029 33.5621 68.1555 32.8023 67.305 31.6919C66.6012 30.7275 66.1906 29.5878 65.8974 28.4189C65.3402 26.2564 65.5454 24.0939 66.6011 22.136C67.6569 20.1781 70.5308 19.3014 72.3197 20.3826C73.2581 20.9379 73.5806 21.6392 74.4604 21.7853C74.7243 21.8438 74.9589 21.5808 74.871 21.3178C74.5191 20.0027 73.5806 19.8274 73.1408 18.2493C72.6129 16.3791 72.3196 14.9472 75.0176 12.5801C77.0703 10.7975 82.0264 10.9436 84.1965 12.5801C86.3959 14.2458 86.6012 15.7654 86.0733 17.6064C85.6628 19.0676 84.8123 19.7397 84.4311 20.9963C84.2845 21.4054 84.695 21.8145 85.1055 21.6684C85.7507 21.4054 86.0733 20.821 86.8944 20.3534C88.654 19.3014 91.5278 20.1488 92.6129 22.1068C93.6979 24.0647 93.9033 26.2272 93.3167 28.3897C93.0235 29.5586 92.6129 30.6983 91.9091 31.6626C91.0586 32.8023 89.1818 33.5329 87.8035 33.3576C85.0469 33.0069 83.8445 31.6334 82.6129 30.2892C81.2639 28.828 80.8534 28.1267 80.0909 28.0098H79.1232V28.039Z" fill="#0C0A35"/>
<path d="M40.6776 92.9431C40.6776 93.7029 40.9709 94.7842 40.9709 95.5147C40.9709 96.2745 40.9709 97.0343 40.8829 97.7941C40.5896 100.395 39.6512 102.85 37.7157 104.574C39.4752 104.691 43.9034 104.691 45.663 104.574C43.7275 102.85 42.789 100.366 42.4958 97.7941C42.4078 97.0343 42.4078 96.2745 42.4078 95.5147C42.4078 94.7549 42.7011 93.6737 42.7011 92.9431H40.6483H40.6776Z" fill="#0C0A35"/>
<path d="M41.2054 94.8131C40.4723 94.93 40.0325 95.6314 38.6835 97.0925C37.4518 98.4076 36.2494 99.8103 33.4928 100.161C32.0852 100.336 30.2377 99.5765 29.3873 98.466C28.6834 97.5016 28.2729 96.362 27.9797 95.1931C27.4225 93.0306 27.6278 90.8681 28.6835 88.9101C29.7392 86.9522 32.6131 86.0755 34.402 87.1568C35.3404 87.712 35.6629 88.4133 36.5427 88.5595C36.8066 88.6179 37.0412 88.3549 36.9826 88.0919C36.6307 86.7769 35.6922 86.6015 35.2524 85.0235C34.7245 83.1532 34.4313 81.7213 37.0999 79.3543C39.1527 77.5717 44.1087 77.7178 46.2788 79.3543C48.4782 81.02 48.6834 82.5395 48.1556 84.3806C47.745 85.8417 46.8946 86.5139 46.5134 87.7704C46.3961 88.1796 46.7773 88.5887 47.1879 88.4426C47.833 88.1796 48.1557 87.5951 48.9768 87.1275C50.7656 86.0755 53.6102 86.923 54.6952 88.8809C55.7802 90.8388 55.9855 93.0013 55.399 95.1638C55.1057 96.3327 54.6952 97.4724 53.9914 98.4368C53.141 99.5473 51.2935 100.307 49.8859 100.132C47.1293 99.7811 45.9269 98.4076 44.6952 97.0633C43.3462 95.6022 42.9357 94.9008 42.1732 94.7839H41.2054V94.8131Z" fill="#0C0A35"/>
<path d="M78.5661 92.9431C78.5661 93.7029 78.8593 94.7842 78.8593 95.5147C78.8593 96.2745 78.8593 97.0343 78.7713 97.7941C78.478 100.395 77.569 102.85 75.6042 104.574C77.3637 104.691 81.7918 104.691 83.5514 104.574C81.6159 102.85 80.6775 100.366 80.3843 97.7941C80.2963 97.0343 80.2963 96.2745 80.2963 95.5147C80.2963 94.7549 80.5896 93.6737 80.5896 92.9431H78.5367H78.5661Z" fill="#0C0A35"/>
<path d="M79.1232 94.8131C78.3901 94.93 77.9501 95.6314 76.6012 97.0925C75.3695 98.4076 74.1672 99.8103 71.4106 100.161C70.0029 100.336 68.1555 99.5765 67.305 98.466C66.6012 97.5016 66.1906 96.362 65.8974 95.1931C65.3402 93.0306 65.5454 90.8681 66.6011 88.9101C67.6569 86.9522 70.5308 86.0755 72.3197 87.1568C73.2581 87.712 73.5806 88.4133 74.4604 88.5595C74.7243 88.6179 74.9589 88.3549 74.871 88.0919C74.5191 86.7769 73.5806 86.6015 73.1408 85.0235C72.6129 83.1532 72.3196 81.7213 75.0176 79.3543C77.0703 77.5717 82.0264 77.7178 84.1965 79.3543C86.3959 81.02 86.6012 82.5395 86.0733 84.3806C85.6628 85.8417 84.8123 86.5139 84.4311 87.7704C84.2845 88.1796 84.695 88.5887 85.1055 88.4426C85.7507 88.1796 86.0733 87.5951 86.8944 87.1275C88.654 86.0755 91.5278 86.923 92.6129 88.8809C93.6979 90.8388 93.9033 93.0013 93.3167 95.1638C93.0235 96.3327 92.6129 97.4724 91.9091 98.4368C91.0586 99.5473 89.1818 100.307 87.8035 100.132C85.0469 99.7811 83.8445 98.4076 82.6129 97.0633C81.2639 95.6022 80.8534 94.9008 80.0909 94.7839H79.1232V94.8131Z" fill="#0C0A35"/>
<path d="M80.6191 156.59C80.6191 155.83 80.3258 154.749 80.3258 154.019C80.3258 153.259 80.3258 152.499 80.4138 151.739C80.707 149.138 81.6455 146.684 83.581 144.959C81.8214 144.843 77.3933 144.843 75.6338 144.959C77.5693 146.684 78.5077 149.168 78.8009 151.739C78.8889 152.499 78.8889 153.259 78.8889 154.019C78.8889 154.778 78.5956 155.86 78.5956 156.59H80.6484H80.6191Z" fill="#0C0A35"/>
<path d="M80.0911 154.691C80.8242 154.574 81.2641 153.873 82.6131 152.411C83.8447 151.096 85.0471 149.694 87.8037 149.343C89.2114 149.168 91.0588 149.927 91.9093 151.038C92.6131 152.002 93.0237 153.142 93.3169 154.311C93.8741 156.473 93.6688 158.636 92.6131 160.594C91.5574 162.552 88.6835 163.428 86.8946 162.347C85.9562 161.792 85.6336 161.091 84.7539 160.945C84.4899 160.886 84.2554 161.149 84.3433 161.412C84.6952 162.727 85.6337 162.902 86.0735 164.48C86.6014 166.351 86.8946 167.783 84.1967 170.15C82.1439 171.932 77.1878 171.786 75.0178 170.15C72.8183 168.484 72.6131 166.964 73.141 165.123C73.5515 163.662 74.402 162.99 74.7832 161.734C74.9298 161.324 74.5192 160.915 74.1087 161.061C73.4635 161.324 73.141 161.909 72.3199 162.376C70.5603 163.428 67.6864 162.581 66.6013 160.623C65.5163 158.665 65.311 156.503 65.8976 154.34C66.1908 153.2 66.6014 152.032 67.3052 151.067C68.1557 149.957 70.0325 149.197 71.4108 149.372C74.1674 149.723 75.3697 151.096 76.6014 152.441C77.9503 153.902 78.3609 154.603 79.1234 154.72H80.0911V154.691Z" fill="#0C0A35"/>
<path d="M42.701 156.59C42.701 155.83 42.4077 154.749 42.4077 154.019C42.4077 153.259 42.4077 152.499 42.4957 151.739C42.789 149.138 43.7274 146.684 45.6629 144.959C43.9034 144.843 39.4752 144.843 37.7156 144.959C39.6511 146.684 40.5896 149.168 40.8828 151.739C40.9708 152.499 40.9708 153.259 40.9708 154.019C40.9708 154.778 40.6775 155.86 40.6775 156.59H42.7304H42.701Z" fill="#0C0A35"/>
<path d="M42.1734 154.691C42.9065 154.574 43.3464 153.873 44.6953 152.411C45.927 151.096 47.1294 149.694 49.886 149.343C51.2936 149.168 53.1411 149.927 53.9916 151.038C54.6954 152.002 55.1059 153.142 55.3991 154.311C55.9563 156.473 55.7511 158.636 54.6953 160.594C53.6396 162.552 50.7658 163.428 48.9769 162.347C48.0385 161.792 47.7159 161.091 46.8361 160.945C46.5722 160.886 46.3376 161.149 46.3963 161.412C46.7482 162.727 47.6866 162.902 48.1265 164.48C48.6543 166.351 48.9182 167.783 46.2496 170.15C44.1968 171.932 39.2408 171.786 37.0707 170.15C34.8713 168.484 34.666 166.964 35.1939 165.123C35.6044 163.662 36.4549 162.99 36.8361 161.734C36.9534 161.324 36.5721 160.915 36.1616 161.061C35.5164 161.324 35.1939 161.909 34.3728 162.376C32.5839 163.428 29.7393 162.581 28.6543 160.623C27.5692 158.665 27.364 156.503 27.9505 154.34C28.2437 153.2 28.6543 152.032 29.3581 151.067C30.2086 149.957 32.0561 149.197 33.4637 149.372C36.2203 149.723 37.4226 151.096 38.6543 152.441C40.0033 153.902 40.4139 154.603 41.1763 154.72H42.144L42.1734 154.691Z" fill="#0C0A35"/>
</g>
<defs>
<filter id="filter0_d_59_6058" x="0.941528" y="0.627686" width="119.472" height="185.474" filterUnits="userSpaceOnUse" color-interpolation-filters="sRGB">
<feFlood flood-opacity="0" result="BackgroundImageFix"/>
<feColorMatrix in="SourceAlpha" type="matrix" values="0 0 0 0 0 0 0 0 0 0 0 0 0 0 0 0 0 0 127 0" result="hardAlpha"/>
<feOffset dy="4"/>
<feComposite in2="hardAlpha" operator="out"/>
<feColorMatrix type="matrix" values="0 0 0 0 0 0 0 0 0 0 0 0 0 0 0 0 0 0 0.25 0"/>
<feBlend mode="normal" in2="BackgroundImageFix" result="effect1_dropShadow_59_6058"/>
<feBlend mode="normal" in="SourceGraphic" in2="effect1_dropShadow_59_6058" result="shape"/>
</filter>
</defs>
</svg>
