<svg width="121" height="187" viewBox="0 0 121 187" fill="none" xmlns="http://www.w3.org/2000/svg">
<g filter="url(#filter0_d_59_6409)">
<path d="M10.8913 0.797363H110.134C115.704 0.797363 120.249 5.3269 120.249 10.8792V172.19C120.249 177.742 115.704 182.271 110.134 182.271H10.8913C5.32086 182.271 0.77652 177.742 0.77652 172.19V10.8792C0.77652 5.3269 5.32086 0.797363 10.8913 0.797363Z" fill="white"/>
<path d="M104.388 148.548C104.388 148.256 104.505 147.817 104.505 147.525C104.505 147.233 104.505 146.912 104.476 146.619C104.359 145.597 103.977 144.603 103.215 143.902C103.919 143.872 105.678 143.872 106.382 143.902C105.59 144.603 105.238 145.567 105.121 146.619C105.092 146.941 105.091 147.233 105.091 147.525C105.091 147.817 105.209 148.256 105.209 148.548H104.388Z" fill="#0C0A35"/>
<path d="M104.652 147.379C104.036 146.415 102.922 145.772 101.778 145.801C100.635 145.83 99.521 146.678 99.3157 147.788C99.1105 148.782 99.6089 149.776 100.283 150.506C100.958 151.237 101.896 151.733 102.746 152.289C103.596 152.844 104.798 154.247 104.798 154.247C104.798 154.247 106.118 152.873 106.851 152.318C107.642 151.704 108.639 151.237 109.313 150.506C109.988 149.776 110.486 148.753 110.281 147.788C110.046 146.678 108.961 145.83 107.818 145.801C106.675 145.772 105.561 146.415 104.945 147.379H104.652V147.379Z" fill="#0C0A35"/>
<path d="M16.1982 33.7017C16.1982 33.9939 16.0809 34.4322 16.0809 34.7245C16.0809 35.0459 16.0809 35.3382 16.1102 35.6304C16.2275 36.6824 16.6086 37.6467 17.3709 38.3481C16.6672 38.3773 14.9081 38.3773 14.2045 38.3481C14.9961 37.6467 15.3479 36.6824 15.4652 35.6304C15.4945 35.3382 15.4945 35.0167 15.4945 34.7245C15.4945 34.4322 15.3773 33.9939 15.3773 33.7017H16.1982Z" fill="#0C0A35"/>
<path d="M15.9343 34.8708C16.5499 35.8352 17.6641 36.478 18.8075 36.4488C19.9509 36.4196 21.065 35.5722 21.2702 34.4617C21.4754 33.4681 20.977 32.4745 20.3027 31.7439C19.6284 31.0134 18.6902 30.5166 17.84 29.9613C16.9897 29.4061 15.7877 28.0034 15.7877 28.0034C15.7877 28.0034 14.4683 29.3769 13.7354 29.9321C12.9438 30.5458 11.947 31.0134 11.2726 31.7439C10.5983 32.4745 10.0999 33.4973 10.3051 34.4617C10.5397 35.5722 11.6245 36.4196 12.7679 36.4488C13.9113 36.478 15.0254 35.8352 15.6411 34.8708H15.9343V34.8708Z" fill="#0C0A35"/>
<path d="M21.0357 9.27197L20.8598 11.0838H12.5627L12.2109 16.5485C13.4716 15.3211 14.8495 14.7074 16.3447 14.7074C17.9279 14.7074 19.2766 15.2627 20.4493 16.3439C21.5927 17.4251 22.1791 18.8279 22.1791 20.5228C22.1791 22.2177 21.5634 23.6496 20.3027 24.7601C19.042 25.8706 17.5175 26.3966 15.7291 26.3966C14.3218 26.3966 13.0611 26.0459 11.947 25.2861C10.8329 24.5555 10.1293 23.5912 9.77744 22.4223L11.5659 21.8086C12.2988 23.7665 13.7061 24.7309 15.7584 24.7309C17.107 24.7309 18.1625 24.351 18.954 23.5327C19.7456 22.7437 20.1268 21.7209 20.1268 20.4935C20.1268 19.2077 19.7456 18.1849 18.954 17.4836C18.1625 16.753 17.2243 16.4024 16.1395 16.4024C14.5563 16.4024 13.2077 17.1621 12.1815 18.7109L10.5104 18.3603L11.0674 9.27197H21.065H21.0357Z" fill="#0C0A35"/>
<path d="M100.02 173.796L100.196 171.984H108.493L108.844 166.52C107.584 167.747 106.206 168.361 104.711 168.361C103.127 168.361 101.779 167.805 100.606 166.724C99.4626 165.614 98.8762 164.24 98.8762 162.545C98.8762 160.85 99.4919 159.419 100.753 158.308C102.013 157.198 103.538 156.672 105.326 156.672C106.734 156.672 107.994 157.051 109.108 157.782C110.222 158.513 110.926 159.477 111.278 160.646L109.489 161.26C108.756 159.302 107.349 158.337 105.297 158.337C103.948 158.337 102.893 158.746 102.101 159.535C101.31 160.324 100.928 161.347 100.928 162.575C100.928 163.802 101.31 164.883 102.101 165.585C102.893 166.315 103.831 166.666 104.916 166.666C106.499 166.666 107.848 165.906 108.874 164.386L110.545 164.737L109.988 173.825H99.9903L100.02 173.796Z" fill="#0C0A35"/>
<path d="M43.3176 24.4382C43.3176 25.198 43.0244 26.2501 43.0244 27.0099C43.0244 27.7697 43.0244 28.5294 43.1124 29.2892C43.4056 31.8609 44.3437 34.3448 46.2788 36.0689C44.5197 36.1858 40.0926 36.1858 38.3335 36.0689C40.2685 34.3448 41.2067 31.8609 41.4999 29.2892C41.5878 28.5294 41.5878 27.7697 41.5878 27.0099C41.5878 26.2501 41.2946 25.198 41.2946 24.4382H43.3469H43.3176Z" fill="#0C0A35"/>
<path d="M42.6432 27.3019C44.197 29.6982 46.953 31.3639 49.8262 31.2762C52.6994 31.1886 55.4553 29.1137 56.0124 26.3083C56.5108 23.8536 55.3087 21.3112 53.579 19.4702C51.8785 17.6292 49.5037 16.431 47.4221 15.0283C45.2818 13.6256 42.2621 10.1189 42.2621 10.1189C42.2621 10.1189 38.9784 13.538 37.1314 14.9407C35.1377 16.4602 32.6456 17.6291 30.9452 19.441C29.2447 21.282 28.0427 23.7952 28.5117 26.2791C29.0688 29.0845 31.854 31.1594 34.6979 31.247C37.5711 31.3347 40.327 29.669 41.8809 27.2727H42.6139L42.6432 27.3019Z" fill="#0C0A35"/>
<path d="M79.7308 24.4382C79.7308 25.198 79.4376 26.2501 79.4376 27.0099C79.4376 27.7697 79.4376 28.5294 79.5256 29.2892C79.8188 31.8609 80.757 34.3448 82.692 36.0689C80.9329 36.1858 76.5058 36.1858 74.7467 36.0689C76.6817 34.3448 77.6199 31.8609 77.9131 29.2892C78.001 28.5294 78.0011 27.7697 78.0011 27.0099C78.0011 26.2501 77.7079 25.198 77.7079 24.4382H79.7601H79.7308Z" fill="#0C0A35"/>
<path d="M79.0858 27.3019C80.6397 29.6982 83.3956 31.3639 86.2688 31.2762C89.1127 31.1886 91.898 29.1137 92.455 26.3083C92.9534 23.8536 91.7514 21.3112 90.0216 19.4702C88.3211 17.6292 85.9464 16.431 83.8648 15.0283C81.7245 13.6256 78.7047 10.1189 78.7047 10.1189C78.7047 10.1189 75.421 13.538 73.574 14.9407C71.5803 16.4602 69.0883 17.6291 67.3878 19.441C65.6873 21.282 64.4853 23.7952 64.9544 26.2791C65.5114 29.0845 68.2967 31.1594 71.1406 31.247C74.0138 31.3347 76.7697 29.669 78.3235 27.2727H79.0565L79.0858 27.3019Z" fill="#0C0A35"/>
<path d="M77.7081 158.601C77.7081 157.841 78.0013 156.76 78.0013 156.029C78.0013 155.27 78.0012 154.51 77.9133 153.75C77.6201 151.149 76.6819 148.694 74.7469 146.97C76.506 146.853 80.9331 146.853 82.6922 146.97C80.7572 148.694 79.819 151.178 79.5258 153.75C79.4378 154.51 79.4378 155.27 79.4378 156.029C79.4378 156.789 79.731 157.87 79.731 158.601H77.6788H77.7081Z" fill="#0C0A35"/>
<path d="M78.3533 155.766C76.7994 153.37 74.0435 151.704 71.1703 151.792C68.2971 151.88 65.5412 153.955 64.9841 156.76C64.4857 159.215 65.6878 161.757 67.4175 163.598C69.118 165.439 71.4928 166.637 73.5744 168.04C75.7146 169.443 78.7344 172.949 78.7344 172.949C78.7344 172.949 82.0181 169.53 83.8651 168.128C85.8588 166.608 88.3508 165.439 90.0513 163.627C91.7517 161.786 92.9538 159.273 92.4847 156.789C91.9277 153.984 89.1424 151.909 86.2985 151.821C83.4253 151.734 80.6694 153.399 79.1155 155.796H78.3826L78.3533 155.766Z" fill="#0C0A35"/>
<path d="M41.2652 158.601C41.2652 157.841 41.5584 156.76 41.5584 156.029C41.5584 155.27 41.5584 154.51 41.4704 153.75C41.1773 151.149 40.2391 148.694 38.304 146.97C40.0631 146.853 44.4902 146.853 46.2493 146.97C44.3143 148.694 43.3761 151.178 43.083 153.75C42.995 154.51 42.995 155.27 42.995 156.029C42.995 156.789 43.2882 157.87 43.2882 158.601H41.2359H41.2652Z" fill="#0C0A35"/>
<path d="M41.9103 155.766C40.3564 153.37 37.6005 151.704 34.7273 151.792C31.8541 151.88 29.0982 153.955 28.5411 156.76C28.0427 159.215 29.2448 161.757 30.9745 163.598C32.675 165.439 35.0498 166.637 37.1314 168.04C39.2717 169.443 42.2914 172.949 42.2914 172.949C42.2914 172.949 45.5751 169.53 47.4221 168.128C49.4158 166.608 51.9079 165.439 53.6083 163.627C55.3088 161.786 56.5108 159.273 56.0418 156.789C55.4847 153.984 52.6995 151.909 49.8556 151.821C46.9824 151.734 44.2265 153.399 42.6726 155.796H41.9396L41.9103 155.766Z" fill="#0C0A35"/>
<path d="M61.5243 92.8191C61.5243 93.5789 61.2311 94.6309 61.2311 95.3907C61.2311 96.1505 61.2311 96.9103 61.3191 97.6701C61.6123 100.242 62.5504 102.726 64.4855 104.45C62.7264 104.567 58.2993 104.567 56.5402 104.45C58.4752 102.726 59.4134 100.242 59.7065 97.6701C59.7945 96.9103 59.7945 96.1505 59.7945 95.3907C59.7945 94.6309 59.5013 93.5789 59.5013 92.8191H61.5536H61.5243Z" fill="#0C0A35"/>
<path d="M60.8793 95.6833C62.4332 98.0796 65.1891 99.7453 68.0623 99.6576C70.9062 99.57 73.6914 97.4951 74.2485 94.6897C74.7469 92.235 73.5449 89.6926 71.8151 87.8516C70.1146 86.0105 67.7398 84.8124 65.6582 83.4097C63.518 82.007 60.4982 78.5002 60.4982 78.5002C60.4982 78.5002 57.2146 81.9193 55.3675 83.322C53.3739 84.8416 50.8818 86.0105 49.1813 87.8223C47.4809 89.6634 46.2788 92.1765 46.7479 94.6605C47.3049 97.4659 50.0902 99.5407 52.9341 99.6284C55.778 99.716 58.5339 98.0503 60.1171 95.6541H60.85L60.8793 95.6833Z" fill="#0C0A35"/>
</g>
<defs>
<filter id="filter0_d_59_6409" x="0.77652" y="0.797363" width="119.472" height="185.474" filterUnits="userSpaceOnUse" color-interpolation-filters="sRGB">
<feFlood flood-opacity="0" result="BackgroundImageFix"/>
<feColorMatrix in="SourceAlpha" type="matrix" values="0 0 0 0 0 0 0 0 0 0 0 0 0 0 0 0 0 0 127 0" result="hardAlpha"/>
<feOffset dy="4"/>
<feComposite in2="hardAlpha" operator="out"/>
<feColorMatrix type="matrix" values="0 0 0 0 0 0 0 0 0 0 0 0 0 0 0 0 0 0 0.25 0"/>
<feBlend mode="normal" in2="BackgroundImageFix" result="effect1_dropShadow_59_6409"/>
<feBlend mode="normal" in="SourceGraphic" in2="effect1_dropShadow_59_6409" result="shape"/>
</filter>
</defs>
</svg>
