<svg width="146" height="165" viewBox="0 0 146 165" fill="none" xmlns="http://www.w3.org/2000/svg">
<g filter="url(#filter0_d_53_132)">
<path d="M100.045 13.9604L31.2914 18.5485L11.3581 33.088L35.7656 38.4794L101.25 26.3311L100.045 13.9604Z" fill="#EE5142"/>
<path d="M11.2889 32.5928L11.1933 33.5601L34.7237 41.778L34.8545 41.8236L34.9901 41.7955L102.028 27.8925L102.487 27.7974L102.422 27.3336L101.463 20.4833L101.393 19.9882L100.898 20.0575L11.2889 32.5928Z" fill="#ED6953" stroke="#FEF0C7"/>
<path d="M100.543 13.9119L100.496 13.4292L100.012 13.4615L31.2582 18.0496L31.1138 18.0593L30.9969 18.1446L11.0635 32.6841L10.1681 33.3372L11.2503 33.5762L35.6578 38.9677L35.757 38.9896L35.8568 38.9711L101.341 26.8227L101.792 26.7391L101.748 26.2827L100.543 13.9119Z" fill="#EE5142" stroke="#FEF0C7"/>
<path d="M11.3581 33.088L100.967 20.5527L101.926 27.403L34.8885 41.3059L11.3581 33.088Z" fill="#ED6953"/>
<path d="M105.8 1.38763C103.349 -0.450783 99.8721 0.0458228 98.0337 2.49683C96.1953 4.94783 96.6919 8.42508 99.1429 10.2635C101.594 12.1019 105.071 11.6053 106.91 9.15429C108.748 6.70329 108.251 3.22603 105.8 1.38763Z" fill="#762B20"/>
<path d="M109.795 29.9418C107.344 28.1034 103.866 28.6 102.028 31.051C100.19 33.502 100.686 36.9792 103.137 38.8176C105.588 40.656 109.066 40.1594 110.904 37.7084C112.742 35.2574 112.246 31.7802 109.795 29.9418Z" fill="#762B20"/>
<path d="M132.494 11.4439C129.57 9.25089 125.422 9.84329 123.229 12.7671C121.036 15.6909 121.628 19.8388 124.552 22.0319C127.476 24.2249 131.624 23.6325 133.817 20.7087C136.01 17.7849 135.417 13.6369 132.494 11.4439Z" fill="#762B20"/>
<path d="M107.25 34.2728L100.972 35.1512L96.9766 6.59728L103.254 5.71882L107.25 34.2728Z" fill="#762B20"/>
<path d="M126.85 12.8488L99.5892 16.3542L100.352 24.4806L128.065 21.5361L126.85 12.8488Z" fill="#762B20"/>
<path d="M131.784 14.8647C132.023 15.2795 132.178 15.7358 132.245 16.2181C132.533 18.2697 131.096 20.1739 129.044 20.4618C127.516 20.676 126.032 19.9502 125.262 18.6123C125.023 18.1974 124.867 17.7411 124.8 17.2589C124.512 15.2072 125.95 13.3031 128.002 13.016C129.531 12.8018 131.014 13.5287 131.784 14.8647Z" fill="#FED78F"/>
<path d="M104.805 4.48679C104.976 4.78278 105.088 5.10963 105.136 5.45477C105.235 6.16617 105.052 6.87385 104.618 7.44696C104.185 8.02006 103.555 8.3906 102.845 8.48999C101.752 8.64308 100.69 8.12335 100.139 7.16736C99.9681 6.87136 99.8561 6.54451 99.8079 6.19938C99.7093 5.48798 99.8919 4.7803 100.325 4.20719C100.759 3.63409 101.388 3.26355 102.099 3.16416C103.192 3.01106 104.254 3.5308 104.805 4.48679Z" fill="#FED78F"/>
<path d="M108.799 33.0409C108.97 33.3369 109.081 33.6629 109.13 34.0089C109.335 35.4765 108.307 36.8396 106.838 37.0452C105.745 37.1983 104.685 36.6783 104.134 35.7223C103.963 35.4263 103.851 35.0995 103.803 34.7543C103.598 33.2847 104.625 31.9228 106.094 31.7171C107.187 31.564 108.249 32.0838 108.799 33.0409Z" fill="#FED78F"/>
</g>
<g filter="url(#filter1_d_53_132)">
<path d="M102 109.232V110H85.4022C85.2114 106.352 84.806 102.576 84.186 98.672C81.2289 102.704 77.8903 106.48 74.1701 110H57.5008C57.1669 107.376 57 103.92 57 99.632C57 95.28 57.4769 90.928 58.4308 86.576C61.8649 85.232 65.1558 82.96 68.3037 79.76C71.4992 76.56 73.8124 73.104 75.2432 69.392C73.9555 66.704 72.5962 64.24 71.1653 62H94.9173C99.6391 75.76 102 91.504 102 109.232ZM82.8982 91.664C81.6582 85.968 80.0366 80.592 78.0334 75.536C75.7917 84.368 74.504 92.72 74.1701 100.592C77.6041 98.224 80.5135 95.248 82.8982 91.664Z" fill="#8C1912"/>
</g>
<path d="M99 106.232V107H82.4022C82.2114 103.352 81.806 99.576 81.186 95.672C78.2289 99.704 74.8903 103.48 71.1701 107H54.5008C54.1669 104.376 54 100.92 54 96.632C54 92.28 54.4769 87.928 55.4308 83.576C58.8649 82.232 62.1558 79.96 65.3037 76.76C68.4992 73.56 70.8124 70.104 72.2432 66.392C70.9555 63.704 69.5962 61.24 68.1653 59H91.9173C96.6391 72.76 99 88.504 99 106.232ZM79.8982 88.664C78.6582 82.968 77.0366 77.592 75.0334 72.536C72.7917 81.368 71.504 89.72 71.1701 97.592C74.6041 95.224 77.5135 92.248 79.8982 88.664Z" fill="url(#paint0_linear_53_132)" stroke="#FEF0C7"/>
<g filter="url(#filter2_d_53_132)">
<path d="M140.274 72.8291L139.949 76.0777C135.938 78.5253 131.024 80.2928 125.207 81.3802C129.176 83.1659 133.059 84.2068 136.857 84.5028L138.352 84.6194C140.561 89.9912 141.744 96.567 141.902 104.347L123.458 102.909C123.331 98.4059 122.656 94.5016 121.433 91.1966C120.262 87.8314 118.677 85.4932 116.678 84.1819C116.546 85.2629 116.353 87.4305 116.099 90.6846C115.846 93.9387 115.687 97.8101 115.624 102.299L100.1 101.089C99.4441 91.7296 99.4246 83.094 100.041 75.1819C100.663 67.2061 101.57 59.8624 102.761 53.1507L139.934 56.0479C140.524 62.5775 140.637 68.1712 140.274 72.8291ZM119.994 60.9453C118.986 66.5158 118.129 72.0018 117.421 77.4031C120.072 77.0962 122.305 76.0185 124.121 74.17C123.552 69.8247 122.177 65.4164 119.994 60.9453Z" fill="#8C1912"/>
</g>
<path d="M139.473 69.7561L139.148 73.0047C135.136 75.4523 130.222 77.2198 124.406 78.3072C128.374 80.0929 132.257 81.1338 136.055 81.4298L137.551 81.5464C139.759 86.9182 140.942 93.494 141.1 101.274L122.656 99.8363C122.53 95.3329 121.855 91.4286 120.632 88.1236C119.461 84.7584 117.876 82.4202 115.877 81.1089C115.745 82.1899 115.552 84.3575 115.298 87.6116C115.044 90.8657 114.886 94.7371 114.823 99.2258L99.2984 98.0158C98.6427 88.6566 98.6232 80.021 99.2399 72.1089C99.8615 64.1331 100.768 56.7894 101.96 50.0777L139.133 52.9749C139.723 59.5045 139.836 65.0982 139.473 69.7561ZM119.192 57.8723C118.185 63.4428 117.327 68.9288 116.62 74.3301C119.271 74.0232 121.504 72.9455 123.32 71.097C122.751 66.7517 121.375 62.3434 119.192 57.8723Z" fill="url(#paint1_linear_53_132)" stroke="#FEF0C7"/>
<g filter="url(#filter3_d_53_132)">
<path d="M47.512 67.8888C46.587 62.9833 45.2561 58.2194 43.5192 53.5972L57.5167 50.9579C57.7293 51.8948 58.0076 53.2751 58.3515 55.099C59.8694 63.1491 60.5344 69.9272 60.3467 75.4334C57.556 77.6529 55.3885 80.3085 53.844 83.4002C52.2996 86.4919 51.8001 89.4842 52.3456 92.3772C52.8792 95.2074 54.1029 97.7771 56.0167 100.087L42.8549 102.568C39.6052 97.1892 36.5142 90.8359 33.5821 83.5083C33.3225 88.4418 33.5009 92.5438 34.1176 95.8141C34.7223 99.0216 35.7371 101.631 37.1619 103.642L24.0524 106.113C20.1617 100.204 16.4818 93.2127 13.0125 85.1398C9.54325 77.0668 6.70705 69.0047 4.50391 60.9535L18.3969 58.334C21.5384 71.7441 25.1871 82.6814 29.3432 91.1459C30.0873 85.3395 29.7242 78.537 28.2537 70.7384C27.4592 66.5247 26.2976 61.9894 24.7689 57.1325L37.1995 54.7887C40.1045 67.1363 43.8577 78.0539 48.4591 87.5416C49.1202 81.295 48.8045 74.744 47.512 67.8888Z" fill="#8C1912"/>
</g>
<path d="M44.008 65.4966C43.0831 60.591 41.7522 55.8272 40.0153 51.2049L54.0127 48.5657C54.2254 49.5025 54.5037 50.8829 54.8476 52.7067C56.3655 60.7569 57.0305 67.535 56.8427 73.0412C54.0521 75.2607 51.8846 77.9163 50.3401 81.008C48.7957 84.0996 48.2962 87.092 48.8417 89.985C49.3753 92.8152 50.599 95.3849 52.5128 97.6943L39.351 100.176C36.1012 94.797 33.0103 88.4437 30.0782 81.1161C29.8186 86.0496 29.997 90.1516 30.6137 93.4219C31.2184 96.6294 32.2332 99.2386 33.658 101.249L20.5485 103.721C16.6578 97.8117 12.9779 90.8205 9.50861 82.7475C6.03935 74.6746 3.20314 66.6125 1 58.5613L14.893 55.9418C18.0345 69.3519 21.6832 80.2892 25.8393 88.7537C26.5834 82.9473 26.2202 76.1448 24.7498 68.3462C23.9553 64.1325 22.7937 59.5972 21.265 54.7403L33.6955 52.3965C36.6006 64.7441 40.3538 75.6617 44.9552 85.1494C45.6163 78.9028 45.3006 72.3518 44.008 65.4966Z" fill="url(#paint2_linear_53_132)" stroke="#FEF0C7"/>
<g filter="url(#filter4_d_53_132)">
<path d="M49.7378 143.073L118.505 138.681L138.479 124.199L114.087 118.738L48.5686 130.699L49.7378 143.073Z" fill="#EE5142"/>
<path d="M138.547 124.694L138.645 123.727L115.139 115.442L115.008 115.396L114.872 115.424L47.7949 129.135L47.336 129.229L47.3996 129.693L48.3391 136.546L48.407 137.042L48.9023 136.974L138.547 124.694Z" fill="#ED6953" stroke="#FEF0C7"/>
<path d="M49.2399 143.12L49.2855 143.603L49.7695 143.572L118.536 139.18L118.681 139.171L118.798 139.086L138.773 124.603L139.67 123.953L138.588 123.711L114.196 118.25L114.097 118.227L113.997 118.246L48.4787 130.207L48.0276 130.29L48.0707 130.746L49.2399 143.12Z" fill="#EE5142" stroke="#FEF0C7"/>
<path d="M138.479 124.199L48.8345 136.478L47.8951 129.625L114.972 115.914L138.479 124.199Z" fill="#ED6953"/>
<path d="M43.947 155.63C46.3927 157.475 49.8714 156.988 51.7168 154.542C53.5622 152.097 53.0755 148.618 50.6297 146.773C48.184 144.927 44.7053 145.414 42.8599 147.86C41.0145 150.306 41.5012 153.784 43.947 155.63Z" fill="#762B20"/>
<path d="M40.0341 127.064C42.4798 128.91 45.9585 128.423 47.8039 125.977C49.6493 123.531 49.1626 120.053 46.7168 118.207C44.2711 116.362 40.7924 116.849 38.947 119.294C37.1016 121.74 37.5883 125.219 40.0341 127.064Z" fill="#762B20"/>
<path d="M17.2827 145.497C20.2002 147.699 24.3498 147.118 26.5512 144.201C28.7525 141.283 28.172 137.133 25.2544 134.932C22.3369 132.731 18.1873 133.311 15.9859 136.229C13.7846 139.146 14.3651 143.296 17.2827 145.497Z" fill="#762B20"/>
<path d="M42.5911 122.74L48.8714 121.88L52.7856 150.445L46.5052 151.306L42.5911 122.74Z" fill="#762B20"/>
<path d="M22.9303 144.108L50.2008 140.681L49.4614 132.552L21.7399 135.418L22.9303 144.108Z" fill="#762B20"/>
<path d="M18.0022 142.079C17.7646 141.663 17.6099 141.206 17.5444 140.724C17.2624 138.671 18.705 136.771 20.7574 136.489C22.2865 136.279 23.7687 137.009 24.5345 138.35C24.7721 138.765 24.9268 139.222 24.9923 139.704C25.2743 141.757 23.8317 143.657 21.7781 143.938C20.249 144.148 18.7677 143.417 18.0022 142.079Z" fill="#FED78F"/>
<path d="M44.9513 152.533C44.7813 152.237 44.6703 151.91 44.623 151.564C44.5265 150.853 44.7111 150.145 45.1461 149.574C45.5812 149.002 46.212 148.633 46.9225 148.536C48.0163 148.386 49.0768 148.908 49.6249 149.866C49.7949 150.162 49.9059 150.49 49.9532 150.835C50.0497 151.547 49.8651 152.254 49.43 152.826C48.995 153.397 48.3642 153.766 47.6537 153.864C46.5598 154.014 45.4994 153.491 44.9513 152.533Z" fill="#FED78F"/>
<path d="M41.0385 123.968C40.8685 123.671 40.7586 123.345 40.7102 122.999C40.5099 121.531 41.5415 120.171 43.0106 119.969C44.1044 119.819 45.1629 120.342 45.7109 121.3C45.8809 121.596 45.992 121.923 46.0393 122.269C46.2399 123.739 45.2091 125.098 43.74 125.299C42.6462 125.449 41.5857 124.927 41.0385 123.968Z" fill="#FED78F"/>
</g>
<defs>
<filter id="filter0_d_53_132" x="8.97803" y="0.277649" width="126.163" height="46.0637" filterUnits="userSpaceOnUse" color-interpolation-filters="sRGB">
<feFlood flood-opacity="0" result="BackgroundImageFix"/>
<feColorMatrix in="SourceAlpha" type="matrix" values="0 0 0 0 0 0 0 0 0 0 0 0 0 0 0 0 0 0 127 0" result="hardAlpha"/>
<feOffset dy="4"/>
<feComposite in2="hardAlpha" operator="out"/>
<feColorMatrix type="matrix" values="0 0 0 0 0 0 0 0 0 0 0 0 0 0 0 0 0 0 0.25 0"/>
<feBlend mode="normal" in2="BackgroundImageFix" result="effect1_dropShadow_53_132"/>
<feBlend mode="normal" in="SourceGraphic" in2="effect1_dropShadow_53_132" result="shape"/>
</filter>
<filter id="filter1_d_53_132" x="57" y="62" width="45" height="52" filterUnits="userSpaceOnUse" color-interpolation-filters="sRGB">
<feFlood flood-opacity="0" result="BackgroundImageFix"/>
<feColorMatrix in="SourceAlpha" type="matrix" values="0 0 0 0 0 0 0 0 0 0 0 0 0 0 0 0 0 0 127 0" result="hardAlpha"/>
<feOffset dy="4"/>
<feComposite in2="hardAlpha" operator="out"/>
<feColorMatrix type="matrix" values="0 0 0 0 0 0 0 0 0 0 0 0 0 0 0 0 0 0 0.25 0"/>
<feBlend mode="normal" in2="BackgroundImageFix" result="effect1_dropShadow_53_132"/>
<feBlend mode="normal" in="SourceGraphic" in2="effect1_dropShadow_53_132" result="shape"/>
</filter>
<filter id="filter2_d_53_132" x="99.593" y="53.1507" width="42.3087" height="55.1961" filterUnits="userSpaceOnUse" color-interpolation-filters="sRGB">
<feFlood flood-opacity="0" result="BackgroundImageFix"/>
<feColorMatrix in="SourceAlpha" type="matrix" values="0 0 0 0 0 0 0 0 0 0 0 0 0 0 0 0 0 0 127 0" result="hardAlpha"/>
<feOffset dy="4"/>
<feComposite in2="hardAlpha" operator="out"/>
<feColorMatrix type="matrix" values="0 0 0 0 0 0 0 0 0 0 0 0 0 0 0 0 0 0 0.25 0"/>
<feBlend mode="normal" in2="BackgroundImageFix" result="effect1_dropShadow_53_132"/>
<feBlend mode="normal" in="SourceGraphic" in2="effect1_dropShadow_53_132" result="shape"/>
</filter>
<filter id="filter3_d_53_132" x="4.50391" y="50.9579" width="55.8738" height="59.1555" filterUnits="userSpaceOnUse" color-interpolation-filters="sRGB">
<feFlood flood-opacity="0" result="BackgroundImageFix"/>
<feColorMatrix in="SourceAlpha" type="matrix" values="0 0 0 0 0 0 0 0 0 0 0 0 0 0 0 0 0 0 127 0" result="hardAlpha"/>
<feOffset dy="4"/>
<feComposite in2="hardAlpha" operator="out"/>
<feColorMatrix type="matrix" values="0 0 0 0 0 0 0 0 0 0 0 0 0 0 0 0 0 0 0.25 0"/>
<feBlend mode="normal" in2="BackgroundImageFix" result="effect1_dropShadow_53_132"/>
<feBlend mode="normal" in="SourceGraphic" in2="effect1_dropShadow_53_132" result="shape"/>
</filter>
<filter id="filter4_d_53_132" x="14.6505" y="114.878" width="126.21" height="45.8707" filterUnits="userSpaceOnUse" color-interpolation-filters="sRGB">
<feFlood flood-opacity="0" result="BackgroundImageFix"/>
<feColorMatrix in="SourceAlpha" type="matrix" values="0 0 0 0 0 0 0 0 0 0 0 0 0 0 0 0 0 0 127 0" result="hardAlpha"/>
<feOffset dy="4"/>
<feComposite in2="hardAlpha" operator="out"/>
<feColorMatrix type="matrix" values="0 0 0 0 0 0 0 0 0 0 0 0 0 0 0 0 0 0 0.25 0"/>
<feBlend mode="normal" in2="BackgroundImageFix" result="effect1_dropShadow_53_132"/>
<feBlend mode="normal" in="SourceGraphic" in2="effect1_dropShadow_53_132" result="shape"/>
</filter>
<linearGradient id="paint0_linear_53_132" x1="58.3789" y1="59.9984" x2="95.5632" y2="82.3569" gradientUnits="userSpaceOnUse">
<stop stop-color="#F3715C"/>
<stop offset="1" stop-color="#ED5041"/>
</linearGradient>
<linearGradient id="paint1_linear_53_132" x1="104.973" y1="51.3177" x2="140.065" y2="75.9498" gradientUnits="userSpaceOnUse">
<stop stop-color="#F3715C"/>
<stop offset="1" stop-color="#ED5041"/>
</linearGradient>
<linearGradient id="paint2_linear_53_132" x1="9.70422" y1="57.936" x2="52.0582" y2="75.2559" gradientUnits="userSpaceOnUse">
<stop stop-color="#F3715C"/>
<stop offset="1" stop-color="#ED5041"/>
</linearGradient>
</defs>
</svg>
