<svg width="120" height="187" viewBox="0 0 120 187" fill="none" xmlns="http://www.w3.org/2000/svg">
<g filter="url(#filter0_d_59_4972)">
<path d="M109.592 0.797363H10.3786C4.7923 0.797363 0.263733 5.31117 0.263733 10.8792V172.19C0.263733 177.758 4.7923 182.271 10.3786 182.271H109.592C115.178 182.271 119.707 177.758 119.707 172.19V10.8792C119.707 5.31117 115.178 0.797363 109.592 0.797363Z" fill="white"/>
<path d="M103.904 148.548C103.904 148.256 104.022 147.817 104.022 147.525C104.022 147.233 104.022 146.912 103.992 146.619C103.875 145.597 103.494 144.603 102.732 143.902C103.435 143.872 105.194 143.872 105.898 143.902C105.106 144.603 104.754 145.567 104.637 146.619C104.608 146.941 104.608 147.233 104.608 147.525C104.608 147.817 104.725 148.256 104.725 148.548H103.904Z" fill="#0C0A35"/>
<path d="M104.139 147.379C103.523 146.415 102.409 145.772 101.266 145.801C100.122 145.83 99.0081 146.678 98.8028 147.788C98.5976 148.782 99.096 149.776 99.7703 150.506C100.445 151.237 101.383 151.733 102.233 152.289C103.083 152.844 104.285 154.247 104.285 154.247C104.285 154.247 105.605 152.873 106.338 152.318C107.129 151.704 108.126 151.237 108.8 150.506C109.475 149.776 109.973 148.753 109.768 147.788C109.533 146.678 108.449 145.83 107.305 145.801C106.162 145.772 105.077 146.415 104.432 147.379H104.139V147.379Z" fill="#0C0A35"/>
<path d="M97.6011 156.993H99.7707L101.471 161.903H107.716L109.211 156.993H110.97L105.488 173.796H103.113L97.6011 156.993ZM101.911 163.481L104.52 171.546L107.13 163.481H101.911Z" fill="#0C0A35"/>
<path d="M15.6853 33.7017C15.6853 33.9939 15.568 34.4322 15.568 34.7245C15.568 35.0459 15.568 35.3382 15.5973 35.6304C15.7146 36.6824 16.0958 37.6467 16.858 38.3481C16.1544 38.3773 14.3953 38.3773 13.6917 38.3481C14.4832 37.6467 14.8351 36.6824 14.9523 35.6304C14.9817 35.3382 14.9817 35.0167 14.9817 34.7245C14.9817 34.4322 14.8644 33.9939 14.8644 33.7017H15.6853Z" fill="#0C0A35"/>
<path d="M15.4507 34.8708C16.0664 35.8352 17.1805 36.478 18.3239 36.4488C19.4673 36.4196 20.5814 35.5722 20.7866 34.4617C20.9918 33.4681 20.4934 32.4745 19.8191 31.7439C19.1448 31.0134 18.2066 30.5166 17.3564 29.9613C16.5061 29.4061 15.3041 28.0034 15.3041 28.0034C15.3041 28.0034 13.9848 29.3769 13.2518 29.9321C12.4602 30.5458 11.4634 31.0134 10.7891 31.7439C10.1147 32.4745 9.61632 33.4973 9.82155 34.4617C10.0561 35.5722 11.1409 36.4196 12.2843 36.4488C13.4277 36.478 14.5418 35.8352 15.1575 34.8708H15.4507V34.8708Z" fill="#0C0A35"/>
<path d="M61.0115 92.8191C61.0115 93.5789 60.7183 94.6309 60.7183 95.3907C60.7183 96.1505 60.7183 96.9103 60.8062 97.6701C61.0994 100.242 62.0376 102.726 63.9726 104.45C62.2135 104.567 57.7864 104.567 56.0273 104.45C57.9623 102.726 58.9005 100.242 59.1937 97.6701C59.2817 96.9103 59.2817 96.1505 59.2817 95.3907C59.2817 94.6309 58.9885 93.5789 58.9885 92.8191H61.0408H61.0115Z" fill="#0C0A35"/>
<path d="M60.3666 95.6833C61.9205 98.0796 64.6764 99.7453 67.5496 99.6576C70.4228 99.57 73.1787 97.4951 73.7358 94.6897C74.2342 92.235 73.0321 89.6926 71.3024 87.8516C69.6019 86.0105 67.2271 84.8124 65.1455 83.4097C63.0053 82.007 59.9855 78.5002 59.9855 78.5002C59.9855 78.5002 56.7018 81.9193 54.8548 83.322C52.8611 84.8416 50.3691 86.0105 48.6686 87.8223C46.9681 89.6634 45.7661 92.1765 46.2352 94.6605C46.7922 97.4659 49.5775 99.5407 52.4213 99.6284C55.2945 99.716 58.0505 98.0503 59.6043 95.6541H60.3373L60.3666 95.6833Z" fill="#0C0A35"/>
<path d="M21.9888 26.0751H19.8192L18.1187 21.1657H11.8739L10.3787 26.0751H8.6196L14.1021 9.27197H16.4769L21.9888 26.0751V26.0751ZM17.679 19.5876L15.0696 11.5221L12.4603 19.5876H17.679V19.5876Z" fill="#0C0A35"/>
</g>
<defs>
<filter id="filter0_d_59_4972" x="0.263733" y="0.797363" width="119.443" height="185.474" filterUnits="userSpaceOnUse" color-interpolation-filters="sRGB">
<feFlood flood-opacity="0" result="BackgroundImageFix"/>
<feColorMatrix in="SourceAlpha" type="matrix" values="0 0 0 0 0 0 0 0 0 0 0 0 0 0 0 0 0 0 127 0" result="hardAlpha"/>
<feOffset dy="4"/>
<feComposite in2="hardAlpha" operator="out"/>
<feColorMatrix type="matrix" values="0 0 0 0 0 0 0 0 0 0 0 0 0 0 0 0 0 0 0.25 0"/>
<feBlend mode="normal" in2="BackgroundImageFix" result="effect1_dropShadow_59_4972"/>
<feBlend mode="normal" in="SourceGraphic" in2="effect1_dropShadow_59_4972" result="shape"/>
</filter>
</defs>
</svg>
