<svg width="121" height="186" viewBox="0 0 121 186" fill="none" xmlns="http://www.w3.org/2000/svg">
<g filter="url(#filter0_d_59_6203)">
<path d="M10.512 0.33374H109.755C115.325 0.33374 119.869 4.86332 119.869 10.4157V171.726C119.869 177.278 115.325 181.808 109.755 181.808H10.512C4.94155 181.808 0.397217 177.278 0.397217 171.726V10.4157C0.397217 4.86332 4.94155 0.33374 10.512 0.33374Z" fill="white"/>
<path d="M16.9913 37.2131C17.4897 36.7747 18.0174 36.424 18.5452 36.0441C19.1315 35.6058 19.7472 35.2259 20.2163 34.6999C20.5974 34.2616 20.7734 33.794 20.9786 33.2388C21.1545 32.6835 21.1838 31.4854 20.8907 30.9594C19.9818 29.4982 17.4604 28.2416 15.7892 31.4269C15.7892 31.4854 15.7306 31.5146 15.672 31.5146C15.672 31.5146 15.584 31.5146 15.5547 31.4269C13.8835 28.2416 11.3622 29.4982 10.4533 30.9594C10.1308 31.4562 10.1601 32.6543 10.3653 33.2388C10.5412 33.794 10.7465 34.2323 11.1276 34.6999C11.5967 35.2551 12.2124 35.635 12.7988 36.0441C13.3265 36.424 13.8835 36.7747 14.3526 37.2131C14.5872 37.4469 15.7013 38.6158 15.7013 38.6158C15.7013 38.6158 16.7861 37.4469 17.05 37.2131H16.9913Z" fill="#D6002B"/>
<path d="M103.393 145.162C102.894 145.6 102.367 145.951 101.839 146.331C101.253 146.769 100.637 147.149 100.168 147.675C99.7866 148.113 99.6107 148.581 99.4055 149.136C99.2296 149.692 99.2002 150.919 99.5227 151.416C100.432 152.877 102.953 154.133 104.624 150.948C104.624 150.89 104.683 150.86 104.741 150.86C104.741 150.86 104.829 150.86 104.859 150.948C106.53 154.133 109.051 152.877 109.96 151.416C110.283 150.919 110.253 149.721 110.048 149.136C109.872 148.581 109.667 148.143 109.286 147.675C108.817 147.12 108.201 146.74 107.615 146.331C107.087 145.951 106.53 145.6 106.061 145.162C105.826 144.928 104.712 143.759 104.712 143.759C104.712 143.759 103.627 144.928 103.363 145.162H103.393Z" fill="#D6002B"/>
<path d="M20.5096 24.2968L18.4866 24.2384L18.6039 20.2348L10.2775 19.9718L10.3361 18.5691L18.4573 7.11377L21.0666 7.20143L20.6855 18.686L23.4121 18.7737L23.3535 20.4394L20.6268 20.3517L20.5096 24.3552V24.2968ZM18.6625 18.5691L18.9264 10.6205C18.9264 10.036 18.985 9.42235 19.0144 8.77945C18.6332 9.42235 18.3107 9.91914 18.0469 10.3283L12.5057 18.3645L18.6625 18.5691Z" fill="#D6002B"/>
<path d="M99.7865 157.845L101.809 157.904L101.692 161.907L110.019 162.17L109.96 163.573L101.839 175.058L99.2294 174.97L99.6106 163.485L96.884 163.398L96.9426 161.732L99.6692 161.82L99.7865 157.816V157.845ZM101.634 163.573L101.37 171.492C101.37 172.077 101.311 172.691 101.282 173.334C101.663 172.691 101.985 172.194 102.249 171.785L107.79 163.748L101.634 163.544V163.573Z" fill="#D6002B"/>
<path d="M44.316 34.9918C45.694 33.7352 47.2185 32.8001 48.7138 31.6896C50.3556 30.4915 52.0854 29.4102 53.4047 27.8614C54.4895 26.6048 54.9879 25.3483 55.5156 23.7702C56.0434 22.1922 56.102 18.8024 55.2224 17.3997C52.6717 13.3377 45.5474 9.77248 40.8565 18.7439C40.7978 18.8608 40.6512 18.9485 40.534 18.9485C40.534 18.9485 40.2701 18.8608 40.2115 18.7439C35.5205 9.77248 28.3962 13.3377 25.8455 17.3997C24.9659 18.8024 25.0245 22.1922 25.5523 23.7702C26.08 25.3483 26.5784 26.6048 27.6632 27.8614C28.9825 29.4102 30.7123 30.4623 32.3541 31.6896C33.8493 32.8001 35.3739 33.7644 36.7519 34.9918C37.4555 35.6055 40.534 38.9077 40.534 38.9077C40.534 38.9077 43.6124 35.6055 44.316 34.9918V34.9918Z" fill="#D6002B"/>
<path d="M83.4852 34.9918C84.8631 33.7352 86.3877 32.8001 87.8829 31.6896C89.5247 30.4915 91.2545 29.4102 92.5739 27.8614C93.6586 26.6048 94.157 25.3483 94.6848 23.7702C95.2125 22.1922 95.2711 18.8024 94.3916 17.3997C91.8409 13.3377 84.7165 9.77248 80.0256 18.7439C79.967 18.8608 79.8204 18.9485 79.7031 18.9485C79.7031 18.9485 79.4392 18.8608 79.3806 18.7439C74.6897 9.77248 67.5653 13.3377 65.0146 17.3997C64.135 18.8024 64.1937 22.1922 64.7214 23.7702C65.2492 25.3483 65.7476 26.6048 66.8324 27.8614C68.1517 29.4102 69.8814 30.4623 71.5233 31.6896C73.0185 32.8001 74.5431 33.7644 75.921 34.9918C76.6247 35.6055 79.7031 38.9077 79.7031 38.9077C79.7031 38.9077 82.7815 35.6055 83.4852 34.9918V34.9918Z" fill="#D6002B"/>
<path d="M75.9211 147.149C74.5432 148.406 73.0186 149.341 71.5234 150.451C69.8816 151.65 68.1518 152.731 66.8325 154.28C65.7477 155.565 65.2493 156.793 64.7215 158.371C64.1938 159.949 64.1058 163.339 65.0147 164.741C67.5654 168.803 74.6898 172.369 79.3807 163.397C79.4394 163.28 79.586 163.193 79.7032 163.193C79.7032 163.193 79.9671 163.28 80.0257 163.397C84.7167 172.369 91.8117 168.803 94.3917 164.741C95.2713 163.339 95.2126 159.949 94.6849 158.371C94.1572 156.793 93.6588 155.536 92.574 154.28C91.2547 152.731 89.5249 151.679 87.883 150.451C86.3878 149.341 84.8632 148.377 83.4853 147.149C82.7816 146.536 79.7032 143.233 79.7032 143.233C79.7032 143.233 76.6248 146.536 75.9211 147.149V147.149Z" fill="#D6002B"/>
<path d="M36.7812 147.149C35.4032 148.406 33.8787 149.341 32.3834 150.451C30.7416 151.65 29.0118 152.731 27.6925 154.28C26.6077 155.565 26.1093 156.793 25.5815 158.371C25.0538 159.949 24.9952 163.339 25.8747 164.741C28.4254 168.803 35.5498 172.369 40.2407 163.397C40.2994 163.28 40.4459 163.193 40.5632 163.193C40.5632 163.193 40.8271 163.28 40.8857 163.397C45.5767 172.369 52.701 168.803 55.2517 164.741C56.1313 163.339 56.0726 159.949 55.5449 158.371C55.0172 156.793 54.5188 155.536 53.434 154.28C52.1146 152.731 50.3849 151.679 48.7431 150.451C47.2478 149.341 45.7233 148.377 44.3453 147.149C43.6417 146.536 40.5632 143.233 40.5632 143.233C40.5632 143.233 37.4848 146.536 36.7812 147.149V147.149Z" fill="#D6002B"/>
</g>
<defs>
<filter id="filter0_d_59_6203" x="0.397217" y="0.33374" width="119.472" height="185.474" filterUnits="userSpaceOnUse" color-interpolation-filters="sRGB">
<feFlood flood-opacity="0" result="BackgroundImageFix"/>
<feColorMatrix in="SourceAlpha" type="matrix" values="0 0 0 0 0 0 0 0 0 0 0 0 0 0 0 0 0 0 127 0" result="hardAlpha"/>
<feOffset dy="4"/>
<feComposite in2="hardAlpha" operator="out"/>
<feColorMatrix type="matrix" values="0 0 0 0 0 0 0 0 0 0 0 0 0 0 0 0 0 0 0.25 0"/>
<feBlend mode="normal" in2="BackgroundImageFix" result="effect1_dropShadow_59_6203"/>
<feBlend mode="normal" in="SourceGraphic" in2="effect1_dropShadow_59_6203" result="shape"/>
</filter>
</defs>
</svg>
